M48
; DRILL file {KiCad 8.0.4} date 2025-03-15T02:49:38-0400
; FORMAT={-:-/ absolute / inch / decimal}
; #@! TF.CreationDate,2025-03-15T02:49:38-04:00
; #@! TF.GenerationSoftware,Kicad,Pcbnew,8.0.4
; #@! TF.FileFunction,Plated,1,2,PTH
FMAT,2
INCH
; #@! TA.AperFunction,Plated,PTH,ViaDrill
T1C0.0120
; #@! TA.AperFunction,Plated,PTH,ComponentDrill
T2C0.0295
; #@! TA.AperFunction,Plated,PTH,ComponentDrill
T3C0.0340
; #@! TA.AperFunction,Plated,PTH,ComponentDrill
T4C0.0430
; #@! TA.AperFunction,Plated,PTH,ViaDrill
T5C0.0750
; #@! TA.AperFunction,Plated,PTH,ComponentDrill
T6C0.1024
; #@! TA.AperFunction,Plated,PTH,ComponentDrill
T7C0.1732
%
G90
G05
T1
X-2.205Y1.9
X-2.205Y0.99
X-2.2Y0.54
X-2.2Y-1.89
X-2.195Y-0.02
X-2.19Y1.515
X-2.08Y0.43
X-2.06Y1.41
X-1.94Y1.965
X-1.94Y1.885
X-1.94Y1.81
X-1.94Y1.725
X-1.9Y0.765
X-1.88Y-1.455
X-1.86Y0.97
X-1.85Y-1.675
X-1.825Y0.58
X-1.795Y1.54
X-1.76Y0.66
X-1.755Y-1.525
X-1.75Y-1.11
X-1.735Y0.5
X-1.723Y0.598
X-1.7Y1.935
X-1.62Y0.82
X-1.605Y-1.26
X-1.545Y-2.46
X-1.54Y2.44
X-1.54Y0.435
X-1.54Y-1.05
X-1.495Y-1.99
X-1.445Y-1.055
X-1.435Y2.08
X-1.4Y-0.935
X-1.395Y1.895
X-1.22Y-1.745
X-1.205Y-2.245
X-1.2Y-1.41
X-1.105Y-1.255
X-1.085Y-0.515
X-1.02Y-1.91
X-0.98Y2.425
X-0.925Y-1.725
X-0.825Y1.735
X-0.805Y0.12
X-0.8Y1.945
X-0.785Y-2.245
X-0.76Y-0.52
X-0.64Y-0.155
X-0.56Y1.89
X-0.56Y1.815
X-0.56Y1.7323
X-0.55Y1.955
X-0.55Y1.645
X-0.26Y-0.745
X-0.24Y-2.14
X-0.195Y0.91
X-0.195Y-1.25
X-0.19Y-1.56
X-0.055Y-2.135
X0.145Y0.35
X0.155Y-0.315
X0.205Y-0.265
X0.225Y-2.175
X0.235Y-0.2312
X0.26Y-0.2
X0.29Y-0.17
X0.345Y0.2
X0.45Y-1.02
X0.605Y-1.255
X0.64Y0.985
X0.645Y-0.95
X0.695Y-1.485
X0.72Y-0.48
X0.72Y-0.57
X0.72Y-1.085
X0.725Y0.44
X0.84Y-0.98
X0.85Y-0.735
X0.915Y-0.29
X0.92Y0.845
X0.925Y-0.245
X0.93Y-0.125
X0.955Y-0.2088
X0.96Y2.445
X0.985Y-0.175
X1.015Y2.16
X1.04Y0.395
X1.045Y0.105
X1.06Y-0.34
X1.065Y-1.025
X1.21Y-1.48
X1.425Y2.075
X1.45Y0.39
X1.45Y-0.335
X1.455Y0.11
X1.48Y0.905
X1.49Y1.22
X1.49Y1.0
X1.5Y-1.09
X1.5194Y1.26
X1.52Y1.03
X1.545Y-0.345
X1.55Y-0.07
X1.555Y2.425
X1.565Y-2.455
X1.6Y-0.16
X1.6Y-0.295
X1.605Y1.055
X1.6494Y-0.16
X1.6494Y-0.295
X1.71Y-0.13
X1.715Y-0.33
X1.715Y-1.105
X1.78Y1.245
X1.78Y0.235
X1.795Y-1.285
X1.895Y0.085
X2.185Y1.51
X2.185Y0.985
X2.185Y0.505
X2.195Y1.905
X2.195Y-0.01
X2.2Y-1.895
T2
X-1.7913Y2.0472
X-1.7913Y1.9685
X-1.7913Y1.8898
X-1.7913Y1.811
X-1.7913Y1.7323
X-1.7913Y1.6535
X-1.55Y0.7075
X-1.55Y0.6287
X-1.55Y0.55
X-0.7087Y2.0472
X-0.7087Y1.9685
X-0.7087Y1.8898
X-0.7087Y1.811
X-0.7087Y1.7323
X-0.7087Y1.6535
X-0.4037Y1.125
X-0.325Y1.125
X0.2713Y-2.0
X0.35Y-2.0
X0.374Y1.1417
X0.4287Y-2.0
X0.4528Y1.1417
X0.7283Y2.0669
X0.7283Y1.9882
X0.7283Y1.9094
X0.7283Y1.8307
X0.7283Y1.752
X0.7283Y1.6732
X1.0563Y-0.225
X1.135Y-0.225
X1.2138Y-0.225
X1.2925Y-0.225
X1.3713Y-0.225
X1.45Y-0.225
X1.6713Y1.811
X1.75Y1.811
T3
X-1.95Y0.8722
X-1.95Y0.6753
T4
X-1.65Y-1.1545
X-1.65Y-1.3455
X-1.55Y-1.1545
X-1.55Y-1.3455
X-1.45Y-1.1545
X-1.45Y-1.3455
X-1.35Y-1.1545
X-1.35Y-1.3455
X-1.25Y-1.1545
X-1.25Y-1.3455
X-1.15Y-1.1545
X-1.15Y-1.3455
X-1.05Y-1.1545
X-1.05Y-1.3455
X-0.95Y-1.1545
X-0.95Y-1.3455
X-0.85Y-1.1545
X-0.85Y-1.3455
X-0.75Y-1.1545
X-0.75Y-1.3455
X-0.65Y-1.1545
X-0.65Y-1.3455
X-0.55Y-1.1545
X-0.55Y-1.3455
X-0.45Y-1.1545
X-0.45Y-1.3455
X-0.35Y-1.1545
X-0.35Y-1.3455
X-0.25Y-1.1545
X-0.25Y-1.3455
X-0.15Y-1.1545
X-0.15Y-1.3455
X-0.05Y-1.1545
X-0.05Y-1.3455
X0.05Y-1.1545
X0.05Y-1.3455
X0.15Y-1.1545
X0.15Y-1.3455
X0.25Y-1.1545
X0.25Y-1.3455
X0.35Y-1.1545
X0.35Y-1.3455
X0.45Y-1.1545
X0.45Y-1.3455
X0.55Y-1.1545
X0.55Y-1.3455
X0.65Y-1.1545
X0.65Y-1.3455
X0.75Y-1.1545
X0.75Y-1.3455
X0.85Y-1.1545
X0.85Y-1.3455
X0.95Y-1.1545
X0.95Y-1.3455
X1.05Y-1.1545
X1.05Y-1.3455
X1.15Y-1.1545
X1.15Y-1.3455
X1.25Y-1.1545
X1.25Y-1.3455
X1.35Y-1.1545
X1.35Y-1.3455
X1.45Y-1.1545
X1.45Y-1.3455
X1.55Y-1.1545
X1.55Y-1.3455
X1.65Y-1.1545
X1.65Y-1.3455
T5
X-1.8943Y-1.34
T6
X-0.35Y-1.725
X-0.35Y-1.8628
X-0.35Y-2.0006
T7
X-0.65Y0.8417
X-0.65Y0.5583
X-0.65Y-0.3583
X-0.65Y-0.6417
X0.65Y0.2417
X0.65Y-0.0417
M30
