%TF.GenerationSoftware,KiCad,Pcbnew,8.0.4*%
%TF.CreationDate,2025-03-15T02:49:38-04:00*%
%TF.ProjectId,erie_rov_connector_board,65726965-5f72-46f7-965f-636f6e6e6563,rev?*%
%TF.SameCoordinates,Original*%
%TF.FileFunction,Profile,NP*%
%FSLAX46Y46*%
G04 Gerber Fmt 4.6, Leading zero omitted, Abs format (unit mm)*
G04 Created by KiCad (PCBNEW 8.0.4) date 2025-03-15 02:49:38*
%MOMM*%
%LPD*%
G01*
G04 APERTURE LIST*
%TA.AperFunction,Profile*%
%ADD10C,0.150000*%
%TD*%
G04 APERTURE END LIST*
D10*
X-29250000Y24500000D02*
X-29250000Y27133455D01*
X39000000Y3850000D02*
X39000000Y8850000D01*
X55438190Y1386916D02*
G75*
G02*
X57149932Y-1014272I-828190J-2401116D01*
G01*
X40591922Y63096129D02*
G75*
G02*
X56523616Y49334638I-40591922J-63096129D01*
G01*
X-26500000Y57150000D02*
X-26500000Y60959999D01*
X37000000Y57150000D02*
X37000000Y60960000D01*
X-39378838Y63494882D02*
G75*
G02*
X-37000000Y60959999I-161162J-2534882D01*
G01*
X-29250000Y39000000D02*
X-34250000Y39000000D01*
X-26500000Y57150000D02*
G75*
G02*
X-37000000Y57150000I-5250000J0D01*
G01*
X-57150000Y-1014272D02*
G75*
G02*
X-55438181Y1386891I2540000J-28D01*
G01*
X-26500000Y6350000D02*
G75*
G02*
X-37000000Y6350000I-5250000J0D01*
G01*
X-37000000Y6350000D02*
G75*
G02*
X-26500000Y6350000I5250000J0D01*
G01*
X20424000Y58102500D02*
G75*
G02*
X18024000Y58102500I-1200000J0D01*
G01*
X18024000Y58102500D02*
G75*
G02*
X20424000Y58102500I1200000J0D01*
G01*
X26500000Y60960000D02*
X26500000Y57150000D01*
X-40591922Y-63096129D02*
G75*
G02*
X-56523616Y-49334638I40591922J63096129D01*
G01*
X24500000Y8850000D02*
X24500000Y3850000D01*
X-34250000Y27133454D02*
X-34250000Y24500000D01*
X57150000Y-47664400D02*
G75*
G02*
X56523613Y-49334635I-2540000J0D01*
G01*
X56523616Y49334638D02*
G75*
G02*
X57150004Y47664400I-1913616J-1670238D01*
G01*
X-39217681Y-63500000D02*
G75*
G02*
X-40591929Y-63096140I-19J2540000D01*
G01*
X-55438191Y11314811D02*
G75*
G02*
X-55437658Y1385373I-1711809J-4964811D01*
G01*
X24500000Y3850000D02*
X27133455Y3850000D01*
X-40591922Y63096129D02*
G75*
G02*
X-39378837Y63494870I1374222J-2136129D01*
G01*
X-57150000Y-1014272D02*
X-57150000Y-47664406D01*
X-57150000Y47664408D02*
G75*
G02*
X-56523613Y49334635I2540000J-8D01*
G01*
X37000000Y-50800000D02*
G75*
G02*
X26500000Y-50800000I-5250000J0D01*
G01*
X26500000Y-50800000D02*
G75*
G02*
X37000000Y-50800000I5250000J0D01*
G01*
X55438190Y26786916D02*
G75*
G02*
X55438190Y36713084I1711810J4963084D01*
G01*
X57150000Y39114300D02*
X57150000Y47664400D01*
X37000000Y57150000D02*
G75*
G02*
X26500000Y57150000I-5250000J0D01*
G01*
X-34250000Y39000000D02*
X-34250000Y36366545D01*
X37000000Y60960000D02*
G75*
G02*
X39378838Y63494882I2540000J0D01*
G01*
X-57150000Y47664408D02*
X-57150000Y39116000D01*
X-34250000Y27133454D02*
G75*
G02*
X-34250000Y36366546I2500000J4616546D01*
G01*
X-55438190Y36713084D02*
G75*
G02*
X-55438190Y26786916I-1711810J-4963084D01*
G01*
X55438190Y26786916D02*
G75*
G02*
X57149932Y24385728I-828190J-2401116D01*
G01*
X-56523616Y49334638D02*
G75*
G02*
X-40591922Y63096129I56523616J-49334638D01*
G01*
X39000000Y8850000D02*
X36366546Y8850000D01*
X-55438191Y11314812D02*
G75*
G02*
X-57150001Y13716000I828191J2401188D01*
G01*
X-18024000Y58102500D02*
G75*
G02*
X-20424000Y58102500I-1200000J0D01*
G01*
X-20424000Y58102500D02*
G75*
G02*
X-18024000Y58102500I1200000J0D01*
G01*
X27133454Y8850000D02*
X24500000Y8850000D01*
X-29250000Y36366545D02*
X-29250000Y39000000D01*
X36366545Y3850000D02*
X39000000Y3850000D01*
X56523616Y-49334638D02*
G75*
G02*
X40591922Y-63096129I-56523616J49334638D01*
G01*
X40591922Y-63096129D02*
G75*
G02*
X39228641Y-63500023I-1374422J2136429D01*
G01*
X-29250000Y36366545D02*
G75*
G02*
X-29250000Y27133455I-2500000J-4616545D01*
G01*
X36366545Y3850000D02*
G75*
G02*
X27133455Y3850000I-4616545J2499998D01*
G01*
X-26500000Y60959999D02*
G75*
G02*
X-23959999Y63500000I2540000J1D01*
G01*
X-37000000Y60959999D02*
X-37000000Y57150000D01*
X23960000Y63500000D02*
G75*
G02*
X26500000Y60960000I0J-2540000D01*
G01*
X-26500000Y-50800000D02*
G75*
G02*
X-37000000Y-50800000I-5250000J0D01*
G01*
X-37000000Y-50800000D02*
G75*
G02*
X-26500000Y-50800000I5250000J0D01*
G01*
X37000000Y31750000D02*
G75*
G02*
X26500000Y31750000I-5250000J0D01*
G01*
X26500000Y31750000D02*
G75*
G02*
X37000000Y31750000I5250000J0D01*
G01*
X-1340000Y28591500D02*
G75*
G02*
X-3740000Y28591500I-1200000J0D01*
G01*
X-3740000Y28591500D02*
G75*
G02*
X-1340000Y28591500I1200000J0D01*
G01*
X23960000Y63500000D02*
X-23959999Y63500000D01*
X-57150000Y24385728D02*
X-57150000Y13716000D01*
X27133454Y8850000D02*
G75*
G02*
X36366546Y8850000I4616546J-2499999D01*
G01*
X39378838Y63494882D02*
G75*
G02*
X40591911Y63096112I-161138J-2534682D01*
G01*
X57150000Y-47664400D02*
X57150000Y-1014272D01*
X55438190Y1386916D02*
G75*
G02*
X55438190Y11313084I1711810J4963084D01*
G01*
X-34250000Y24500000D02*
X-29250000Y24500000D01*
X57150000Y39114300D02*
G75*
G02*
X55438181Y36713109I-2540000J0D01*
G01*
X-56523616Y-49334638D02*
G75*
G02*
X-57150004Y-47664406I1913616J1670238D01*
G01*
X-39217681Y-63500000D02*
X39228641Y-63500000D01*
X-57150000Y24385728D02*
G75*
G02*
X-55438181Y26786891I2540000J-28D01*
G01*
X-55438191Y36714812D02*
G75*
G02*
X-57150001Y39116000I828191J2401188D01*
G01*
X57150000Y13714300D02*
G75*
G02*
X55438181Y11313109I-2540000J0D01*
G01*
X57150000Y13714300D02*
X57150000Y24385728D01*
M02*
