%TF.GenerationSoftware,KiCad,Pcbnew,8.0.4*%
%TF.CreationDate,2025-03-13T14:18:39-04:00*%
%TF.ProjectId,erie_rov_connector_board,65726965-5f72-46f7-965f-636f6e6e6563,rev?*%
%TF.SameCoordinates,Original*%
%TF.FileFunction,Legend,Bot*%
%TF.FilePolarity,Positive*%
%FSLAX46Y46*%
G04 Gerber Fmt 4.6, Leading zero omitted, Abs format (unit mm)*
G04 Created by KiCad (PCBNEW 8.0.4) date 2025-03-13 14:18:39*
%MOMM*%
%LPD*%
G01*
G04 APERTURE LIST*
G04 Aperture macros list*
%AMRoundRect*
0 Rectangle with rounded corners*
0 $1 Rounding radius*
0 $2 $3 $4 $5 $6 $7 $8 $9 X,Y pos of 4 corners*
0 Add a 4 corners polygon primitive as box body*
4,1,4,$2,$3,$4,$5,$6,$7,$8,$9,$2,$3,0*
0 Add four circle primitives for the rounded corners*
1,1,$1+$1,$2,$3*
1,1,$1+$1,$4,$5*
1,1,$1+$1,$6,$7*
1,1,$1+$1,$8,$9*
0 Add four rect primitives between the rounded corners*
20,1,$1+$1,$2,$3,$4,$5,0*
20,1,$1+$1,$4,$5,$6,$7,0*
20,1,$1+$1,$6,$7,$8,$9,0*
20,1,$1+$1,$8,$9,$2,$3,0*%
G04 Aperture macros list end*
%ADD10C,0.508000*%
%ADD11RoundRect,0.264583X-0.610417X0.370417X-0.610417X-0.370417X0.610417X-0.370417X0.610417X0.370417X0*%
%ADD12O,1.750000X1.270000*%
%ADD13RoundRect,0.264583X0.370417X0.610417X-0.370417X0.610417X-0.370417X-0.610417X0.370417X-0.610417X0*%
%ADD14O,1.270000X1.750000*%
%ADD15C,5.800000*%
%ADD16C,1.371600*%
%ADD17RoundRect,0.264583X-0.370417X-0.610417X0.370417X-0.610417X0.370417X0.610417X-0.370417X0.610417X0*%
%ADD18C,1.600200*%
%ADD19C,3.200000*%
%ADD20RoundRect,0.264583X0.610417X-0.370417X0.610417X0.370417X-0.610417X0.370417X-0.610417X-0.370417X0*%
G04 APERTURE END LIST*
D10*
%TO.C,J1*%
X-48133000Y-29324300D02*
G75*
G02*
X-48895000Y-29324300I-381000J0D01*
G01*
X-48895000Y-29324300D02*
G75*
G02*
X-48133000Y-29324300I381000J0D01*
G01*
%TD*%
%LPC*%
D11*
%TO.C,J9*%
X18500000Y52500000D03*
D12*
X18500000Y50500000D03*
X18500000Y48500000D03*
X18500000Y46500000D03*
X18500000Y44500000D03*
X18500000Y42500000D03*
%TD*%
D13*
%TO.C,J14*%
X36830000Y-5715000D03*
D14*
X34830000Y-5715000D03*
X32830000Y-5715000D03*
X30830000Y-5715000D03*
X28830000Y-5715000D03*
X26830000Y-5715000D03*
%TD*%
D13*
%TO.C,J11*%
X11500000Y29000000D03*
D14*
X9500000Y29000000D03*
%TD*%
D15*
%TO.C,J2*%
X-16510000Y21380000D03*
X-16510000Y14180000D03*
%TD*%
D16*
%TO.C,C1*%
X-49530000Y22153250D03*
X-49530000Y17153250D03*
%TD*%
D13*
%TO.C,J10*%
X44450000Y46000000D03*
D14*
X42450000Y46000000D03*
%TD*%
D17*
%TO.C,J6*%
X6890000Y-50800000D03*
D14*
X8890000Y-50800000D03*
X10890000Y-50800000D03*
%TD*%
D18*
%TO.C,J1*%
X-41910000Y-29324300D03*
X-39370000Y-29324300D03*
X-36830000Y-29324300D03*
X-34290000Y-29324300D03*
X-31750000Y-29324300D03*
X-29210000Y-29324300D03*
X-26670000Y-29324300D03*
X-24130000Y-29324300D03*
X-21590000Y-29324300D03*
X-19050000Y-29324300D03*
X-16510000Y-29324300D03*
X-13970000Y-29324300D03*
X-11430000Y-29324300D03*
X-8890000Y-29324300D03*
X-6350000Y-29324300D03*
X-3810000Y-29324300D03*
X-1270000Y-29324300D03*
X1270000Y-29324300D03*
X3810000Y-29324300D03*
X6350000Y-29324300D03*
X8890000Y-29324300D03*
X11430000Y-29324300D03*
X13970000Y-29324300D03*
X16510000Y-29324300D03*
X19050000Y-29324300D03*
X21590000Y-29324300D03*
X24130000Y-29324300D03*
X26670000Y-29324300D03*
X29210000Y-29324300D03*
X31750000Y-29324300D03*
X34290000Y-29324300D03*
X36830000Y-29324300D03*
X39370000Y-29324300D03*
X41910000Y-29324300D03*
X41910000Y-34175700D03*
X39370000Y-34175700D03*
X36830000Y-34175700D03*
X34290000Y-34175700D03*
X31750000Y-34175700D03*
X29210000Y-34175700D03*
X26670000Y-34175700D03*
X24130000Y-34175700D03*
X21590000Y-34175700D03*
X19050000Y-34175700D03*
X16510000Y-34175700D03*
X13970000Y-34175700D03*
X11430000Y-34175700D03*
X8890000Y-34175700D03*
X6350000Y-34175700D03*
X3810000Y-34175700D03*
X1270000Y-34175700D03*
X-1270000Y-34175700D03*
X-3810000Y-34175700D03*
X-6350000Y-34175700D03*
X-8890000Y-34175700D03*
X-11430000Y-34175700D03*
X-13970000Y-34175700D03*
X-16510000Y-34175700D03*
X-19050000Y-34175700D03*
X-21590000Y-34175700D03*
X-24130000Y-34175700D03*
X-26670000Y-34175700D03*
X-29210000Y-34175700D03*
X-31750000Y-34175700D03*
X-34290000Y-34175700D03*
X-36830000Y-34175700D03*
X-39370000Y-34175700D03*
X-41910000Y-34175700D03*
%TD*%
D15*
%TO.C,J4*%
X16510000Y6140000D03*
X16510000Y-1060000D03*
%TD*%
D19*
%TO.C,J5*%
X-8890000Y-43815000D03*
X-8890000Y-47315000D03*
X-8890000Y-50815000D03*
%TD*%
D11*
%TO.C,J7*%
X-45500000Y52000000D03*
D12*
X-45500000Y50000000D03*
X-45500000Y48000000D03*
X-45500000Y46000000D03*
X-45500000Y44000000D03*
X-45500000Y42000000D03*
%TD*%
D13*
%TO.C,J12*%
X-8255000Y28575000D03*
D14*
X-10255000Y28575000D03*
%TD*%
D20*
%TO.C,J8*%
X-18000000Y42000000D03*
D12*
X-18000000Y44000000D03*
X-18000000Y46000000D03*
X-18000000Y48000000D03*
X-18000000Y50000000D03*
X-18000000Y52000000D03*
%TD*%
D15*
%TO.C,J3*%
X-16510000Y-9100000D03*
X-16510000Y-16300000D03*
%TD*%
D11*
%TO.C,J13*%
X-39370000Y17970000D03*
D12*
X-39370000Y15970000D03*
X-39370000Y13970000D03*
%TD*%
%LPD*%
M02*
