%TF.GenerationSoftware,KiCad,Pcbnew,8.0.4*%
%TF.CreationDate,2025-03-15T02:49:37-04:00*%
%TF.ProjectId,erie_rov_connector_board,65726965-5f72-46f7-965f-636f6e6e6563,rev?*%
%TF.SameCoordinates,Original*%
%TF.FileFunction,Copper,L1,Top*%
%TF.FilePolarity,Positive*%
%FSLAX46Y46*%
G04 Gerber Fmt 4.6, Leading zero omitted, Abs format (unit mm)*
G04 Created by KiCad (PCBNEW 8.0.4) date 2025-03-15 02:49:37*
%MOMM*%
%LPD*%
G01*
G04 APERTURE LIST*
G04 Aperture macros list*
%AMRoundRect*
0 Rectangle with rounded corners*
0 $1 Rounding radius*
0 $2 $3 $4 $5 $6 $7 $8 $9 X,Y pos of 4 corners*
0 Add a 4 corners polygon primitive as box body*
4,1,4,$2,$3,$4,$5,$6,$7,$8,$9,$2,$3,0*
0 Add four circle primitives for the rounded corners*
1,1,$1+$1,$2,$3*
1,1,$1+$1,$4,$5*
1,1,$1+$1,$6,$7*
1,1,$1+$1,$8,$9*
0 Add four rect primitives between the rounded corners*
20,1,$1+$1,$2,$3,$4,$5,0*
20,1,$1+$1,$4,$5,$6,$7,0*
20,1,$1+$1,$6,$7,$8,$9,0*
20,1,$1+$1,$8,$9,$2,$3,0*%
G04 Aperture macros list end*
%TA.AperFunction,ComponentPad*%
%ADD10RoundRect,0.264583X-0.610417X0.370417X-0.610417X-0.370417X0.610417X-0.370417X0.610417X0.370417X0*%
%TD*%
%TA.AperFunction,ComponentPad*%
%ADD11O,1.750000X1.270000*%
%TD*%
%TA.AperFunction,ComponentPad*%
%ADD12RoundRect,0.264583X0.370417X0.610417X-0.370417X0.610417X-0.370417X-0.610417X0.370417X-0.610417X0*%
%TD*%
%TA.AperFunction,ComponentPad*%
%ADD13O,1.270000X1.750000*%
%TD*%
%TA.AperFunction,ComponentPad*%
%ADD14C,5.800000*%
%TD*%
%TA.AperFunction,ComponentPad*%
%ADD15C,1.371600*%
%TD*%
%TA.AperFunction,ComponentPad*%
%ADD16RoundRect,0.264583X-0.370417X-0.610417X0.370417X-0.610417X0.370417X0.610417X-0.370417X0.610417X0*%
%TD*%
%TA.AperFunction,ComponentPad*%
%ADD17C,1.600200*%
%TD*%
%TA.AperFunction,ComponentPad*%
%ADD18C,3.200000*%
%TD*%
%TA.AperFunction,ComponentPad*%
%ADD19RoundRect,0.264583X0.610417X-0.370417X0.610417X0.370417X-0.610417X0.370417X-0.610417X-0.370417X0*%
%TD*%
%TA.AperFunction,ViaPad*%
%ADD20C,0.812800*%
%TD*%
%TA.AperFunction,ViaPad*%
%ADD21C,3.175000*%
%TD*%
%TA.AperFunction,Conductor*%
%ADD22C,5.080000*%
%TD*%
%TA.AperFunction,Conductor*%
%ADD23C,2.540000*%
%TD*%
%TA.AperFunction,Conductor*%
%ADD24C,0.250000*%
%TD*%
%TA.AperFunction,Conductor*%
%ADD25C,1.905000*%
%TD*%
G04 APERTURE END LIST*
D10*
%TO.P,J9,1,Pin_1*%
%TO.N,+5V*%
X18500000Y52500000D03*
D11*
%TO.P,J9,2,Pin_2*%
%TO.N,OSD_TX*%
X18500000Y50500000D03*
%TO.P,J9,3,Pin_3*%
%TO.N,OSD_RX*%
X18500000Y48500000D03*
%TO.P,J9,4,Pin_4*%
%TO.N,unconnected-(J9-Pin_4-Pad4)*%
X18500000Y46500000D03*
%TO.P,J9,5,Pin_5*%
%TO.N,unconnected-(J9-Pin_5-Pad5)*%
X18500000Y44500000D03*
%TO.P,J9,6,Pin_6*%
%TO.N,GND*%
X18500000Y42500000D03*
%TD*%
D12*
%TO.P,J14,1,Pin_1*%
%TO.N,+5V*%
X36830000Y-5715000D03*
D13*
%TO.P,J14,2,Pin_2*%
%TO.N,EXP_1*%
X34830000Y-5715000D03*
%TO.P,J14,3,Pin_3*%
%TO.N,EXP_2*%
X32830000Y-5715000D03*
%TO.P,J14,4,Pin_4*%
%TO.N,EXP_3*%
X30830000Y-5715000D03*
%TO.P,J14,5,Pin_5*%
%TO.N,EXP_4*%
X28830000Y-5715000D03*
%TO.P,J14,6,Pin_6*%
%TO.N,GND*%
X26830000Y-5715000D03*
%TD*%
D12*
%TO.P,J11,1,Pin_1*%
%TO.N,VID_PWR*%
X11500000Y29000000D03*
D13*
%TO.P,J11,2,Pin_2*%
%TO.N,GND*%
X9500000Y29000000D03*
%TD*%
D14*
%TO.P,J2,1,-*%
%TO.N,GND*%
X-16510000Y21380000D03*
%TO.P,J2,2,+*%
%TO.N,PNL+*%
X-16510000Y14180000D03*
%TD*%
D15*
%TO.P,C1,1*%
%TO.N,5V_AUX*%
X-49530000Y22153250D03*
%TO.P,C1,2*%
%TO.N,GND*%
X-49530000Y17153250D03*
%TD*%
D12*
%TO.P,J10,1,Pin_1*%
%TO.N,VID_PWR*%
X44450000Y46000000D03*
D13*
%TO.P,J10,2,Pin_2*%
%TO.N,GND*%
X42450000Y46000000D03*
%TD*%
D16*
%TO.P,J6,1,Pin_1*%
%TO.N,5V_AUX*%
X6890000Y-50800000D03*
D13*
%TO.P,J6,2,Pin_2*%
%TO.N,RDR_PWM*%
X8890000Y-50800000D03*
%TO.P,J6,3,Pin_3*%
%TO.N,GND*%
X10890000Y-50800000D03*
%TD*%
D17*
%TO.P,J1,1,P1a*%
%TO.N,5V_AUX*%
X-41910000Y-29324300D03*
%TO.P,J1,2,P1b*%
X-39370000Y-29324300D03*
%TO.P,J1,3,P1c*%
X-36830000Y-29324300D03*
%TO.P,J1,4,P2a*%
%TO.N,PNL+*%
X-34290000Y-29324300D03*
%TO.P,J1,5,P2b*%
X-31750000Y-29324300D03*
%TO.P,J1,6,P2c*%
X-29210000Y-29324300D03*
%TO.P,J1,7,P3a*%
%TO.N,BATT_CC*%
X-26670000Y-29324300D03*
%TO.P,J1,8,P3b*%
X-24130000Y-29324300D03*
%TO.P,J1,9,P3c*%
X-21590000Y-29324300D03*
%TO.P,J1,10,P4a*%
%TO.N,BATT_SW*%
X-19050000Y-29324300D03*
%TO.P,J1,11,P4b*%
X-16510000Y-29324300D03*
%TO.P,J1,12,P4c*%
X-13970000Y-29324300D03*
%TO.P,J1,13,P5a*%
%TO.N,LOAD_SW*%
X-11430000Y-29324300D03*
%TO.P,J1,14,P5b*%
X-8890000Y-29324300D03*
%TO.P,J1,15,P5c*%
X-6350000Y-29324300D03*
%TO.P,J1,16,P6a*%
%TO.N,LOAD_CC*%
X-3810000Y-29324300D03*
%TO.P,J1,17,P6b*%
X-1270000Y-29324300D03*
%TO.P,J1,18,P6c*%
X1270000Y-29324300D03*
%TO.P,J1,19,P7a*%
%TO.N,GND*%
X3810000Y-29324300D03*
%TO.P,J1,20,P7b*%
X6350000Y-29324300D03*
%TO.P,J1,21,P7c*%
X8890000Y-29324300D03*
%TO.P,J1,22,P8a*%
%TO.N,VID_PWR*%
X11430000Y-29324300D03*
%TO.P,J1,23,P8b*%
X13970000Y-29324300D03*
%TO.P,J1,24,P8c*%
X16510000Y-29324300D03*
%TO.P,J1,25,S1*%
%TO.N,TELEM_TX*%
X19050000Y-29324300D03*
%TO.P,J1,26,S2*%
%TO.N,TELEM_RX*%
X21590000Y-29324300D03*
%TO.P,J1,27,S3*%
%TO.N,TELEM_CTS*%
X24130000Y-29324300D03*
%TO.P,J1,28,S4*%
%TO.N,TELEM_RTS*%
X26670000Y-29324300D03*
%TO.P,J1,29,S5*%
%TO.N,EXP_4*%
X29210000Y-29324300D03*
%TO.P,J1,30,S6*%
%TO.N,EXP_3*%
X31750000Y-29324300D03*
%TO.P,J1,31,S7*%
%TO.N,EXP_2*%
X34290000Y-29324300D03*
%TO.P,J1,32,S8*%
%TO.N,EXP_1*%
X36830000Y-29324300D03*
%TO.P,J1,33,S9*%
%TO.N,OSD_RX*%
X39370000Y-29324300D03*
%TO.P,J1,34,S10*%
%TO.N,OSD_TX*%
X41910000Y-29324300D03*
%TO.P,J1,35,S11*%
%TO.N,unconnected-(J1-S11-Pad35)*%
X41910000Y-34175700D03*
%TO.P,J1,36,S12*%
%TO.N,unconnected-(J1-S12-Pad36)*%
X39370000Y-34175700D03*
%TO.P,J1,37,S13*%
%TO.N,unconnected-(J1-S13-Pad37)*%
X36830000Y-34175700D03*
%TO.P,J1,38,S14*%
%TO.N,unconnected-(J1-S14-Pad38)*%
X34290000Y-34175700D03*
%TO.P,J1,39,S15*%
%TO.N,GPS_TX*%
X31750000Y-34175700D03*
%TO.P,J1,40,S16*%
%TO.N,GPS_RX*%
X29210000Y-34175700D03*
%TO.P,J1,41,S17*%
%TO.N,GPS_SCL*%
X26670000Y-34175700D03*
%TO.P,J1,42,S18*%
%TO.N,GPS_SCA*%
X24130000Y-34175700D03*
%TO.P,J1,43,S19*%
%TO.N,STRB_PWM*%
X21590000Y-34175700D03*
%TO.P,J1,44,S20*%
%TO.N,RDR_PWM*%
X19050000Y-34175700D03*
%TO.P,J1,45,P9a*%
%TO.N,+5V*%
X16510000Y-34175700D03*
%TO.P,J1,46,P9b*%
X13970000Y-34175700D03*
%TO.P,J1,47,P9c*%
X11430000Y-34175700D03*
%TO.P,J1,48,P10a*%
%TO.N,GND*%
X8890000Y-34175700D03*
%TO.P,J1,49,P10b*%
X6350000Y-34175700D03*
%TO.P,J1,50,P10c*%
X3810000Y-34175700D03*
%TO.P,J1,51,P11a*%
X1270000Y-34175700D03*
%TO.P,J1,52,P11b*%
X-1270000Y-34175700D03*
%TO.P,J1,53,P11c*%
X-3810000Y-34175700D03*
%TO.P,J1,54,P12a*%
%TO.N,MTR_B*%
X-6350000Y-34175700D03*
%TO.P,J1,55,P12b*%
X-8890000Y-34175700D03*
%TO.P,J1,56,P12c*%
X-11430000Y-34175700D03*
%TO.P,J1,57,P13a*%
%TO.N,MTR_G*%
X-13970000Y-34175700D03*
%TO.P,J1,58,P13b*%
X-16510000Y-34175700D03*
%TO.P,J1,59,P13c*%
X-19050000Y-34175700D03*
%TO.P,J1,60,P14a*%
%TO.N,MTR_W*%
X-21590000Y-34175700D03*
%TO.P,J1,61,P14b*%
X-24130000Y-34175700D03*
%TO.P,J1,62,P14c*%
X-26670000Y-34175700D03*
%TO.P,J1,63,P15a*%
%TO.N,unconnected-(J1-P15a-Pad63)*%
X-29210000Y-34175700D03*
%TO.P,J1,64,P15b*%
%TO.N,unconnected-(J1-P15b-Pad64)*%
X-31750000Y-34175700D03*
%TO.P,J1,65,P15c*%
%TO.N,unconnected-(J1-P15c-Pad65)*%
X-34290000Y-34175700D03*
%TO.P,J1,66,P16a*%
%TO.N,TELEM_GND*%
X-36830000Y-34175700D03*
%TO.P,J1,67,P16b*%
X-39370000Y-34175700D03*
%TO.P,J1,68,P16c*%
X-41910000Y-34175700D03*
%TD*%
D14*
%TO.P,J4,1,-*%
%TO.N,LOAD_SW*%
X16510000Y6140000D03*
%TO.P,J4,2,+*%
%TO.N,LOAD_CC*%
X16510000Y-1060000D03*
%TD*%
D18*
%TO.P,J5,1,1*%
%TO.N,MTR_B*%
X-8890000Y-43815000D03*
%TO.P,J5,2,2*%
%TO.N,MTR_G*%
X-8890000Y-47315000D03*
%TO.P,J5,3,3*%
%TO.N,MTR_W*%
X-8890000Y-50815000D03*
%TD*%
D10*
%TO.P,J7,1,Pin_1*%
%TO.N,+5V*%
X-45500000Y52000000D03*
D11*
%TO.P,J7,2,Pin_2*%
%TO.N,GPS_TX*%
X-45500000Y50000000D03*
%TO.P,J7,3,Pin_3*%
%TO.N,GPS_RX*%
X-45500000Y48000000D03*
%TO.P,J7,4,Pin_4*%
%TO.N,GPS_SCL*%
X-45500000Y46000000D03*
%TO.P,J7,5,Pin_5*%
%TO.N,GPS_SCA*%
X-45500000Y44000000D03*
%TO.P,J7,6,Pin_6*%
%TO.N,GND*%
X-45500000Y42000000D03*
%TD*%
D12*
%TO.P,J12,1,Pin_1*%
%TO.N,VID_PWR*%
X-8255000Y28575000D03*
D13*
%TO.P,J12,2,Pin_2*%
%TO.N,GND*%
X-10255000Y28575000D03*
%TD*%
D19*
%TO.P,J8,1,Pin_1*%
%TO.N,+5V*%
X-18000000Y42000000D03*
D11*
%TO.P,J8,2,Pin_2*%
%TO.N,TELEM_TX*%
X-18000000Y44000000D03*
%TO.P,J8,3,Pin_3*%
%TO.N,TELEM_RX*%
X-18000000Y46000000D03*
%TO.P,J8,4,Pin_4*%
%TO.N,TELEM_CTS*%
X-18000000Y48000000D03*
%TO.P,J8,5,Pin_5*%
%TO.N,TELEM_RTS*%
X-18000000Y50000000D03*
%TO.P,J8,6,Pin_6*%
%TO.N,TELEM_GND*%
X-18000000Y52000000D03*
%TD*%
D14*
%TO.P,J3,1,-*%
%TO.N,BATT_SW*%
X-16510000Y-9100000D03*
%TO.P,J3,2,+*%
%TO.N,BATT_CC*%
X-16510000Y-16300000D03*
%TD*%
D10*
%TO.P,J13,1,Pin_1*%
%TO.N,5V_AUX*%
X-39370000Y17970000D03*
D11*
%TO.P,J13,2,Pin_2*%
%TO.N,STRB_PWM*%
X-39370000Y15970000D03*
%TO.P,J13,3,Pin_3*%
%TO.N,GND*%
X-39370000Y13970000D03*
%TD*%
D20*
%TO.N,GND*%
X17653000Y-37719000D03*
X45212000Y31623000D03*
X-41148000Y20828000D03*
X-27559000Y-13081000D03*
X-37973000Y-50546000D03*
X-35560000Y-23749000D03*
X-46355000Y14732000D03*
X36830000Y9906000D03*
X-47244000Y24638000D03*
X43434000Y-3302000D03*
X-19304000Y-13208000D03*
X36195000Y52705000D03*
X-1397000Y-54229000D03*
X-44450000Y-28194000D03*
X16383000Y-24130000D03*
X25781000Y54864000D03*
X43561000Y-28067000D03*
X-39243000Y-62484000D03*
X55499000Y38354000D03*
X-16256000Y-3937000D03*
X45593000Y-32639000D03*
X15367000Y-31877000D03*
X-36703000Y-26797000D03*
X18415000Y11176000D03*
X-46990000Y-42545000D03*
X-36449000Y52832000D03*
X-35433000Y48133000D03*
X-13970000Y41783000D03*
X-4953000Y23114000D03*
X-19939000Y-57023000D03*
X55753000Y48387000D03*
X36830000Y-8509000D03*
X23622000Y-3175000D03*
X18288000Y-27559000D03*
X-30480000Y-35814000D03*
X-23495000Y-43815000D03*
X-20447000Y3048000D03*
X-44069000Y12700000D03*
X-43180000Y49149000D03*
X-20320000Y49403000D03*
X-56007000Y48260000D03*
X-55880000Y13716000D03*
X-40767000Y-32004000D03*
X-47752000Y-36957000D03*
X55880000Y-48133000D03*
X-39116000Y-26670000D03*
X-20955000Y44069000D03*
X21336000Y-24892000D03*
X-48260000Y19431000D03*
X8763000Y5080000D03*
X-44577000Y-38735000D03*
X43561000Y-8382000D03*
X-52832000Y10922000D03*
X30734000Y-37592000D03*
X16256000Y25019000D03*
X55753000Y-254000D03*
X55499000Y25019000D03*
X36957000Y2794000D03*
X-4826000Y-39624000D03*
X3683000Y8890000D03*
X-44704000Y16764000D03*
X-30988000Y-44323000D03*
X39751000Y-62357000D03*
X18288000Y-14478000D03*
X-56007000Y25146000D03*
X3937000Y-8001000D03*
X26416000Y10033000D03*
X-25908000Y-48514000D03*
X40767000Y26797000D03*
X37592000Y22987000D03*
X39370000Y-1778000D03*
X-52324000Y35814000D03*
X21590000Y-18669000D03*
X-55753000Y-508000D03*
X45212000Y5969000D03*
X55499000Y12827000D03*
X18288000Y-12192000D03*
X38100000Y-27686000D03*
X-55626000Y38481000D03*
X5715000Y-55245000D03*
X-45593000Y39116000D03*
X26543000Y2667000D03*
X39497000Y61595000D03*
X26924000Y-8636000D03*
X11430000Y-25908000D03*
X-6604000Y-18923000D03*
X-55880000Y-48006000D03*
X24384000Y62103000D03*
X-30607000Y-57023000D03*
X39243000Y-8763000D03*
X-4953000Y-31750000D03*
X-24892000Y61595000D03*
X-6096000Y-54356000D03*
X23368000Y21463000D03*
X27051000Y-26035000D03*
X-28067000Y-31877000D03*
X48133000Y2159000D03*
X-39116000Y11049000D03*
X-39116000Y61976000D03*
%TO.N,GPS_TX*%
X-49276000Y49911000D03*
%TO.N,GPS_RX*%
X-49276000Y47879000D03*
%TO.N,GPS_SCL*%
X-49276000Y45974000D03*
%TO.N,GPS_SCA*%
X-49276000Y43815000D03*
%TO.N,TELEM_CTS*%
X24257000Y-5302496D03*
X6604000Y-5080000D03*
X-14224000Y48006000D03*
%TO.N,TELEM_RX*%
X5969000Y-5872600D03*
X-14224000Y46101000D03*
X23495000Y-6223000D03*
%TO.N,TELEM_TX*%
X-14224000Y44000000D03*
X5207000Y-6731000D03*
X23241000Y-7366000D03*
%TO.N,STRB_PWM*%
X-43763500Y15188500D03*
%TO.N,OSD_TX*%
X38608000Y26162000D03*
X41894003Y-7493000D03*
X38592372Y32004000D03*
X41894003Y-4064000D03*
%TO.N,OSD_RX*%
X37846000Y30988000D03*
X37846000Y25400000D03*
X40640000Y-4064000D03*
X40640000Y-7493000D03*
D21*
%TO.N,TELEM_GND*%
X-48114500Y-34036000D03*
D20*
%TO.N,TELEM_RTS*%
X7366000Y-4318000D03*
X-13970000Y49657000D03*
X25019000Y-4445000D03*
%TD*%
D22*
%TO.N,LOAD_SW*%
X10870000Y-6275000D02*
X-8890000Y-26035000D01*
X-8890000Y-26035000D02*
X-8890000Y-26416000D01*
X15733835Y6140000D02*
X10870000Y1276165D01*
X10870000Y1276165D02*
X10870000Y-6275000D01*
X16510000Y6140000D02*
X15733835Y6140000D01*
%TO.N,BATT_SW*%
X-15182400Y-9100000D02*
X-16510000Y-9100000D01*
X-10541000Y-13741400D02*
X-15182400Y-9100000D01*
X-10541000Y-19329400D02*
X-10541000Y-13741400D01*
X-16510000Y-25298400D02*
X-10541000Y-19329400D01*
X-16510000Y-26670000D02*
X-16510000Y-25298400D01*
D23*
%TO.N,5V_AUX*%
X5828631Y-50800000D02*
X6785000Y-50800000D01*
X-23460000Y-47406000D02*
X-23460000Y-49749044D01*
X-23460000Y-49749044D02*
X-16440044Y-56769000D01*
X-42418000Y-37465000D02*
X-33401000Y-37465000D01*
X-33401000Y-37465000D02*
X-23460000Y-47406000D01*
X-44379000Y-35504000D02*
X-42418000Y-37465000D01*
X-140369Y-56769000D02*
X5828631Y-50800000D01*
X-41910000Y-29324300D02*
X-44379000Y-31793300D01*
X-16440044Y-56769000D02*
X-140369Y-56769000D01*
X-44379000Y-31793300D02*
X-44379000Y-35504000D01*
D24*
%TO.N,STRB_PWM*%
X5009000Y-58364000D02*
X21590000Y-41783000D01*
X-32150146Y-58364000D02*
X5009000Y-58364000D01*
X-45974000Y-44540146D02*
X-32150146Y-58364000D01*
X-45974000Y12978000D02*
X-45974000Y-44540146D01*
X21590000Y-41783000D02*
X21590000Y-34175700D01*
X-43763500Y15188500D02*
X-45974000Y12978000D01*
D23*
%TO.N,VID_PWR*%
X21209000Y-15367000D02*
X21209000Y24003000D01*
X21209000Y24003000D02*
X16212000Y29000000D01*
X13970000Y-22606000D02*
X21209000Y-15367000D01*
X13970000Y-29324300D02*
X13970000Y-22606000D01*
D24*
%TO.N,TELEM_TX*%
X23241000Y-25133300D02*
X19050000Y-29324300D01*
X23241000Y-7366000D02*
X23241000Y-25133300D01*
%TO.N,TELEM_RX*%
X24003000Y-6731000D02*
X24003000Y-26911300D01*
X24003000Y-26911300D02*
X21590000Y-29324300D01*
X23495000Y-6223000D02*
X24003000Y-6731000D01*
D22*
%TO.N,LOAD_CC*%
X16510000Y-9271000D02*
X16510000Y-1060000D01*
X-1016000Y-26797000D02*
X16510000Y-9271000D01*
X-1803400Y-26797000D02*
X-1016000Y-26797000D01*
D25*
%TO.N,+5V*%
X-16928000Y42000000D02*
X-18000000Y42000000D01*
X29074594Y50690998D02*
X27195592Y52570000D01*
X27195592Y52570000D02*
X-13760567Y52570000D01*
X43797002Y50690998D02*
X29074594Y50690998D01*
X45720000Y3105000D02*
X46977500Y4362500D01*
X-13760567Y52570000D02*
X-15895000Y50435567D01*
X45720000Y-29210000D02*
X45720000Y3105000D01*
X-15895000Y50435567D02*
X-15895000Y43033000D01*
X16510000Y-33954306D02*
X18460306Y-32004000D01*
X18460306Y-32004000D02*
X42926000Y-32004000D01*
X42926000Y-32004000D02*
X45720000Y-29210000D01*
X46977500Y4362500D02*
X46977500Y47510500D01*
X46977500Y47510500D02*
X43797002Y50690998D01*
X16510000Y-34175700D02*
X16510000Y-33954306D01*
X-15895000Y43033000D02*
X-16928000Y42000000D01*
D22*
%TO.N,MTR_B*%
X-8890000Y-37338000D02*
X-8890000Y-41783000D01*
%TO.N,MTR_G*%
X-14170000Y-45901000D02*
X-12700000Y-47371000D01*
X-14170000Y-40313000D02*
X-14170000Y-45901000D01*
X-16510000Y-37973000D02*
X-14170000Y-40313000D01*
X-12700000Y-47371000D02*
X-12573000Y-47371000D01*
%TO.N,MTR_W*%
X-24130000Y-37820048D02*
X-19450000Y-42500048D01*
X-24130000Y-36449000D02*
X-24130000Y-37820048D01*
X-14833048Y-52705000D02*
X-10033000Y-52705000D01*
X-19450000Y-48088048D02*
X-14833048Y-52705000D01*
X-19450000Y-42500048D02*
X-19450000Y-48088048D01*
D25*
%TO.N,+5V*%
X-33110000Y42000000D02*
X-43110000Y52000000D01*
X11430000Y-34175700D02*
X16510000Y-34175700D01*
X-43110000Y52000000D02*
X-45500000Y52000000D01*
X45339000Y-5715000D02*
X36830000Y-5715000D01*
X-18000000Y42000000D02*
X-33110000Y42000000D01*
D22*
%TO.N,PNL+*%
X-16510000Y1473200D02*
X-16510000Y14180000D01*
X-31750000Y-22860000D02*
X-23693788Y-14803788D01*
X-23693788Y-5710588D02*
X-16510000Y1473200D01*
X-31750000Y-26797000D02*
X-31750000Y-22860000D01*
X-23693788Y-14803788D02*
X-23693788Y-5710588D01*
D24*
%TO.N,GPS_TX*%
X-51518567Y4835358D02*
X-51377000Y4693791D01*
X-50996000Y48191000D02*
X-50996000Y28030846D01*
X-49276000Y49911000D02*
X-50996000Y48191000D01*
X-51377000Y-41682730D02*
X-32895730Y-60164000D01*
X-54637692Y24389154D02*
X-54637692Y15945347D01*
X31742884Y-34175700D02*
X31750000Y-34175700D01*
X-50996000Y28030846D02*
X-54637692Y24389154D01*
X-32895730Y-60164000D02*
X5754584Y-60164000D01*
X-51518567Y12826222D02*
X-51518567Y4835358D01*
X-54637692Y15945347D02*
X-51518567Y12826222D01*
X5754584Y-60164000D02*
X31742884Y-34175700D01*
X-51377000Y4693791D02*
X-51377000Y-41682730D01*
%TO.N,GPS_RX*%
X-54187692Y16131743D02*
X-50927000Y12871051D01*
X5568188Y-59714000D02*
X29210000Y-36072188D01*
X-49276000Y47879000D02*
X-50546000Y46609000D01*
X-50546000Y46609000D02*
X-50546000Y27844450D01*
X-32709334Y-59714000D02*
X5568188Y-59714000D01*
X-54187692Y24202758D02*
X-54187692Y16131743D01*
X-50927000Y12871051D02*
X-50927000Y-41496334D01*
X29210000Y-36072188D02*
X29210000Y-34175700D01*
X-50546000Y27844450D02*
X-54187692Y24202758D01*
X-50927000Y-41496334D02*
X-32709334Y-59714000D01*
%TO.N,GPS_SCL*%
X5381792Y-59264000D02*
X26670000Y-37975792D01*
X-50477000Y-41309938D02*
X-32522938Y-59264000D01*
X-50038000Y45212000D02*
X-50038000Y27716054D01*
X-49276000Y45974000D02*
X-50038000Y45212000D01*
X-32522938Y-59264000D02*
X5381792Y-59264000D01*
X-50038000Y27716054D02*
X-53680000Y24074054D01*
X26670000Y-37975792D02*
X26670000Y-34175700D01*
X-53680000Y16260447D02*
X-50477000Y13057447D01*
X-53680000Y24074054D02*
X-53680000Y16260447D01*
X-50477000Y13057447D02*
X-50477000Y-41309938D01*
%TO.N,GPS_SCA*%
X-49276000Y27841658D02*
X-53230000Y23887658D01*
X-50027000Y-41123542D02*
X-32336542Y-58814000D01*
X-32336542Y-58814000D02*
X5195396Y-58814000D01*
X-53230000Y16446843D02*
X-50027000Y13243843D01*
X-49276000Y43815000D02*
X-49276000Y27841658D01*
X-53230000Y23887658D02*
X-53230000Y16446843D01*
X24130000Y-39879396D02*
X24130000Y-34175700D01*
X5195396Y-58814000D02*
X24130000Y-39879396D01*
X-50027000Y13243843D02*
X-50027000Y-41123542D01*
%TO.N,RDR_PWM*%
X19050000Y-40640000D02*
X8890000Y-50800000D01*
X19050000Y-34175700D02*
X19050000Y-40640000D01*
D23*
%TO.N,VID_PWR*%
X44555000Y43780000D02*
X44555000Y46000000D01*
X20880000Y24003000D02*
X33586420Y24003000D01*
X44520000Y43745000D02*
X44555000Y43780000D01*
X16212000Y29000000D02*
X12866000Y25654000D01*
X-8150000Y28470000D02*
X-8150000Y28575000D01*
X-5334000Y25654000D02*
X-8150000Y28470000D01*
X12866000Y25654000D02*
X-5334000Y25654000D01*
X16212000Y29000000D02*
X11605000Y29000000D01*
X16510000Y-29324300D02*
X11430000Y-29324300D01*
X44520000Y34936580D02*
X44520000Y43745000D01*
X33586420Y24003000D02*
X44520000Y34936580D01*
D22*
%TO.N,BATT_CC*%
X-24130000Y-23920000D02*
X-16510000Y-16300000D01*
X-24130000Y-23920000D02*
X-24130000Y-26416000D01*
D23*
%TO.N,5V_AUX*%
X-41715000Y-29324300D02*
X-41715000Y17467000D01*
X-41715000Y17467000D02*
X-41656000Y17526000D01*
X-36830000Y-29324300D02*
X-41910000Y-29324300D01*
X-41107000Y18075000D02*
X-39370000Y18075000D01*
X-41715000Y17467000D02*
X-41107000Y18075000D01*
X-41656000Y17526000D02*
X-46283250Y22153250D01*
X-46283250Y22153250D02*
X-49530000Y22153250D01*
X-39370000Y-29324300D02*
X-41715000Y-29324300D01*
D24*
%TO.N,TELEM_CTS*%
X24257000Y-5302496D02*
X24638000Y-5683496D01*
X24638000Y-28816300D02*
X24130000Y-29324300D01*
X6604000Y-5080000D02*
X6604000Y8892792D01*
X6604000Y8892792D02*
X-12054000Y27550792D01*
X24638000Y-5683496D02*
X24638000Y-28816300D01*
X-12054000Y45836000D02*
X-14224000Y48006000D01*
X-12054000Y27550792D02*
X-12054000Y45836000D01*
%TO.N,TELEM_RX*%
X-12504000Y44381000D02*
X-14224000Y46101000D01*
X-12504000Y27364396D02*
X-12504000Y44381000D01*
X5842000Y-5745600D02*
X5842000Y9018396D01*
X5842000Y9018396D02*
X-12504000Y27364396D01*
X5969000Y-5872600D02*
X5842000Y-5745600D01*
%TO.N,TELEM_TX*%
X-12954000Y27178000D02*
X-12954000Y42730000D01*
X5207000Y9017000D02*
X-12954000Y27178000D01*
X5207000Y-6731000D02*
X5207000Y9017000D01*
X-12954000Y42730000D02*
X-14224000Y44000000D01*
%TO.N,OSD_TX*%
X38608000Y26162000D02*
X38608000Y26131223D01*
X38592372Y33508170D02*
X21600542Y50500000D01*
X41910000Y-7508997D02*
X41894003Y-7493000D01*
X21600542Y50500000D02*
X18500000Y50500000D01*
X41894003Y22845220D02*
X41894003Y-4064000D01*
X38592372Y32004000D02*
X38592372Y33508170D01*
X38608000Y26131223D02*
X41894003Y22845220D01*
X41910000Y-29324300D02*
X41910000Y-7508997D01*
%TO.N,OSD_RX*%
X22964146Y48500000D02*
X37846000Y33618146D01*
X40894000Y22352000D02*
X40894000Y-3810000D01*
X40894000Y-27800300D02*
X39370000Y-29324300D01*
X40894000Y-7747000D02*
X40894000Y-27800300D01*
X40640000Y-7493000D02*
X40894000Y-7747000D01*
X40894000Y-3810000D02*
X40640000Y-4064000D01*
X18500000Y48500000D02*
X22964146Y48500000D01*
X37846000Y33618146D02*
X37846000Y30988000D01*
X37846000Y25400000D02*
X40894000Y22352000D01*
%TO.N,EXP_2*%
X32830000Y-5715000D02*
X32830000Y-27864300D01*
X32830000Y-27864300D02*
X34290000Y-29324300D01*
%TO.N,EXP_1*%
X34830000Y-27324300D02*
X36830000Y-29324300D01*
X34830000Y-5715000D02*
X34830000Y-27324300D01*
%TO.N,EXP_4*%
X28830000Y-28944300D02*
X29210000Y-29324300D01*
X28830000Y-5715000D02*
X28830000Y-28944300D01*
%TO.N,EXP_3*%
X30830000Y-5715000D02*
X30830000Y-28404300D01*
X30830000Y-28404300D02*
X31750000Y-29324300D01*
D25*
%TO.N,TELEM_GND*%
X-48133000Y13156501D02*
X-51952500Y16976001D01*
X-18057000Y51943000D02*
X-18000000Y52000000D01*
X-47717100Y52993900D02*
X-46482000Y54229000D01*
X-38552080Y50419000D02*
X-22361000Y50419000D01*
X-46482000Y54229000D02*
X-42362080Y54229000D01*
X-20837000Y51943000D02*
X-18057000Y51943000D01*
X-51952500Y16976001D02*
X-51952500Y23358500D01*
X-48114500Y-34036000D02*
X-48133000Y-34017500D01*
X-22361000Y50419000D02*
X-20837000Y51943000D01*
X-42362080Y54229000D02*
X-38552080Y50419000D01*
X-51952500Y23358500D02*
X-47717100Y27593900D01*
X-47717100Y27593900D02*
X-47717100Y52993900D01*
X-48133000Y-34017500D02*
X-48133000Y13156501D01*
D24*
%TO.N,TELEM_RTS*%
X25146000Y-4572000D02*
X25146000Y-27800300D01*
X7366000Y8767188D02*
X7366000Y-4318000D01*
X25146000Y-27800300D02*
X26670000Y-29324300D01*
X-11557000Y27690188D02*
X7366000Y8767188D01*
X25019000Y-4445000D02*
X25146000Y-4572000D01*
X-13970000Y49657000D02*
X-11557000Y47244000D01*
X-11557000Y47244000D02*
X-11557000Y27690188D01*
%TD*%
%TA.AperFunction,Conductor*%
%TO.N,MTR_W*%
G36*
X-7979832Y-49239685D02*
G01*
X-7966173Y-49249852D01*
X-7155302Y-49944884D01*
X-7117212Y-50003458D01*
X-7112000Y-50039032D01*
X-7112000Y-53232638D01*
X-7131685Y-53299677D01*
X-7148319Y-53320319D01*
X-8345681Y-54517681D01*
X-8407004Y-54551166D01*
X-8433362Y-54554000D01*
X-10798000Y-54554000D01*
X-10865039Y-54534315D01*
X-10910794Y-54481511D01*
X-10922000Y-54430000D01*
X-10922000Y-50414362D01*
X-10902315Y-50347323D01*
X-10885681Y-50326681D01*
X-9815319Y-49256319D01*
X-9753996Y-49222834D01*
X-9727638Y-49220000D01*
X-8046871Y-49220000D01*
X-7979832Y-49239685D01*
G37*
%TD.AperFunction*%
%TD*%
%TA.AperFunction,Conductor*%
%TO.N,PNL+*%
G36*
X-29321323Y-24403685D02*
G01*
X-29300681Y-24420319D01*
X-28318278Y-25402722D01*
X-28284793Y-25464045D01*
X-28286982Y-25525338D01*
X-28298024Y-25562940D01*
X-28318500Y-25705362D01*
X-28318500Y-29539640D01*
X-28315603Y-29593688D01*
X-28315603Y-29593689D01*
X-28312771Y-29620022D01*
X-28312768Y-29620049D01*
X-28304115Y-29673445D01*
X-28304115Y-29673447D01*
X-28289947Y-29711431D01*
X-28284963Y-29781123D01*
X-28318448Y-29842446D01*
X-28919681Y-30443681D01*
X-28981004Y-30477166D01*
X-29007362Y-30480000D01*
X-34492638Y-30480000D01*
X-34559677Y-30460315D01*
X-34580319Y-30443681D01*
X-35094910Y-29929090D01*
X-35128395Y-29867767D01*
X-35127005Y-29809319D01*
X-35089794Y-29670449D01*
X-35059500Y-29440345D01*
X-35059500Y-29208255D01*
X-35089794Y-28978151D01*
X-35149863Y-28753970D01*
X-35238680Y-28539548D01*
X-35238686Y-28539537D01*
X-35354721Y-28338556D01*
X-35354722Y-28338554D01*
X-35407376Y-28269933D01*
X-35432570Y-28204763D01*
X-35433000Y-28194447D01*
X-35433000Y-25705362D01*
X-35413315Y-25638323D01*
X-35396681Y-25617681D01*
X-34199319Y-24420319D01*
X-34137996Y-24386834D01*
X-34111638Y-24384000D01*
X-29388362Y-24384000D01*
X-29321323Y-24403685D01*
G37*
%TD.AperFunction*%
%TD*%
%TA.AperFunction,Conductor*%
%TO.N,MTR_G*%
G36*
X-13700323Y-33039685D02*
G01*
X-13679681Y-33056319D01*
X-12863319Y-33872681D01*
X-12829834Y-33934004D01*
X-12827000Y-33960362D01*
X-12827000Y-38175638D01*
X-12846685Y-38242677D01*
X-12863319Y-38263319D01*
X-14060681Y-39460681D01*
X-14122004Y-39494166D01*
X-14148362Y-39497000D01*
X-18490638Y-39497000D01*
X-18557677Y-39477315D01*
X-18578319Y-39460681D01*
X-20156681Y-37882319D01*
X-20190166Y-37820996D01*
X-20193000Y-37794638D01*
X-20193000Y-33960362D01*
X-20173315Y-33893323D01*
X-20156681Y-33872681D01*
X-19340319Y-33056319D01*
X-19278996Y-33022834D01*
X-19252638Y-33020000D01*
X-13767362Y-33020000D01*
X-13700323Y-33039685D01*
G37*
%TD.AperFunction*%
%TD*%
%TA.AperFunction,Conductor*%
%TO.N,BATT_SW*%
G36*
X-14081323Y-24403685D02*
G01*
X-14060681Y-24420319D01*
X-13076617Y-25404383D01*
X-13043132Y-25465706D01*
X-13045321Y-25527000D01*
X-13058024Y-25570258D01*
X-13078500Y-25712679D01*
X-13078500Y-29539640D01*
X-13075603Y-29593688D01*
X-13075603Y-29593689D01*
X-13072771Y-29620022D01*
X-13072768Y-29620049D01*
X-13064115Y-29673445D01*
X-13064115Y-29673447D01*
X-13049947Y-29711431D01*
X-13044963Y-29781123D01*
X-13078448Y-29842446D01*
X-13679681Y-30443681D01*
X-13741004Y-30477166D01*
X-13767362Y-30480000D01*
X-19252638Y-30480000D01*
X-19319677Y-30460315D01*
X-19340319Y-30443681D01*
X-19941723Y-29842277D01*
X-19975208Y-29780954D01*
X-19973019Y-29719659D01*
X-19961977Y-29682058D01*
X-19961976Y-29682054D01*
X-19941500Y-29539638D01*
X-19941500Y-25705362D01*
X-19944397Y-25651322D01*
X-19947231Y-25624964D01*
X-19955886Y-25571552D01*
X-19970055Y-25533566D01*
X-19975039Y-25463876D01*
X-19941559Y-25402558D01*
X-18959319Y-24420319D01*
X-18897996Y-24386834D01*
X-18871638Y-24384000D01*
X-14148362Y-24384000D01*
X-14081323Y-24403685D01*
G37*
%TD.AperFunction*%
%TD*%
%TA.AperFunction,Conductor*%
%TO.N,MTR_G*%
G36*
X-8051951Y-45663712D02*
G01*
X-7985024Y-45683775D01*
X-7964971Y-45700029D01*
X-7097519Y-46567481D01*
X-7064034Y-46628804D01*
X-7061200Y-46655162D01*
X-7061200Y-48022627D01*
X-7080885Y-48089666D01*
X-7101193Y-48113835D01*
X-7990797Y-48933208D01*
X-8053443Y-48964146D01*
X-8074804Y-48966000D01*
X-9906001Y-48966000D01*
X-10758681Y-49818681D01*
X-10820004Y-49852166D01*
X-10846362Y-49855000D01*
X-12422097Y-49855000D01*
X-12489136Y-49835315D01*
X-12534891Y-49782511D01*
X-12546088Y-49729506D01*
X-12526331Y-48089666D01*
X-12498285Y-45761797D01*
X-12477794Y-45695003D01*
X-12424443Y-45649887D01*
X-12373594Y-45639296D01*
X-8051951Y-45663712D01*
G37*
%TD.AperFunction*%
%TD*%
%TA.AperFunction,Conductor*%
%TO.N,MTR_W*%
G36*
X-21320323Y-33039685D02*
G01*
X-21299681Y-33056319D01*
X-20483319Y-33872681D01*
X-20449834Y-33934004D01*
X-20447000Y-33960362D01*
X-20447000Y-37921638D01*
X-20466685Y-37988677D01*
X-20483319Y-38009319D01*
X-21553681Y-39079681D01*
X-21615004Y-39113166D01*
X-21641362Y-39116000D01*
X-26491638Y-39116000D01*
X-26558677Y-39096315D01*
X-26579319Y-39079681D01*
X-27776681Y-37882319D01*
X-27810166Y-37820996D01*
X-27813000Y-37794638D01*
X-27813000Y-33960362D01*
X-27793315Y-33893323D01*
X-27776681Y-33872681D01*
X-26960319Y-33056319D01*
X-26898996Y-33022834D01*
X-26872638Y-33020000D01*
X-21387362Y-33020000D01*
X-21320323Y-33039685D01*
G37*
%TD.AperFunction*%
%TD*%
%TA.AperFunction,Conductor*%
%TO.N,LOAD_CC*%
G36*
X1158677Y-24403685D02*
G01*
X1179319Y-24420319D01*
X2376681Y-25617681D01*
X2410166Y-25679004D01*
X2413000Y-25705362D01*
X2413000Y-29539638D01*
X2393315Y-29606677D01*
X2376681Y-29627319D01*
X1560319Y-30443681D01*
X1498996Y-30477166D01*
X1472638Y-30480000D01*
X-4012638Y-30480000D01*
X-4079677Y-30460315D01*
X-4100319Y-30443681D01*
X-4701723Y-29842277D01*
X-4735208Y-29780954D01*
X-4733019Y-29719659D01*
X-4721977Y-29682058D01*
X-4721976Y-29682054D01*
X-4701500Y-29539638D01*
X-4701500Y-26197778D01*
X-4681815Y-26130739D01*
X-4665181Y-26110097D01*
X-2975403Y-24420319D01*
X-2914080Y-24386834D01*
X-2887722Y-24384000D01*
X1091638Y-24384000D01*
X1158677Y-24403685D01*
G37*
%TD.AperFunction*%
%TD*%
%TA.AperFunction,Conductor*%
%TO.N,LOAD_SW*%
G36*
X-6461323Y-24403685D02*
G01*
X-6440681Y-24420319D01*
X-5243319Y-25617681D01*
X-5209834Y-25679004D01*
X-5207000Y-25705362D01*
X-5207000Y-29539638D01*
X-5226685Y-29606677D01*
X-5243319Y-29627319D01*
X-6059681Y-30443681D01*
X-6121004Y-30477166D01*
X-6147362Y-30480000D01*
X-11632638Y-30480000D01*
X-11699677Y-30460315D01*
X-11720319Y-30443681D01*
X-12536681Y-29627319D01*
X-12570166Y-29565996D01*
X-12573000Y-29539638D01*
X-12573000Y-25712678D01*
X-12553315Y-25645639D01*
X-12536681Y-25624997D01*
X-11332002Y-24420319D01*
X-11270679Y-24386834D01*
X-11244321Y-24384000D01*
X-6528362Y-24384000D01*
X-6461323Y-24403685D01*
G37*
%TD.AperFunction*%
%TD*%
%TA.AperFunction,Conductor*%
%TO.N,BATT_CC*%
G36*
X-21701323Y-24403685D02*
G01*
X-21680681Y-24420319D01*
X-20483319Y-25617681D01*
X-20449834Y-25679004D01*
X-20447000Y-25705362D01*
X-20447000Y-29539638D01*
X-20466685Y-29606677D01*
X-20483319Y-29627319D01*
X-21299681Y-30443681D01*
X-21361004Y-30477166D01*
X-21387362Y-30480000D01*
X-26872638Y-30480000D01*
X-26939677Y-30460315D01*
X-26960319Y-30443681D01*
X-27776681Y-29627319D01*
X-27810166Y-29565996D01*
X-27813000Y-29539638D01*
X-27813000Y-25705362D01*
X-27793315Y-25638323D01*
X-27776681Y-25617681D01*
X-26579319Y-24420319D01*
X-26517996Y-24386834D01*
X-26491638Y-24384000D01*
X-21768362Y-24384000D01*
X-21701323Y-24403685D01*
G37*
%TD.AperFunction*%
%TD*%
%TA.AperFunction,Conductor*%
%TO.N,MTR_B*%
G36*
X-6080323Y-33039685D02*
G01*
X-6059681Y-33056319D01*
X-5243319Y-33872681D01*
X-5209834Y-33934004D01*
X-5207000Y-33960362D01*
X-5207000Y-37794638D01*
X-5226685Y-37861677D01*
X-5243319Y-37882319D01*
X-6440681Y-39079681D01*
X-6502004Y-39113166D01*
X-6528362Y-39116000D01*
X-11251638Y-39116000D01*
X-11318677Y-39096315D01*
X-11339319Y-39079681D01*
X-12536681Y-37882319D01*
X-12570166Y-37820996D01*
X-12573000Y-37794638D01*
X-12573000Y-33960362D01*
X-12553315Y-33893323D01*
X-12536681Y-33872681D01*
X-11720319Y-33056319D01*
X-11658996Y-33022834D01*
X-11632638Y-33020000D01*
X-6147362Y-33020000D01*
X-6080323Y-33039685D01*
G37*
%TD.AperFunction*%
%TD*%
%TA.AperFunction,Conductor*%
%TO.N,MTR_B*%
G36*
X-6406961Y-41746685D02*
G01*
X-6361206Y-41799489D01*
X-6350000Y-41851000D01*
X-6350000Y-44460353D01*
X-6369685Y-44527392D01*
X-6397871Y-44558233D01*
X-7459417Y-45383880D01*
X-7524420Y-45409500D01*
X-7535546Y-45410000D01*
X-10244454Y-45410000D01*
X-10311493Y-45390315D01*
X-10320583Y-45383880D01*
X-11381629Y-44558621D01*
X-11422461Y-44501924D01*
X-11429500Y-44460741D01*
X-11429500Y-41851000D01*
X-11409815Y-41783961D01*
X-11357011Y-41738206D01*
X-11305500Y-41727000D01*
X-6474000Y-41727000D01*
X-6406961Y-41746685D01*
G37*
%TD.AperFunction*%
%TD*%
%TA.AperFunction,Conductor*%
%TO.N,GND*%
G36*
X39580600Y63215876D02*
G01*
X39605920Y63211656D01*
X39807586Y63167415D01*
X39832380Y63160639D01*
X39915700Y63133250D01*
X40028514Y63096165D01*
X40052485Y63086911D01*
X40241052Y63002873D01*
X40263968Y62991231D01*
X40290876Y62975793D01*
X40447733Y62885798D01*
X40460994Y62877636D01*
X41054919Y62486387D01*
X41759679Y62022125D01*
X41804106Y61992859D01*
X41808631Y61989808D01*
X43136779Y61073040D01*
X43141198Y61069919D01*
X43304303Y60952039D01*
X44449125Y60124647D01*
X44453516Y60121401D01*
X45703302Y59176284D01*
X45740713Y59147993D01*
X45745042Y59144645D01*
X46184456Y58797140D01*
X47010768Y58143663D01*
X47015029Y58140218D01*
X48258837Y57112017D01*
X48262969Y57108526D01*
X48659578Y56765943D01*
X49484269Y56053591D01*
X49488376Y56049964D01*
X50686438Y54968926D01*
X50690466Y54965212D01*
X51864882Y53858443D01*
X51868828Y53854643D01*
X53019025Y52722679D01*
X53022888Y52718793D01*
X53418811Y52311898D01*
X54078486Y51633940D01*
X54148257Y51562236D01*
X54152035Y51558268D01*
X55252075Y50377633D01*
X55255766Y50373585D01*
X56054688Y49478009D01*
X56325890Y49173996D01*
X56325937Y49173944D01*
X56337352Y49160201D01*
X56489632Y48963093D01*
X56506657Y48938100D01*
X56631159Y48729546D01*
X56645080Y48702700D01*
X56743803Y48480794D01*
X56754422Y48452481D01*
X56825969Y48220366D01*
X56833134Y48190986D01*
X56876475Y47951996D01*
X56880083Y47921971D01*
X56895048Y47672017D01*
X56895500Y47656897D01*
X56895500Y39122139D01*
X56895015Y39106479D01*
X56878960Y38847587D01*
X56875091Y38816509D01*
X56828622Y38569292D01*
X56820942Y38538931D01*
X56744291Y38299366D01*
X56732919Y38270184D01*
X56627249Y38041910D01*
X56612359Y38014359D01*
X56479304Y37800901D01*
X56461124Y37775399D01*
X56302710Y37580010D01*
X56281519Y37556950D01*
X56100178Y37382629D01*
X56076300Y37362364D01*
X55874805Y37211779D01*
X55848605Y37194620D01*
X55630066Y37070094D01*
X55601949Y37056303D01*
X55362048Y36956549D01*
X55347407Y36950986D01*
X55344230Y36949891D01*
X55342185Y36949185D01*
X55317787Y36940771D01*
X55140229Y36879539D01*
X54723970Y36696284D01*
X54324253Y36479323D01*
X53943797Y36230135D01*
X53585180Y35950405D01*
X53398319Y35778056D01*
X53253852Y35644808D01*
X53250855Y35642044D01*
X52943111Y35307166D01*
X52943106Y35307159D01*
X52664041Y34948050D01*
X52415539Y34567131D01*
X52415528Y34567112D01*
X52199307Y34167021D01*
X52199306Y34167019D01*
X52016809Y33750424D01*
X52016805Y33750415D01*
X51869304Y33320224D01*
X51869298Y33320202D01*
X51757777Y32879285D01*
X51683004Y32430656D01*
X51645490Y31977413D01*
X51645490Y31522588D01*
X51683004Y31069345D01*
X51757777Y30620716D01*
X51869298Y30179799D01*
X51869304Y30179777D01*
X52016805Y29749586D01*
X52016808Y29749578D01*
X52016810Y29749574D01*
X52047834Y29678755D01*
X52199306Y29332982D01*
X52199307Y29332980D01*
X52415528Y28932889D01*
X52415539Y28932870D01*
X52664041Y28551951D01*
X52943106Y28192842D01*
X52943111Y28192835D01*
X53004045Y28126528D01*
X53250858Y27857953D01*
X53585176Y27549599D01*
X53943788Y27269872D01*
X53943796Y27269867D01*
X53943797Y27269866D01*
X53947985Y27267123D01*
X54324252Y27020678D01*
X54723973Y26803715D01*
X55140229Y26620462D01*
X55345869Y26549546D01*
X55347760Y26548894D01*
X55362427Y26543323D01*
X55601951Y26443722D01*
X55630058Y26429936D01*
X55717645Y26380026D01*
X55848600Y26305403D01*
X55874799Y26288243D01*
X56076286Y26137659D01*
X56100159Y26117398D01*
X56219815Y26002371D01*
X56281500Y25943072D01*
X56302688Y25920014D01*
X56354909Y25855602D01*
X56461093Y25724628D01*
X56479273Y25699126D01*
X56612324Y25485665D01*
X56627213Y25458113D01*
X56732875Y25229842D01*
X56744247Y25200659D01*
X56820891Y24961095D01*
X56828570Y24930732D01*
X56875031Y24683519D01*
X56878899Y24652441D01*
X56895014Y24392461D01*
X56895499Y24376805D01*
X56895498Y24311415D01*
X56895500Y24311398D01*
X56895500Y13722139D01*
X56895015Y13706479D01*
X56878960Y13447587D01*
X56875091Y13416509D01*
X56828622Y13169292D01*
X56820942Y13138931D01*
X56744291Y12899366D01*
X56732919Y12870184D01*
X56627249Y12641910D01*
X56612359Y12614359D01*
X56479304Y12400901D01*
X56461124Y12375399D01*
X56302710Y12180010D01*
X56281519Y12156950D01*
X56100178Y11982629D01*
X56076300Y11962364D01*
X55874805Y11811779D01*
X55848605Y11794620D01*
X55630066Y11670094D01*
X55601949Y11656303D01*
X55362048Y11556549D01*
X55347407Y11550986D01*
X55344230Y11549891D01*
X55342185Y11549185D01*
X55286635Y11530028D01*
X55140229Y11479539D01*
X54723970Y11296284D01*
X54324253Y11079323D01*
X53943797Y10830135D01*
X53585180Y10550405D01*
X53394137Y10374199D01*
X53265595Y10255639D01*
X53250855Y10242044D01*
X52943111Y9907166D01*
X52943106Y9907159D01*
X52664041Y9548050D01*
X52415539Y9167131D01*
X52415528Y9167112D01*
X52199307Y8767021D01*
X52199306Y8767019D01*
X52016809Y8350424D01*
X52016805Y8350415D01*
X51869304Y7920224D01*
X51869298Y7920202D01*
X51757777Y7479285D01*
X51683004Y7030656D01*
X51645490Y6577413D01*
X51645490Y6122588D01*
X51683004Y5669345D01*
X51757777Y5220716D01*
X51869298Y4779799D01*
X51869304Y4779777D01*
X52016805Y4349586D01*
X52016808Y4349578D01*
X52016810Y4349574D01*
X52061517Y4247520D01*
X52199306Y3932982D01*
X52199307Y3932980D01*
X52415528Y3532889D01*
X52415539Y3532870D01*
X52664041Y3151951D01*
X52943106Y2792842D01*
X52943111Y2792835D01*
X52995405Y2735930D01*
X53250858Y2457953D01*
X53585176Y2149599D01*
X53943788Y1869872D01*
X53943796Y1869867D01*
X53943797Y1869866D01*
X53949959Y1865830D01*
X54324252Y1620678D01*
X54723973Y1403715D01*
X55140229Y1220462D01*
X55345869Y1149546D01*
X55347760Y1148894D01*
X55362427Y1143323D01*
X55601951Y1043722D01*
X55630058Y1029936D01*
X55672474Y1005766D01*
X55848600Y905403D01*
X55874799Y888243D01*
X56076286Y737659D01*
X56100159Y717398D01*
X56281500Y543072D01*
X56302691Y520011D01*
X56461093Y324628D01*
X56479273Y299126D01*
X56612324Y85665D01*
X56627213Y58113D01*
X56732875Y-170158D01*
X56744247Y-199341D01*
X56820891Y-438905D01*
X56828570Y-469268D01*
X56875031Y-716481D01*
X56878899Y-747559D01*
X56895014Y-1007539D01*
X56895499Y-1023195D01*
X56895498Y-1088585D01*
X56895500Y-1088602D01*
X56895500Y-47656829D01*
X56895048Y-47671949D01*
X56880079Y-47921969D01*
X56876471Y-47951994D01*
X56833130Y-48190987D01*
X56825965Y-48220366D01*
X56754421Y-48452473D01*
X56743802Y-48480788D01*
X56645075Y-48702702D01*
X56631154Y-48729548D01*
X56506654Y-48938098D01*
X56489629Y-48963090D01*
X56337306Y-49160252D01*
X56325892Y-49173995D01*
X55255768Y-50373585D01*
X55252076Y-50377633D01*
X54152036Y-51558268D01*
X54148265Y-51562228D01*
X53954276Y-51761595D01*
X53022888Y-52718794D01*
X53019025Y-52722679D01*
X51868829Y-53854642D01*
X51864883Y-53858442D01*
X50690466Y-54965212D01*
X50686438Y-54968926D01*
X49488350Y-56049987D01*
X49484243Y-56053613D01*
X48263025Y-57108479D01*
X48258840Y-57112016D01*
X47015051Y-58140200D01*
X47010791Y-58143645D01*
X45745003Y-59144676D01*
X45740671Y-59148026D01*
X44453516Y-60121401D01*
X44449148Y-60124631D01*
X43141227Y-61069899D01*
X43136752Y-61073060D01*
X41808650Y-61989796D01*
X41804107Y-61992859D01*
X40461361Y-62877394D01*
X40446779Y-62886309D01*
X40241137Y-63002673D01*
X40215410Y-63015362D01*
X40003265Y-63105428D01*
X39976262Y-63115125D01*
X39755292Y-63180590D01*
X39727368Y-63187167D01*
X39500395Y-63227198D01*
X39471905Y-63230571D01*
X39263032Y-63243352D01*
X39235646Y-63245028D01*
X39220196Y-63245500D01*
X-39210448Y-63245500D01*
X-39224900Y-63245087D01*
X-39274059Y-63242274D01*
X-39463969Y-63231407D01*
X-39492692Y-63228109D01*
X-39721502Y-63188479D01*
X-39749658Y-63181926D01*
X-39972449Y-63116454D01*
X-39999678Y-63106730D01*
X-40213540Y-63016268D01*
X-40239479Y-63003503D01*
X-40446573Y-62886437D01*
X-40461251Y-62877467D01*
X-41804107Y-61992858D01*
X-41808650Y-61989795D01*
X-42020791Y-61843363D01*
X-43136762Y-61073052D01*
X-43141217Y-61069905D01*
X-44449126Y-60124646D01*
X-44453532Y-60121389D01*
X-45740714Y-59147992D01*
X-45745047Y-59144640D01*
X-47010769Y-58143662D01*
X-47015030Y-58140217D01*
X-47699593Y-57574319D01*
X-48258838Y-57112016D01*
X-48262998Y-57108501D01*
X-49484270Y-56053590D01*
X-49488377Y-56049963D01*
X-50686439Y-54968925D01*
X-50690467Y-54965211D01*
X-51864883Y-53858442D01*
X-51868829Y-53854642D01*
X-53019026Y-52722678D01*
X-53022889Y-52718792D01*
X-53923780Y-51792934D01*
X-54148268Y-51562225D01*
X-54152036Y-51558267D01*
X-54225937Y-51478952D01*
X-54904540Y-50750630D01*
X-55252076Y-50377632D01*
X-55255767Y-50373584D01*
X-56083448Y-49445770D01*
X-56325944Y-49173935D01*
X-56337346Y-49160209D01*
X-56489634Y-48963090D01*
X-56506655Y-48938104D01*
X-56506659Y-48938098D01*
X-56631163Y-48729541D01*
X-56645081Y-48702700D01*
X-56743806Y-48480791D01*
X-56754425Y-48452476D01*
X-56780683Y-48367288D01*
X-56825972Y-48220360D01*
X-56833132Y-48191002D01*
X-56876476Y-47951991D01*
X-56880082Y-47921982D01*
X-56895048Y-47672019D01*
X-56895500Y-47656899D01*
X-56895500Y-1022111D01*
X-56895015Y-1006449D01*
X-56892349Y-963463D01*
X-56878957Y-747544D01*
X-56875090Y-716496D01*
X-56828615Y-469257D01*
X-56820944Y-438931D01*
X-56744280Y-199334D01*
X-56732914Y-170170D01*
X-56627242Y58106D01*
X-56612359Y85647D01*
X-56479287Y299126D01*
X-56461122Y324606D01*
X-56302700Y520005D01*
X-56281515Y543056D01*
X-56100169Y717380D01*
X-56076303Y737636D01*
X-55874799Y888226D01*
X-55848616Y905375D01*
X-55630049Y1029917D01*
X-55601959Y1043694D01*
X-55386364Y1133341D01*
X-55371753Y1138893D01*
X-55354676Y1144782D01*
X-55139623Y1218944D01*
X-54723227Y1402261D01*
X-54323371Y1619301D01*
X-54321268Y1620678D01*
X-53942784Y1868582D01*
X-53899357Y1902457D01*
X-53584051Y2148411D01*
X-53249625Y2456875D01*
X-52941783Y2791874D01*
X-52662624Y3151125D01*
X-52475400Y3438131D01*
X-52406372Y3508700D01*
X-52315593Y3547481D01*
X-52216883Y3548570D01*
X-52125271Y3511802D01*
X-52054702Y3442774D01*
X-52015921Y3351995D01*
X-52010500Y3299902D01*
X-52010500Y-41620336D01*
X-52010500Y-41745124D01*
X-51991024Y-41843036D01*
X-51986155Y-41867516D01*
X-51938400Y-41982806D01*
X-51869072Y-42086562D01*
X-33299563Y-60656072D01*
X-33195804Y-60725402D01*
X-33114286Y-60759167D01*
X-33114285Y-60759167D01*
X-33114283Y-60759168D01*
X-33080515Y-60773155D01*
X-32958124Y-60797500D01*
X-32958123Y-60797500D01*
X-32958121Y-60797500D01*
X5816975Y-60797500D01*
X5816978Y-60797500D01*
X5939369Y-60773155D01*
X6054659Y-60725400D01*
X6158417Y-60656071D01*
X16014488Y-50799999D01*
X26240536Y-50799999D01*
X26240536Y-50800000D01*
X26260383Y-51267226D01*
X26260384Y-51267241D01*
X26319783Y-51731093D01*
X26319784Y-51731096D01*
X26319785Y-51731104D01*
X26417283Y-52183500D01*
X26418312Y-52188271D01*
X26555250Y-52635420D01*
X26555254Y-52635430D01*
X26729619Y-53069355D01*
X26729624Y-53069365D01*
X26918689Y-53444354D01*
X26940160Y-53486938D01*
X26995797Y-53577298D01*
X27185354Y-53885159D01*
X27185357Y-53885163D01*
X27463439Y-54261154D01*
X27463441Y-54261156D01*
X27595075Y-54410722D01*
X27772409Y-54612212D01*
X28110036Y-54935802D01*
X28110039Y-54935804D01*
X28110048Y-54935813D01*
X28473880Y-55229586D01*
X28473886Y-55229590D01*
X28861338Y-55491463D01*
X28861342Y-55491465D01*
X28861348Y-55491469D01*
X29269619Y-55719543D01*
X29695761Y-55912171D01*
X30136703Y-56067966D01*
X30136715Y-56067969D01*
X30136724Y-56067972D01*
X30589257Y-56185802D01*
X30589255Y-56185802D01*
X30589265Y-56185803D01*
X30589270Y-56185805D01*
X31050200Y-56264840D01*
X31516172Y-56304500D01*
X31516178Y-56304500D01*
X31983822Y-56304500D01*
X31983828Y-56304500D01*
X32449800Y-56264840D01*
X32910730Y-56185805D01*
X32910738Y-56185802D01*
X32910743Y-56185802D01*
X33363275Y-56067972D01*
X33363279Y-56067970D01*
X33363297Y-56067966D01*
X33804239Y-55912171D01*
X34230381Y-55719543D01*
X34638652Y-55491469D01*
X35026110Y-55229593D01*
X35026119Y-55229586D01*
X35389951Y-54935813D01*
X35389954Y-54935809D01*
X35389964Y-54935802D01*
X35727591Y-54612212D01*
X36036560Y-54261155D01*
X36314644Y-53885161D01*
X36559840Y-53486938D01*
X36770381Y-53069355D01*
X36944749Y-52635422D01*
X37081690Y-52188264D01*
X37180215Y-51731104D01*
X37239616Y-51267235D01*
X37259464Y-50800000D01*
X37239616Y-50332765D01*
X37180215Y-49868896D01*
X37081690Y-49411736D01*
X36944749Y-48964578D01*
X36770381Y-48530645D01*
X36559840Y-48113062D01*
X36314644Y-47714839D01*
X36282974Y-47672019D01*
X36036560Y-47338845D01*
X36036558Y-47338843D01*
X35727601Y-46987799D01*
X35727598Y-46987797D01*
X35727591Y-46987788D01*
X35389964Y-46664198D01*
X35389960Y-46664195D01*
X35389951Y-46664186D01*
X35026119Y-46370413D01*
X35026113Y-46370409D01*
X34638661Y-46108536D01*
X34638657Y-46108534D01*
X34532081Y-46048997D01*
X34230381Y-45880457D01*
X33804239Y-45687829D01*
X33804236Y-45687828D01*
X33804234Y-45687827D01*
X33804226Y-45687824D01*
X33363303Y-45532036D01*
X33363275Y-45532027D01*
X32910742Y-45414197D01*
X32910744Y-45414197D01*
X32449806Y-45335161D01*
X32449805Y-45335160D01*
X32449800Y-45335160D01*
X31983828Y-45295500D01*
X31516172Y-45295500D01*
X31050200Y-45335160D01*
X31050195Y-45335160D01*
X31050193Y-45335161D01*
X30589256Y-45414197D01*
X30136724Y-45532027D01*
X30136696Y-45532036D01*
X29695773Y-45687824D01*
X29695765Y-45687827D01*
X29413668Y-45815343D01*
X29269619Y-45880457D01*
X29181384Y-45929748D01*
X28861342Y-46108534D01*
X28861338Y-46108536D01*
X28473886Y-46370409D01*
X28473880Y-46370413D01*
X28110048Y-46664186D01*
X27772398Y-46987799D01*
X27463441Y-47338843D01*
X27463439Y-47338845D01*
X27185357Y-47714836D01*
X27185354Y-47714840D01*
X26940155Y-48113070D01*
X26729624Y-48530634D01*
X26729619Y-48530644D01*
X26555254Y-48964569D01*
X26555250Y-48964579D01*
X26423741Y-49394001D01*
X26418310Y-49411736D01*
X26351116Y-49723519D01*
X26319783Y-49868906D01*
X26260384Y-50332758D01*
X26260383Y-50332773D01*
X26240536Y-50799999D01*
X16014488Y-50799999D01*
X31279213Y-35535273D01*
X31361289Y-35480432D01*
X31458108Y-35461174D01*
X31510889Y-35468125D01*
X31511013Y-35467423D01*
X31521887Y-35469339D01*
X31521896Y-35469342D01*
X31713295Y-35486087D01*
X31749998Y-35489299D01*
X31750000Y-35489299D01*
X31750002Y-35489299D01*
X31815172Y-35483597D01*
X31978104Y-35469342D01*
X32199277Y-35410079D01*
X32406800Y-35313310D01*
X32594365Y-35181975D01*
X32756275Y-35020065D01*
X32795014Y-34964740D01*
X32812755Y-34939404D01*
X32884064Y-34871141D01*
X32976068Y-34835363D01*
X33074760Y-34837516D01*
X33165115Y-34877274D01*
X33227245Y-34939404D01*
X33283720Y-35020059D01*
X33283723Y-35020063D01*
X33283725Y-35020065D01*
X33445635Y-35181975D01*
X33445637Y-35181976D01*
X33445640Y-35181979D01*
X33508873Y-35226255D01*
X33633200Y-35313310D01*
X33840723Y-35410079D01*
X34061896Y-35469342D01*
X34213965Y-35482646D01*
X34289998Y-35489299D01*
X34290000Y-35489299D01*
X34290002Y-35489299D01*
X34355172Y-35483597D01*
X34518104Y-35469342D01*
X34739277Y-35410079D01*
X34946800Y-35313310D01*
X35134365Y-35181975D01*
X35296275Y-35020065D01*
X35335014Y-34964740D01*
X35352755Y-34939404D01*
X35424064Y-34871141D01*
X35516068Y-34835363D01*
X35614760Y-34837516D01*
X35705115Y-34877274D01*
X35767245Y-34939404D01*
X35823720Y-35020059D01*
X35823723Y-35020063D01*
X35823725Y-35020065D01*
X35985635Y-35181975D01*
X35985637Y-35181976D01*
X35985640Y-35181979D01*
X36048873Y-35226255D01*
X36173200Y-35313310D01*
X36380723Y-35410079D01*
X36601896Y-35469342D01*
X36753965Y-35482646D01*
X36829998Y-35489299D01*
X36830000Y-35489299D01*
X36830002Y-35489299D01*
X36895172Y-35483597D01*
X37058104Y-35469342D01*
X37279277Y-35410079D01*
X37486800Y-35313310D01*
X37674365Y-35181975D01*
X37836275Y-35020065D01*
X37875014Y-34964740D01*
X37892755Y-34939404D01*
X37964064Y-34871141D01*
X38056068Y-34835363D01*
X38154760Y-34837516D01*
X38245115Y-34877274D01*
X38307245Y-34939404D01*
X38363720Y-35020059D01*
X38363723Y-35020063D01*
X38363725Y-35020065D01*
X38525635Y-35181975D01*
X38525637Y-35181976D01*
X38525640Y-35181979D01*
X38588873Y-35226255D01*
X38713200Y-35313310D01*
X38920723Y-35410079D01*
X39141896Y-35469342D01*
X39293965Y-35482646D01*
X39369998Y-35489299D01*
X39370000Y-35489299D01*
X39370002Y-35489299D01*
X39435172Y-35483597D01*
X39598104Y-35469342D01*
X39819277Y-35410079D01*
X40026800Y-35313310D01*
X40214365Y-35181975D01*
X40376275Y-35020065D01*
X40415014Y-34964740D01*
X40432755Y-34939404D01*
X40504064Y-34871141D01*
X40596068Y-34835363D01*
X40694760Y-34837516D01*
X40785115Y-34877274D01*
X40847245Y-34939404D01*
X40903720Y-35020059D01*
X40903723Y-35020063D01*
X40903725Y-35020065D01*
X41065635Y-35181975D01*
X41065637Y-35181976D01*
X41065640Y-35181979D01*
X41128873Y-35226255D01*
X41253200Y-35313310D01*
X41460723Y-35410079D01*
X41681896Y-35469342D01*
X41833965Y-35482646D01*
X41909998Y-35489299D01*
X41910000Y-35489299D01*
X41910002Y-35489299D01*
X41975172Y-35483597D01*
X42138104Y-35469342D01*
X42359277Y-35410079D01*
X42566800Y-35313310D01*
X42754365Y-35181975D01*
X42916275Y-35020065D01*
X43047610Y-34832500D01*
X43144379Y-34624977D01*
X43203642Y-34403804D01*
X43223599Y-34175700D01*
X43203642Y-33947596D01*
X43144379Y-33726423D01*
X43144378Y-33726422D01*
X43143123Y-33721736D01*
X43136666Y-33623232D01*
X43168398Y-33529755D01*
X43233485Y-33455537D01*
X43309318Y-33415639D01*
X43486830Y-33357962D01*
X43691732Y-33253560D01*
X43781175Y-33188575D01*
X43877778Y-33118389D01*
X44040389Y-32955778D01*
X44040389Y-32955776D01*
X44054803Y-32941363D01*
X44054809Y-32941356D01*
X46657356Y-30338809D01*
X46657363Y-30338803D01*
X46671776Y-30324390D01*
X46671778Y-30324389D01*
X46834389Y-30161778D01*
X46969560Y-29975731D01*
X47035916Y-29845499D01*
X47073962Y-29770830D01*
X47145026Y-29552119D01*
X47181001Y-29324983D01*
X47181001Y-29095016D01*
X47181001Y-29086052D01*
X47181000Y-29086022D01*
X47181000Y2395039D01*
X47200258Y2491858D01*
X47255100Y2573935D01*
X47914856Y3233692D01*
X47914863Y3233697D01*
X47929276Y3248110D01*
X47929278Y3248111D01*
X48091889Y3410722D01*
X48227060Y3596769D01*
X48331462Y3801671D01*
X48402526Y4020382D01*
X48402695Y4021451D01*
X48438501Y4247517D01*
X48438501Y4477484D01*
X48438501Y4486448D01*
X48438500Y4486478D01*
X48438500Y47625480D01*
X48438498Y47625495D01*
X48435648Y47643496D01*
X48425600Y47706933D01*
X48402526Y47852619D01*
X48375173Y47936802D01*
X48331462Y48071329D01*
X48331459Y48071334D01*
X48331459Y48071336D01*
X48227059Y48276232D01*
X48091891Y48462276D01*
X47922936Y48631231D01*
X47922921Y48631245D01*
X44920231Y51633935D01*
X44920227Y51633940D01*
X44748779Y51805388D01*
X44639179Y51885017D01*
X44562734Y51940558D01*
X44421370Y52012586D01*
X44357835Y52044959D01*
X44139121Y52116024D01*
X43911986Y52151999D01*
X43911985Y52151999D01*
X43682019Y52151999D01*
X43671579Y52151999D01*
X43671555Y52151998D01*
X35013825Y52151998D01*
X34917006Y52171256D01*
X34834927Y52226100D01*
X34780083Y52308179D01*
X34760825Y52404998D01*
X34780083Y52501817D01*
X34834927Y52583896D01*
X34875448Y52616801D01*
X34951253Y52666327D01*
X34951264Y52666335D01*
X34951272Y52666340D01*
X34951280Y52666347D01*
X34951288Y52666352D01*
X35153538Y52823770D01*
X35310596Y52946013D01*
X35645597Y53254403D01*
X35953987Y53589404D01*
X36161922Y53856559D01*
X36233648Y53948712D01*
X36233651Y53948717D01*
X36233660Y53948728D01*
X36482705Y54329920D01*
X36699421Y54730376D01*
X36882327Y55147360D01*
X37030174Y55578024D01*
X37141953Y56019426D01*
X37216898Y56468552D01*
X37254500Y56922332D01*
X37254500Y57150000D01*
X37254500Y57194875D01*
X37254500Y60952056D01*
X37254999Y60967935D01*
X37257683Y61010622D01*
X37271507Y61230442D01*
X37275485Y61261948D01*
X37323264Y61512527D01*
X37331152Y61543260D01*
X37409943Y61785870D01*
X37421628Y61815395D01*
X37421629Y61815397D01*
X37530190Y62046218D01*
X37545480Y62074041D01*
X37682101Y62289439D01*
X37700758Y62315134D01*
X37863297Y62511732D01*
X37885005Y62534865D01*
X38070908Y62709565D01*
X38095346Y62729797D01*
X38301655Y62879819D01*
X38328448Y62896839D01*
X38551917Y63019829D01*
X38580645Y63033364D01*
X38739025Y63096167D01*
X38817761Y63127389D01*
X38847959Y63137218D01*
X39094975Y63200794D01*
X39126155Y63206762D01*
X39349309Y63235097D01*
X39410025Y63235460D01*
X39580600Y63215876D01*
G37*
%TD.AperFunction*%
%TA.AperFunction,Conductor*%
G36*
X-44990681Y-37434733D02*
G01*
X-44908602Y-37489577D01*
X-43593163Y-38805016D01*
X-43408204Y-38946941D01*
X-43336229Y-38988496D01*
X-43227610Y-39051206D01*
X-43206298Y-39063511D01*
X-42990907Y-39152729D01*
X-42805001Y-39202542D01*
X-42765714Y-39213070D01*
X-42753522Y-39214675D01*
X-42534569Y-39243500D01*
X-42301431Y-39243500D01*
X-34242475Y-39243500D01*
X-34145656Y-39262758D01*
X-34063577Y-39317602D01*
X-25312602Y-48068577D01*
X-25257758Y-48150656D01*
X-25238500Y-48247475D01*
X-25238500Y-49865615D01*
X-25208071Y-50096757D01*
X-25180619Y-50199205D01*
X-25147729Y-50321951D01*
X-25094459Y-50450556D01*
X-25058509Y-50537347D01*
X-25058508Y-50537350D01*
X-24941948Y-50739236D01*
X-24941942Y-50739246D01*
X-24857441Y-50849370D01*
X-24847447Y-50862394D01*
X-24800017Y-50924206D01*
X-18425621Y-57298602D01*
X-18370777Y-57380681D01*
X-18351519Y-57477500D01*
X-18370777Y-57574319D01*
X-18425621Y-57656398D01*
X-18507700Y-57711242D01*
X-18604519Y-57730500D01*
X-31782946Y-57730500D01*
X-31879765Y-57711242D01*
X-31961844Y-57656398D01*
X-32977646Y-56640596D01*
X-33032490Y-56558517D01*
X-33051748Y-56461698D01*
X-33032490Y-56364879D01*
X-32977646Y-56282800D01*
X-32895567Y-56227956D01*
X-32798748Y-56208698D01*
X-32756003Y-56212335D01*
X-32449800Y-56264840D01*
X-31983828Y-56304500D01*
X-31983822Y-56304500D01*
X-31516178Y-56304500D01*
X-31516172Y-56304500D01*
X-31050200Y-56264840D01*
X-30589270Y-56185805D01*
X-30589262Y-56185802D01*
X-30589257Y-56185802D01*
X-30136725Y-56067972D01*
X-30136721Y-56067970D01*
X-30136703Y-56067966D01*
X-29695761Y-55912171D01*
X-29269619Y-55719543D01*
X-28861348Y-55491469D01*
X-28473890Y-55229593D01*
X-28473881Y-55229586D01*
X-28110049Y-54935813D01*
X-28110046Y-54935809D01*
X-28110036Y-54935802D01*
X-27772409Y-54612212D01*
X-27463440Y-54261155D01*
X-27185356Y-53885161D01*
X-26940160Y-53486938D01*
X-26729619Y-53069355D01*
X-26555251Y-52635422D01*
X-26418310Y-52188264D01*
X-26319785Y-51731104D01*
X-26260384Y-51267235D01*
X-26240536Y-50800000D01*
X-26260384Y-50332765D01*
X-26319785Y-49868896D01*
X-26418310Y-49411736D01*
X-26555251Y-48964578D01*
X-26729619Y-48530645D01*
X-26940160Y-48113062D01*
X-27185356Y-47714839D01*
X-27217026Y-47672019D01*
X-27463440Y-47338845D01*
X-27463442Y-47338843D01*
X-27772399Y-46987799D01*
X-27772402Y-46987797D01*
X-27772409Y-46987788D01*
X-28110036Y-46664198D01*
X-28110040Y-46664195D01*
X-28110049Y-46664186D01*
X-28473881Y-46370413D01*
X-28473887Y-46370409D01*
X-28861339Y-46108536D01*
X-28861343Y-46108534D01*
X-28967919Y-46048997D01*
X-29269619Y-45880457D01*
X-29695761Y-45687829D01*
X-29695764Y-45687828D01*
X-29695766Y-45687827D01*
X-29695774Y-45687824D01*
X-30136697Y-45532036D01*
X-30136725Y-45532027D01*
X-30589258Y-45414197D01*
X-30589256Y-45414197D01*
X-31050194Y-45335161D01*
X-31050195Y-45335160D01*
X-31050200Y-45335160D01*
X-31516172Y-45295500D01*
X-31983828Y-45295500D01*
X-32449800Y-45335160D01*
X-32449805Y-45335160D01*
X-32449807Y-45335161D01*
X-32910744Y-45414197D01*
X-33363276Y-45532027D01*
X-33363304Y-45532036D01*
X-33804227Y-45687824D01*
X-33804235Y-45687827D01*
X-34086332Y-45815343D01*
X-34230381Y-45880457D01*
X-34318616Y-45929748D01*
X-34638658Y-46108534D01*
X-34638662Y-46108536D01*
X-35026114Y-46370409D01*
X-35026120Y-46370413D01*
X-35389952Y-46664186D01*
X-35727602Y-46987799D01*
X-36036559Y-47338843D01*
X-36036561Y-47338845D01*
X-36314643Y-47714836D01*
X-36314646Y-47714840D01*
X-36559845Y-48113070D01*
X-36770376Y-48530634D01*
X-36770381Y-48530644D01*
X-36944746Y-48964569D01*
X-36944750Y-48964579D01*
X-37076259Y-49394001D01*
X-37081690Y-49411736D01*
X-37148884Y-49723519D01*
X-37180217Y-49868906D01*
X-37239616Y-50332758D01*
X-37239617Y-50332773D01*
X-37259464Y-50799999D01*
X-37259464Y-50800000D01*
X-37239617Y-51267226D01*
X-37239616Y-51267241D01*
X-37180217Y-51731096D01*
X-37180216Y-51731100D01*
X-37166890Y-51792934D01*
X-37165319Y-51891638D01*
X-37201640Y-51983428D01*
X-37270324Y-52054333D01*
X-37360912Y-52093556D01*
X-37459616Y-52095127D01*
X-37551406Y-52058806D01*
X-37593110Y-52025132D01*
X-45266398Y-44351844D01*
X-45321242Y-44269765D01*
X-45340500Y-44172946D01*
X-45340500Y-37668475D01*
X-45321242Y-37571656D01*
X-45266398Y-37489577D01*
X-45184319Y-37434733D01*
X-45087500Y-37415475D01*
X-44990681Y-37434733D01*
G37*
%TD.AperFunction*%
%TA.AperFunction,Conductor*%
G36*
X9987173Y-51780853D02*
G01*
X10069252Y-51835697D01*
X10145384Y-51911829D01*
X10145383Y-51911829D01*
X10148924Y-51914401D01*
X10150906Y-51916545D01*
X10152943Y-51918285D01*
X10152737Y-51918526D01*
X10215932Y-51986890D01*
X10250100Y-52079504D01*
X10246225Y-52178143D01*
X10204897Y-52267792D01*
X10179113Y-52297981D01*
X4820698Y-57656398D01*
X4738619Y-57711242D01*
X4641800Y-57730500D01*
X2024106Y-57730500D01*
X1927287Y-57711242D01*
X1845208Y-57656398D01*
X1790364Y-57574319D01*
X1771106Y-57477500D01*
X1790364Y-57380681D01*
X1845208Y-57298602D01*
X6491208Y-52652602D01*
X6573287Y-52597758D01*
X6670106Y-52578500D01*
X6901568Y-52578500D01*
X6901569Y-52578500D01*
X6901570Y-52578499D01*
X6901582Y-52578499D01*
X6997667Y-52565848D01*
X7132713Y-52548069D01*
X7357907Y-52487729D01*
X7573298Y-52398511D01*
X7573303Y-52398507D01*
X7573306Y-52398507D01*
X7663033Y-52346702D01*
X7775202Y-52281942D01*
X7960163Y-52140016D01*
X8022573Y-52077605D01*
X8104648Y-52022764D01*
X8201467Y-52003505D01*
X8298286Y-52022763D01*
X8316328Y-52031080D01*
X8451048Y-52099723D01*
X8622230Y-52155343D01*
X8800005Y-52183500D01*
X8800007Y-52183500D01*
X8979993Y-52183500D01*
X8979995Y-52183500D01*
X9157770Y-52155343D01*
X9328952Y-52099723D01*
X9489325Y-52018009D01*
X9634940Y-51912213D01*
X9711456Y-51835697D01*
X9793535Y-51780853D01*
X9890354Y-51761595D01*
X9987173Y-51780853D01*
G37*
%TD.AperFunction*%
%TA.AperFunction,Conductor*%
G36*
X19247539Y-10978142D02*
G01*
X19335242Y-11023450D01*
X19398931Y-11098872D01*
X19428909Y-11192926D01*
X19430500Y-11221254D01*
X19430500Y-14525525D01*
X19411242Y-14622344D01*
X19356398Y-14704423D01*
X12629983Y-21430837D01*
X12488061Y-21615794D01*
X12488056Y-21615801D01*
X12444321Y-21691552D01*
X12371491Y-21817697D01*
X12371489Y-21817702D01*
X12289875Y-22014737D01*
X12282271Y-22033094D01*
X12221930Y-22258285D01*
X12210047Y-22348552D01*
X12210047Y-22348553D01*
X12191500Y-22489430D01*
X12191500Y-27292800D01*
X12172242Y-27389619D01*
X12117398Y-27471698D01*
X12035319Y-27526542D01*
X11938500Y-27545800D01*
X11313417Y-27545800D01*
X11082286Y-27576231D01*
X11082282Y-27576231D01*
X10857103Y-27636567D01*
X10857097Y-27636569D01*
X10641696Y-27725791D01*
X10641693Y-27725792D01*
X10439807Y-27842352D01*
X10439794Y-27842361D01*
X10254837Y-27984283D01*
X10089983Y-28149137D01*
X9948061Y-28334094D01*
X9948052Y-28334107D01*
X9831492Y-28535993D01*
X9831491Y-28535996D01*
X9742269Y-28751397D01*
X9742267Y-28751403D01*
X9681931Y-28976582D01*
X9681931Y-28976586D01*
X9651500Y-29207717D01*
X9651500Y-29440882D01*
X9681931Y-29672013D01*
X9681931Y-29672017D01*
X9742267Y-29897196D01*
X9742269Y-29897202D01*
X9831491Y-30112603D01*
X9831492Y-30112606D01*
X9948052Y-30314492D01*
X9948058Y-30314502D01*
X10089984Y-30499463D01*
X10254837Y-30664316D01*
X10439798Y-30806242D01*
X10468247Y-30822667D01*
X10641693Y-30922807D01*
X10641696Y-30922808D01*
X10641698Y-30922809D01*
X10641702Y-30922811D01*
X10857093Y-31012029D01*
X10857097Y-31012030D01*
X10857103Y-31012032D01*
X10996795Y-31049461D01*
X11082287Y-31072369D01*
X11178848Y-31085081D01*
X11313417Y-31102799D01*
X11313429Y-31102799D01*
X11313431Y-31102800D01*
X11313432Y-31102800D01*
X16626567Y-31102800D01*
X16626569Y-31102800D01*
X16657792Y-31098689D01*
X16756293Y-31105143D01*
X16844830Y-31148802D01*
X16909919Y-31223018D01*
X16941653Y-31316494D01*
X16935199Y-31414999D01*
X16891540Y-31503536D01*
X16869716Y-31528422D01*
X15757542Y-32640598D01*
X15675463Y-32695441D01*
X15578644Y-32714700D01*
X11315013Y-32714700D01*
X11087881Y-32750673D01*
X10869167Y-32821739D01*
X10664268Y-32926140D01*
X10478224Y-33061308D01*
X10315608Y-33223924D01*
X10180440Y-33409968D01*
X10076039Y-33614867D01*
X10004973Y-33833581D01*
X9969000Y-34060713D01*
X9969000Y-34290686D01*
X10004973Y-34517818D01*
X10076039Y-34736532D01*
X10180440Y-34941431D01*
X10315608Y-35127475D01*
X10478224Y-35290091D01*
X10580651Y-35364508D01*
X10664269Y-35425260D01*
X10869171Y-35529662D01*
X11018565Y-35578203D01*
X11087881Y-35600726D01*
X11156420Y-35611581D01*
X11315017Y-35636700D01*
X11315020Y-35636700D01*
X16624980Y-35636700D01*
X16624983Y-35636700D01*
X16852118Y-35600726D01*
X17070829Y-35529662D01*
X17275731Y-35425260D01*
X17461778Y-35290089D01*
X17624389Y-35127478D01*
X17671932Y-35062041D01*
X17744421Y-34995032D01*
X17837035Y-34960865D01*
X17935675Y-34964740D01*
X18025323Y-35006068D01*
X18055512Y-35031852D01*
X18205635Y-35181975D01*
X18308616Y-35254083D01*
X18376878Y-35325389D01*
X18412656Y-35417393D01*
X18416500Y-35461327D01*
X18416500Y-40272799D01*
X18397242Y-40369618D01*
X18342398Y-40451697D01*
X9412062Y-49382032D01*
X9329983Y-49436876D01*
X9233164Y-49456134D01*
X9167724Y-49445770D01*
X9167435Y-49446977D01*
X9157774Y-49444657D01*
X8979996Y-49416500D01*
X8979995Y-49416500D01*
X8800005Y-49416500D01*
X8800003Y-49416500D01*
X8622232Y-49444656D01*
X8451044Y-49500278D01*
X8316327Y-49568919D01*
X8221318Y-49595714D01*
X8123286Y-49584111D01*
X8037157Y-49535876D01*
X8022571Y-49522392D01*
X7960162Y-49459983D01*
X7960163Y-49459983D01*
X7851236Y-49376401D01*
X7775202Y-49318058D01*
X7775192Y-49318052D01*
X7573306Y-49201492D01*
X7573303Y-49201491D01*
X7357902Y-49112269D01*
X7357896Y-49112267D01*
X7132715Y-49051931D01*
X6901582Y-49021500D01*
X6901569Y-49021500D01*
X5945200Y-49021500D01*
X5712062Y-49021500D01*
X5712059Y-49021500D01*
X5480917Y-49051929D01*
X5295011Y-49101743D01*
X5255724Y-49112271D01*
X5156535Y-49153356D01*
X5040327Y-49201491D01*
X5040324Y-49201492D01*
X4838438Y-49318052D01*
X4838425Y-49318061D01*
X4663375Y-49452382D01*
X4653468Y-49459983D01*
X-802946Y-54916398D01*
X-885025Y-54971242D01*
X-981844Y-54990500D01*
X-7431089Y-54990500D01*
X-7527908Y-54971242D01*
X-7609987Y-54916398D01*
X-7664831Y-54834319D01*
X-7684089Y-54737500D01*
X-7664831Y-54640681D01*
X-7628892Y-54579757D01*
X-7542846Y-54471859D01*
X-7505914Y-54413081D01*
X-7470597Y-54368793D01*
X-6785220Y-53683418D01*
X-6748483Y-53642520D01*
X-6731849Y-53621878D01*
X-6699703Y-53577299D01*
X-6638986Y-53444351D01*
X-6619301Y-53377312D01*
X-6619300Y-53377308D01*
X-6598500Y-53232638D01*
X-6598500Y-50039032D01*
X-6603924Y-49964593D01*
X-6609136Y-49929019D01*
X-6625298Y-49856140D01*
X-6644175Y-49815386D01*
X-6686723Y-49723528D01*
X-6686729Y-49723517D01*
X-6724819Y-49664944D01*
X-6753261Y-49632475D01*
X-6821121Y-49555006D01*
X-6821123Y-49555004D01*
X-6821125Y-49555002D01*
X-7167881Y-49257782D01*
X-7228858Y-49180151D01*
X-7255486Y-49085094D01*
X-7243710Y-48987083D01*
X-7195323Y-48901040D01*
X-7174638Y-48879602D01*
X-6753309Y-48491537D01*
X-6708052Y-48444172D01*
X-6687744Y-48420003D01*
X-6648903Y-48367288D01*
X-6588186Y-48234340D01*
X-6568501Y-48167301D01*
X-6568500Y-48167297D01*
X-6547700Y-48022627D01*
X-6547700Y-46655162D01*
X-6550643Y-46600267D01*
X-6553477Y-46573909D01*
X-6562269Y-46519651D01*
X-6613346Y-46382709D01*
X-6646831Y-46321386D01*
X-6734420Y-46204382D01*
X-6944561Y-45994241D01*
X-6999405Y-45912162D01*
X-7018663Y-45815343D01*
X-6999405Y-45718524D01*
X-6944561Y-45636445D01*
X-6920990Y-45615637D01*
X-6740513Y-45475266D01*
X-6082612Y-44963565D01*
X-6018823Y-44904650D01*
X-5990637Y-44873809D01*
X-5937703Y-44805014D01*
X-5876986Y-44672066D01*
X-5857301Y-44605027D01*
X-5857300Y-44605023D01*
X-5836500Y-44460353D01*
X-5836500Y-41851000D01*
X-5840051Y-41817979D01*
X-5841500Y-41790934D01*
X-5841500Y-39311494D01*
X-5822242Y-39214675D01*
X-5767398Y-39132596D01*
X-5439818Y-38805016D01*
X-4880220Y-38245418D01*
X-4843483Y-38204520D01*
X-4826849Y-38183878D01*
X-4794703Y-38139299D01*
X-4733986Y-38006351D01*
X-4714301Y-37939312D01*
X-4714300Y-37939308D01*
X-4693500Y-37794638D01*
X-4693500Y-33960362D01*
X-4696443Y-33905467D01*
X-4699277Y-33879109D01*
X-4708069Y-33824851D01*
X-4759146Y-33687909D01*
X-4792631Y-33626586D01*
X-4880220Y-33509582D01*
X-5696582Y-32693220D01*
X-5737480Y-32656483D01*
X-5758122Y-32639849D01*
X-5758123Y-32639848D01*
X-5758127Y-32639845D01*
X-5758128Y-32639844D01*
X-5802702Y-32607702D01*
X-5935646Y-32546987D01*
X-6002693Y-32527299D01*
X-6147357Y-32506500D01*
X-6147362Y-32506500D01*
X-11632638Y-32506500D01*
X-11632661Y-32506500D01*
X-11687525Y-32509442D01*
X-11687538Y-32509443D01*
X-11713883Y-32512275D01*
X-11713902Y-32512278D01*
X-11768148Y-32521068D01*
X-11905097Y-32572148D01*
X-11966407Y-32605626D01*
X-11966413Y-32605630D01*
X-11966414Y-32605631D01*
X-11969182Y-32607703D01*
X-12083421Y-32693222D01*
X-12083422Y-32693223D01*
X-12521102Y-33130904D01*
X-12603181Y-33185748D01*
X-12700000Y-33205006D01*
X-12796819Y-33185748D01*
X-12878898Y-33130904D01*
X-13316585Y-32693217D01*
X-13325570Y-32685146D01*
X-13357480Y-32656483D01*
X-13378122Y-32639849D01*
X-13378123Y-32639848D01*
X-13378127Y-32639845D01*
X-13378128Y-32639844D01*
X-13422702Y-32607702D01*
X-13555646Y-32546987D01*
X-13622693Y-32527299D01*
X-13767357Y-32506500D01*
X-13767362Y-32506500D01*
X-19252638Y-32506500D01*
X-19252661Y-32506500D01*
X-19307525Y-32509442D01*
X-19307538Y-32509443D01*
X-19333883Y-32512275D01*
X-19333902Y-32512278D01*
X-19388148Y-32521068D01*
X-19525097Y-32572148D01*
X-19586407Y-32605626D01*
X-19586413Y-32605630D01*
X-19586414Y-32605631D01*
X-19589182Y-32607703D01*
X-19703421Y-32693222D01*
X-19703422Y-32693223D01*
X-20141102Y-33130904D01*
X-20223181Y-33185748D01*
X-20320000Y-33205006D01*
X-20416819Y-33185748D01*
X-20498898Y-33130904D01*
X-20936585Y-32693217D01*
X-20945570Y-32685146D01*
X-20977480Y-32656483D01*
X-20998122Y-32639849D01*
X-20998123Y-32639848D01*
X-20998127Y-32639845D01*
X-20998128Y-32639844D01*
X-21042702Y-32607702D01*
X-21175646Y-32546987D01*
X-21242693Y-32527299D01*
X-21387357Y-32506500D01*
X-21387362Y-32506500D01*
X-26872638Y-32506500D01*
X-26872661Y-32506500D01*
X-26927525Y-32509442D01*
X-26927538Y-32509443D01*
X-26953883Y-32512275D01*
X-26953902Y-32512278D01*
X-27008148Y-32521068D01*
X-27145097Y-32572148D01*
X-27206407Y-32605626D01*
X-27206413Y-32605630D01*
X-27206414Y-32605631D01*
X-27209182Y-32607703D01*
X-27323421Y-32693222D01*
X-27323422Y-32693223D01*
X-27903732Y-33273532D01*
X-27985811Y-33328376D01*
X-28082630Y-33347634D01*
X-28179449Y-33328375D01*
X-28261528Y-33273532D01*
X-28365632Y-33169428D01*
X-28365641Y-33169420D01*
X-28553193Y-33038095D01*
X-28553192Y-33038095D01*
X-28553200Y-33038090D01*
X-28553211Y-33038085D01*
X-28760725Y-32941320D01*
X-28760724Y-32941320D01*
X-28981890Y-32882059D01*
X-28981901Y-32882057D01*
X-29209998Y-32862101D01*
X-29210002Y-32862101D01*
X-29438100Y-32882057D01*
X-29438111Y-32882059D01*
X-29659277Y-32941320D01*
X-29866791Y-33038085D01*
X-29866798Y-33038089D01*
X-30054362Y-33169422D01*
X-30054368Y-33169427D01*
X-30216273Y-33331332D01*
X-30216280Y-33331340D01*
X-30272755Y-33411996D01*
X-30344063Y-33480259D01*
X-30436067Y-33516037D01*
X-30534759Y-33513884D01*
X-30625115Y-33474126D01*
X-30687245Y-33411996D01*
X-30743721Y-33331340D01*
X-30743728Y-33331332D01*
X-30905632Y-33169428D01*
X-30905641Y-33169420D01*
X-31093193Y-33038095D01*
X-31093192Y-33038095D01*
X-31093200Y-33038090D01*
X-31093211Y-33038085D01*
X-31300725Y-32941320D01*
X-31300724Y-32941320D01*
X-31521890Y-32882059D01*
X-31521901Y-32882057D01*
X-31749998Y-32862101D01*
X-31750002Y-32862101D01*
X-31978100Y-32882057D01*
X-31978111Y-32882059D01*
X-32199277Y-32941320D01*
X-32406791Y-33038085D01*
X-32406798Y-33038089D01*
X-32594362Y-33169422D01*
X-32594368Y-33169427D01*
X-32756273Y-33331332D01*
X-32756280Y-33331340D01*
X-32812755Y-33411996D01*
X-32884063Y-33480259D01*
X-32976067Y-33516037D01*
X-33074759Y-33513884D01*
X-33165115Y-33474126D01*
X-33227245Y-33411996D01*
X-33283721Y-33331340D01*
X-33283728Y-33331332D01*
X-33445632Y-33169428D01*
X-33445641Y-33169420D01*
X-33633193Y-33038095D01*
X-33633192Y-33038095D01*
X-33633200Y-33038090D01*
X-33633211Y-33038085D01*
X-33840725Y-32941320D01*
X-33840724Y-32941320D01*
X-34061890Y-32882059D01*
X-34061901Y-32882057D01*
X-34289998Y-32862101D01*
X-34290002Y-32862101D01*
X-34518100Y-32882057D01*
X-34518111Y-32882059D01*
X-34739277Y-32941320D01*
X-34946791Y-33038085D01*
X-34946798Y-33038089D01*
X-35134362Y-33169422D01*
X-35134368Y-33169427D01*
X-35296273Y-33331332D01*
X-35296280Y-33331340D01*
X-35352755Y-33411996D01*
X-35424063Y-33480259D01*
X-35516067Y-33516037D01*
X-35614759Y-33513884D01*
X-35705115Y-33474126D01*
X-35767245Y-33411996D01*
X-35823721Y-33331340D01*
X-35823728Y-33331332D01*
X-35985632Y-33169428D01*
X-35985641Y-33169420D01*
X-36173193Y-33038095D01*
X-36173192Y-33038095D01*
X-36173200Y-33038090D01*
X-36173211Y-33038085D01*
X-36380725Y-32941320D01*
X-36380724Y-32941320D01*
X-36601890Y-32882059D01*
X-36601901Y-32882057D01*
X-36829998Y-32862101D01*
X-36830002Y-32862101D01*
X-37058100Y-32882057D01*
X-37058111Y-32882059D01*
X-37279277Y-32941320D01*
X-37486791Y-33038085D01*
X-37486798Y-33038089D01*
X-37674362Y-33169422D01*
X-37674368Y-33169427D01*
X-37836273Y-33331332D01*
X-37836280Y-33331340D01*
X-37892755Y-33411996D01*
X-37964063Y-33480259D01*
X-38056067Y-33516037D01*
X-38154759Y-33513884D01*
X-38245115Y-33474126D01*
X-38307245Y-33411996D01*
X-38363721Y-33331340D01*
X-38363728Y-33331332D01*
X-38525632Y-33169428D01*
X-38525641Y-33169420D01*
X-38713193Y-33038095D01*
X-38713192Y-33038095D01*
X-38713200Y-33038090D01*
X-38713211Y-33038085D01*
X-38920725Y-32941320D01*
X-38920724Y-32941320D01*
X-39141890Y-32882059D01*
X-39141901Y-32882057D01*
X-39369998Y-32862101D01*
X-39370002Y-32862101D01*
X-39598100Y-32882057D01*
X-39598111Y-32882059D01*
X-39819277Y-32941320D01*
X-40026791Y-33038085D01*
X-40026798Y-33038089D01*
X-40214362Y-33169422D01*
X-40214368Y-33169427D01*
X-40376273Y-33331332D01*
X-40376280Y-33331340D01*
X-40432755Y-33411996D01*
X-40504063Y-33480259D01*
X-40596067Y-33516037D01*
X-40694759Y-33513884D01*
X-40785115Y-33474126D01*
X-40847245Y-33411996D01*
X-40903721Y-33331340D01*
X-40903728Y-33331332D01*
X-41065632Y-33169428D01*
X-41065641Y-33169420D01*
X-41253193Y-33038095D01*
X-41253192Y-33038095D01*
X-41253200Y-33038090D01*
X-41253211Y-33038085D01*
X-41460725Y-32941320D01*
X-41460724Y-32941320D01*
X-41681890Y-32882059D01*
X-41681901Y-32882057D01*
X-41909998Y-32862101D01*
X-41910002Y-32862101D01*
X-42138100Y-32882057D01*
X-42138104Y-32882058D01*
X-42282020Y-32920620D01*
X-42380525Y-32927075D01*
X-42474001Y-32895344D01*
X-42548219Y-32830256D01*
X-42591880Y-32741720D01*
X-42600500Y-32676240D01*
X-42600500Y-32634775D01*
X-42581242Y-32537956D01*
X-42526398Y-32455877D01*
X-41247423Y-31176902D01*
X-41165344Y-31122058D01*
X-41068525Y-31102800D01*
X-36713432Y-31102800D01*
X-36713431Y-31102800D01*
X-36713430Y-31102799D01*
X-36713418Y-31102799D01*
X-36617333Y-31090148D01*
X-36482287Y-31072369D01*
X-36407096Y-31052222D01*
X-36257104Y-31012032D01*
X-36257104Y-31012031D01*
X-36257093Y-31012029D01*
X-36041702Y-30922811D01*
X-36041697Y-30922807D01*
X-36041694Y-30922807D01*
X-35951967Y-30871002D01*
X-35839798Y-30806242D01*
X-35654837Y-30664316D01*
X-35549256Y-30558734D01*
X-35467180Y-30503893D01*
X-35370361Y-30484634D01*
X-35273542Y-30503892D01*
X-35191463Y-30558735D01*
X-34943418Y-30806780D01*
X-34902520Y-30843517D01*
X-34881878Y-30860151D01*
X-34881874Y-30860154D01*
X-34881873Y-30860155D01*
X-34841024Y-30889611D01*
X-34837299Y-30892297D01*
X-34704351Y-30953014D01*
X-34637312Y-30972699D01*
X-34637308Y-30972700D01*
X-34492638Y-30993500D01*
X-34492634Y-30993500D01*
X-29007365Y-30993500D01*
X-29007362Y-30993500D01*
X-29007354Y-30993499D01*
X-29007340Y-30993499D01*
X-28992467Y-30992701D01*
X-28952467Y-30990557D01*
X-28926109Y-30987723D01*
X-28871851Y-30978931D01*
X-28734909Y-30927854D01*
X-28673586Y-30894369D01*
X-28556581Y-30806780D01*
X-28118896Y-30369092D01*
X-28036821Y-30314252D01*
X-27940002Y-30294993D01*
X-27843183Y-30314251D01*
X-27761104Y-30369094D01*
X-27323418Y-30806780D01*
X-27282520Y-30843517D01*
X-27261878Y-30860151D01*
X-27261874Y-30860154D01*
X-27261873Y-30860155D01*
X-27221024Y-30889611D01*
X-27217299Y-30892297D01*
X-27084351Y-30953014D01*
X-27017312Y-30972699D01*
X-27017308Y-30972700D01*
X-26872638Y-30993500D01*
X-26872634Y-30993500D01*
X-21387365Y-30993500D01*
X-21387362Y-30993500D01*
X-21387354Y-30993499D01*
X-21387340Y-30993499D01*
X-21372467Y-30992701D01*
X-21332467Y-30990557D01*
X-21306109Y-30987723D01*
X-21251851Y-30978931D01*
X-21114909Y-30927854D01*
X-21053586Y-30894369D01*
X-20936582Y-30806780D01*
X-20498896Y-30369092D01*
X-20416820Y-30314252D01*
X-20320002Y-30294993D01*
X-20223183Y-30314251D01*
X-20141104Y-30369094D01*
X-19703418Y-30806780D01*
X-19662520Y-30843517D01*
X-19641878Y-30860151D01*
X-19641874Y-30860154D01*
X-19641873Y-30860155D01*
X-19601024Y-30889611D01*
X-19597299Y-30892297D01*
X-19464351Y-30953014D01*
X-19397312Y-30972699D01*
X-19397308Y-30972700D01*
X-19252638Y-30993500D01*
X-19252634Y-30993500D01*
X-13767365Y-30993500D01*
X-13767362Y-30993500D01*
X-13767354Y-30993499D01*
X-13767340Y-30993499D01*
X-13752467Y-30992701D01*
X-13712467Y-30990557D01*
X-13686109Y-30987723D01*
X-13631851Y-30978931D01*
X-13494909Y-30927854D01*
X-13433586Y-30894369D01*
X-13316581Y-30806780D01*
X-12878896Y-30369092D01*
X-12796821Y-30314252D01*
X-12700002Y-30294993D01*
X-12603183Y-30314251D01*
X-12521104Y-30369094D01*
X-12083418Y-30806780D01*
X-12042520Y-30843517D01*
X-12021878Y-30860151D01*
X-12021874Y-30860154D01*
X-12021873Y-30860155D01*
X-11981024Y-30889611D01*
X-11977299Y-30892297D01*
X-11844351Y-30953014D01*
X-11777312Y-30972699D01*
X-11777308Y-30972700D01*
X-11632638Y-30993500D01*
X-11632634Y-30993500D01*
X-6147365Y-30993500D01*
X-6147362Y-30993500D01*
X-6147354Y-30993499D01*
X-6147340Y-30993499D01*
X-6132467Y-30992701D01*
X-6092467Y-30990557D01*
X-6066109Y-30987723D01*
X-6011851Y-30978931D01*
X-5874909Y-30927854D01*
X-5813586Y-30894369D01*
X-5696582Y-30806780D01*
X-5258896Y-30369092D01*
X-5176820Y-30314252D01*
X-5080002Y-30294993D01*
X-4983183Y-30314251D01*
X-4901104Y-30369094D01*
X-4463418Y-30806780D01*
X-4422520Y-30843517D01*
X-4401878Y-30860151D01*
X-4401874Y-30860154D01*
X-4401873Y-30860155D01*
X-4361024Y-30889611D01*
X-4357299Y-30892297D01*
X-4224351Y-30953014D01*
X-4157312Y-30972699D01*
X-4157308Y-30972700D01*
X-4012638Y-30993500D01*
X-4012634Y-30993500D01*
X1472635Y-30993500D01*
X1472638Y-30993500D01*
X1472646Y-30993499D01*
X1472660Y-30993499D01*
X1487533Y-30992701D01*
X1527533Y-30990557D01*
X1553891Y-30987723D01*
X1608149Y-30978931D01*
X1745091Y-30927854D01*
X1806414Y-30894369D01*
X1923418Y-30806780D01*
X2739780Y-29990418D01*
X2776517Y-29949520D01*
X2793151Y-29928878D01*
X2825297Y-29884299D01*
X2886014Y-29751351D01*
X2905699Y-29684312D01*
X2905700Y-29684308D01*
X2926500Y-29539638D01*
X2926500Y-27270526D01*
X2945758Y-27173707D01*
X3000602Y-27091628D01*
X10885693Y-19206537D01*
X18786672Y-11305558D01*
X18979697Y-11063510D01*
X19055118Y-10999823D01*
X19149172Y-10969845D01*
X19247539Y-10978142D01*
G37*
%TD.AperFunction*%
%TA.AperFunction,Conductor*%
G36*
X-30425240Y-34837516D02*
G01*
X-30334885Y-34877274D01*
X-30272755Y-34939404D01*
X-30216280Y-35020059D01*
X-30216277Y-35020063D01*
X-30216275Y-35020065D01*
X-30054365Y-35181975D01*
X-30054363Y-35181976D01*
X-30054360Y-35181979D01*
X-29991127Y-35226255D01*
X-29866800Y-35313310D01*
X-29659277Y-35410079D01*
X-29438104Y-35469342D01*
X-29286035Y-35482646D01*
X-29210002Y-35489299D01*
X-29210000Y-35489299D01*
X-29209998Y-35489299D01*
X-29144828Y-35483597D01*
X-28981896Y-35469342D01*
X-28760723Y-35410079D01*
X-28686422Y-35375431D01*
X-28590535Y-35351969D01*
X-28492968Y-35366986D01*
X-28408575Y-35418197D01*
X-28350204Y-35497806D01*
X-28326741Y-35593693D01*
X-28326500Y-35604728D01*
X-28326500Y-37794660D01*
X-28323558Y-37849524D01*
X-28323557Y-37849537D01*
X-28320725Y-37875882D01*
X-28320722Y-37875901D01*
X-28311932Y-37930147D01*
X-28260852Y-38067096D01*
X-28227374Y-38128406D01*
X-28227372Y-38128409D01*
X-28227369Y-38128414D01*
X-28139780Y-38245418D01*
X-26942418Y-39442780D01*
X-26901520Y-39479517D01*
X-26880878Y-39496151D01*
X-26880874Y-39496154D01*
X-26880873Y-39496155D01*
X-26858629Y-39512195D01*
X-26836299Y-39528297D01*
X-26703351Y-39589014D01*
X-26669209Y-39599039D01*
X-26581742Y-39644792D01*
X-26542687Y-39684047D01*
X-26406672Y-39854606D01*
X-22572602Y-43688676D01*
X-22517758Y-43770755D01*
X-22498500Y-43867574D01*
X-22498500Y-45241524D01*
X-22517758Y-45338343D01*
X-22572602Y-45420422D01*
X-22654681Y-45475266D01*
X-22751500Y-45494524D01*
X-22848319Y-45475266D01*
X-22930398Y-45420422D01*
X-32225834Y-36124986D01*
X-32319402Y-36053189D01*
X-32359187Y-36022661D01*
X-32410798Y-35983058D01*
X-32429135Y-35972471D01*
X-32612694Y-35866492D01*
X-32612697Y-35866491D01*
X-32768858Y-35801807D01*
X-32828093Y-35777271D01*
X-32828095Y-35777270D01*
X-32828096Y-35777270D01*
X-32832504Y-35776089D01*
X-32847340Y-35772113D01*
X-32847343Y-35772112D01*
X-32847343Y-35772113D01*
X-33053287Y-35716929D01*
X-33284429Y-35686500D01*
X-33284431Y-35686500D01*
X-33363758Y-35686500D01*
X-33460577Y-35667242D01*
X-33542656Y-35612398D01*
X-33597500Y-35530319D01*
X-33616758Y-35433500D01*
X-33597500Y-35336681D01*
X-33542656Y-35254602D01*
X-33508873Y-35226255D01*
X-33445641Y-35181979D01*
X-33445643Y-35181979D01*
X-33445635Y-35181975D01*
X-33283725Y-35020065D01*
X-33244986Y-34964740D01*
X-33227245Y-34939404D01*
X-33155936Y-34871141D01*
X-33063932Y-34835363D01*
X-32965240Y-34837516D01*
X-32874885Y-34877274D01*
X-32812755Y-34939404D01*
X-32756280Y-35020059D01*
X-32756277Y-35020063D01*
X-32756275Y-35020065D01*
X-32594365Y-35181975D01*
X-32594363Y-35181976D01*
X-32594360Y-35181979D01*
X-32531127Y-35226255D01*
X-32406800Y-35313310D01*
X-32199277Y-35410079D01*
X-31978104Y-35469342D01*
X-31826035Y-35482646D01*
X-31750002Y-35489299D01*
X-31750000Y-35489299D01*
X-31749998Y-35489299D01*
X-31684828Y-35483597D01*
X-31521896Y-35469342D01*
X-31300723Y-35410079D01*
X-31093200Y-35313310D01*
X-30905635Y-35181975D01*
X-30743725Y-35020065D01*
X-30704986Y-34964740D01*
X-30687245Y-34939404D01*
X-30615936Y-34871141D01*
X-30523932Y-34835363D01*
X-30425240Y-34837516D01*
G37*
%TD.AperFunction*%
%TA.AperFunction,Conductor*%
G36*
X-46800599Y-35776854D02*
G01*
X-46711093Y-35818488D01*
X-46644332Y-35891206D01*
X-46610481Y-35983936D01*
X-46607500Y-36022661D01*
X-46607500Y-43036341D01*
X-46626758Y-43133160D01*
X-46681602Y-43215239D01*
X-46763681Y-43270083D01*
X-46860500Y-43289341D01*
X-46957319Y-43270083D01*
X-47039398Y-43215239D01*
X-49319398Y-40935239D01*
X-49374242Y-40853160D01*
X-49393500Y-40756341D01*
X-49393500Y-36151369D01*
X-49374242Y-36054550D01*
X-49319398Y-35972471D01*
X-49237319Y-35917627D01*
X-49140500Y-35898369D01*
X-49043681Y-35917627D01*
X-49039704Y-35919315D01*
X-48892947Y-35983061D01*
X-48818048Y-36015594D01*
X-48541940Y-36092956D01*
X-48257870Y-36132000D01*
X-48257864Y-36132000D01*
X-47971136Y-36132000D01*
X-47971130Y-36132000D01*
X-47687060Y-36092956D01*
X-47410952Y-36015594D01*
X-47147950Y-35901356D01*
X-46991954Y-35806492D01*
X-46899225Y-35772642D01*
X-46800599Y-35776854D01*
G37*
%TD.AperFunction*%
%TA.AperFunction,Conductor*%
G36*
X-43649681Y14185542D02*
G01*
X-43567602Y14130698D01*
X-43512758Y14048619D01*
X-43493500Y13951800D01*
X-43493500Y-28287825D01*
X-43512758Y-28384644D01*
X-43567602Y-28466723D01*
X-44908602Y-29807723D01*
X-44990681Y-29862567D01*
X-45087500Y-29881825D01*
X-45184319Y-29862567D01*
X-45266398Y-29807723D01*
X-45321242Y-29725644D01*
X-45340500Y-29628825D01*
X-45340500Y12610800D01*
X-45321242Y12707619D01*
X-45266398Y12789698D01*
X-43925398Y14130698D01*
X-43843319Y14185542D01*
X-43746500Y14204800D01*
X-43649681Y14185542D01*
G37*
%TD.AperFunction*%
%TA.AperFunction,Conductor*%
G36*
X44102819Y-7195258D02*
G01*
X44184898Y-7250102D01*
X44239742Y-7332181D01*
X44259000Y-7429000D01*
X44259000Y-28500037D01*
X44239742Y-28596856D01*
X44184898Y-28678935D01*
X43631842Y-29231991D01*
X43549763Y-29286835D01*
X43452944Y-29306093D01*
X43356125Y-29286835D01*
X43274046Y-29231991D01*
X43219202Y-29149912D01*
X43206645Y-29106827D01*
X43206501Y-29106866D01*
X43204728Y-29100250D01*
X43203786Y-29097017D01*
X43203643Y-29096213D01*
X43203642Y-29096196D01*
X43144379Y-28875023D01*
X43086731Y-28751397D01*
X43047614Y-28667509D01*
X43047610Y-28667502D01*
X43047610Y-28667501D01*
X42916275Y-28479935D01*
X42754365Y-28318025D01*
X42754358Y-28318020D01*
X42651383Y-28245915D01*
X42583121Y-28174606D01*
X42547343Y-28082602D01*
X42543500Y-28038671D01*
X42543500Y-8236074D01*
X42562758Y-8139255D01*
X42608483Y-8066785D01*
X42638250Y-8033727D01*
X42734410Y-7867173D01*
X42793840Y-7684266D01*
X42813943Y-7493000D01*
X42809996Y-7455445D01*
X42819029Y-7357144D01*
X42864992Y-7269782D01*
X42940889Y-7206659D01*
X43035165Y-7177386D01*
X43061610Y-7176000D01*
X44006000Y-7176000D01*
X44102819Y-7195258D01*
G37*
%TD.AperFunction*%
%TA.AperFunction,Conductor*%
G36*
X27084000Y-7072016D02*
G01*
X27097653Y-7069854D01*
X27097664Y-7069852D01*
X27268753Y-7014262D01*
X27268754Y-7014261D01*
X27429057Y-6932583D01*
X27429064Y-6932579D01*
X27574613Y-6826831D01*
X27574615Y-6826829D01*
X27650748Y-6750697D01*
X27732827Y-6695853D01*
X27829646Y-6676595D01*
X27926465Y-6695853D01*
X28008544Y-6750697D01*
X28085060Y-6827213D01*
X28092205Y-6832404D01*
X28159214Y-6904890D01*
X28193384Y-6997503D01*
X28196500Y-7037088D01*
X28196500Y-28410482D01*
X28177242Y-28507301D01*
X28150733Y-28555615D01*
X28147232Y-28560614D01*
X28075917Y-28628871D01*
X27983910Y-28664641D01*
X27885218Y-28662479D01*
X27794866Y-28622714D01*
X27732753Y-28560594D01*
X27676281Y-28479943D01*
X27676277Y-28479938D01*
X27676275Y-28479935D01*
X27514365Y-28318025D01*
X27514361Y-28318022D01*
X27514359Y-28318020D01*
X27326807Y-28186695D01*
X27326808Y-28186695D01*
X27326800Y-28186690D01*
X27326789Y-28186685D01*
X27119275Y-28089920D01*
X27119276Y-28089920D01*
X26898110Y-28030659D01*
X26898099Y-28030657D01*
X26670002Y-28010701D01*
X26669997Y-28010701D01*
X26441907Y-28030656D01*
X26431028Y-28032575D01*
X26430561Y-28029927D01*
X26350653Y-28035151D01*
X26257182Y-28003403D01*
X26204823Y-27963219D01*
X25853602Y-27611998D01*
X25798758Y-27529919D01*
X25779500Y-27433100D01*
X25779500Y-7101132D01*
X25798758Y-7004313D01*
X25853602Y-6922234D01*
X25935681Y-6867390D01*
X26032500Y-6848132D01*
X26129319Y-6867390D01*
X26181211Y-6896452D01*
X26230933Y-6932578D01*
X26230942Y-6932583D01*
X26391245Y-7014261D01*
X26391246Y-7014262D01*
X26562335Y-7069852D01*
X26562346Y-7069854D01*
X26575999Y-7072016D01*
X26576000Y-7072016D01*
X26576000Y-5991330D01*
X26599745Y-6015075D01*
X26685255Y-6064444D01*
X26780630Y-6090000D01*
X26879370Y-6090000D01*
X26974745Y-6064444D01*
X27060255Y-6015075D01*
X27084000Y-5991330D01*
X27084000Y-7072016D01*
G37*
%TD.AperFunction*%
%TA.AperFunction,Conductor*%
G36*
X35850766Y-6819806D02*
G01*
X35897514Y-6856652D01*
X35974523Y-6933661D01*
X35974528Y-6933665D01*
X36037636Y-6973318D01*
X36122032Y-7026348D01*
X36269969Y-7078114D01*
X36286470Y-7083888D01*
X36304834Y-7085957D01*
X36354689Y-7096748D01*
X36487882Y-7140026D01*
X36715017Y-7176000D01*
X39472393Y-7176000D01*
X39569212Y-7195258D01*
X39651291Y-7250102D01*
X39706135Y-7332181D01*
X39725393Y-7429000D01*
X39724007Y-7455445D01*
X39720060Y-7492998D01*
X39720060Y-7492999D01*
X39740163Y-7684268D01*
X39773848Y-7787939D01*
X39799593Y-7867173D01*
X39807327Y-7880568D01*
X39882091Y-8010065D01*
X39895753Y-8033727D01*
X40024440Y-8176649D01*
X40156209Y-8272384D01*
X40223217Y-8344871D01*
X40257385Y-8437485D01*
X40260500Y-8477065D01*
X40260500Y-27433099D01*
X40241242Y-27529918D01*
X40186398Y-27611997D01*
X39835175Y-27963219D01*
X39753096Y-28018063D01*
X39656277Y-28037321D01*
X39609236Y-28031128D01*
X39608981Y-28032576D01*
X39598105Y-28030658D01*
X39370002Y-28010701D01*
X39369998Y-28010701D01*
X39141900Y-28030657D01*
X39141889Y-28030659D01*
X38920723Y-28089920D01*
X38713209Y-28186685D01*
X38713202Y-28186689D01*
X38525638Y-28318022D01*
X38525632Y-28318027D01*
X38363727Y-28479932D01*
X38363720Y-28479940D01*
X38307245Y-28560596D01*
X38235937Y-28628859D01*
X38143933Y-28664637D01*
X38045241Y-28662484D01*
X37954885Y-28622726D01*
X37892755Y-28560596D01*
X37836279Y-28479940D01*
X37836272Y-28479932D01*
X37674368Y-28318028D01*
X37674359Y-28318020D01*
X37486807Y-28186695D01*
X37486808Y-28186695D01*
X37486800Y-28186690D01*
X37486789Y-28186685D01*
X37279275Y-28089920D01*
X37279276Y-28089920D01*
X37058110Y-28030659D01*
X37058099Y-28030657D01*
X36830002Y-28010701D01*
X36829997Y-28010701D01*
X36601907Y-28030656D01*
X36591028Y-28032575D01*
X36590561Y-28029927D01*
X36510653Y-28035151D01*
X36417182Y-28003403D01*
X36364823Y-27963219D01*
X35537602Y-27135998D01*
X35482758Y-27053919D01*
X35463500Y-26957100D01*
X35463500Y-7037088D01*
X35482758Y-6940269D01*
X35537602Y-6858190D01*
X35567743Y-6832441D01*
X35569871Y-6830895D01*
X35659506Y-6789552D01*
X35758145Y-6785657D01*
X35850766Y-6819806D01*
G37*
%TD.AperFunction*%
%TA.AperFunction,Conductor*%
G36*
X22451319Y-16860733D02*
G01*
X22533398Y-16915577D01*
X22588242Y-16997656D01*
X22607500Y-17094475D01*
X22607500Y-24766099D01*
X22588242Y-24862918D01*
X22533398Y-24944997D01*
X19515175Y-27963219D01*
X19433096Y-28018063D01*
X19336277Y-28037321D01*
X19289236Y-28031128D01*
X19288981Y-28032576D01*
X19278105Y-28030658D01*
X19050002Y-28010701D01*
X19049998Y-28010701D01*
X18821900Y-28030657D01*
X18821889Y-28030659D01*
X18600723Y-28089920D01*
X18393209Y-28186685D01*
X18393202Y-28186689D01*
X18256999Y-28282059D01*
X18166643Y-28321816D01*
X18067951Y-28323969D01*
X17975947Y-28288190D01*
X17911167Y-28228830D01*
X17850016Y-28149137D01*
X17685162Y-27984283D01*
X17685163Y-27984283D01*
X17544674Y-27876483D01*
X17500202Y-27842358D01*
X17500192Y-27842352D01*
X17298306Y-27725792D01*
X17298303Y-27725791D01*
X17082902Y-27636569D01*
X17082896Y-27636567D01*
X16857715Y-27576231D01*
X16626582Y-27545800D01*
X16626569Y-27545800D01*
X16001500Y-27545800D01*
X15904681Y-27526542D01*
X15822602Y-27471698D01*
X15767758Y-27389619D01*
X15748500Y-27292800D01*
X15748500Y-23447475D01*
X15767758Y-23350656D01*
X15822602Y-23268577D01*
X22175602Y-16915577D01*
X22257681Y-16860733D01*
X22354500Y-16841475D01*
X22451319Y-16860733D01*
G37*
%TD.AperFunction*%
%TA.AperFunction,Conductor*%
G36*
X-43723143Y50519742D02*
G01*
X-43641064Y50464898D01*
X-34230745Y41054579D01*
X-34230738Y41054571D01*
X-34061776Y40885609D01*
X-33954031Y40807328D01*
X-33875731Y40750440D01*
X-33825978Y40725090D01*
X-33670836Y40646041D01*
X-33670834Y40646041D01*
X-33670829Y40646038D01*
X-33452119Y40574974D01*
X-33224983Y40538999D01*
X-33224981Y40538999D01*
X-32984576Y40538999D01*
X-32984552Y40539000D01*
X-18114983Y40539000D01*
X-17053447Y40539000D01*
X-17053423Y40538999D01*
X-17042983Y40538999D01*
X-16813019Y40538999D01*
X-16813017Y40538999D01*
X-16585881Y40574974D01*
X-16367170Y40646038D01*
X-16162268Y40750440D01*
X-16083979Y40807322D01*
X-15976222Y40885611D01*
X-15813611Y41048222D01*
X-15813610Y41048224D01*
X-15799197Y41062637D01*
X-15799191Y41062644D01*
X-14957644Y41904191D01*
X-14957637Y41904197D01*
X-14943224Y41918610D01*
X-14943222Y41918611D01*
X-14780611Y42081222D01*
X-14645440Y42267269D01*
X-14541038Y42472171D01*
X-14469974Y42690882D01*
X-14467268Y42707968D01*
X-14457520Y42769518D01*
X-14423351Y42862130D01*
X-14356342Y42934618D01*
X-14266694Y42975945D01*
X-14168054Y42979820D01*
X-14075440Y42945651D01*
X-14028737Y42908833D01*
X-13661602Y42541698D01*
X-13606758Y42459619D01*
X-13587500Y42362800D01*
X-13587500Y27240394D01*
X-13587500Y27115606D01*
X-13571083Y27033070D01*
X-13563155Y26993214D01*
X-13515400Y26877924D01*
X-13446072Y26774168D01*
X4499398Y8828698D01*
X4554242Y8746619D01*
X4573500Y8649800D01*
X4573500Y-5970158D01*
X4554242Y-6066977D01*
X4508517Y-6139447D01*
X4462752Y-6190273D01*
X4366592Y-6356829D01*
X4307163Y-6539731D01*
X4287060Y-6731000D01*
X4307163Y-6922268D01*
X4363856Y-7096749D01*
X4366593Y-7105173D01*
X4462753Y-7271727D01*
X4591440Y-7414649D01*
X4747030Y-7527691D01*
X4797563Y-7550190D01*
X4878177Y-7607163D01*
X4930853Y-7690649D01*
X4947570Y-7787939D01*
X4925784Y-7884221D01*
X4873555Y-7960214D01*
X-7086083Y-19919852D01*
X-7168162Y-19974696D01*
X-7264981Y-19993954D01*
X-7361800Y-19974696D01*
X-7443879Y-19919852D01*
X-7498723Y-19837773D01*
X-7517981Y-19740954D01*
X-7516390Y-19712626D01*
X-7496233Y-19533727D01*
X-7492500Y-19500600D01*
X-7492500Y-13570200D01*
X-7530837Y-13229953D01*
X-7607028Y-12896137D01*
X-7691164Y-12655691D01*
X-7720114Y-12572956D01*
X-7726789Y-12559095D01*
X-7770399Y-12468538D01*
X-7868677Y-12264460D01*
X-8050846Y-11974541D01*
X-8264328Y-11706842D01*
X-13147842Y-6823328D01*
X-13415541Y-6609846D01*
X-13592977Y-6498355D01*
X-13705459Y-6427677D01*
X-13705464Y-6427675D01*
X-14013946Y-6279118D01*
X-14013949Y-6279117D01*
X-14013951Y-6279116D01*
X-14055839Y-6264459D01*
X-14097728Y-6249801D01*
X-14337130Y-6166029D01*
X-14526402Y-6122829D01*
X-14670953Y-6089837D01*
X-14931360Y-6060495D01*
X-15009263Y-6038704D01*
X-15157423Y-5970158D01*
X-15246531Y-5928932D01*
X-15246533Y-5928931D01*
X-15246540Y-5928928D01*
X-15596782Y-5810918D01*
X-15596797Y-5810914D01*
X-15883196Y-5747873D01*
X-15957756Y-5731462D01*
X-15957758Y-5731461D01*
X-15957766Y-5731460D01*
X-16325197Y-5691500D01*
X-16694803Y-5691500D01*
X-17062235Y-5731460D01*
X-17062249Y-5731463D01*
X-17423204Y-5810914D01*
X-17423219Y-5810918D01*
X-17773461Y-5928928D01*
X-17959664Y-6015075D01*
X-18108915Y-6084126D01*
X-18384269Y-6249802D01*
X-18425618Y-6274681D01*
X-18719857Y-6498355D01*
X-18988186Y-6752528D01*
X-19227472Y-7034238D01*
X-19434880Y-7340142D01*
X-19434898Y-7340172D01*
X-19608007Y-7666690D01*
X-19608015Y-7666706D01*
X-19744822Y-8010065D01*
X-19843697Y-8366180D01*
X-19843700Y-8366197D01*
X-19903496Y-8730931D01*
X-19903497Y-8730935D01*
X-19923506Y-9100000D01*
X-19903497Y-9469064D01*
X-19903496Y-9469068D01*
X-19843700Y-9833802D01*
X-19843697Y-9833819D01*
X-19744822Y-10189934D01*
X-19608015Y-10533293D01*
X-19608007Y-10533309D01*
X-19434898Y-10859827D01*
X-19434880Y-10859857D01*
X-19227472Y-11165761D01*
X-18988186Y-11447471D01*
X-18841219Y-11586685D01*
X-18719857Y-11701645D01*
X-18425615Y-11925321D01*
X-18108915Y-12115874D01*
X-17773469Y-12271068D01*
X-17773464Y-12271069D01*
X-17773461Y-12271071D01*
X-17423219Y-12389081D01*
X-17423210Y-12389084D01*
X-17200159Y-12438180D01*
X-17133221Y-12452915D01*
X-17042806Y-12492536D01*
X-16974435Y-12563742D01*
X-16938518Y-12655691D01*
X-16940523Y-12754387D01*
X-16980144Y-12844802D01*
X-17051350Y-12913173D01*
X-17133221Y-12947085D01*
X-17423204Y-13010914D01*
X-17423219Y-13010918D01*
X-17773461Y-13128928D01*
X-18108913Y-13284125D01*
X-18425618Y-13474681D01*
X-18719857Y-13698355D01*
X-18988186Y-13952528D01*
X-19227472Y-14234238D01*
X-19434880Y-14540142D01*
X-19434898Y-14540172D01*
X-19608007Y-14866690D01*
X-19608012Y-14866700D01*
X-19734493Y-15184142D01*
X-19788221Y-15266956D01*
X-19790626Y-15269394D01*
X-20313200Y-15791968D01*
X-20395279Y-15846812D01*
X-20492098Y-15866070D01*
X-20588917Y-15846812D01*
X-20670996Y-15791968D01*
X-20725840Y-15709889D01*
X-20745098Y-15613070D01*
X-20738756Y-15556780D01*
X-20683625Y-15315235D01*
X-20645288Y-14974988D01*
X-20645288Y-7078114D01*
X-20626030Y-6981295D01*
X-20571186Y-6899216D01*
X-17433321Y-3761351D01*
X-14233329Y-561359D01*
X-14019846Y-293659D01*
X-13837678Y-3741D01*
X-13766135Y144821D01*
X-13689116Y304752D01*
X-13576028Y627937D01*
X-13499837Y961753D01*
X-13461500Y1302000D01*
X-13461500Y12590395D01*
X-13442242Y12687214D01*
X-13432033Y12708895D01*
X-13411986Y12746706D01*
X-13275180Y13090062D01*
X-13232027Y13245486D01*
X-13176304Y13446181D01*
X-13176304Y13446186D01*
X-13176300Y13446197D01*
X-13116504Y13810935D01*
X-13096494Y14180000D01*
X-13116504Y14549065D01*
X-13176300Y14913803D01*
X-13176303Y14913813D01*
X-13176304Y14913820D01*
X-13275179Y15269935D01*
X-13315318Y15370675D01*
X-13411986Y15613294D01*
X-13428940Y15645272D01*
X-13585103Y15939828D01*
X-13585107Y15939835D01*
X-13585113Y15939846D01*
X-13668895Y16063415D01*
X-13792529Y16245762D01*
X-13886506Y16356400D01*
X-14031810Y16527466D01*
X-14031815Y16527472D01*
X-14252708Y16736712D01*
X-14300143Y16781645D01*
X-14594385Y17005321D01*
X-14911085Y17195874D01*
X-15246531Y17351068D01*
X-15246533Y17351069D01*
X-15246540Y17351072D01*
X-15596782Y17469082D01*
X-15596797Y17469086D01*
X-15828616Y17520113D01*
X-15887944Y17533172D01*
X-15978358Y17572792D01*
X-16046729Y17643998D01*
X-16082646Y17735947D01*
X-16080641Y17834643D01*
X-16041020Y17925058D01*
X-15969814Y17993429D01*
X-15887943Y18027341D01*
X-15596926Y18091399D01*
X-15596921Y18091400D01*
X-15246724Y18209396D01*
X-14911314Y18364573D01*
X-14867796Y18390757D01*
X-15778697Y19301658D01*
X-15534879Y19402650D01*
X-15285125Y19546846D01*
X-15056330Y19722407D01*
X-14852407Y19926330D01*
X-14676846Y20155125D01*
X-14532650Y20404879D01*
X-14431658Y20648697D01*
X-13522426Y19739465D01*
X-13412445Y19946909D01*
X-13412441Y19946917D01*
X-13275654Y20290226D01*
X-13176792Y20646294D01*
X-13176790Y20646305D01*
X-13117003Y21010986D01*
X-13117002Y21010990D01*
X-13096996Y21380000D01*
X-13117002Y21749011D01*
X-13117003Y21749015D01*
X-13176790Y22113696D01*
X-13176792Y22113707D01*
X-13275654Y22469775D01*
X-13412441Y22813084D01*
X-13412442Y22813085D01*
X-13522426Y23020537D01*
X-14431659Y22111305D01*
X-14532650Y22355121D01*
X-14676846Y22604875D01*
X-14852407Y22833670D01*
X-15056330Y23037593D01*
X-15285125Y23213154D01*
X-15534879Y23357350D01*
X-15778699Y23458343D01*
X-14867797Y24369244D01*
X-14911322Y24395432D01*
X-15246724Y24550605D01*
X-15596921Y24668601D01*
X-15596927Y24668602D01*
X-15957833Y24748043D01*
X-15957847Y24748046D01*
X-16325224Y24788000D01*
X-16694776Y24788000D01*
X-17062154Y24748046D01*
X-17062168Y24748043D01*
X-17423074Y24668602D01*
X-17423080Y24668601D01*
X-17773277Y24550605D01*
X-18108687Y24395428D01*
X-18152205Y24369245D01*
X-18152205Y24369244D01*
X-17241304Y23458343D01*
X-17485121Y23357350D01*
X-17734875Y23213154D01*
X-17963670Y23037593D01*
X-18167593Y22833670D01*
X-18343154Y22604875D01*
X-18487350Y22355121D01*
X-18588343Y22111304D01*
X-19497576Y23020537D01*
X-19607555Y22813093D01*
X-19607563Y22813076D01*
X-19744347Y22469775D01*
X-19843209Y22113707D01*
X-19843211Y22113696D01*
X-19902998Y21749015D01*
X-19902999Y21749011D01*
X-19923005Y21380000D01*
X-19902999Y21010990D01*
X-19902998Y21010986D01*
X-19843211Y20646305D01*
X-19843209Y20646294D01*
X-19744347Y20290226D01*
X-19607563Y19946925D01*
X-19607555Y19946909D01*
X-19497577Y19739465D01*
X-18588344Y20648699D01*
X-18487350Y20404879D01*
X-18343154Y20155125D01*
X-18167593Y19926330D01*
X-17963670Y19722407D01*
X-17734875Y19546846D01*
X-17485121Y19402650D01*
X-17241305Y19301659D01*
X-18152205Y18390758D01*
X-18108676Y18364568D01*
X-17773277Y18209396D01*
X-17423080Y18091400D01*
X-17423074Y18091399D01*
X-17132058Y18027341D01*
X-17041642Y17987720D01*
X-16973272Y17916514D01*
X-16937355Y17824564D01*
X-16939360Y17725869D01*
X-16978981Y17635453D01*
X-17050187Y17567083D01*
X-17132058Y17533171D01*
X-17423204Y17469086D01*
X-17423219Y17469082D01*
X-17773461Y17351072D01*
X-18108913Y17195875D01*
X-18108915Y17195874D01*
X-18179756Y17153250D01*
X-18425618Y17005319D01*
X-18719857Y16781645D01*
X-18988186Y16527472D01*
X-19227472Y16245762D01*
X-19434880Y15939858D01*
X-19434898Y15939828D01*
X-19608007Y15613310D01*
X-19608015Y15613294D01*
X-19744822Y15269935D01*
X-19843697Y14913820D01*
X-19843700Y14913803D01*
X-19903496Y14549069D01*
X-19903497Y14549065D01*
X-19923506Y14180000D01*
X-19903497Y13810936D01*
X-19903496Y13810932D01*
X-19843700Y13446198D01*
X-19843697Y13446181D01*
X-19744822Y13090066D01*
X-19651221Y12855146D01*
X-19608014Y12746706D01*
X-19587972Y12708902D01*
X-19559636Y12614343D01*
X-19558500Y12590395D01*
X-19558500Y2840726D01*
X-19577758Y2743907D01*
X-19632602Y2661828D01*
X-25970459Y-3676028D01*
X-25970461Y-3676031D01*
X-26183940Y-3943726D01*
X-26366111Y-4233646D01*
X-26366113Y-4233651D01*
X-26514671Y-4542134D01*
X-26525593Y-4573348D01*
X-26536432Y-4604325D01*
X-26627759Y-4865319D01*
X-26627759Y-4865321D01*
X-26627760Y-4865325D01*
X-26653513Y-4978159D01*
X-26703951Y-5199142D01*
X-26742288Y-5539386D01*
X-26742288Y-13436261D01*
X-26761546Y-13533080D01*
X-26816390Y-13615159D01*
X-34026668Y-20825436D01*
X-34026669Y-20825437D01*
X-34240152Y-21093138D01*
X-34422322Y-21383057D01*
X-34572950Y-21695839D01*
X-34575580Y-21704969D01*
X-34683970Y-22014729D01*
X-34683972Y-22014735D01*
X-34683972Y-22014737D01*
X-34688162Y-22033094D01*
X-34760163Y-22348553D01*
X-34798500Y-22688798D01*
X-34798500Y-24188506D01*
X-34817758Y-24285325D01*
X-34872602Y-24367404D01*
X-35759783Y-25254584D01*
X-35796524Y-25295488D01*
X-35813155Y-25316126D01*
X-35813156Y-25316127D01*
X-35845298Y-25360700D01*
X-35845298Y-25360701D01*
X-35906013Y-25493645D01*
X-35925701Y-25560692D01*
X-35946500Y-25705356D01*
X-35946500Y-27390077D01*
X-35965758Y-27486896D01*
X-36020602Y-27568975D01*
X-36102681Y-27623819D01*
X-36199500Y-27643077D01*
X-36264980Y-27634457D01*
X-36482290Y-27576230D01*
X-36713418Y-27545800D01*
X-36713431Y-27545800D01*
X-39683500Y-27545800D01*
X-39780319Y-27526542D01*
X-39862398Y-27471698D01*
X-39917242Y-27389619D01*
X-39936500Y-27292800D01*
X-39936500Y6350001D01*
X-37259464Y6350001D01*
X-37259464Y6350000D01*
X-37239617Y5882774D01*
X-37239616Y5882759D01*
X-37180217Y5418907D01*
X-37180216Y5418901D01*
X-37180215Y5418896D01*
X-37137505Y5220719D01*
X-37081688Y4961729D01*
X-36944750Y4514580D01*
X-36944746Y4514570D01*
X-36770381Y4080645D01*
X-36770376Y4080635D01*
X-36625119Y3792534D01*
X-36559840Y3663062D01*
X-36491108Y3551435D01*
X-36314646Y3264841D01*
X-36314643Y3264837D01*
X-36036561Y2888846D01*
X-36036559Y2888844D01*
X-35759407Y2573937D01*
X-35727591Y2537788D01*
X-35389964Y2214198D01*
X-35389961Y2214196D01*
X-35389952Y2214187D01*
X-35026120Y1920414D01*
X-35026114Y1920410D01*
X-34638662Y1658537D01*
X-34638658Y1658535D01*
X-34638652Y1658531D01*
X-34230381Y1430457D01*
X-33804239Y1237829D01*
X-33363297Y1082034D01*
X-33363285Y1082031D01*
X-33363276Y1082028D01*
X-32910743Y964198D01*
X-32910745Y964198D01*
X-32910735Y964197D01*
X-32910730Y964195D01*
X-32449800Y885160D01*
X-31983828Y845500D01*
X-31983822Y845500D01*
X-31516178Y845500D01*
X-31516172Y845500D01*
X-31050200Y885160D01*
X-30589270Y964195D01*
X-30589262Y964198D01*
X-30589257Y964198D01*
X-30136725Y1082028D01*
X-30136721Y1082030D01*
X-30136703Y1082034D01*
X-29695761Y1237829D01*
X-29269619Y1430457D01*
X-28861348Y1658531D01*
X-28473890Y1920407D01*
X-28473881Y1920414D01*
X-28110049Y2214187D01*
X-28110046Y2214191D01*
X-28110036Y2214198D01*
X-27772409Y2537788D01*
X-27463440Y2888845D01*
X-27185356Y3264839D01*
X-26940160Y3663062D01*
X-26729619Y4080645D01*
X-26555251Y4514578D01*
X-26418310Y4961736D01*
X-26319785Y5418896D01*
X-26260384Y5882765D01*
X-26240536Y6350000D01*
X-26260384Y6817235D01*
X-26319785Y7281104D01*
X-26418310Y7738264D01*
X-26555251Y8185422D01*
X-26729619Y8619355D01*
X-26940160Y9036938D01*
X-27141594Y9364087D01*
X-27185355Y9435160D01*
X-27185358Y9435164D01*
X-27463440Y9811155D01*
X-27463442Y9811157D01*
X-27551772Y9911519D01*
X-27772409Y10162212D01*
X-28110036Y10485802D01*
X-28110040Y10485805D01*
X-28110049Y10485814D01*
X-28473881Y10779587D01*
X-28473887Y10779591D01*
X-28861339Y11041464D01*
X-28861343Y11041466D01*
X-28916882Y11072492D01*
X-29269619Y11269543D01*
X-29695761Y11462171D01*
X-29695764Y11462172D01*
X-29695766Y11462173D01*
X-29695774Y11462176D01*
X-30136697Y11617964D01*
X-30136725Y11617973D01*
X-30589258Y11735803D01*
X-30589256Y11735803D01*
X-31050194Y11814839D01*
X-31050195Y11814840D01*
X-31050200Y11814840D01*
X-31516172Y11854500D01*
X-31983828Y11854500D01*
X-32449800Y11814840D01*
X-32449805Y11814840D01*
X-32449807Y11814839D01*
X-32910744Y11735803D01*
X-33363276Y11617973D01*
X-33363304Y11617964D01*
X-33804227Y11462176D01*
X-33804235Y11462173D01*
X-34088334Y11333753D01*
X-34230381Y11269543D01*
X-34318616Y11220252D01*
X-34638658Y11041466D01*
X-34638662Y11041464D01*
X-35026114Y10779591D01*
X-35026120Y10779587D01*
X-35389952Y10485814D01*
X-35566118Y10316973D01*
X-35639767Y10246384D01*
X-35727602Y10162201D01*
X-36036559Y9811157D01*
X-36036561Y9811155D01*
X-36314643Y9435164D01*
X-36314646Y9435160D01*
X-36559845Y9036930D01*
X-36770376Y8619366D01*
X-36770381Y8619356D01*
X-36944746Y8185431D01*
X-36944750Y8185421D01*
X-37081688Y7738272D01*
X-37180217Y7281094D01*
X-37239616Y6817242D01*
X-37239617Y6817227D01*
X-37259464Y6350001D01*
X-39936500Y6350001D01*
X-39936500Y12574000D01*
X-39917242Y12670819D01*
X-39862398Y12752898D01*
X-39780319Y12807742D01*
X-39683500Y12827000D01*
X-39624000Y12827000D01*
X-39624000Y13693670D01*
X-39600255Y13669925D01*
X-39514745Y13620556D01*
X-39419370Y13595000D01*
X-39320630Y13595000D01*
X-39225255Y13620556D01*
X-39139745Y13669925D01*
X-39116000Y13693670D01*
X-39116000Y12827000D01*
X-39040046Y12827000D01*
X-39040045Y12827001D01*
X-38862344Y12855146D01*
X-38691247Y12910739D01*
X-38691246Y12910739D01*
X-38530943Y12992417D01*
X-38530936Y12992421D01*
X-38385387Y13098169D01*
X-38258169Y13225387D01*
X-38152421Y13370936D01*
X-38152417Y13370943D01*
X-38070739Y13531246D01*
X-38070738Y13531247D01*
X-38015148Y13702336D01*
X-38015146Y13702347D01*
X-38012983Y13716000D01*
X-39093670Y13716000D01*
X-39069925Y13739745D01*
X-39020556Y13825255D01*
X-38995000Y13920630D01*
X-38995000Y14019370D01*
X-39020556Y14114745D01*
X-39069925Y14200255D01*
X-39093670Y14224000D01*
X-38012983Y14224000D01*
X-38012984Y14224001D01*
X-38015146Y14237654D01*
X-38015148Y14237665D01*
X-38070738Y14408754D01*
X-38070739Y14408755D01*
X-38152417Y14569058D01*
X-38152421Y14569065D01*
X-38258169Y14714614D01*
X-38334303Y14790748D01*
X-38389147Y14872827D01*
X-38408405Y14969646D01*
X-38389147Y15066465D01*
X-38334303Y15148544D01*
X-38316096Y15166751D01*
X-38257787Y15225060D01*
X-38151991Y15370675D01*
X-38070277Y15531048D01*
X-38014657Y15702230D01*
X-37986500Y15880005D01*
X-37986500Y16059995D01*
X-38014657Y16237770D01*
X-38070277Y16408952D01*
X-38138920Y16543672D01*
X-38165715Y16638681D01*
X-38154112Y16736712D01*
X-38105878Y16822842D01*
X-38092405Y16837417D01*
X-38029984Y16899837D01*
X-37888058Y17084798D01*
X-37815716Y17210098D01*
X-37771493Y17286694D01*
X-37771492Y17286697D01*
X-37771493Y17286697D01*
X-37771489Y17286702D01*
X-37682271Y17502093D01*
X-37669826Y17548538D01*
X-37621932Y17727283D01*
X-37621932Y17727284D01*
X-37621931Y17727287D01*
X-37604152Y17862333D01*
X-37591501Y17958418D01*
X-37591500Y17958432D01*
X-37591500Y18191569D01*
X-37591501Y18191583D01*
X-37614277Y18364573D01*
X-37621931Y18422713D01*
X-37682271Y18647907D01*
X-37771489Y18863298D01*
X-37771492Y18863304D01*
X-37771493Y18863307D01*
X-37888053Y19065193D01*
X-37888058Y19065202D01*
X-38029984Y19250163D01*
X-38194837Y19415016D01*
X-38194838Y19415017D01*
X-38194837Y19415017D01*
X-38366641Y19546846D01*
X-38379798Y19556942D01*
X-38379808Y19556948D01*
X-38581694Y19673508D01*
X-38581697Y19673509D01*
X-38797098Y19762731D01*
X-38797104Y19762733D01*
X-39022285Y19823069D01*
X-39253418Y19853500D01*
X-39253431Y19853500D01*
X-40990431Y19853500D01*
X-41223569Y19853500D01*
X-41223575Y19853500D01*
X-41316153Y19841312D01*
X-41414657Y19847769D01*
X-41503192Y19891431D01*
X-41528072Y19913250D01*
X-45108088Y23493267D01*
X-45133354Y23512654D01*
X-45133355Y23512655D01*
X-45220781Y23579739D01*
X-45293048Y23635192D01*
X-45293058Y23635198D01*
X-45494944Y23751758D01*
X-45494947Y23751759D01*
X-45511966Y23758809D01*
X-45710343Y23840979D01*
X-45788919Y23862034D01*
X-45935537Y23901321D01*
X-46166679Y23931750D01*
X-46166681Y23931750D01*
X-48702288Y23931750D01*
X-48799107Y23951008D01*
X-48881186Y24005852D01*
X-48936030Y24087931D01*
X-48955288Y24184750D01*
X-48936030Y24281569D01*
X-48881186Y24363648D01*
X-48363609Y24881225D01*
X-46779744Y26465092D01*
X-46779737Y26465097D01*
X-46765324Y26479510D01*
X-46765322Y26479511D01*
X-46602711Y26642122D01*
X-46467540Y26828169D01*
X-46370793Y27018047D01*
X-46363138Y27033070D01*
X-46292074Y27251781D01*
X-46256099Y27478917D01*
X-46256099Y27708883D01*
X-46256099Y27717847D01*
X-46256100Y27717877D01*
X-46256100Y31977618D01*
X-37254501Y31977618D01*
X-37254501Y31522383D01*
X-37216920Y31068729D01*
X-37142016Y30619731D01*
X-37142010Y30619705D01*
X-37030295Y30178433D01*
X-37030292Y30178422D01*
X-37030290Y30178417D01*
X-37028605Y30173508D01*
X-36882523Y29747863D01*
X-36882519Y29747854D01*
X-36882518Y29747851D01*
X-36846306Y29665273D01*
X-36699702Y29330952D01*
X-36483095Y28930575D01*
X-36483092Y28930570D01*
X-36362545Y28746000D01*
X-36234170Y28549444D01*
X-35954630Y28190165D01*
X-35646383Y27855191D01*
X-35314563Y27549599D01*
X-35311536Y27546811D01*
X-35311519Y27546796D01*
X-34952379Y27267132D01*
X-34952367Y27267123D01*
X-34862493Y27208373D01*
X-34619066Y27049245D01*
X-34548566Y26980151D01*
X-34509871Y26889335D01*
X-34504500Y26837481D01*
X-34504500Y24550623D01*
X-34504500Y24449377D01*
X-34465755Y24355837D01*
X-34394163Y24284245D01*
X-34300623Y24245500D01*
X-29199377Y24245500D01*
X-29105837Y24284245D01*
X-29034245Y24355837D01*
X-28995500Y24449377D01*
X-28995500Y26837481D01*
X-28976242Y26934300D01*
X-28921398Y27016379D01*
X-28880935Y27049247D01*
X-28547633Y27267125D01*
X-28474539Y27324044D01*
X-28188483Y27546797D01*
X-28188474Y27546806D01*
X-28188467Y27546810D01*
X-27853617Y27855192D01*
X-27545370Y28190166D01*
X-27265831Y28549445D01*
X-27016907Y28930575D01*
X-26800298Y29330955D01*
X-26617483Y29747852D01*
X-26469710Y30178418D01*
X-26357989Y30619714D01*
X-26283082Y31068726D01*
X-26245500Y31522391D01*
X-26245500Y31977609D01*
X-26283082Y32431274D01*
X-26357989Y32880286D01*
X-26446612Y33230346D01*
X-26469706Y33321567D01*
X-26469708Y33321571D01*
X-26469710Y33321582D01*
X-26617483Y33752148D01*
X-26800298Y34169045D01*
X-27016907Y34569425D01*
X-27016909Y34569427D01*
X-27016911Y34569432D01*
X-27265823Y34950542D01*
X-27265824Y34950544D01*
X-27265831Y34950555D01*
X-27545370Y35309834D01*
X-27853617Y35644808D01*
X-28115308Y35885814D01*
X-28188465Y35953189D01*
X-28188483Y35953204D01*
X-28547615Y36232862D01*
X-28547633Y36232875D01*
X-28880932Y36450752D01*
X-28951435Y36519848D01*
X-28990129Y36610664D01*
X-28995500Y36662520D01*
X-28995500Y39050624D01*
X-29022580Y39116000D01*
X-29034245Y39144163D01*
X-29105837Y39215755D01*
X-29199377Y39254500D01*
X-34199377Y39254500D01*
X-34300623Y39254500D01*
X-34394164Y39215755D01*
X-34465755Y39144164D01*
X-34504500Y39050624D01*
X-34504500Y36662522D01*
X-34523758Y36565703D01*
X-34578602Y36483624D01*
X-34619068Y36450755D01*
X-34952353Y36232887D01*
X-34952387Y36232863D01*
X-35311519Y35953205D01*
X-35311536Y35953190D01*
X-35646377Y35644815D01*
X-35646378Y35644814D01*
X-35646383Y35644809D01*
X-35880085Y35390843D01*
X-35954628Y35309837D01*
X-35954634Y35309830D01*
X-36234166Y34950562D01*
X-36234179Y34950544D01*
X-36483091Y34569432D01*
X-36699704Y34169044D01*
X-36882517Y33752151D01*
X-37030292Y33321580D01*
X-37030296Y33321567D01*
X-37142011Y32880293D01*
X-37142016Y32880266D01*
X-37216920Y32431271D01*
X-37254501Y31977618D01*
X-46256100Y31977618D01*
X-46256100Y40628271D01*
X-46236842Y40725090D01*
X-46181998Y40807169D01*
X-46099919Y40862013D01*
X-46003100Y40881271D01*
X-45963520Y40878156D01*
X-45829953Y40857000D01*
X-45754000Y40857000D01*
X-45754000Y41723670D01*
X-45730255Y41699925D01*
X-45644745Y41650556D01*
X-45549370Y41625000D01*
X-45450630Y41625000D01*
X-45355255Y41650556D01*
X-45269745Y41699925D01*
X-45246000Y41723670D01*
X-45246000Y40857000D01*
X-45170046Y40857000D01*
X-45170045Y40857001D01*
X-44992344Y40885146D01*
X-44821247Y40940739D01*
X-44821246Y40940739D01*
X-44660943Y41022417D01*
X-44660936Y41022421D01*
X-44515387Y41128169D01*
X-44388169Y41255387D01*
X-44282421Y41400936D01*
X-44282417Y41400943D01*
X-44200739Y41561246D01*
X-44200738Y41561247D01*
X-44145148Y41732336D01*
X-44145146Y41732347D01*
X-44142983Y41746000D01*
X-45223670Y41746000D01*
X-45199925Y41769745D01*
X-45150556Y41855255D01*
X-45125000Y41950630D01*
X-45125000Y42049370D01*
X-45150556Y42144745D01*
X-45199925Y42230255D01*
X-45223670Y42254000D01*
X-44142983Y42254000D01*
X-44142984Y42254001D01*
X-44145146Y42267654D01*
X-44145148Y42267665D01*
X-44200738Y42438754D01*
X-44200739Y42438755D01*
X-44282417Y42599058D01*
X-44282421Y42599065D01*
X-44388169Y42744614D01*
X-44464303Y42820748D01*
X-44519147Y42902827D01*
X-44538405Y42999646D01*
X-44519147Y43096465D01*
X-44464303Y43178544D01*
X-44387787Y43255060D01*
X-44281991Y43400675D01*
X-44200277Y43561048D01*
X-44144657Y43732230D01*
X-44116500Y43910005D01*
X-44116500Y44089995D01*
X-44144657Y44267770D01*
X-44200277Y44438952D01*
X-44281991Y44599325D01*
X-44308838Y44636276D01*
X-44387787Y44744940D01*
X-44463949Y44821102D01*
X-44518793Y44903181D01*
X-44538051Y45000000D01*
X-44518793Y45096819D01*
X-44463949Y45178898D01*
X-44432549Y45210298D01*
X-44387787Y45255060D01*
X-44281991Y45400675D01*
X-44200277Y45561048D01*
X-44144657Y45732230D01*
X-44116500Y45910005D01*
X-44116500Y46089995D01*
X-44144657Y46267770D01*
X-44200277Y46438952D01*
X-44281991Y46599325D01*
X-44339701Y46678755D01*
X-44387787Y46744940D01*
X-44463949Y46821102D01*
X-44518793Y46903181D01*
X-44538051Y47000000D01*
X-44518793Y47096819D01*
X-44463949Y47178898D01*
X-44439714Y47203133D01*
X-44387787Y47255060D01*
X-44281991Y47400675D01*
X-44200277Y47561048D01*
X-44144657Y47732230D01*
X-44116500Y47910005D01*
X-44116500Y48089995D01*
X-44144657Y48267770D01*
X-44200277Y48438952D01*
X-44281991Y48599325D01*
X-44300567Y48624892D01*
X-44387787Y48744940D01*
X-44463949Y48821102D01*
X-44518793Y48903181D01*
X-44538051Y49000000D01*
X-44518793Y49096819D01*
X-44463949Y49178898D01*
X-44432107Y49210740D01*
X-44387787Y49255060D01*
X-44281991Y49400675D01*
X-44200277Y49561048D01*
X-44144657Y49732230D01*
X-44116500Y49910005D01*
X-44116500Y50089995D01*
X-44141276Y50246424D01*
X-44137401Y50345061D01*
X-44096073Y50434709D01*
X-44023584Y50501718D01*
X-43930969Y50535885D01*
X-43891391Y50539000D01*
X-43819962Y50539000D01*
X-43723143Y50519742D01*
G37*
%TD.AperFunction*%
%TA.AperFunction,Conductor*%
G36*
X37120779Y24801309D02*
G01*
X37202858Y24746465D01*
X37211974Y24736859D01*
X37230438Y24716353D01*
X37230440Y24716351D01*
X37386030Y24603309D01*
X37561723Y24525085D01*
X37749840Y24485100D01*
X37760200Y24485100D01*
X37857019Y24465842D01*
X37939098Y24410998D01*
X40186398Y22163698D01*
X40241242Y22081619D01*
X40260500Y21984800D01*
X40260500Y-3079933D01*
X40241242Y-3176752D01*
X40186398Y-3258831D01*
X40156210Y-3284614D01*
X40024440Y-3380350D01*
X39895752Y-3523273D01*
X39799592Y-3689829D01*
X39740163Y-3872731D01*
X39723902Y-4027446D01*
X39694629Y-4121721D01*
X39631506Y-4197618D01*
X39544144Y-4243581D01*
X39472288Y-4254000D01*
X36715013Y-4254000D01*
X36487886Y-4289973D01*
X36487883Y-4289973D01*
X36487882Y-4289974D01*
X36354682Y-4333253D01*
X36304838Y-4344042D01*
X36296686Y-4344961D01*
X36286466Y-4346113D01*
X36286464Y-4346113D01*
X36122032Y-4403652D01*
X36122028Y-4403654D01*
X35974528Y-4496334D01*
X35974522Y-4496338D01*
X35897513Y-4573348D01*
X35815434Y-4628191D01*
X35718615Y-4647449D01*
X35621796Y-4628190D01*
X35569911Y-4599133D01*
X35429325Y-4496991D01*
X35429322Y-4496989D01*
X35429320Y-4496988D01*
X35268952Y-4415277D01*
X35097767Y-4359656D01*
X34919996Y-4331500D01*
X34919995Y-4331500D01*
X34740005Y-4331500D01*
X34740003Y-4331500D01*
X34562232Y-4359656D01*
X34391047Y-4415277D01*
X34230679Y-4496988D01*
X34230672Y-4496992D01*
X34085060Y-4602786D01*
X34085058Y-4602788D01*
X34008898Y-4678949D01*
X33926819Y-4733793D01*
X33830000Y-4753051D01*
X33733181Y-4733793D01*
X33651102Y-4678949D01*
X33574939Y-4602786D01*
X33429327Y-4496992D01*
X33429320Y-4496988D01*
X33268952Y-4415277D01*
X33097767Y-4359656D01*
X32919996Y-4331500D01*
X32919995Y-4331500D01*
X32740005Y-4331500D01*
X32740003Y-4331500D01*
X32562232Y-4359656D01*
X32391047Y-4415277D01*
X32230679Y-4496988D01*
X32230672Y-4496992D01*
X32085060Y-4602786D01*
X32085058Y-4602788D01*
X32008898Y-4678949D01*
X31926819Y-4733793D01*
X31830000Y-4753051D01*
X31733181Y-4733793D01*
X31651102Y-4678949D01*
X31574939Y-4602786D01*
X31429327Y-4496992D01*
X31429320Y-4496988D01*
X31268952Y-4415277D01*
X31097767Y-4359656D01*
X30919996Y-4331500D01*
X30919995Y-4331500D01*
X30740005Y-4331500D01*
X30740003Y-4331500D01*
X30562232Y-4359656D01*
X30391047Y-4415277D01*
X30230679Y-4496988D01*
X30230672Y-4496992D01*
X30085060Y-4602786D01*
X30085058Y-4602788D01*
X30008898Y-4678949D01*
X29926819Y-4733793D01*
X29830000Y-4753051D01*
X29733181Y-4733793D01*
X29651102Y-4678949D01*
X29574939Y-4602786D01*
X29429327Y-4496992D01*
X29429320Y-4496988D01*
X29268952Y-4415277D01*
X29097767Y-4359656D01*
X28919996Y-4331500D01*
X28919995Y-4331500D01*
X28740005Y-4331500D01*
X28740003Y-4331500D01*
X28562232Y-4359656D01*
X28391047Y-4415277D01*
X28230679Y-4496988D01*
X28230672Y-4496992D01*
X28085060Y-4602786D01*
X28085058Y-4602788D01*
X28008544Y-4679303D01*
X27926465Y-4734147D01*
X27829646Y-4753405D01*
X27732827Y-4734147D01*
X27650748Y-4679303D01*
X27574613Y-4603168D01*
X27429064Y-4497420D01*
X27429057Y-4497416D01*
X27268759Y-4415741D01*
X27097646Y-4360143D01*
X27084000Y-4357981D01*
X27084000Y-5438670D01*
X27060255Y-5414925D01*
X26974745Y-5365556D01*
X26879370Y-5340000D01*
X26780630Y-5340000D01*
X26685255Y-5365556D01*
X26599745Y-5414925D01*
X26576000Y-5438670D01*
X26576000Y-4357981D01*
X26562353Y-4360143D01*
X26391242Y-4415740D01*
X26287005Y-4468851D01*
X26191995Y-4495645D01*
X26093964Y-4484042D01*
X26007835Y-4435806D01*
X25946721Y-4358283D01*
X25920533Y-4269871D01*
X25920083Y-4265592D01*
X25918837Y-4253734D01*
X25859407Y-4070827D01*
X25763247Y-3904273D01*
X25634560Y-3761351D01*
X25536115Y-3689827D01*
X25478969Y-3648308D01*
X25303277Y-3570085D01*
X25115160Y-3530100D01*
X24922840Y-3530100D01*
X24781752Y-3560088D01*
X24734722Y-3570085D01*
X24559030Y-3648308D01*
X24403439Y-3761351D01*
X24274752Y-3904273D01*
X24178592Y-4070829D01*
X24115065Y-4266345D01*
X24112748Y-4265592D01*
X24081477Y-4338361D01*
X24010761Y-4407238D01*
X23975891Y-4426169D01*
X23797034Y-4505802D01*
X23797031Y-4505804D01*
X23641439Y-4618847D01*
X23512750Y-4761771D01*
X23512749Y-4761774D01*
X23459604Y-4853824D01*
X23394516Y-4928043D01*
X23305981Y-4971703D01*
X23207476Y-4978159D01*
X23114000Y-4946428D01*
X23039781Y-4881340D01*
X22996121Y-4792805D01*
X22987500Y-4727324D01*
X22987500Y8900623D01*
X24245500Y8900623D01*
X24245500Y3900623D01*
X24245500Y3799377D01*
X24284245Y3705837D01*
X24355837Y3634245D01*
X24449377Y3595500D01*
X26837480Y3595500D01*
X26934299Y3576242D01*
X27016378Y3521398D01*
X27049246Y3480935D01*
X27264842Y3151125D01*
X27267126Y3147631D01*
X27267138Y3147614D01*
X27546795Y2788483D01*
X27546810Y2788466D01*
X27855197Y2453611D01*
X28186860Y2148412D01*
X28190166Y2145370D01*
X28549444Y1865830D01*
X28549453Y1865824D01*
X28549456Y1865822D01*
X28930568Y1616910D01*
X28930573Y1616908D01*
X28930575Y1616906D01*
X29330955Y1400297D01*
X29747852Y1217482D01*
X29747860Y1217480D01*
X29747863Y1217478D01*
X29791811Y1202395D01*
X30178417Y1069710D01*
X30178429Y1069707D01*
X30178432Y1069706D01*
X30275133Y1045225D01*
X30619713Y957988D01*
X30619727Y957986D01*
X30619730Y957985D01*
X30767671Y933305D01*
X31068726Y883081D01*
X31522388Y845500D01*
X31522390Y845499D01*
X31522391Y845499D01*
X31977610Y845499D01*
X31977611Y845500D01*
X32431274Y883081D01*
X32880287Y957988D01*
X33321583Y1069710D01*
X33752148Y1217482D01*
X34169045Y1400297D01*
X34569425Y1616906D01*
X34950556Y1865830D01*
X35309834Y2145370D01*
X35530577Y2348500D01*
X35644802Y2453611D01*
X35644808Y2453617D01*
X35953191Y2788467D01*
X35953199Y2788478D01*
X35953204Y2788483D01*
X36232861Y3147614D01*
X36232861Y3147615D01*
X36232875Y3147632D01*
X36450753Y3480934D01*
X36519848Y3551435D01*
X36610664Y3590129D01*
X36662520Y3595500D01*
X39050623Y3595500D01*
X39144163Y3634245D01*
X39215755Y3705837D01*
X39254500Y3799377D01*
X39254500Y8900623D01*
X39215755Y8994163D01*
X39144163Y9065755D01*
X39050623Y9104500D01*
X36662522Y9104500D01*
X36565703Y9123758D01*
X36483624Y9178602D01*
X36450754Y9219068D01*
X36373434Y9337349D01*
X36232877Y9552368D01*
X36232870Y9552377D01*
X36232863Y9552387D01*
X35953205Y9911519D01*
X35953190Y9911537D01*
X35722339Y10162201D01*
X35644810Y10246384D01*
X35309836Y10554631D01*
X34950557Y10834171D01*
X34950551Y10834175D01*
X34950544Y10834180D01*
X34569432Y11083092D01*
X34224796Y11269543D01*
X34169046Y11299704D01*
X33752149Y11482519D01*
X33752146Y11482520D01*
X33752137Y11482524D01*
X33357500Y11617964D01*
X33321583Y11630291D01*
X33321578Y11630293D01*
X33321567Y11630296D01*
X32880295Y11742011D01*
X32880293Y11742012D01*
X32880287Y11742013D01*
X32880284Y11742014D01*
X32880269Y11742017D01*
X32431271Y11816921D01*
X32431272Y11816921D01*
X31977617Y11854502D01*
X31977609Y11854502D01*
X31522391Y11854502D01*
X31522382Y11854502D01*
X31068728Y11816921D01*
X30619730Y11742017D01*
X30619704Y11742011D01*
X30178432Y11630296D01*
X30178411Y11630289D01*
X29747862Y11482524D01*
X29330955Y11299705D01*
X28930567Y11083092D01*
X28549455Y10834180D01*
X28549437Y10834167D01*
X28230265Y10585832D01*
X28190164Y10554631D01*
X27855190Y10246384D01*
X27855187Y10246381D01*
X27855184Y10246378D01*
X27546809Y9911537D01*
X27546794Y9911519D01*
X27267136Y9552387D01*
X27267124Y9552370D01*
X27049246Y9219068D01*
X26980150Y9148565D01*
X26889334Y9109871D01*
X26837478Y9104500D01*
X24449377Y9104500D01*
X24355836Y9065755D01*
X24284245Y8994164D01*
X24266770Y8951973D01*
X24245500Y8900623D01*
X22987500Y8900623D01*
X22987500Y21971500D01*
X23006758Y22068319D01*
X23061602Y22150398D01*
X23143681Y22205242D01*
X23240500Y22224500D01*
X33702987Y22224500D01*
X33702989Y22224500D01*
X33934133Y22254930D01*
X34159327Y22315271D01*
X34374718Y22404489D01*
X34391874Y22414394D01*
X34576622Y22521058D01*
X34761583Y22662984D01*
X34926436Y22827837D01*
X36845065Y24746468D01*
X36927141Y24801308D01*
X37023960Y24820567D01*
X37120779Y24801309D01*
G37*
%TD.AperFunction*%
%TA.AperFunction,Conductor*%
G36*
X45360319Y33040848D02*
G01*
X45442398Y32986004D01*
X45497242Y32903925D01*
X45516500Y32807106D01*
X45516500Y5072463D01*
X45497242Y4975644D01*
X45442398Y4893565D01*
X44605605Y4056772D01*
X44543427Y3971190D01*
X44543426Y3971187D01*
X44470444Y3870739D01*
X44470438Y3870730D01*
X44366039Y3665834D01*
X44294974Y3447120D01*
X44258999Y3219985D01*
X44258999Y2979578D01*
X44259000Y2979553D01*
X44259000Y-4001000D01*
X44239742Y-4097819D01*
X44184898Y-4179898D01*
X44102819Y-4234742D01*
X44006000Y-4254000D01*
X43061715Y-4254000D01*
X42964896Y-4234742D01*
X42882817Y-4179898D01*
X42827973Y-4097819D01*
X42810101Y-4027446D01*
X42801302Y-3943729D01*
X42793840Y-3872734D01*
X42734410Y-3689827D01*
X42638250Y-3523273D01*
X42592485Y-3472445D01*
X42542014Y-3387610D01*
X42527503Y-3303158D01*
X42527503Y22907611D01*
X42527503Y22907614D01*
X42503158Y23030005D01*
X42455403Y23145295D01*
X42386074Y23249053D01*
X42297836Y23337291D01*
X39597728Y26037399D01*
X39542884Y26119478D01*
X39525013Y26189848D01*
X39507837Y26353266D01*
X39448407Y26536173D01*
X39352247Y26702727D01*
X39352245Y26702730D01*
X39251872Y26814206D01*
X39201399Y26899043D01*
X39187235Y26996737D01*
X39211534Y27092415D01*
X39260987Y27162390D01*
X45084604Y32986006D01*
X45166681Y33040848D01*
X45263500Y33060106D01*
X45360319Y33040848D01*
G37*
%TD.AperFunction*%
%TA.AperFunction,Conductor*%
G36*
X-9558222Y27324044D02*
G01*
X-9472093Y27275810D01*
X-9457503Y27262324D01*
X-6674017Y24478838D01*
X-6674016Y24478837D01*
X-6509163Y24313984D01*
X-6324202Y24172058D01*
X-6324193Y24172053D01*
X-6151687Y24072456D01*
X-6151676Y24072451D01*
X-6151663Y24072443D01*
X-6122298Y24055489D01*
X-5906907Y23966271D01*
X-5721001Y23916458D01*
X-5681714Y23905930D01*
X-5646696Y23901320D01*
X-5450569Y23875500D01*
X-5450567Y23875500D01*
X12982567Y23875500D01*
X12982569Y23875500D01*
X13213713Y23905930D01*
X13438907Y23966271D01*
X13654298Y24055489D01*
X13683663Y24072443D01*
X13856202Y24172058D01*
X14041163Y24313984D01*
X14206016Y24478837D01*
X14206016Y24478838D01*
X16033101Y26305925D01*
X16115180Y26360768D01*
X16211999Y26380026D01*
X16308818Y26360768D01*
X16390897Y26305924D01*
X19117082Y23579739D01*
X19171926Y23497660D01*
X19182563Y23466322D01*
X19192267Y23430104D01*
X19192269Y23430098D01*
X19281491Y23214697D01*
X19281492Y23214694D01*
X19396604Y23015316D01*
X19428336Y22921839D01*
X19430500Y22888816D01*
X19430500Y8655395D01*
X19411242Y8558576D01*
X19356398Y8476497D01*
X19274319Y8421653D01*
X19177500Y8402395D01*
X19080681Y8421653D01*
X18998602Y8476497D01*
X18992986Y8482588D01*
X18992894Y8482500D01*
X18988189Y8487467D01*
X18874140Y8595500D01*
X18719857Y8741645D01*
X18425615Y8965321D01*
X18108915Y9155874D01*
X17773469Y9311068D01*
X17773467Y9311069D01*
X17773460Y9311072D01*
X17423218Y9429082D01*
X17423203Y9429086D01*
X17136804Y9492127D01*
X17062244Y9508538D01*
X17062242Y9508539D01*
X17062234Y9508540D01*
X16694803Y9548500D01*
X16325197Y9548500D01*
X15957765Y9508540D01*
X15957751Y9508537D01*
X15596796Y9429086D01*
X15596781Y9429082D01*
X15246539Y9311072D01*
X15047676Y9219068D01*
X14935415Y9167130D01*
X14911083Y9155873D01*
X14639366Y8992386D01*
X14592496Y8970370D01*
X14565382Y8960883D01*
X14565379Y8960881D01*
X14464269Y8912188D01*
X14464268Y8912188D01*
X14256897Y8812324D01*
X14256884Y8812317D01*
X13966985Y8630161D01*
X13966979Y8630157D01*
X13699281Y8416676D01*
X13699278Y8416674D01*
X8593332Y3310728D01*
X8593328Y3310724D01*
X8593328Y3310723D01*
X8450301Y3131374D01*
X8374881Y3067687D01*
X8280827Y3037709D01*
X8182461Y3046006D01*
X8094757Y3091314D01*
X8031069Y3166737D01*
X8001091Y3260791D01*
X7999500Y3289118D01*
X7999500Y8829579D01*
X7999500Y8829582D01*
X7975155Y8951973D01*
X7927400Y9067263D01*
X7858071Y9171021D01*
X7769833Y9259259D01*
X-9855137Y26884229D01*
X-9909981Y26966308D01*
X-9929239Y27063127D01*
X-9909981Y27159946D01*
X-9855137Y27242025D01*
X-9791101Y27288550D01*
X-9751263Y27308849D01*
X-9656254Y27335646D01*
X-9558222Y27324044D01*
G37*
%TD.AperFunction*%
%TA.AperFunction,Conductor*%
G36*
X-51780982Y29657391D02*
G01*
X-51700027Y29600902D01*
X-51646852Y29517733D01*
X-51629500Y29425652D01*
X-51629500Y28398046D01*
X-51648758Y28301227D01*
X-51703602Y28219148D01*
X-55129764Y24792987D01*
X-55199092Y24689231D01*
X-55246847Y24573941D01*
X-55252955Y24543233D01*
X-55271192Y24451548D01*
X-55271192Y16007741D01*
X-55271192Y15882953D01*
X-55251716Y15785041D01*
X-55246847Y15760561D01*
X-55199092Y15645271D01*
X-55129764Y15541515D01*
X-52226169Y12637920D01*
X-52171325Y12555841D01*
X-52152067Y12459022D01*
X-52152067Y9617087D01*
X-52171325Y9520268D01*
X-52226169Y9438189D01*
X-52308248Y9383345D01*
X-52405067Y9364087D01*
X-52501886Y9383345D01*
X-52583965Y9438189D01*
X-52616951Y9478833D01*
X-52619161Y9482219D01*
X-52662967Y9549357D01*
X-52942165Y9908578D01*
X-53250043Y10243544D01*
X-53584502Y10551972D01*
X-53837161Y10749015D01*
X-53943260Y10831760D01*
X-54323866Y11080995D01*
X-54323873Y11080999D01*
X-54323879Y11081003D01*
X-54723758Y11297999D01*
X-54723760Y11298000D01*
X-54723768Y11298004D01*
X-55140172Y11481272D01*
X-55140181Y11481275D01*
X-55344128Y11551582D01*
X-55344127Y11551586D01*
X-55344154Y11551590D01*
X-55344628Y11551754D01*
X-55347780Y11552841D01*
X-55362431Y11558407D01*
X-55505666Y11617966D01*
X-55601956Y11658005D01*
X-55630072Y11671795D01*
X-55753301Y11742013D01*
X-55848622Y11796329D01*
X-55874821Y11813489D01*
X-55929697Y11854500D01*
X-56076307Y11964068D01*
X-56100183Y11984332D01*
X-56281519Y12158649D01*
X-56302710Y12181708D01*
X-56443969Y12355939D01*
X-56461130Y12377106D01*
X-56479298Y12402589D01*
X-56612372Y12616078D01*
X-56627250Y12643608D01*
X-56732927Y12871900D01*
X-56744288Y12901052D01*
X-56820946Y13140640D01*
X-56828622Y13170987D01*
X-56875094Y13418222D01*
X-56878960Y13449278D01*
X-56895015Y13708180D01*
X-56895500Y13723839D01*
X-56895500Y24377889D01*
X-56895015Y24393551D01*
X-56892349Y24436537D01*
X-56878957Y24652456D01*
X-56875090Y24683504D01*
X-56828615Y24930743D01*
X-56820944Y24961069D01*
X-56744280Y25200666D01*
X-56732914Y25229830D01*
X-56627242Y25458106D01*
X-56612359Y25485647D01*
X-56479287Y25699126D01*
X-56461122Y25724606D01*
X-56302700Y25920005D01*
X-56281515Y25943056D01*
X-56117363Y26100852D01*
X-56100168Y26117381D01*
X-56076303Y26137636D01*
X-55874799Y26288226D01*
X-55848616Y26305375D01*
X-55630049Y26429917D01*
X-55601953Y26443697D01*
X-55379552Y26536173D01*
X-55362037Y26543456D01*
X-55347396Y26549019D01*
X-55342186Y26550816D01*
X-55140229Y26620462D01*
X-54723973Y26803715D01*
X-54324252Y27020678D01*
X-53943788Y27269872D01*
X-53585176Y27549599D01*
X-53250858Y27857953D01*
X-52943114Y28192832D01*
X-52664040Y28551953D01*
X-52415539Y28932870D01*
X-52200404Y29330952D01*
X-52199308Y29332980D01*
X-52199308Y29332981D01*
X-52199305Y29332986D01*
X-52114239Y29527172D01*
X-52057750Y29608125D01*
X-51974581Y29661300D01*
X-51877393Y29678600D01*
X-51780982Y29657391D01*
G37*
%TD.AperFunction*%
%TA.AperFunction,Conductor*%
G36*
X-50141687Y20481585D02*
G01*
X-50102907Y20465521D01*
X-50102901Y20465520D01*
X-50102897Y20465518D01*
X-49963205Y20428089D01*
X-49877713Y20405181D01*
X-49781152Y20392469D01*
X-49646583Y20374751D01*
X-49646571Y20374751D01*
X-49646569Y20374750D01*
X-47124725Y20374750D01*
X-47027906Y20355492D01*
X-46945827Y20300648D01*
X-43567602Y16922424D01*
X-43512758Y16840345D01*
X-43493500Y16743526D01*
X-43493500Y16356400D01*
X-43512758Y16259581D01*
X-43567602Y16177502D01*
X-43649681Y16122658D01*
X-43746500Y16103400D01*
X-43859660Y16103400D01*
X-44000748Y16073412D01*
X-44047778Y16063415D01*
X-44223470Y15985192D01*
X-44379061Y15872149D01*
X-44507748Y15729227D01*
X-44603908Y15562671D01*
X-44663337Y15379769D01*
X-44676898Y15250744D01*
X-44706172Y15156468D01*
X-44749614Y15098292D01*
X-46328076Y13519829D01*
X-46410155Y13464986D01*
X-46506974Y13445727D01*
X-46603793Y13464985D01*
X-46685872Y13519829D01*
X-46740715Y13601908D01*
X-46747587Y13620534D01*
X-46779038Y13717331D01*
X-46779041Y13717337D01*
X-46779042Y13717340D01*
X-46883439Y13922231D01*
X-46883440Y13922232D01*
X-46960208Y14027894D01*
X-47018611Y14108279D01*
X-47181222Y14270890D01*
X-47187564Y14277232D01*
X-47187579Y14277246D01*
X-49648231Y16737898D01*
X-49586848Y16721450D01*
X-49473152Y16721450D01*
X-49363331Y16750876D01*
X-49264869Y16807724D01*
X-49184474Y16888119D01*
X-49127626Y16986581D01*
X-49098200Y17096402D01*
X-49098200Y17153251D01*
X-48991185Y17153251D01*
X-48991185Y17153250D01*
X-48460593Y16622658D01*
X-48460593Y16622659D01*
X-48412047Y16720151D01*
X-48351502Y16932946D01*
X-48331087Y17153250D01*
X-48351502Y17373555D01*
X-48412045Y17586344D01*
X-48412048Y17586351D01*
X-48460593Y17683843D01*
X-48460594Y17683843D01*
X-48991185Y17153251D01*
X-49098200Y17153251D01*
X-49098200Y17210098D01*
X-49127626Y17319919D01*
X-49184474Y17418381D01*
X-49264869Y17498776D01*
X-49363331Y17555624D01*
X-49473152Y17585050D01*
X-49586848Y17585050D01*
X-49655378Y17566688D01*
X-49530000Y17692065D01*
X-48995594Y18226472D01*
X-48995593Y18226472D01*
X-49201906Y18306398D01*
X-49419380Y18347050D01*
X-49640620Y18347050D01*
X-49858095Y18306398D01*
X-50064409Y18226471D01*
X-50105313Y18201144D01*
X-50197768Y18166549D01*
X-50296425Y18169969D01*
X-50386263Y18210883D01*
X-50453605Y18283062D01*
X-50488200Y18375517D01*
X-50491500Y18416249D01*
X-50491500Y20247841D01*
X-50472242Y20344660D01*
X-50417398Y20426739D01*
X-50335319Y20481583D01*
X-50238500Y20500841D01*
X-50141687Y20481585D01*
G37*
%TD.AperFunction*%
%TA.AperFunction,Conductor*%
G36*
X17004124Y51089742D02*
G01*
X17086203Y51034898D01*
X17141047Y50952819D01*
X17160305Y50856000D01*
X17147922Y50777818D01*
X17144656Y50767769D01*
X17116500Y50589997D01*
X17116500Y50410004D01*
X17144656Y50232233D01*
X17200277Y50061048D01*
X17281988Y49900680D01*
X17281992Y49900673D01*
X17387786Y49755061D01*
X17463949Y49678898D01*
X17518793Y49596819D01*
X17538051Y49500000D01*
X17518793Y49403181D01*
X17463949Y49321102D01*
X17387788Y49244942D01*
X17387786Y49244940D01*
X17281992Y49099328D01*
X17281988Y49099321D01*
X17200277Y48938953D01*
X17144656Y48767768D01*
X17116500Y48589997D01*
X17116500Y48410004D01*
X17144656Y48232233D01*
X17200277Y48061048D01*
X17281988Y47900680D01*
X17281992Y47900673D01*
X17387786Y47755061D01*
X17463949Y47678898D01*
X17518793Y47596819D01*
X17538051Y47500000D01*
X17518793Y47403181D01*
X17463949Y47321102D01*
X17387788Y47244942D01*
X17387786Y47244940D01*
X17281992Y47099328D01*
X17281988Y47099321D01*
X17200277Y46938953D01*
X17144656Y46767768D01*
X17116500Y46589997D01*
X17116500Y46410004D01*
X17144656Y46232233D01*
X17200277Y46061048D01*
X17281988Y45900680D01*
X17281992Y45900673D01*
X17387786Y45755061D01*
X17463949Y45678898D01*
X17518793Y45596819D01*
X17538051Y45500000D01*
X17518793Y45403181D01*
X17463949Y45321102D01*
X17387788Y45244942D01*
X17387786Y45244940D01*
X17281992Y45099328D01*
X17281988Y45099321D01*
X17200277Y44938953D01*
X17144656Y44767768D01*
X17116500Y44589997D01*
X17116500Y44410004D01*
X17144656Y44232233D01*
X17200277Y44061048D01*
X17281988Y43900680D01*
X17281992Y43900673D01*
X17387786Y43755061D01*
X17464303Y43678544D01*
X17519147Y43596465D01*
X17538405Y43499646D01*
X17519147Y43402827D01*
X17464303Y43320748D01*
X17388170Y43244616D01*
X17388168Y43244614D01*
X17282420Y43099065D01*
X17282416Y43099058D01*
X17200738Y42938755D01*
X17200737Y42938754D01*
X17145147Y42767665D01*
X17145145Y42767654D01*
X17142983Y42754001D01*
X17142983Y42754000D01*
X18223670Y42754000D01*
X18199925Y42730255D01*
X18150556Y42644745D01*
X18125000Y42549370D01*
X18125000Y42450630D01*
X18150556Y42355255D01*
X18199925Y42269745D01*
X18223670Y42246000D01*
X17142983Y42246000D01*
X17145145Y42232347D01*
X17145147Y42232336D01*
X17200737Y42061247D01*
X17200738Y42061246D01*
X17282416Y41900943D01*
X17282420Y41900936D01*
X17388168Y41755387D01*
X17515386Y41628169D01*
X17660935Y41522421D01*
X17660942Y41522417D01*
X17821245Y41440739D01*
X17992343Y41385146D01*
X17992342Y41385146D01*
X18170044Y41357001D01*
X18170046Y41357000D01*
X18246000Y41357000D01*
X18246000Y42223670D01*
X18269745Y42199925D01*
X18355255Y42150556D01*
X18450630Y42125000D01*
X18549370Y42125000D01*
X18644745Y42150556D01*
X18730255Y42199925D01*
X18754000Y42223670D01*
X18754000Y41357000D01*
X18829954Y41357000D01*
X18829955Y41357001D01*
X19007656Y41385146D01*
X19178753Y41440739D01*
X19178754Y41440739D01*
X19339057Y41522417D01*
X19339064Y41522421D01*
X19484613Y41628169D01*
X19611831Y41755387D01*
X19717579Y41900936D01*
X19717583Y41900943D01*
X19799261Y42061246D01*
X19799262Y42061247D01*
X19854852Y42232336D01*
X19854854Y42232347D01*
X19857017Y42246000D01*
X18776330Y42246000D01*
X18800075Y42269745D01*
X18849444Y42355255D01*
X18875000Y42450630D01*
X18875000Y42549370D01*
X18849444Y42644745D01*
X18800075Y42730255D01*
X18776330Y42754000D01*
X19857017Y42754000D01*
X19857016Y42754001D01*
X19854854Y42767654D01*
X19854852Y42767665D01*
X19799262Y42938754D01*
X19799261Y42938755D01*
X19717583Y43099058D01*
X19717579Y43099065D01*
X19611831Y43244614D01*
X19535697Y43320748D01*
X19480853Y43402827D01*
X19461595Y43499646D01*
X19480853Y43596465D01*
X19535697Y43678544D01*
X19612213Y43755060D01*
X19718009Y43900675D01*
X19799723Y44061048D01*
X19855343Y44232230D01*
X19883500Y44410005D01*
X19883500Y44589995D01*
X19855343Y44767770D01*
X19799723Y44938952D01*
X19718009Y45099325D01*
X19612213Y45244940D01*
X19536051Y45321102D01*
X19481207Y45403181D01*
X19461949Y45500000D01*
X19481207Y45596819D01*
X19536051Y45678898D01*
X19557078Y45699925D01*
X19612213Y45755060D01*
X19718009Y45900675D01*
X19799723Y46061048D01*
X19855343Y46232230D01*
X19883500Y46410005D01*
X19883500Y46589995D01*
X19855343Y46767770D01*
X19799723Y46938952D01*
X19718009Y47099325D01*
X19612213Y47244940D01*
X19536051Y47321102D01*
X19481207Y47403181D01*
X19461949Y47500000D01*
X19481207Y47596819D01*
X19536051Y47678898D01*
X19545557Y47688404D01*
X19612213Y47755060D01*
X19617410Y47762213D01*
X19689900Y47829220D01*
X19782515Y47863386D01*
X19822089Y47866500D01*
X22596946Y47866500D01*
X22693765Y47847242D01*
X22775844Y47792398D01*
X32977645Y37590597D01*
X33032489Y37508518D01*
X33051747Y37411699D01*
X33032489Y37314880D01*
X32977645Y37232801D01*
X32895566Y37177957D01*
X32798747Y37158699D01*
X32755991Y37162338D01*
X32449800Y37214840D01*
X31983828Y37254500D01*
X31516172Y37254500D01*
X31050200Y37214840D01*
X31050195Y37214840D01*
X31050193Y37214839D01*
X30589256Y37135803D01*
X30136724Y37017973D01*
X30136696Y37017964D01*
X29695773Y36862176D01*
X29695765Y36862173D01*
X29411666Y36733753D01*
X29269619Y36669543D01*
X29254559Y36661130D01*
X28861342Y36441466D01*
X28861338Y36441464D01*
X28473886Y36179591D01*
X28473880Y36179587D01*
X28110048Y35885814D01*
X27997616Y35778056D01*
X27885971Y35671052D01*
X27772398Y35562201D01*
X27463441Y35211157D01*
X27463439Y35211155D01*
X27185357Y34835164D01*
X27185354Y34835160D01*
X26940155Y34436930D01*
X26729624Y34019366D01*
X26729619Y34019356D01*
X26555254Y33585431D01*
X26555250Y33585421D01*
X26443782Y33221440D01*
X26418310Y33138264D01*
X26338605Y32768428D01*
X26319783Y32681094D01*
X26260384Y32217242D01*
X26260383Y32217227D01*
X26240536Y31750001D01*
X26240536Y31750000D01*
X26260383Y31282774D01*
X26260384Y31282759D01*
X26319783Y30818907D01*
X26319784Y30818901D01*
X26319785Y30818896D01*
X26399875Y30447273D01*
X26418312Y30361729D01*
X26555250Y29914580D01*
X26555254Y29914570D01*
X26729619Y29480645D01*
X26729624Y29480635D01*
X26920607Y29101842D01*
X26940160Y29063062D01*
X27039219Y28902181D01*
X27185354Y28664841D01*
X27185357Y28664837D01*
X27463439Y28288846D01*
X27463441Y28288844D01*
X27759379Y27952592D01*
X27772409Y27937788D01*
X28110036Y27614198D01*
X28110039Y27614196D01*
X28110048Y27614187D01*
X28473880Y27320414D01*
X28473886Y27320410D01*
X28473890Y27320407D01*
X28552703Y27267139D01*
X28861338Y27058537D01*
X28861342Y27058535D01*
X28861348Y27058531D01*
X29269619Y26830457D01*
X29695761Y26637829D01*
X30136703Y26482034D01*
X30136715Y26482031D01*
X30136724Y26482028D01*
X30589257Y26364198D01*
X30589255Y26364198D01*
X30589265Y26364197D01*
X30589270Y26364195D01*
X30932278Y26305380D01*
X31055495Y26284252D01*
X31055277Y26282984D01*
X31141509Y26254054D01*
X31215959Y26189231D01*
X31259935Y26100852D01*
X31266743Y26002371D01*
X31235345Y25908782D01*
X31170522Y25834332D01*
X31082143Y25790356D01*
X31015791Y25781500D01*
X22050475Y25781500D01*
X21953656Y25800758D01*
X21871577Y25855602D01*
X17387162Y30340017D01*
X17353940Y30365509D01*
X17247383Y30447273D01*
X17202202Y30481942D01*
X17202192Y30481948D01*
X17000306Y30598508D01*
X17000303Y30598509D01*
X16949112Y30619713D01*
X16784907Y30687729D01*
X16706331Y30708784D01*
X16559713Y30748071D01*
X16328571Y30778500D01*
X16328569Y30778500D01*
X11488431Y30778500D01*
X11488417Y30778500D01*
X11257286Y30748069D01*
X11257282Y30748069D01*
X11032103Y30687733D01*
X11032097Y30687731D01*
X10816696Y30598509D01*
X10816693Y30598508D01*
X10614807Y30481948D01*
X10614794Y30481939D01*
X10429837Y30340017D01*
X10367054Y30277234D01*
X10284974Y30222391D01*
X10188155Y30203133D01*
X10091336Y30222392D01*
X10073297Y30230708D01*
X9938756Y30299260D01*
X9767646Y30354857D01*
X9754000Y30357019D01*
X9754000Y29276330D01*
X9730255Y29300075D01*
X9644745Y29349444D01*
X9549370Y29375000D01*
X9450630Y29375000D01*
X9355255Y29349444D01*
X9269745Y29300075D01*
X9246000Y29276330D01*
X9246000Y30357019D01*
X9232353Y30354857D01*
X9061240Y30299259D01*
X8900942Y30217584D01*
X8900935Y30217580D01*
X8755386Y30111832D01*
X8628168Y29984614D01*
X8522420Y29839065D01*
X8522416Y29839058D01*
X8440738Y29678755D01*
X8440738Y29678754D01*
X8385145Y29507657D01*
X8357000Y29329956D01*
X8357000Y29254000D01*
X9223670Y29254000D01*
X9199925Y29230255D01*
X9150556Y29144745D01*
X9125000Y29049370D01*
X9125000Y28950630D01*
X9150556Y28855255D01*
X9199925Y28769745D01*
X9223670Y28746000D01*
X8357000Y28746000D01*
X8357000Y28670045D01*
X8385145Y28492344D01*
X8440738Y28321247D01*
X8440738Y28321246D01*
X8522416Y28160943D01*
X8522420Y28160936D01*
X8628168Y28015387D01*
X8755384Y27888171D01*
X8762943Y27881715D01*
X8761741Y27880309D01*
X8819624Y27817694D01*
X8853792Y27725080D01*
X8849917Y27626440D01*
X8808589Y27536792D01*
X8736101Y27469783D01*
X8643487Y27435615D01*
X8603907Y27432500D01*
X-1092301Y27432500D01*
X-1189120Y27451758D01*
X-1271199Y27506602D01*
X-1326043Y27588681D01*
X-1345301Y27685500D01*
X-1326043Y27782319D01*
X-1304104Y27823878D01*
X-1300792Y27828947D01*
X-1256421Y27896862D01*
X-1159594Y28117606D01*
X-1100420Y28351277D01*
X-1080515Y28591500D01*
X-1100420Y28831723D01*
X-1159594Y29065394D01*
X-1256421Y29286138D01*
X-1388261Y29487934D01*
X-1388262Y29487936D01*
X-1551513Y29665273D01*
X-1551525Y29665284D01*
X-1741735Y29813331D01*
X-1854323Y29874260D01*
X-1953732Y29928057D01*
X-2181718Y30006325D01*
X-2181719Y30006326D01*
X-2181724Y30006327D01*
X-2419474Y30046000D01*
X-2419477Y30046000D01*
X-2660523Y30046000D01*
X-2660526Y30046000D01*
X-2898277Y30006327D01*
X-3126263Y29928059D01*
X-3126270Y29928056D01*
X-3338266Y29813331D01*
X-3528476Y29665284D01*
X-3528488Y29665273D01*
X-3691739Y29487936D01*
X-3823578Y29286140D01*
X-3823579Y29286138D01*
X-3897861Y29116792D01*
X-3920406Y29065394D01*
X-3979580Y28831723D01*
X-3979581Y28831721D01*
X-3999485Y28591500D01*
X-3979581Y28351280D01*
X-3979581Y28351279D01*
X-3979580Y28351277D01*
X-3920406Y28117606D01*
X-3823579Y27896862D01*
X-3779208Y27828947D01*
X-3775896Y27823878D01*
X-3739064Y27732291D01*
X-3740084Y27633580D01*
X-3778801Y27542774D01*
X-3849321Y27473697D01*
X-3940908Y27436865D01*
X-3987699Y27432500D01*
X-4492525Y27432500D01*
X-4589344Y27451758D01*
X-4671423Y27506602D01*
X-6559860Y29395039D01*
X-6600066Y29447437D01*
X-6668053Y29565193D01*
X-6668058Y29565202D01*
X-6809984Y29750163D01*
X-6974837Y29915016D01*
X-6974838Y29915017D01*
X-6974837Y29915017D01*
X-7093833Y30006325D01*
X-7159798Y30056942D01*
X-7159808Y30056948D01*
X-7361694Y30173508D01*
X-7361697Y30173509D01*
X-7577098Y30262731D01*
X-7577104Y30262733D01*
X-7802285Y30323069D01*
X-8033418Y30353500D01*
X-8033431Y30353500D01*
X-8266569Y30353500D01*
X-8266583Y30353500D01*
X-8497714Y30323069D01*
X-8497718Y30323069D01*
X-8722897Y30262733D01*
X-8722903Y30262731D01*
X-8938304Y30173509D01*
X-8938307Y30173508D01*
X-9140193Y30056948D01*
X-9140206Y30056939D01*
X-9325163Y29915017D01*
X-9387946Y29852234D01*
X-9470026Y29797391D01*
X-9566845Y29778133D01*
X-9663664Y29797392D01*
X-9681703Y29805708D01*
X-9816244Y29874260D01*
X-9987354Y29929857D01*
X-10001000Y29932019D01*
X-10001000Y28851330D01*
X-10024745Y28875075D01*
X-10110255Y28924444D01*
X-10205630Y28950000D01*
X-10304370Y28950000D01*
X-10399745Y28924444D01*
X-10485255Y28875075D01*
X-10509000Y28851330D01*
X-10509000Y29932019D01*
X-10522650Y29929856D01*
X-10522651Y29929856D01*
X-10592321Y29907219D01*
X-10690352Y29895617D01*
X-10785361Y29922413D01*
X-10862884Y29983528D01*
X-10911118Y30069658D01*
X-10923500Y30147837D01*
X-10923500Y47306391D01*
X-10923500Y47306394D01*
X-10947845Y47428785D01*
X-10995600Y47544075D01*
X-11064929Y47647833D01*
X-11153167Y47736071D01*
X-12983887Y49566791D01*
X-13038731Y49648870D01*
X-13056602Y49719241D01*
X-13070163Y49848266D01*
X-13129593Y50031173D01*
X-13225753Y50197727D01*
X-13354440Y50340649D01*
X-13444533Y50406105D01*
X-13511539Y50478592D01*
X-13545707Y50571206D01*
X-13541832Y50669846D01*
X-13500504Y50759494D01*
X-13474728Y50789675D01*
X-13229502Y51034899D01*
X-13147423Y51089742D01*
X-13050605Y51109000D01*
X16907305Y51109000D01*
X17004124Y51089742D01*
G37*
%TD.AperFunction*%
%TA.AperFunction,Conductor*%
G36*
X26582449Y51089742D02*
G01*
X26664528Y51034898D01*
X27953849Y49745577D01*
X27953856Y49745569D01*
X28122818Y49576607D01*
X28308864Y49441437D01*
X28401956Y49394005D01*
X28401959Y49394003D01*
X28416685Y49386500D01*
X28513764Y49337036D01*
X28732475Y49265972D01*
X28959611Y49229997D01*
X28959613Y49229997D01*
X29200017Y49229997D01*
X29200041Y49229998D01*
X43087040Y49229998D01*
X43183859Y49210740D01*
X43265938Y49155896D01*
X44265325Y48156509D01*
X44320169Y48074430D01*
X44339427Y47977611D01*
X44320169Y47880792D01*
X44265325Y47798713D01*
X44183246Y47743869D01*
X44151909Y47733232D01*
X43982100Y47687732D01*
X43982097Y47687731D01*
X43766696Y47598509D01*
X43766693Y47598508D01*
X43564807Y47481948D01*
X43564794Y47481939D01*
X43379837Y47340017D01*
X43317054Y47277234D01*
X43234974Y47222391D01*
X43138155Y47203133D01*
X43041336Y47222392D01*
X43023297Y47230708D01*
X42888756Y47299260D01*
X42717646Y47354857D01*
X42704000Y47357019D01*
X42704000Y46276330D01*
X42680255Y46300075D01*
X42594745Y46349444D01*
X42499370Y46375000D01*
X42400630Y46375000D01*
X42305255Y46349444D01*
X42219745Y46300075D01*
X42196000Y46276330D01*
X42196000Y47357019D01*
X42182353Y47354857D01*
X42011240Y47299259D01*
X41850942Y47217584D01*
X41850935Y47217580D01*
X41705386Y47111832D01*
X41578168Y46984614D01*
X41472420Y46839065D01*
X41472416Y46839058D01*
X41390738Y46678755D01*
X41390738Y46678754D01*
X41335145Y46507657D01*
X41307000Y46329956D01*
X41307000Y46254000D01*
X42173670Y46254000D01*
X42149925Y46230255D01*
X42100556Y46144745D01*
X42075000Y46049370D01*
X42075000Y45950630D01*
X42100556Y45855255D01*
X42149925Y45769745D01*
X42173670Y45746000D01*
X41307000Y45746000D01*
X41307000Y45670045D01*
X41335145Y45492344D01*
X41390738Y45321247D01*
X41390738Y45321246D01*
X41472416Y45160943D01*
X41472420Y45160936D01*
X41578168Y45015387D01*
X41705386Y44888169D01*
X41850935Y44782421D01*
X41850942Y44782417D01*
X42011245Y44700739D01*
X42011246Y44700738D01*
X42182335Y44645148D01*
X42182346Y44645146D01*
X42195999Y44642984D01*
X42196000Y44642984D01*
X42196000Y45723670D01*
X42219745Y45699925D01*
X42305255Y45650556D01*
X42400630Y45625000D01*
X42499370Y45625000D01*
X42594745Y45650556D01*
X42680255Y45699925D01*
X42704000Y45723670D01*
X42704000Y44636276D01*
X42748926Y44579287D01*
X42775720Y44484277D01*
X42776500Y44464429D01*
X42776500Y44140607D01*
X42772596Y44100979D01*
X42773011Y44100924D01*
X42748269Y43912983D01*
X42748268Y43912980D01*
X42741500Y43861581D01*
X42741500Y35778056D01*
X42722242Y35681237D01*
X42667398Y35599158D01*
X39657770Y32589530D01*
X39575691Y32534686D01*
X39478872Y32515428D01*
X39382053Y32534686D01*
X39299974Y32589530D01*
X39245130Y32671609D01*
X39225872Y32768428D01*
X39225872Y33570561D01*
X39225872Y33570564D01*
X39201527Y33692955D01*
X39153772Y33808245D01*
X39132148Y33840607D01*
X39084443Y33912003D01*
X22319344Y50677102D01*
X22264500Y50759181D01*
X22245242Y50856000D01*
X22264500Y50952819D01*
X22319344Y51034898D01*
X22401423Y51089742D01*
X22498242Y51109000D01*
X26485630Y51109000D01*
X26582449Y51089742D01*
G37*
%TD.AperFunction*%
%TA.AperFunction,Conductor*%
G36*
X-39349267Y63235090D02*
G01*
X-39126159Y63206761D01*
X-39094971Y63200791D01*
X-38847960Y63137217D01*
X-38817762Y63127387D01*
X-38580644Y63033362D01*
X-38551914Y63019825D01*
X-38328459Y62896843D01*
X-38301653Y62879815D01*
X-38095356Y62729802D01*
X-38070904Y62709558D01*
X-37885017Y62534873D01*
X-37863291Y62511722D01*
X-37700760Y62315134D01*
X-37682101Y62289437D01*
X-37545482Y62074043D01*
X-37530188Y62046209D01*
X-37421631Y61815397D01*
X-37409945Y61785868D01*
X-37331156Y61543270D01*
X-37323261Y61512507D01*
X-37275487Y61261948D01*
X-37271509Y61230442D01*
X-37254999Y60967919D01*
X-37254500Y60952039D01*
X-37254500Y56922331D01*
X-37235056Y56687674D01*
X-37216898Y56468552D01*
X-37147658Y56053614D01*
X-37141953Y56019426D01*
X-37141952Y56019422D01*
X-37030174Y55578023D01*
X-36882332Y55147372D01*
X-36882329Y55147365D01*
X-36882327Y55147360D01*
X-36699421Y54730376D01*
X-36482705Y54329920D01*
X-36482701Y54329913D01*
X-36233666Y53948737D01*
X-36233649Y53948712D01*
X-35953995Y53589414D01*
X-35953985Y53589402D01*
X-35684774Y53296960D01*
X-35645597Y53254403D01*
X-35310596Y52946013D01*
X-35310587Y52946006D01*
X-34951289Y52666352D01*
X-34951277Y52666344D01*
X-34951272Y52666340D01*
X-34699166Y52501631D01*
X-34570086Y52417299D01*
X-34570080Y52417295D01*
X-34455906Y52355507D01*
X-34379922Y52292489D01*
X-34333838Y52205190D01*
X-34324670Y52106901D01*
X-34353813Y52012586D01*
X-34416831Y51936602D01*
X-34504130Y51890518D01*
X-34576320Y51880000D01*
X-37842118Y51880000D01*
X-37938937Y51899258D01*
X-38021016Y51954102D01*
X-41238851Y55171937D01*
X-41238855Y55171942D01*
X-41410304Y55343391D01*
X-41477779Y55392414D01*
X-41545255Y55441438D01*
X-41545254Y55441438D01*
X-41545256Y55441440D01*
X-41596351Y55478562D01*
X-41801247Y55582961D01*
X-42019961Y55654026D01*
X-42247096Y55690001D01*
X-42247097Y55690001D01*
X-42477063Y55690001D01*
X-42487503Y55690001D01*
X-42487527Y55690000D01*
X-46356553Y55690000D01*
X-46356577Y55690001D01*
X-46367017Y55690001D01*
X-46596983Y55690001D01*
X-46596985Y55690001D01*
X-46824120Y55654026D01*
X-47042834Y55582961D01*
X-47147232Y55529767D01*
X-47247727Y55478563D01*
X-47247732Y55478560D01*
X-47433776Y55343392D01*
X-48831490Y53945678D01*
X-48896238Y53856559D01*
X-48966660Y53759634D01*
X-49071061Y53554734D01*
X-49142126Y53336020D01*
X-49178101Y53108885D01*
X-49178101Y52868478D01*
X-49178100Y52868453D01*
X-49178100Y51072025D01*
X-49197358Y50975206D01*
X-49252202Y50893127D01*
X-49334281Y50838283D01*
X-49378498Y50824554D01*
X-49560272Y50785917D01*
X-49560277Y50785916D01*
X-49735970Y50707692D01*
X-49891561Y50594649D01*
X-50020248Y50451727D01*
X-50116408Y50285171D01*
X-50175837Y50102269D01*
X-50189398Y49973244D01*
X-50218672Y49878968D01*
X-50262114Y49820792D01*
X-51399833Y48683071D01*
X-51488072Y48594833D01*
X-51557400Y48491077D01*
X-51605155Y48375787D01*
X-51605155Y48375785D01*
X-51629500Y48253394D01*
X-51629500Y48253391D01*
X-51629500Y34074349D01*
X-51648758Y33977530D01*
X-51703602Y33895451D01*
X-51785681Y33840607D01*
X-51882500Y33821349D01*
X-51979319Y33840607D01*
X-52061398Y33895451D01*
X-52114239Y33972831D01*
X-52199307Y34167019D01*
X-52199308Y34167021D01*
X-52415529Y34567112D01*
X-52415540Y34567131D01*
X-52417037Y34569425D01*
X-52664040Y34948047D01*
X-52665990Y34950556D01*
X-52943107Y35307159D01*
X-52943112Y35307166D01*
X-53177482Y35562201D01*
X-53250858Y35642047D01*
X-53585176Y35950401D01*
X-53588752Y35953190D01*
X-53624968Y35981440D01*
X-53943788Y36230128D01*
X-53943795Y36230133D01*
X-53943798Y36230135D01*
X-54215127Y36407848D01*
X-54324252Y36479322D01*
X-54723973Y36696285D01*
X-55140229Y36879538D01*
X-55283642Y36928995D01*
X-55300728Y36936612D01*
X-55347783Y36952842D01*
X-55362426Y36958406D01*
X-55601953Y37058004D01*
X-55630072Y37071795D01*
X-55782584Y37158699D01*
X-55848622Y37196329D01*
X-55874821Y37213489D01*
X-55929697Y37254500D01*
X-56076307Y37364068D01*
X-56100183Y37384332D01*
X-56281519Y37558649D01*
X-56302710Y37581708D01*
X-56443969Y37755939D01*
X-56461130Y37777106D01*
X-56479298Y37802589D01*
X-56612372Y38016078D01*
X-56627250Y38043608D01*
X-56732927Y38271900D01*
X-56744288Y38301052D01*
X-56820946Y38540640D01*
X-56828622Y38570987D01*
X-56875094Y38818222D01*
X-56878960Y38849278D01*
X-56895015Y39108180D01*
X-56895500Y39123839D01*
X-56895500Y47656838D01*
X-56895048Y47671958D01*
X-56891209Y47736071D01*
X-56880078Y47921986D01*
X-56876470Y47952002D01*
X-56833129Y48190990D01*
X-56825965Y48220369D01*
X-56811354Y48267768D01*
X-56754419Y48452482D01*
X-56743800Y48480792D01*
X-56645076Y48702700D01*
X-56631155Y48729546D01*
X-56545986Y48872213D01*
X-56506649Y48938108D01*
X-56489642Y48963075D01*
X-56337285Y49160281D01*
X-56325905Y49173983D01*
X-55255737Y50373622D01*
X-55252112Y50377597D01*
X-54151984Y51558326D01*
X-54148356Y51562137D01*
X-53022817Y52718868D01*
X-53019053Y52722653D01*
X-51868778Y53854694D01*
X-51864937Y53858393D01*
X-50690429Y54965249D01*
X-50686478Y54968892D01*
X-49488294Y56050040D01*
X-49484303Y56053563D01*
X-48262935Y57108558D01*
X-48258932Y57111941D01*
X-47014997Y58140246D01*
X-47010848Y58143602D01*
X-45744943Y59144725D01*
X-45740775Y59147949D01*
X-44453415Y60121480D01*
X-44449247Y60124560D01*
X-43141157Y61069951D01*
X-43136825Y61073011D01*
X-41808591Y61989838D01*
X-41804171Y61992819D01*
X-40460772Y62877786D01*
X-40447494Y62885957D01*
X-40380611Y62924328D01*
X-40263989Y62991232D01*
X-40241091Y63002865D01*
X-40052481Y63086916D01*
X-40028525Y63096163D01*
X-39832375Y63160637D01*
X-39807607Y63167405D01*
X-39605924Y63211646D01*
X-39580599Y63215866D01*
X-39409986Y63235453D01*
X-39349267Y63235090D01*
G37*
%TD.AperFunction*%
%TA.AperFunction,Conductor*%
G36*
X-19520818Y50462742D02*
G01*
X-19438739Y50407898D01*
X-19383895Y50325819D01*
X-19364637Y50229000D01*
X-19367752Y50189421D01*
X-19383500Y50089995D01*
X-19383500Y49910004D01*
X-19355344Y49732233D01*
X-19299723Y49561048D01*
X-19218012Y49400680D01*
X-19218008Y49400673D01*
X-19112214Y49255061D01*
X-19036051Y49178898D01*
X-18981207Y49096819D01*
X-18961949Y49000000D01*
X-18981207Y48903181D01*
X-19036051Y48821102D01*
X-19112212Y48744942D01*
X-19112214Y48744940D01*
X-19218008Y48599328D01*
X-19218012Y48599321D01*
X-19299723Y48438953D01*
X-19355344Y48267768D01*
X-19383500Y48089997D01*
X-19383500Y47910004D01*
X-19355344Y47732233D01*
X-19299723Y47561048D01*
X-19218012Y47400680D01*
X-19218008Y47400673D01*
X-19112214Y47255061D01*
X-19036051Y47178898D01*
X-18981207Y47096819D01*
X-18961949Y47000000D01*
X-18981207Y46903181D01*
X-19036051Y46821102D01*
X-19112212Y46744942D01*
X-19112214Y46744940D01*
X-19218008Y46599328D01*
X-19218012Y46599321D01*
X-19299723Y46438953D01*
X-19355344Y46267768D01*
X-19383500Y46089997D01*
X-19383500Y45910004D01*
X-19355344Y45732233D01*
X-19299723Y45561048D01*
X-19218012Y45400680D01*
X-19218008Y45400673D01*
X-19112214Y45255061D01*
X-19036051Y45178898D01*
X-18981207Y45096819D01*
X-18961949Y45000000D01*
X-18981207Y44903181D01*
X-19036051Y44821102D01*
X-19112212Y44744942D01*
X-19112214Y44744940D01*
X-19218008Y44599328D01*
X-19218012Y44599321D01*
X-19299723Y44438953D01*
X-19355344Y44267768D01*
X-19383500Y44089997D01*
X-19383500Y43910004D01*
X-19358724Y43753578D01*
X-19362599Y43654939D01*
X-19403927Y43565291D01*
X-19476416Y43498282D01*
X-19569031Y43464115D01*
X-19608609Y43461000D01*
X-32400038Y43461000D01*
X-32496857Y43480258D01*
X-32578936Y43535102D01*
X-37569936Y48526102D01*
X-37624780Y48608181D01*
X-37644038Y48705000D01*
X-37624780Y48801819D01*
X-37569936Y48883898D01*
X-37487857Y48938742D01*
X-37391038Y48958000D01*
X-22486447Y48958000D01*
X-22486423Y48957999D01*
X-22475983Y48957999D01*
X-22246019Y48957999D01*
X-22246017Y48957999D01*
X-22018881Y48993974D01*
X-21800170Y49065038D01*
X-21595268Y49169440D01*
X-21480029Y49253167D01*
X-21409222Y49304611D01*
X-21246611Y49467222D01*
X-21246611Y49467224D01*
X-21232197Y49481637D01*
X-21232192Y49481644D01*
X-20305936Y50407898D01*
X-20223857Y50462742D01*
X-20127038Y50482000D01*
X-19617637Y50482000D01*
X-19520818Y50462742D01*
G37*
%TD.AperFunction*%
%TA.AperFunction,Conductor*%
G36*
X23967637Y63245038D02*
G01*
X23983220Y63244096D01*
X24220216Y63229760D01*
X24250523Y63226081D01*
X24491910Y63181846D01*
X24521571Y63174534D01*
X24755839Y63101533D01*
X24784388Y63090707D01*
X25008174Y62989989D01*
X25035221Y62975793D01*
X25211673Y62869124D01*
X25245216Y62848847D01*
X25270360Y62831491D01*
X25463518Y62680161D01*
X25486386Y62659902D01*
X25659901Y62486387D01*
X25680160Y62463519D01*
X25831490Y62270361D01*
X25848846Y62245217D01*
X25975792Y62035222D01*
X25989990Y62008171D01*
X25998260Y61989796D01*
X26090040Y61785868D01*
X26090701Y61784401D01*
X26101534Y61755834D01*
X26174533Y61521571D01*
X26181845Y61491908D01*
X26226078Y61250537D01*
X26229760Y61220208D01*
X26245038Y60967638D01*
X26245500Y60952362D01*
X26245500Y56922331D01*
X26264944Y56687674D01*
X26283102Y56468552D01*
X26352342Y56053614D01*
X26358047Y56019426D01*
X26358048Y56019422D01*
X26469826Y55578023D01*
X26617668Y55147372D01*
X26617671Y55147365D01*
X26617673Y55147360D01*
X26800579Y54730376D01*
X26976981Y54404413D01*
X27006124Y54310099D01*
X26996956Y54211810D01*
X26950872Y54124511D01*
X26874889Y54061493D01*
X26780573Y54032350D01*
X26754474Y54031000D01*
X-13635120Y54031000D01*
X-13635144Y54031001D01*
X-13645584Y54031001D01*
X-13875550Y54031001D01*
X-13875552Y54031001D01*
X-14102687Y53995026D01*
X-14321397Y53923963D01*
X-14394170Y53886882D01*
X-14526299Y53819560D01*
X-14712343Y53684392D01*
X-14874959Y53521775D01*
X-16155428Y52241307D01*
X-16237507Y52186463D01*
X-16334326Y52167205D01*
X-16431145Y52186464D01*
X-16513224Y52241307D01*
X-16568068Y52323386D01*
X-16574943Y52342023D01*
X-16646037Y52560827D01*
X-16646038Y52560828D01*
X-16646038Y52560830D01*
X-16750441Y52765731D01*
X-16881423Y52946013D01*
X-16885610Y52951776D01*
X-17048225Y53114391D01*
X-17234269Y53249559D01*
X-17439174Y53353964D01*
X-17657881Y53425026D01*
X-17885016Y53461001D01*
X-17885017Y53461001D01*
X-18114983Y53461001D01*
X-18114985Y53461001D01*
X-18342122Y53425026D01*
X-18342123Y53425026D01*
X-18368721Y53416383D01*
X-18446902Y53404000D01*
X-20951988Y53404000D01*
X-21179117Y53368027D01*
X-21208614Y53358443D01*
X-21235987Y53349548D01*
X-21397835Y53296960D01*
X-21602732Y53192560D01*
X-21788776Y53057392D01*
X-21894389Y52951778D01*
X-21951389Y52894778D01*
X-21951392Y52894775D01*
X-22441168Y52404998D01*
X-22892064Y51954102D01*
X-22974143Y51899259D01*
X-23070962Y51880000D01*
X-28923680Y51880000D01*
X-29020499Y51899258D01*
X-29102578Y51954102D01*
X-29157422Y52036181D01*
X-29176680Y52133000D01*
X-29157422Y52229819D01*
X-29102578Y52311898D01*
X-29044094Y52355507D01*
X-29025285Y52365687D01*
X-28929920Y52417295D01*
X-28548728Y52666340D01*
X-28548717Y52666349D01*
X-28548712Y52666352D01*
X-28346462Y52823770D01*
X-28189404Y52946013D01*
X-27854403Y53254403D01*
X-27546013Y53589404D01*
X-27338078Y53856559D01*
X-27266352Y53948712D01*
X-27266349Y53948717D01*
X-27266340Y53948728D01*
X-27017295Y54329920D01*
X-26800579Y54730376D01*
X-26617673Y55147360D01*
X-26469826Y55578024D01*
X-26358047Y56019426D01*
X-26283102Y56468552D01*
X-26245500Y56922332D01*
X-26245500Y57150000D01*
X-26245500Y57194875D01*
X-26245500Y58102500D01*
X-20683485Y58102500D01*
X-20663581Y57862280D01*
X-20663581Y57862279D01*
X-20663580Y57862277D01*
X-20604406Y57628606D01*
X-20507579Y57407862D01*
X-20507578Y57407861D01*
X-20375739Y57206065D01*
X-20289161Y57112017D01*
X-20212482Y57028722D01*
X-20212479Y57028720D01*
X-20212476Y57028717D01*
X-20075792Y56922331D01*
X-20022263Y56880668D01*
X-19810268Y56765943D01*
X-19582282Y56687675D01*
X-19582278Y56687675D01*
X-19582277Y56687674D01*
X-19344527Y56648000D01*
X-19344523Y56648000D01*
X-19103474Y56648000D01*
X-18865724Y56687674D01*
X-18865725Y56687674D01*
X-18865718Y56687675D01*
X-18637732Y56765943D01*
X-18425737Y56880668D01*
X-18235518Y57028722D01*
X-18072261Y57206066D01*
X-17940421Y57407862D01*
X-17843594Y57628606D01*
X-17784420Y57862277D01*
X-17764515Y58102500D01*
X17764515Y58102500D01*
X17784419Y57862280D01*
X17784419Y57862279D01*
X17784420Y57862277D01*
X17843594Y57628606D01*
X17940421Y57407862D01*
X17940422Y57407861D01*
X18072261Y57206065D01*
X18158839Y57112017D01*
X18235518Y57028722D01*
X18235521Y57028720D01*
X18235524Y57028717D01*
X18372208Y56922331D01*
X18425737Y56880668D01*
X18637732Y56765943D01*
X18865718Y56687675D01*
X18865722Y56687675D01*
X18865723Y56687674D01*
X19103473Y56648000D01*
X19103477Y56648000D01*
X19344526Y56648000D01*
X19582276Y56687674D01*
X19582275Y56687674D01*
X19582282Y56687675D01*
X19810268Y56765943D01*
X20022263Y56880668D01*
X20212482Y57028722D01*
X20375739Y57206066D01*
X20507579Y57407862D01*
X20604406Y57628606D01*
X20663580Y57862277D01*
X20683485Y58102500D01*
X20663580Y58342723D01*
X20604406Y58576394D01*
X20507579Y58797138D01*
X20375739Y58998934D01*
X20375738Y58998936D01*
X20212487Y59176273D01*
X20212475Y59176284D01*
X20022265Y59324331D01*
X19990010Y59341786D01*
X19810268Y59439057D01*
X19582282Y59517325D01*
X19582281Y59517326D01*
X19582276Y59517327D01*
X19344526Y59557000D01*
X19344523Y59557000D01*
X19103477Y59557000D01*
X19103474Y59557000D01*
X18865723Y59517327D01*
X18637737Y59439059D01*
X18637730Y59439056D01*
X18425734Y59324331D01*
X18235524Y59176284D01*
X18235512Y59176273D01*
X18072261Y58998936D01*
X17940422Y58797140D01*
X17843594Y58576394D01*
X17784420Y58342723D01*
X17784419Y58342721D01*
X17764515Y58102500D01*
X-17764515Y58102500D01*
X-17784420Y58342723D01*
X-17843594Y58576394D01*
X-17940421Y58797138D01*
X-18072261Y58998934D01*
X-18072262Y58998936D01*
X-18235513Y59176273D01*
X-18235525Y59176284D01*
X-18425735Y59324331D01*
X-18457990Y59341786D01*
X-18637732Y59439057D01*
X-18865718Y59517325D01*
X-18865719Y59517326D01*
X-18865724Y59517327D01*
X-19103474Y59557000D01*
X-19103477Y59557000D01*
X-19344523Y59557000D01*
X-19344526Y59557000D01*
X-19582277Y59517327D01*
X-19810263Y59439059D01*
X-19810270Y59439056D01*
X-20022266Y59324331D01*
X-20212476Y59176284D01*
X-20212488Y59176273D01*
X-20375739Y58998936D01*
X-20507578Y58797140D01*
X-20604406Y58576394D01*
X-20663580Y58342723D01*
X-20663581Y58342721D01*
X-20683485Y58102500D01*
X-26245500Y58102500D01*
X-26245500Y60952362D01*
X-26245038Y60967637D01*
X-26242056Y61016937D01*
X-26229760Y61220218D01*
X-26226081Y61250521D01*
X-26181845Y61491914D01*
X-26174540Y61521552D01*
X-26101526Y61755861D01*
X-26090709Y61784383D01*
X-25989986Y62008183D01*
X-25975793Y62035222D01*
X-25848841Y62245227D01*
X-25831498Y62270353D01*
X-25680153Y62463529D01*
X-25659910Y62486379D01*
X-25486379Y62659910D01*
X-25463529Y62680153D01*
X-25270353Y62831498D01*
X-25245227Y62848841D01*
X-25035217Y62975796D01*
X-25008183Y62989986D01*
X-24784383Y63090709D01*
X-24755861Y63101526D01*
X-24521552Y63174540D01*
X-24491914Y63181845D01*
X-24250521Y63226081D01*
X-24220218Y63229760D01*
X-23981992Y63244170D01*
X-23967636Y63245038D01*
X-23952361Y63245500D01*
X-23915124Y63245500D01*
X23915125Y63245500D01*
X23952362Y63245500D01*
X23967637Y63245038D01*
G37*
%TD.AperFunction*%
%TD*%
M02*
