%TF.GenerationSoftware,KiCad,Pcbnew,8.0.4*%
%TF.CreationDate,2025-03-13T14:18:39-04:00*%
%TF.ProjectId,erie_rov_connector_board,65726965-5f72-46f7-965f-636f6e6e6563,rev?*%
%TF.SameCoordinates,Original*%
%TF.FileFunction,Legend,Top*%
%TF.FilePolarity,Positive*%
%FSLAX46Y46*%
G04 Gerber Fmt 4.6, Leading zero omitted, Abs format (unit mm)*
G04 Created by KiCad (PCBNEW 8.0.4) date 2025-03-13 14:18:39*
%MOMM*%
%LPD*%
G01*
G04 APERTURE LIST*
G04 Aperture macros list*
%AMRoundRect*
0 Rectangle with rounded corners*
0 $1 Rounding radius*
0 $2 $3 $4 $5 $6 $7 $8 $9 X,Y pos of 4 corners*
0 Add a 4 corners polygon primitive as box body*
4,1,4,$2,$3,$4,$5,$6,$7,$8,$9,$2,$3,0*
0 Add four circle primitives for the rounded corners*
1,1,$1+$1,$2,$3*
1,1,$1+$1,$4,$5*
1,1,$1+$1,$6,$7*
1,1,$1+$1,$8,$9*
0 Add four rect primitives between the rounded corners*
20,1,$1+$1,$2,$3,$4,$5,0*
20,1,$1+$1,$4,$5,$6,$7,0*
20,1,$1+$1,$6,$7,$8,$9,0*
20,1,$1+$1,$8,$9,$2,$3,0*%
G04 Aperture macros list end*
%ADD10C,0.250000*%
%ADD11C,0.400000*%
%ADD12C,0.300000*%
%ADD13C,0.200000*%
%ADD14C,0.150000*%
%ADD15C,0.120000*%
%ADD16C,0.100000*%
%ADD17C,0.152400*%
%ADD18C,0.508000*%
%ADD19RoundRect,0.264583X-0.610417X0.370417X-0.610417X-0.370417X0.610417X-0.370417X0.610417X0.370417X0*%
%ADD20O,1.750000X1.270000*%
%ADD21RoundRect,0.264583X0.370417X0.610417X-0.370417X0.610417X-0.370417X-0.610417X0.370417X-0.610417X0*%
%ADD22O,1.270000X1.750000*%
%ADD23C,5.800000*%
%ADD24C,1.371600*%
%ADD25RoundRect,0.264583X-0.370417X-0.610417X0.370417X-0.610417X0.370417X0.610417X-0.370417X0.610417X0*%
%ADD26C,1.600200*%
%ADD27C,3.200000*%
%ADD28RoundRect,0.264583X0.610417X-0.370417X0.610417X0.370417X-0.610417X0.370417X-0.610417X-0.370417X0*%
G04 APERTURE END LIST*
D10*
X18836159Y55632767D02*
X15240000Y56197500D01*
D11*
X2794000Y33337500D02*
X14224000Y33337500D01*
D10*
X1270000Y56197500D02*
X15240000Y56197500D01*
D11*
X14224000Y54927500D02*
X14224000Y33337500D01*
D10*
X-5040000Y28591500D02*
X-5040000Y31321501D01*
X-15240000Y56197500D02*
X-6350000Y56197500D01*
D11*
X-7874000Y54927500D02*
X-14224000Y54927500D01*
X-14224000Y54927500D02*
X-14224000Y33591500D01*
D10*
X-6039999Y32321500D02*
G75*
G02*
X-5040000Y31321501I-1J-1000000D01*
G01*
X-40000Y31321500D02*
G75*
G02*
X960000Y32321500I1000000J0D01*
G01*
X960000Y32321500D02*
X1270000Y32321500D01*
X15240000Y60007500D02*
X-15240000Y60007500D01*
D11*
X13970000Y62230000D02*
X13970000Y61531500D01*
D10*
X-18836159Y60572233D02*
X-15240000Y60007500D01*
X-6350000Y56197500D02*
X-6350000Y32321500D01*
D11*
X2794000Y54927500D02*
X2794000Y33337500D01*
D10*
X-15240000Y56197500D02*
X-18836159Y55632767D01*
X1270000Y32321500D02*
X1270000Y56197500D01*
X-40000Y31321500D02*
X-40000Y28591500D01*
D11*
X2794000Y54927500D02*
X14224000Y54927500D01*
D10*
X15240000Y60007500D02*
X18836159Y60572233D01*
X-40000Y28591500D02*
G75*
G02*
X-5040000Y28591500I-2500000J0D01*
G01*
D11*
X-7874000Y54927500D02*
X-7874000Y33591500D01*
X-13970000Y62230000D02*
X-13970000Y61531500D01*
D10*
X-6350000Y32321500D02*
X-6039999Y32321500D01*
D11*
X-7874000Y33591500D02*
X-14224000Y33591500D01*
D10*
X18836159Y60572233D02*
G75*
G02*
X18836159Y55632767I387841J-2469733D01*
G01*
X-18836159Y55632767D02*
G75*
G02*
X-18836159Y60572233I-387841J2469733D01*
G01*
D12*
X7825828Y42750226D02*
X7825828Y43035940D01*
X7825828Y43035940D02*
X7897257Y43178797D01*
X7897257Y43178797D02*
X8040114Y43321654D01*
X8040114Y43321654D02*
X8325828Y43393083D01*
X8325828Y43393083D02*
X8825828Y43393083D01*
X8825828Y43393083D02*
X9111542Y43321654D01*
X9111542Y43321654D02*
X9254400Y43178797D01*
X9254400Y43178797D02*
X9325828Y43035940D01*
X9325828Y43035940D02*
X9325828Y42750226D01*
X9325828Y42750226D02*
X9254400Y42607368D01*
X9254400Y42607368D02*
X9111542Y42464511D01*
X9111542Y42464511D02*
X8825828Y42393083D01*
X8825828Y42393083D02*
X8325828Y42393083D01*
X8325828Y42393083D02*
X8040114Y42464511D01*
X8040114Y42464511D02*
X7897257Y42607368D01*
X7897257Y42607368D02*
X7825828Y42750226D01*
X9254400Y43964512D02*
X9325828Y44178797D01*
X9325828Y44178797D02*
X9325828Y44535940D01*
X9325828Y44535940D02*
X9254400Y44678797D01*
X9254400Y44678797D02*
X9182971Y44750226D01*
X9182971Y44750226D02*
X9040114Y44821655D01*
X9040114Y44821655D02*
X8897257Y44821655D01*
X8897257Y44821655D02*
X8754400Y44750226D01*
X8754400Y44750226D02*
X8682971Y44678797D01*
X8682971Y44678797D02*
X8611542Y44535940D01*
X8611542Y44535940D02*
X8540114Y44250226D01*
X8540114Y44250226D02*
X8468685Y44107369D01*
X8468685Y44107369D02*
X8397257Y44035940D01*
X8397257Y44035940D02*
X8254400Y43964512D01*
X8254400Y43964512D02*
X8111542Y43964512D01*
X8111542Y43964512D02*
X7968685Y44035940D01*
X7968685Y44035940D02*
X7897257Y44107369D01*
X7897257Y44107369D02*
X7825828Y44250226D01*
X7825828Y44250226D02*
X7825828Y44607369D01*
X7825828Y44607369D02*
X7897257Y44821655D01*
X9325828Y45464511D02*
X7825828Y45464511D01*
X7825828Y45464511D02*
X7825828Y45821654D01*
X7825828Y45821654D02*
X7897257Y46035940D01*
X7897257Y46035940D02*
X8040114Y46178797D01*
X8040114Y46178797D02*
X8182971Y46250226D01*
X8182971Y46250226D02*
X8468685Y46321654D01*
X8468685Y46321654D02*
X8682971Y46321654D01*
X8682971Y46321654D02*
X8968685Y46250226D01*
X8968685Y46250226D02*
X9111542Y46178797D01*
X9111542Y46178797D02*
X9254400Y46035940D01*
X9254400Y46035940D02*
X9325828Y45821654D01*
X9325828Y45821654D02*
X9325828Y45464511D01*
D13*
X-4853184Y62092781D02*
X-4281756Y62092781D01*
X-4567470Y61092781D02*
X-4567470Y62092781D01*
X-3567470Y61140400D02*
X-3662708Y61092781D01*
X-3662708Y61092781D02*
X-3853184Y61092781D01*
X-3853184Y61092781D02*
X-3948422Y61140400D01*
X-3948422Y61140400D02*
X-3996041Y61235639D01*
X-3996041Y61235639D02*
X-3996041Y61616591D01*
X-3996041Y61616591D02*
X-3948422Y61711829D01*
X-3948422Y61711829D02*
X-3853184Y61759448D01*
X-3853184Y61759448D02*
X-3662708Y61759448D01*
X-3662708Y61759448D02*
X-3567470Y61711829D01*
X-3567470Y61711829D02*
X-3519851Y61616591D01*
X-3519851Y61616591D02*
X-3519851Y61521353D01*
X-3519851Y61521353D02*
X-3996041Y61426115D01*
X-2948422Y61092781D02*
X-3043660Y61140400D01*
X-3043660Y61140400D02*
X-3091279Y61235639D01*
X-3091279Y61235639D02*
X-3091279Y62092781D01*
X-2186517Y61140400D02*
X-2281755Y61092781D01*
X-2281755Y61092781D02*
X-2472231Y61092781D01*
X-2472231Y61092781D02*
X-2567469Y61140400D01*
X-2567469Y61140400D02*
X-2615088Y61235639D01*
X-2615088Y61235639D02*
X-2615088Y61616591D01*
X-2615088Y61616591D02*
X-2567469Y61711829D01*
X-2567469Y61711829D02*
X-2472231Y61759448D01*
X-2472231Y61759448D02*
X-2281755Y61759448D01*
X-2281755Y61759448D02*
X-2186517Y61711829D01*
X-2186517Y61711829D02*
X-2138898Y61616591D01*
X-2138898Y61616591D02*
X-2138898Y61521353D01*
X-2138898Y61521353D02*
X-2615088Y61426115D01*
X-1710326Y61092781D02*
X-1710326Y61759448D01*
X-1710326Y61664210D02*
X-1662707Y61711829D01*
X-1662707Y61711829D02*
X-1567469Y61759448D01*
X-1567469Y61759448D02*
X-1424612Y61759448D01*
X-1424612Y61759448D02*
X-1329374Y61711829D01*
X-1329374Y61711829D02*
X-1281755Y61616591D01*
X-1281755Y61616591D02*
X-1281755Y61092781D01*
X-1281755Y61616591D02*
X-1234136Y61711829D01*
X-1234136Y61711829D02*
X-1138898Y61759448D01*
X-1138898Y61759448D02*
X-996041Y61759448D01*
X-996041Y61759448D02*
X-900802Y61711829D01*
X-900802Y61711829D02*
X-853183Y61616591D01*
X-853183Y61616591D02*
X-853183Y61092781D01*
X956340Y61092781D02*
X623007Y61568972D01*
X384912Y61092781D02*
X384912Y62092781D01*
X384912Y62092781D02*
X765864Y62092781D01*
X765864Y62092781D02*
X861102Y62045162D01*
X861102Y62045162D02*
X908721Y61997543D01*
X908721Y61997543D02*
X956340Y61902305D01*
X956340Y61902305D02*
X956340Y61759448D01*
X956340Y61759448D02*
X908721Y61664210D01*
X908721Y61664210D02*
X861102Y61616591D01*
X861102Y61616591D02*
X765864Y61568972D01*
X765864Y61568972D02*
X384912Y61568972D01*
X1813483Y61092781D02*
X1813483Y61616591D01*
X1813483Y61616591D02*
X1765864Y61711829D01*
X1765864Y61711829D02*
X1670626Y61759448D01*
X1670626Y61759448D02*
X1480150Y61759448D01*
X1480150Y61759448D02*
X1384912Y61711829D01*
X1813483Y61140400D02*
X1718245Y61092781D01*
X1718245Y61092781D02*
X1480150Y61092781D01*
X1480150Y61092781D02*
X1384912Y61140400D01*
X1384912Y61140400D02*
X1337293Y61235639D01*
X1337293Y61235639D02*
X1337293Y61330877D01*
X1337293Y61330877D02*
X1384912Y61426115D01*
X1384912Y61426115D02*
X1480150Y61473734D01*
X1480150Y61473734D02*
X1718245Y61473734D01*
X1718245Y61473734D02*
X1813483Y61521353D01*
X2718245Y61092781D02*
X2718245Y62092781D01*
X2718245Y61140400D02*
X2623007Y61092781D01*
X2623007Y61092781D02*
X2432531Y61092781D01*
X2432531Y61092781D02*
X2337293Y61140400D01*
X2337293Y61140400D02*
X2289674Y61188020D01*
X2289674Y61188020D02*
X2242055Y61283258D01*
X2242055Y61283258D02*
X2242055Y61568972D01*
X2242055Y61568972D02*
X2289674Y61664210D01*
X2289674Y61664210D02*
X2337293Y61711829D01*
X2337293Y61711829D02*
X2432531Y61759448D01*
X2432531Y61759448D02*
X2623007Y61759448D01*
X2623007Y61759448D02*
X2718245Y61711829D01*
X3194436Y61092781D02*
X3194436Y61759448D01*
X3194436Y62092781D02*
X3146817Y62045162D01*
X3146817Y62045162D02*
X3194436Y61997543D01*
X3194436Y61997543D02*
X3242055Y62045162D01*
X3242055Y62045162D02*
X3194436Y62092781D01*
X3194436Y62092781D02*
X3194436Y61997543D01*
X3813483Y61092781D02*
X3718245Y61140400D01*
X3718245Y61140400D02*
X3670626Y61188020D01*
X3670626Y61188020D02*
X3623007Y61283258D01*
X3623007Y61283258D02*
X3623007Y61568972D01*
X3623007Y61568972D02*
X3670626Y61664210D01*
X3670626Y61664210D02*
X3718245Y61711829D01*
X3718245Y61711829D02*
X3813483Y61759448D01*
X3813483Y61759448D02*
X3956340Y61759448D01*
X3956340Y61759448D02*
X4051578Y61711829D01*
X4051578Y61711829D02*
X4099197Y61664210D01*
X4099197Y61664210D02*
X4146816Y61568972D01*
X4146816Y61568972D02*
X4146816Y61283258D01*
X4146816Y61283258D02*
X4099197Y61188020D01*
X4099197Y61188020D02*
X4051578Y61140400D01*
X4051578Y61140400D02*
X3956340Y61092781D01*
X3956340Y61092781D02*
X3813483Y61092781D01*
D12*
X-11859172Y42250226D02*
X-10359172Y42750226D01*
X-10359172Y42750226D02*
X-11859172Y43250226D01*
X-11859172Y43535940D02*
X-11859172Y44393082D01*
X-10359172Y43964511D02*
X-11859172Y43964511D01*
X-11859172Y44750225D02*
X-10359172Y45750225D01*
X-11859172Y45750225D02*
X-10359172Y44750225D01*
D14*
X21044819Y46428572D02*
X21044819Y46619048D01*
X21044819Y46619048D02*
X21092438Y46714286D01*
X21092438Y46714286D02*
X21187676Y46809524D01*
X21187676Y46809524D02*
X21378152Y46857143D01*
X21378152Y46857143D02*
X21711485Y46857143D01*
X21711485Y46857143D02*
X21901961Y46809524D01*
X21901961Y46809524D02*
X21997200Y46714286D01*
X21997200Y46714286D02*
X22044819Y46619048D01*
X22044819Y46619048D02*
X22044819Y46428572D01*
X22044819Y46428572D02*
X21997200Y46333334D01*
X21997200Y46333334D02*
X21901961Y46238096D01*
X21901961Y46238096D02*
X21711485Y46190477D01*
X21711485Y46190477D02*
X21378152Y46190477D01*
X21378152Y46190477D02*
X21187676Y46238096D01*
X21187676Y46238096D02*
X21092438Y46333334D01*
X21092438Y46333334D02*
X21044819Y46428572D01*
X21997200Y47238096D02*
X22044819Y47380953D01*
X22044819Y47380953D02*
X22044819Y47619048D01*
X22044819Y47619048D02*
X21997200Y47714286D01*
X21997200Y47714286D02*
X21949580Y47761905D01*
X21949580Y47761905D02*
X21854342Y47809524D01*
X21854342Y47809524D02*
X21759104Y47809524D01*
X21759104Y47809524D02*
X21663866Y47761905D01*
X21663866Y47761905D02*
X21616247Y47714286D01*
X21616247Y47714286D02*
X21568628Y47619048D01*
X21568628Y47619048D02*
X21521009Y47428572D01*
X21521009Y47428572D02*
X21473390Y47333334D01*
X21473390Y47333334D02*
X21425771Y47285715D01*
X21425771Y47285715D02*
X21330533Y47238096D01*
X21330533Y47238096D02*
X21235295Y47238096D01*
X21235295Y47238096D02*
X21140057Y47285715D01*
X21140057Y47285715D02*
X21092438Y47333334D01*
X21092438Y47333334D02*
X21044819Y47428572D01*
X21044819Y47428572D02*
X21044819Y47666667D01*
X21044819Y47666667D02*
X21092438Y47809524D01*
X22044819Y48238096D02*
X21044819Y48238096D01*
X21044819Y48238096D02*
X21044819Y48476191D01*
X21044819Y48476191D02*
X21092438Y48619048D01*
X21092438Y48619048D02*
X21187676Y48714286D01*
X21187676Y48714286D02*
X21282914Y48761905D01*
X21282914Y48761905D02*
X21473390Y48809524D01*
X21473390Y48809524D02*
X21616247Y48809524D01*
X21616247Y48809524D02*
X21806723Y48761905D01*
X21806723Y48761905D02*
X21901961Y48714286D01*
X21901961Y48714286D02*
X21997200Y48619048D01*
X21997200Y48619048D02*
X22044819Y48476191D01*
X22044819Y48476191D02*
X22044819Y48238096D01*
X28861190Y-8821009D02*
X29194523Y-8821009D01*
X29337380Y-9344819D02*
X28861190Y-9344819D01*
X28861190Y-9344819D02*
X28861190Y-8344819D01*
X28861190Y-8344819D02*
X29337380Y-8344819D01*
X29670714Y-9344819D02*
X30194523Y-8678152D01*
X29670714Y-8678152D02*
X30194523Y-9344819D01*
X30575476Y-8678152D02*
X30575476Y-9678152D01*
X30575476Y-8725771D02*
X30670714Y-8678152D01*
X30670714Y-8678152D02*
X30861190Y-8678152D01*
X30861190Y-8678152D02*
X30956428Y-8725771D01*
X30956428Y-8725771D02*
X31004047Y-8773390D01*
X31004047Y-8773390D02*
X31051666Y-8868628D01*
X31051666Y-8868628D02*
X31051666Y-9154342D01*
X31051666Y-9154342D02*
X31004047Y-9249580D01*
X31004047Y-9249580D02*
X30956428Y-9297200D01*
X30956428Y-9297200D02*
X30861190Y-9344819D01*
X30861190Y-9344819D02*
X30670714Y-9344819D01*
X30670714Y-9344819D02*
X30575476Y-9297200D01*
X31908809Y-9344819D02*
X31908809Y-8821009D01*
X31908809Y-8821009D02*
X31861190Y-8725771D01*
X31861190Y-8725771D02*
X31765952Y-8678152D01*
X31765952Y-8678152D02*
X31575476Y-8678152D01*
X31575476Y-8678152D02*
X31480238Y-8725771D01*
X31908809Y-9297200D02*
X31813571Y-9344819D01*
X31813571Y-9344819D02*
X31575476Y-9344819D01*
X31575476Y-9344819D02*
X31480238Y-9297200D01*
X31480238Y-9297200D02*
X31432619Y-9201961D01*
X31432619Y-9201961D02*
X31432619Y-9106723D01*
X31432619Y-9106723D02*
X31480238Y-9011485D01*
X31480238Y-9011485D02*
X31575476Y-8963866D01*
X31575476Y-8963866D02*
X31813571Y-8963866D01*
X31813571Y-8963866D02*
X31908809Y-8916247D01*
X32385000Y-8678152D02*
X32385000Y-9344819D01*
X32385000Y-8773390D02*
X32432619Y-8725771D01*
X32432619Y-8725771D02*
X32527857Y-8678152D01*
X32527857Y-8678152D02*
X32670714Y-8678152D01*
X32670714Y-8678152D02*
X32765952Y-8725771D01*
X32765952Y-8725771D02*
X32813571Y-8821009D01*
X32813571Y-8821009D02*
X32813571Y-9344819D01*
X33242143Y-9297200D02*
X33337381Y-9344819D01*
X33337381Y-9344819D02*
X33527857Y-9344819D01*
X33527857Y-9344819D02*
X33623095Y-9297200D01*
X33623095Y-9297200D02*
X33670714Y-9201961D01*
X33670714Y-9201961D02*
X33670714Y-9154342D01*
X33670714Y-9154342D02*
X33623095Y-9059104D01*
X33623095Y-9059104D02*
X33527857Y-9011485D01*
X33527857Y-9011485D02*
X33385000Y-9011485D01*
X33385000Y-9011485D02*
X33289762Y-8963866D01*
X33289762Y-8963866D02*
X33242143Y-8868628D01*
X33242143Y-8868628D02*
X33242143Y-8821009D01*
X33242143Y-8821009D02*
X33289762Y-8725771D01*
X33289762Y-8725771D02*
X33385000Y-8678152D01*
X33385000Y-8678152D02*
X33527857Y-8678152D01*
X33527857Y-8678152D02*
X33623095Y-8725771D01*
X34099286Y-9344819D02*
X34099286Y-8678152D01*
X34099286Y-8344819D02*
X34051667Y-8392438D01*
X34051667Y-8392438D02*
X34099286Y-8440057D01*
X34099286Y-8440057D02*
X34146905Y-8392438D01*
X34146905Y-8392438D02*
X34099286Y-8344819D01*
X34099286Y-8344819D02*
X34099286Y-8440057D01*
X34718333Y-9344819D02*
X34623095Y-9297200D01*
X34623095Y-9297200D02*
X34575476Y-9249580D01*
X34575476Y-9249580D02*
X34527857Y-9154342D01*
X34527857Y-9154342D02*
X34527857Y-8868628D01*
X34527857Y-8868628D02*
X34575476Y-8773390D01*
X34575476Y-8773390D02*
X34623095Y-8725771D01*
X34623095Y-8725771D02*
X34718333Y-8678152D01*
X34718333Y-8678152D02*
X34861190Y-8678152D01*
X34861190Y-8678152D02*
X34956428Y-8725771D01*
X34956428Y-8725771D02*
X35004047Y-8773390D01*
X35004047Y-8773390D02*
X35051666Y-8868628D01*
X35051666Y-8868628D02*
X35051666Y-9154342D01*
X35051666Y-9154342D02*
X35004047Y-9249580D01*
X35004047Y-9249580D02*
X34956428Y-9297200D01*
X34956428Y-9297200D02*
X34861190Y-9344819D01*
X34861190Y-9344819D02*
X34718333Y-9344819D01*
X35480238Y-8678152D02*
X35480238Y-9344819D01*
X35480238Y-8773390D02*
X35527857Y-8725771D01*
X35527857Y-8725771D02*
X35623095Y-8678152D01*
X35623095Y-8678152D02*
X35765952Y-8678152D01*
X35765952Y-8678152D02*
X35861190Y-8725771D01*
X35861190Y-8725771D02*
X35908809Y-8821009D01*
X35908809Y-8821009D02*
X35908809Y-9344819D01*
X28226190Y68991D02*
X28559523Y68991D01*
X28702380Y-454819D02*
X28226190Y-454819D01*
X28226190Y-454819D02*
X28226190Y545181D01*
X28226190Y545181D02*
X28702380Y545181D01*
X29035714Y-454819D02*
X29559523Y211848D01*
X29035714Y211848D02*
X29559523Y-454819D01*
X29940476Y211848D02*
X29940476Y-788152D01*
X29940476Y164229D02*
X30035714Y211848D01*
X30035714Y211848D02*
X30226190Y211848D01*
X30226190Y211848D02*
X30321428Y164229D01*
X30321428Y164229D02*
X30369047Y116610D01*
X30369047Y116610D02*
X30416666Y21372D01*
X30416666Y21372D02*
X30416666Y-264342D01*
X30416666Y-264342D02*
X30369047Y-359580D01*
X30369047Y-359580D02*
X30321428Y-407200D01*
X30321428Y-407200D02*
X30226190Y-454819D01*
X30226190Y-454819D02*
X30035714Y-454819D01*
X30035714Y-454819D02*
X29940476Y-407200D01*
X31273809Y-454819D02*
X31273809Y68991D01*
X31273809Y68991D02*
X31226190Y164229D01*
X31226190Y164229D02*
X31130952Y211848D01*
X31130952Y211848D02*
X30940476Y211848D01*
X30940476Y211848D02*
X30845238Y164229D01*
X31273809Y-407200D02*
X31178571Y-454819D01*
X31178571Y-454819D02*
X30940476Y-454819D01*
X30940476Y-454819D02*
X30845238Y-407200D01*
X30845238Y-407200D02*
X30797619Y-311961D01*
X30797619Y-311961D02*
X30797619Y-216723D01*
X30797619Y-216723D02*
X30845238Y-121485D01*
X30845238Y-121485D02*
X30940476Y-73866D01*
X30940476Y-73866D02*
X31178571Y-73866D01*
X31178571Y-73866D02*
X31273809Y-26247D01*
X31750000Y211848D02*
X31750000Y-454819D01*
X31750000Y116610D02*
X31797619Y164229D01*
X31797619Y164229D02*
X31892857Y211848D01*
X31892857Y211848D02*
X32035714Y211848D01*
X32035714Y211848D02*
X32130952Y164229D01*
X32130952Y164229D02*
X32178571Y68991D01*
X32178571Y68991D02*
X32178571Y-454819D01*
X32607143Y-407200D02*
X32702381Y-454819D01*
X32702381Y-454819D02*
X32892857Y-454819D01*
X32892857Y-454819D02*
X32988095Y-407200D01*
X32988095Y-407200D02*
X33035714Y-311961D01*
X33035714Y-311961D02*
X33035714Y-264342D01*
X33035714Y-264342D02*
X32988095Y-169104D01*
X32988095Y-169104D02*
X32892857Y-121485D01*
X32892857Y-121485D02*
X32750000Y-121485D01*
X32750000Y-121485D02*
X32654762Y-73866D01*
X32654762Y-73866D02*
X32607143Y21372D01*
X32607143Y21372D02*
X32607143Y68991D01*
X32607143Y68991D02*
X32654762Y164229D01*
X32654762Y164229D02*
X32750000Y211848D01*
X32750000Y211848D02*
X32892857Y211848D01*
X32892857Y211848D02*
X32988095Y164229D01*
X33464286Y-454819D02*
X33464286Y211848D01*
X33464286Y545181D02*
X33416667Y497562D01*
X33416667Y497562D02*
X33464286Y449943D01*
X33464286Y449943D02*
X33511905Y497562D01*
X33511905Y497562D02*
X33464286Y545181D01*
X33464286Y545181D02*
X33464286Y449943D01*
X34083333Y-454819D02*
X33988095Y-407200D01*
X33988095Y-407200D02*
X33940476Y-359580D01*
X33940476Y-359580D02*
X33892857Y-264342D01*
X33892857Y-264342D02*
X33892857Y21372D01*
X33892857Y21372D02*
X33940476Y116610D01*
X33940476Y116610D02*
X33988095Y164229D01*
X33988095Y164229D02*
X34083333Y211848D01*
X34083333Y211848D02*
X34226190Y211848D01*
X34226190Y211848D02*
X34321428Y164229D01*
X34321428Y164229D02*
X34369047Y116610D01*
X34369047Y116610D02*
X34416666Y21372D01*
X34416666Y21372D02*
X34416666Y-264342D01*
X34416666Y-264342D02*
X34369047Y-359580D01*
X34369047Y-359580D02*
X34321428Y-407200D01*
X34321428Y-407200D02*
X34226190Y-454819D01*
X34226190Y-454819D02*
X34083333Y-454819D01*
X34845238Y211848D02*
X34845238Y-454819D01*
X34845238Y116610D02*
X34892857Y164229D01*
X34892857Y164229D02*
X34988095Y211848D01*
X34988095Y211848D02*
X35130952Y211848D01*
X35130952Y211848D02*
X35226190Y164229D01*
X35226190Y164229D02*
X35273809Y68991D01*
X35273809Y68991D02*
X35273809Y-454819D01*
X-32464286Y18277562D02*
X-32559524Y18325181D01*
X-32559524Y18325181D02*
X-32702381Y18325181D01*
X-32702381Y18325181D02*
X-32845238Y18277562D01*
X-32845238Y18277562D02*
X-32940476Y18182324D01*
X-32940476Y18182324D02*
X-32988095Y18087086D01*
X-32988095Y18087086D02*
X-33035714Y17896610D01*
X-33035714Y17896610D02*
X-33035714Y17753753D01*
X-33035714Y17753753D02*
X-32988095Y17563277D01*
X-32988095Y17563277D02*
X-32940476Y17468039D01*
X-32940476Y17468039D02*
X-32845238Y17372800D01*
X-32845238Y17372800D02*
X-32702381Y17325181D01*
X-32702381Y17325181D02*
X-32607143Y17325181D01*
X-32607143Y17325181D02*
X-32464286Y17372800D01*
X-32464286Y17372800D02*
X-32416667Y17420420D01*
X-32416667Y17420420D02*
X-32416667Y17753753D01*
X-32416667Y17753753D02*
X-32607143Y17753753D01*
X-31988095Y17325181D02*
X-31988095Y18325181D01*
X-31988095Y18325181D02*
X-31607143Y18325181D01*
X-31607143Y18325181D02*
X-31511905Y18277562D01*
X-31511905Y18277562D02*
X-31464286Y18229943D01*
X-31464286Y18229943D02*
X-31416667Y18134705D01*
X-31416667Y18134705D02*
X-31416667Y17991848D01*
X-31416667Y17991848D02*
X-31464286Y17896610D01*
X-31464286Y17896610D02*
X-31511905Y17848991D01*
X-31511905Y17848991D02*
X-31607143Y17801372D01*
X-31607143Y17801372D02*
X-31988095Y17801372D01*
X-31035714Y17372800D02*
X-30892857Y17325181D01*
X-30892857Y17325181D02*
X-30654762Y17325181D01*
X-30654762Y17325181D02*
X-30559524Y17372800D01*
X-30559524Y17372800D02*
X-30511905Y17420420D01*
X-30511905Y17420420D02*
X-30464286Y17515658D01*
X-30464286Y17515658D02*
X-30464286Y17610896D01*
X-30464286Y17610896D02*
X-30511905Y17706134D01*
X-30511905Y17706134D02*
X-30559524Y17753753D01*
X-30559524Y17753753D02*
X-30654762Y17801372D01*
X-30654762Y17801372D02*
X-30845238Y17848991D01*
X-30845238Y17848991D02*
X-30940476Y17896610D01*
X-30940476Y17896610D02*
X-30988095Y17944229D01*
X-30988095Y17944229D02*
X-31035714Y18039467D01*
X-31035714Y18039467D02*
X-31035714Y18134705D01*
X-31035714Y18134705D02*
X-30988095Y18229943D01*
X-30988095Y18229943D02*
X-30940476Y18277562D01*
X-30940476Y18277562D02*
X-30845238Y18325181D01*
X-30845238Y18325181D02*
X-30607143Y18325181D01*
X-30607143Y18325181D02*
X-30464286Y18277562D01*
X9428571Y25945181D02*
X9619047Y25945181D01*
X9619047Y25945181D02*
X9714285Y25897562D01*
X9714285Y25897562D02*
X9809523Y25802324D01*
X9809523Y25802324D02*
X9857142Y25611848D01*
X9857142Y25611848D02*
X9857142Y25278515D01*
X9857142Y25278515D02*
X9809523Y25088039D01*
X9809523Y25088039D02*
X9714285Y24992800D01*
X9714285Y24992800D02*
X9619047Y24945181D01*
X9619047Y24945181D02*
X9428571Y24945181D01*
X9428571Y24945181D02*
X9333333Y24992800D01*
X9333333Y24992800D02*
X9238095Y25088039D01*
X9238095Y25088039D02*
X9190476Y25278515D01*
X9190476Y25278515D02*
X9190476Y25611848D01*
X9190476Y25611848D02*
X9238095Y25802324D01*
X9238095Y25802324D02*
X9333333Y25897562D01*
X9333333Y25897562D02*
X9428571Y25945181D01*
X10238095Y24992800D02*
X10380952Y24945181D01*
X10380952Y24945181D02*
X10619047Y24945181D01*
X10619047Y24945181D02*
X10714285Y24992800D01*
X10714285Y24992800D02*
X10761904Y25040420D01*
X10761904Y25040420D02*
X10809523Y25135658D01*
X10809523Y25135658D02*
X10809523Y25230896D01*
X10809523Y25230896D02*
X10761904Y25326134D01*
X10761904Y25326134D02*
X10714285Y25373753D01*
X10714285Y25373753D02*
X10619047Y25421372D01*
X10619047Y25421372D02*
X10428571Y25468991D01*
X10428571Y25468991D02*
X10333333Y25516610D01*
X10333333Y25516610D02*
X10285714Y25564229D01*
X10285714Y25564229D02*
X10238095Y25659467D01*
X10238095Y25659467D02*
X10238095Y25754705D01*
X10238095Y25754705D02*
X10285714Y25849943D01*
X10285714Y25849943D02*
X10333333Y25897562D01*
X10333333Y25897562D02*
X10428571Y25945181D01*
X10428571Y25945181D02*
X10666666Y25945181D01*
X10666666Y25945181D02*
X10809523Y25897562D01*
X11238095Y24945181D02*
X11238095Y25945181D01*
X11238095Y25945181D02*
X11476190Y25945181D01*
X11476190Y25945181D02*
X11619047Y25897562D01*
X11619047Y25897562D02*
X11714285Y25802324D01*
X11714285Y25802324D02*
X11761904Y25707086D01*
X11761904Y25707086D02*
X11809523Y25516610D01*
X11809523Y25516610D02*
X11809523Y25373753D01*
X11809523Y25373753D02*
X11761904Y25183277D01*
X11761904Y25183277D02*
X11714285Y25088039D01*
X11714285Y25088039D02*
X11619047Y24992800D01*
X11619047Y24992800D02*
X11476190Y24945181D01*
X11476190Y24945181D02*
X11238095Y24945181D01*
X-10340181Y15708572D02*
X-11340181Y15708572D01*
X-11340181Y15708572D02*
X-11340181Y16089524D01*
X-11340181Y16089524D02*
X-11292562Y16184762D01*
X-11292562Y16184762D02*
X-11244943Y16232381D01*
X-11244943Y16232381D02*
X-11149705Y16280000D01*
X-11149705Y16280000D02*
X-11006848Y16280000D01*
X-11006848Y16280000D02*
X-10911610Y16232381D01*
X-10911610Y16232381D02*
X-10863991Y16184762D01*
X-10863991Y16184762D02*
X-10816372Y16089524D01*
X-10816372Y16089524D02*
X-10816372Y15708572D01*
X-10625896Y16660953D02*
X-10625896Y17137143D01*
X-10340181Y16565715D02*
X-11340181Y16899048D01*
X-11340181Y16899048D02*
X-10340181Y17232381D01*
X-10340181Y17565715D02*
X-11340181Y17565715D01*
X-11340181Y17565715D02*
X-10340181Y18137143D01*
X-10340181Y18137143D02*
X-11340181Y18137143D01*
X-10863991Y18613334D02*
X-10863991Y18946667D01*
X-10340181Y19089524D02*
X-10340181Y18613334D01*
X-10340181Y18613334D02*
X-11340181Y18613334D01*
X-11340181Y18613334D02*
X-11340181Y19089524D01*
X-10340181Y19994286D02*
X-10340181Y19518096D01*
X-10340181Y19518096D02*
X-11340181Y19518096D01*
X26511904Y51345181D02*
X26845237Y50345181D01*
X26845237Y50345181D02*
X27178570Y51345181D01*
X27511904Y50345181D02*
X27511904Y51011848D01*
X27511904Y51345181D02*
X27464285Y51297562D01*
X27464285Y51297562D02*
X27511904Y51249943D01*
X27511904Y51249943D02*
X27559523Y51297562D01*
X27559523Y51297562D02*
X27511904Y51345181D01*
X27511904Y51345181D02*
X27511904Y51249943D01*
X28416665Y50345181D02*
X28416665Y51345181D01*
X28416665Y50392800D02*
X28321427Y50345181D01*
X28321427Y50345181D02*
X28130951Y50345181D01*
X28130951Y50345181D02*
X28035713Y50392800D01*
X28035713Y50392800D02*
X27988094Y50440420D01*
X27988094Y50440420D02*
X27940475Y50535658D01*
X27940475Y50535658D02*
X27940475Y50821372D01*
X27940475Y50821372D02*
X27988094Y50916610D01*
X27988094Y50916610D02*
X28035713Y50964229D01*
X28035713Y50964229D02*
X28130951Y51011848D01*
X28130951Y51011848D02*
X28321427Y51011848D01*
X28321427Y51011848D02*
X28416665Y50964229D01*
X29273808Y50392800D02*
X29178570Y50345181D01*
X29178570Y50345181D02*
X28988094Y50345181D01*
X28988094Y50345181D02*
X28892856Y50392800D01*
X28892856Y50392800D02*
X28845237Y50488039D01*
X28845237Y50488039D02*
X28845237Y50868991D01*
X28845237Y50868991D02*
X28892856Y50964229D01*
X28892856Y50964229D02*
X28988094Y51011848D01*
X28988094Y51011848D02*
X29178570Y51011848D01*
X29178570Y51011848D02*
X29273808Y50964229D01*
X29273808Y50964229D02*
X29321427Y50868991D01*
X29321427Y50868991D02*
X29321427Y50773753D01*
X29321427Y50773753D02*
X28845237Y50678515D01*
X29892856Y50345181D02*
X29797618Y50392800D01*
X29797618Y50392800D02*
X29749999Y50440420D01*
X29749999Y50440420D02*
X29702380Y50535658D01*
X29702380Y50535658D02*
X29702380Y50821372D01*
X29702380Y50821372D02*
X29749999Y50916610D01*
X29749999Y50916610D02*
X29797618Y50964229D01*
X29797618Y50964229D02*
X29892856Y51011848D01*
X29892856Y51011848D02*
X30035713Y51011848D01*
X30035713Y51011848D02*
X30130951Y50964229D01*
X30130951Y50964229D02*
X30178570Y50916610D01*
X30178570Y50916610D02*
X30226189Y50821372D01*
X30226189Y50821372D02*
X30226189Y50535658D01*
X30226189Y50535658D02*
X30178570Y50440420D01*
X30178570Y50440420D02*
X30130951Y50392800D01*
X30130951Y50392800D02*
X30035713Y50345181D01*
X30035713Y50345181D02*
X29892856Y50345181D01*
X31369047Y50630896D02*
X31845237Y50630896D01*
X31273809Y50345181D02*
X31607142Y51345181D01*
X31607142Y51345181D02*
X31940475Y50345181D01*
X32273809Y51011848D02*
X32273809Y50345181D01*
X32273809Y50916610D02*
X32321428Y50964229D01*
X32321428Y50964229D02*
X32416666Y51011848D01*
X32416666Y51011848D02*
X32559523Y51011848D01*
X32559523Y51011848D02*
X32654761Y50964229D01*
X32654761Y50964229D02*
X32702380Y50868991D01*
X32702380Y50868991D02*
X32702380Y50345181D01*
X33035714Y51011848D02*
X33416666Y51011848D01*
X33178571Y51345181D02*
X33178571Y50488039D01*
X33178571Y50488039D02*
X33226190Y50392800D01*
X33226190Y50392800D02*
X33321428Y50345181D01*
X33321428Y50345181D02*
X33416666Y50345181D01*
X34130952Y50392800D02*
X34035714Y50345181D01*
X34035714Y50345181D02*
X33845238Y50345181D01*
X33845238Y50345181D02*
X33750000Y50392800D01*
X33750000Y50392800D02*
X33702381Y50488039D01*
X33702381Y50488039D02*
X33702381Y50868991D01*
X33702381Y50868991D02*
X33750000Y50964229D01*
X33750000Y50964229D02*
X33845238Y51011848D01*
X33845238Y51011848D02*
X34035714Y51011848D01*
X34035714Y51011848D02*
X34130952Y50964229D01*
X34130952Y50964229D02*
X34178571Y50868991D01*
X34178571Y50868991D02*
X34178571Y50773753D01*
X34178571Y50773753D02*
X33702381Y50678515D01*
X34607143Y51011848D02*
X34607143Y50345181D01*
X34607143Y50916610D02*
X34654762Y50964229D01*
X34654762Y50964229D02*
X34750000Y51011848D01*
X34750000Y51011848D02*
X34892857Y51011848D01*
X34892857Y51011848D02*
X34988095Y50964229D01*
X34988095Y50964229D02*
X35035714Y50868991D01*
X35035714Y50868991D02*
X35035714Y50345181D01*
X35511905Y51011848D02*
X35511905Y50345181D01*
X35511905Y50916610D02*
X35559524Y50964229D01*
X35559524Y50964229D02*
X35654762Y51011848D01*
X35654762Y51011848D02*
X35797619Y51011848D01*
X35797619Y51011848D02*
X35892857Y50964229D01*
X35892857Y50964229D02*
X35940476Y50868991D01*
X35940476Y50868991D02*
X35940476Y50345181D01*
X36845238Y50345181D02*
X36845238Y50868991D01*
X36845238Y50868991D02*
X36797619Y50964229D01*
X36797619Y50964229D02*
X36702381Y51011848D01*
X36702381Y51011848D02*
X36511905Y51011848D01*
X36511905Y51011848D02*
X36416667Y50964229D01*
X36845238Y50392800D02*
X36750000Y50345181D01*
X36750000Y50345181D02*
X36511905Y50345181D01*
X36511905Y50345181D02*
X36416667Y50392800D01*
X36416667Y50392800D02*
X36369048Y50488039D01*
X36369048Y50488039D02*
X36369048Y50583277D01*
X36369048Y50583277D02*
X36416667Y50678515D01*
X36416667Y50678515D02*
X36511905Y50726134D01*
X36511905Y50726134D02*
X36750000Y50726134D01*
X36750000Y50726134D02*
X36845238Y50773753D01*
X29749999Y17420420D02*
X29702380Y17372800D01*
X29702380Y17372800D02*
X29559523Y17325181D01*
X29559523Y17325181D02*
X29464285Y17325181D01*
X29464285Y17325181D02*
X29321428Y17372800D01*
X29321428Y17372800D02*
X29226190Y17468039D01*
X29226190Y17468039D02*
X29178571Y17563277D01*
X29178571Y17563277D02*
X29130952Y17753753D01*
X29130952Y17753753D02*
X29130952Y17896610D01*
X29130952Y17896610D02*
X29178571Y18087086D01*
X29178571Y18087086D02*
X29226190Y18182324D01*
X29226190Y18182324D02*
X29321428Y18277562D01*
X29321428Y18277562D02*
X29464285Y18325181D01*
X29464285Y18325181D02*
X29559523Y18325181D01*
X29559523Y18325181D02*
X29702380Y18277562D01*
X29702380Y18277562D02*
X29749999Y18229943D01*
X30607142Y17325181D02*
X30607142Y17848991D01*
X30607142Y17848991D02*
X30559523Y17944229D01*
X30559523Y17944229D02*
X30464285Y17991848D01*
X30464285Y17991848D02*
X30273809Y17991848D01*
X30273809Y17991848D02*
X30178571Y17944229D01*
X30607142Y17372800D02*
X30511904Y17325181D01*
X30511904Y17325181D02*
X30273809Y17325181D01*
X30273809Y17325181D02*
X30178571Y17372800D01*
X30178571Y17372800D02*
X30130952Y17468039D01*
X30130952Y17468039D02*
X30130952Y17563277D01*
X30130952Y17563277D02*
X30178571Y17658515D01*
X30178571Y17658515D02*
X30273809Y17706134D01*
X30273809Y17706134D02*
X30511904Y17706134D01*
X30511904Y17706134D02*
X30607142Y17753753D01*
X31083333Y17325181D02*
X31083333Y17991848D01*
X31083333Y17896610D02*
X31130952Y17944229D01*
X31130952Y17944229D02*
X31226190Y17991848D01*
X31226190Y17991848D02*
X31369047Y17991848D01*
X31369047Y17991848D02*
X31464285Y17944229D01*
X31464285Y17944229D02*
X31511904Y17848991D01*
X31511904Y17848991D02*
X31511904Y17325181D01*
X31511904Y17848991D02*
X31559523Y17944229D01*
X31559523Y17944229D02*
X31654761Y17991848D01*
X31654761Y17991848D02*
X31797618Y17991848D01*
X31797618Y17991848D02*
X31892857Y17944229D01*
X31892857Y17944229D02*
X31940476Y17848991D01*
X31940476Y17848991D02*
X31940476Y17325181D01*
X32797618Y17372800D02*
X32702380Y17325181D01*
X32702380Y17325181D02*
X32511904Y17325181D01*
X32511904Y17325181D02*
X32416666Y17372800D01*
X32416666Y17372800D02*
X32369047Y17468039D01*
X32369047Y17468039D02*
X32369047Y17848991D01*
X32369047Y17848991D02*
X32416666Y17944229D01*
X32416666Y17944229D02*
X32511904Y17991848D01*
X32511904Y17991848D02*
X32702380Y17991848D01*
X32702380Y17991848D02*
X32797618Y17944229D01*
X32797618Y17944229D02*
X32845237Y17848991D01*
X32845237Y17848991D02*
X32845237Y17753753D01*
X32845237Y17753753D02*
X32369047Y17658515D01*
X33273809Y17325181D02*
X33273809Y17991848D01*
X33273809Y17801372D02*
X33321428Y17896610D01*
X33321428Y17896610D02*
X33369047Y17944229D01*
X33369047Y17944229D02*
X33464285Y17991848D01*
X33464285Y17991848D02*
X33559523Y17991848D01*
X34321428Y17325181D02*
X34321428Y17848991D01*
X34321428Y17848991D02*
X34273809Y17944229D01*
X34273809Y17944229D02*
X34178571Y17991848D01*
X34178571Y17991848D02*
X33988095Y17991848D01*
X33988095Y17991848D02*
X33892857Y17944229D01*
X34321428Y17372800D02*
X34226190Y17325181D01*
X34226190Y17325181D02*
X33988095Y17325181D01*
X33988095Y17325181D02*
X33892857Y17372800D01*
X33892857Y17372800D02*
X33845238Y17468039D01*
X33845238Y17468039D02*
X33845238Y17563277D01*
X33845238Y17563277D02*
X33892857Y17658515D01*
X33892857Y17658515D02*
X33988095Y17706134D01*
X33988095Y17706134D02*
X34226190Y17706134D01*
X34226190Y17706134D02*
X34321428Y17753753D01*
X-49170420Y19518334D02*
X-49122800Y19470715D01*
X-49122800Y19470715D02*
X-49075181Y19327858D01*
X-49075181Y19327858D02*
X-49075181Y19232620D01*
X-49075181Y19232620D02*
X-49122800Y19089763D01*
X-49122800Y19089763D02*
X-49218039Y18994525D01*
X-49218039Y18994525D02*
X-49313277Y18946906D01*
X-49313277Y18946906D02*
X-49503753Y18899287D01*
X-49503753Y18899287D02*
X-49646610Y18899287D01*
X-49646610Y18899287D02*
X-49837086Y18946906D01*
X-49837086Y18946906D02*
X-49932324Y18994525D01*
X-49932324Y18994525D02*
X-50027562Y19089763D01*
X-50027562Y19089763D02*
X-50075181Y19232620D01*
X-50075181Y19232620D02*
X-50075181Y19327858D01*
X-50075181Y19327858D02*
X-50027562Y19470715D01*
X-50027562Y19470715D02*
X-49979943Y19518334D01*
X-49075181Y20470715D02*
X-49075181Y19899287D01*
X-49075181Y20185001D02*
X-50075181Y20185001D01*
X-50075181Y20185001D02*
X-49932324Y20089763D01*
X-49932324Y20089763D02*
X-49837086Y19994525D01*
X-49837086Y19994525D02*
X-49789467Y19899287D01*
X-50254820Y34226191D02*
X-51064343Y34226191D01*
X-51064343Y34226191D02*
X-51159581Y34178572D01*
X-51159581Y34178572D02*
X-51207200Y34130953D01*
X-51207200Y34130953D02*
X-51254820Y34035715D01*
X-51254820Y34035715D02*
X-51254820Y33845239D01*
X-51254820Y33845239D02*
X-51207200Y33750001D01*
X-51207200Y33750001D02*
X-51159581Y33702382D01*
X-51159581Y33702382D02*
X-51064343Y33654763D01*
X-51064343Y33654763D02*
X-50254820Y33654763D01*
X-50588153Y33178572D02*
X-51254820Y33178572D01*
X-50683391Y33178572D02*
X-50635772Y33130953D01*
X-50635772Y33130953D02*
X-50588153Y33035715D01*
X-50588153Y33035715D02*
X-50588153Y32892858D01*
X-50588153Y32892858D02*
X-50635772Y32797620D01*
X-50635772Y32797620D02*
X-50731010Y32750001D01*
X-50731010Y32750001D02*
X-51254820Y32750001D01*
X-50588153Y31845239D02*
X-51254820Y31845239D01*
X-50588153Y32273810D02*
X-51111962Y32273810D01*
X-51111962Y32273810D02*
X-51207200Y32226191D01*
X-51207200Y32226191D02*
X-51254820Y32130953D01*
X-51254820Y32130953D02*
X-51254820Y31988096D01*
X-51254820Y31988096D02*
X-51207200Y31892858D01*
X-51207200Y31892858D02*
X-51159581Y31845239D01*
X-51207200Y31416667D02*
X-51254820Y31321429D01*
X-51254820Y31321429D02*
X-51254820Y31130953D01*
X-51254820Y31130953D02*
X-51207200Y31035715D01*
X-51207200Y31035715D02*
X-51111962Y30988096D01*
X-51111962Y30988096D02*
X-51064343Y30988096D01*
X-51064343Y30988096D02*
X-50969105Y31035715D01*
X-50969105Y31035715D02*
X-50921486Y31130953D01*
X-50921486Y31130953D02*
X-50921486Y31273810D01*
X-50921486Y31273810D02*
X-50873867Y31369048D01*
X-50873867Y31369048D02*
X-50778629Y31416667D01*
X-50778629Y31416667D02*
X-50731010Y31416667D01*
X-50731010Y31416667D02*
X-50635772Y31369048D01*
X-50635772Y31369048D02*
X-50588153Y31273810D01*
X-50588153Y31273810D02*
X-50588153Y31130953D01*
X-50588153Y31130953D02*
X-50635772Y31035715D01*
X-51207200Y30178572D02*
X-51254820Y30273810D01*
X-51254820Y30273810D02*
X-51254820Y30464286D01*
X-51254820Y30464286D02*
X-51207200Y30559524D01*
X-51207200Y30559524D02*
X-51111962Y30607143D01*
X-51111962Y30607143D02*
X-50731010Y30607143D01*
X-50731010Y30607143D02*
X-50635772Y30559524D01*
X-50635772Y30559524D02*
X-50588153Y30464286D01*
X-50588153Y30464286D02*
X-50588153Y30273810D01*
X-50588153Y30273810D02*
X-50635772Y30178572D01*
X-50635772Y30178572D02*
X-50731010Y30130953D01*
X-50731010Y30130953D02*
X-50826248Y30130953D01*
X-50826248Y30130953D02*
X-50921486Y30607143D01*
X-51254820Y29273810D02*
X-50254820Y29273810D01*
X-51207200Y29273810D02*
X-51254820Y29369048D01*
X-51254820Y29369048D02*
X-51254820Y29559524D01*
X-51254820Y29559524D02*
X-51207200Y29654762D01*
X-51207200Y29654762D02*
X-51159581Y29702381D01*
X-51159581Y29702381D02*
X-51064343Y29750000D01*
X-51064343Y29750000D02*
X-50778629Y29750000D01*
X-50778629Y29750000D02*
X-50683391Y29702381D01*
X-50683391Y29702381D02*
X-50635772Y29654762D01*
X-50635772Y29654762D02*
X-50588153Y29559524D01*
X-50588153Y29559524D02*
X-50588153Y29369048D01*
X-50588153Y29369048D02*
X-50635772Y29273810D01*
X42979523Y42185420D02*
X42931904Y42137800D01*
X42931904Y42137800D02*
X42789047Y42090181D01*
X42789047Y42090181D02*
X42693809Y42090181D01*
X42693809Y42090181D02*
X42550952Y42137800D01*
X42550952Y42137800D02*
X42455714Y42233039D01*
X42455714Y42233039D02*
X42408095Y42328277D01*
X42408095Y42328277D02*
X42360476Y42518753D01*
X42360476Y42518753D02*
X42360476Y42661610D01*
X42360476Y42661610D02*
X42408095Y42852086D01*
X42408095Y42852086D02*
X42455714Y42947324D01*
X42455714Y42947324D02*
X42550952Y43042562D01*
X42550952Y43042562D02*
X42693809Y43090181D01*
X42693809Y43090181D02*
X42789047Y43090181D01*
X42789047Y43090181D02*
X42931904Y43042562D01*
X42931904Y43042562D02*
X42979523Y42994943D01*
X43360476Y42375896D02*
X43836666Y42375896D01*
X43265238Y42090181D02*
X43598571Y43090181D01*
X43598571Y43090181D02*
X43931904Y42090181D01*
X44265238Y42090181D02*
X44265238Y43090181D01*
X44265238Y43090181D02*
X44598571Y42375896D01*
X44598571Y42375896D02*
X44931904Y43090181D01*
X44931904Y43090181D02*
X44931904Y42090181D01*
X8199523Y-48079819D02*
X7866190Y-47603628D01*
X7628095Y-48079819D02*
X7628095Y-47079819D01*
X7628095Y-47079819D02*
X8009047Y-47079819D01*
X8009047Y-47079819D02*
X8104285Y-47127438D01*
X8104285Y-47127438D02*
X8151904Y-47175057D01*
X8151904Y-47175057D02*
X8199523Y-47270295D01*
X8199523Y-47270295D02*
X8199523Y-47413152D01*
X8199523Y-47413152D02*
X8151904Y-47508390D01*
X8151904Y-47508390D02*
X8104285Y-47556009D01*
X8104285Y-47556009D02*
X8009047Y-47603628D01*
X8009047Y-47603628D02*
X7628095Y-47603628D01*
X8628095Y-48079819D02*
X8628095Y-47079819D01*
X8628095Y-47079819D02*
X8866190Y-47079819D01*
X8866190Y-47079819D02*
X9009047Y-47127438D01*
X9009047Y-47127438D02*
X9104285Y-47222676D01*
X9104285Y-47222676D02*
X9151904Y-47317914D01*
X9151904Y-47317914D02*
X9199523Y-47508390D01*
X9199523Y-47508390D02*
X9199523Y-47651247D01*
X9199523Y-47651247D02*
X9151904Y-47841723D01*
X9151904Y-47841723D02*
X9104285Y-47936961D01*
X9104285Y-47936961D02*
X9009047Y-48032200D01*
X9009047Y-48032200D02*
X8866190Y-48079819D01*
X8866190Y-48079819D02*
X8628095Y-48079819D01*
X10199523Y-48079819D02*
X9866190Y-47603628D01*
X9628095Y-48079819D02*
X9628095Y-47079819D01*
X9628095Y-47079819D02*
X10009047Y-47079819D01*
X10009047Y-47079819D02*
X10104285Y-47127438D01*
X10104285Y-47127438D02*
X10151904Y-47175057D01*
X10151904Y-47175057D02*
X10199523Y-47270295D01*
X10199523Y-47270295D02*
X10199523Y-47413152D01*
X10199523Y-47413152D02*
X10151904Y-47508390D01*
X10151904Y-47508390D02*
X10104285Y-47556009D01*
X10104285Y-47556009D02*
X10009047Y-47603628D01*
X10009047Y-47603628D02*
X9628095Y-47603628D01*
X-37154763Y51345181D02*
X-36583335Y51345181D01*
X-36869049Y50345181D02*
X-36869049Y51345181D01*
X-35869049Y50392800D02*
X-35964287Y50345181D01*
X-35964287Y50345181D02*
X-36154763Y50345181D01*
X-36154763Y50345181D02*
X-36250001Y50392800D01*
X-36250001Y50392800D02*
X-36297620Y50488039D01*
X-36297620Y50488039D02*
X-36297620Y50868991D01*
X-36297620Y50868991D02*
X-36250001Y50964229D01*
X-36250001Y50964229D02*
X-36154763Y51011848D01*
X-36154763Y51011848D02*
X-35964287Y51011848D01*
X-35964287Y51011848D02*
X-35869049Y50964229D01*
X-35869049Y50964229D02*
X-35821430Y50868991D01*
X-35821430Y50868991D02*
X-35821430Y50773753D01*
X-35821430Y50773753D02*
X-36297620Y50678515D01*
X-35250001Y50345181D02*
X-35345239Y50392800D01*
X-35345239Y50392800D02*
X-35392858Y50488039D01*
X-35392858Y50488039D02*
X-35392858Y51345181D01*
X-34488096Y50392800D02*
X-34583334Y50345181D01*
X-34583334Y50345181D02*
X-34773810Y50345181D01*
X-34773810Y50345181D02*
X-34869048Y50392800D01*
X-34869048Y50392800D02*
X-34916667Y50488039D01*
X-34916667Y50488039D02*
X-34916667Y50868991D01*
X-34916667Y50868991D02*
X-34869048Y50964229D01*
X-34869048Y50964229D02*
X-34773810Y51011848D01*
X-34773810Y51011848D02*
X-34583334Y51011848D01*
X-34583334Y51011848D02*
X-34488096Y50964229D01*
X-34488096Y50964229D02*
X-34440477Y50868991D01*
X-34440477Y50868991D02*
X-34440477Y50773753D01*
X-34440477Y50773753D02*
X-34916667Y50678515D01*
X-34011905Y50345181D02*
X-34011905Y51011848D01*
X-34011905Y50916610D02*
X-33964286Y50964229D01*
X-33964286Y50964229D02*
X-33869048Y51011848D01*
X-33869048Y51011848D02*
X-33726191Y51011848D01*
X-33726191Y51011848D02*
X-33630953Y50964229D01*
X-33630953Y50964229D02*
X-33583334Y50868991D01*
X-33583334Y50868991D02*
X-33583334Y50345181D01*
X-33583334Y50868991D02*
X-33535715Y50964229D01*
X-33535715Y50964229D02*
X-33440477Y51011848D01*
X-33440477Y51011848D02*
X-33297620Y51011848D01*
X-33297620Y51011848D02*
X-33202381Y50964229D01*
X-33202381Y50964229D02*
X-33154762Y50868991D01*
X-33154762Y50868991D02*
X-33154762Y50345181D01*
X-31964286Y50630896D02*
X-31488096Y50630896D01*
X-32059524Y50345181D02*
X-31726191Y51345181D01*
X-31726191Y51345181D02*
X-31392858Y50345181D01*
X-31059524Y51011848D02*
X-31059524Y50345181D01*
X-31059524Y50916610D02*
X-31011905Y50964229D01*
X-31011905Y50964229D02*
X-30916667Y51011848D01*
X-30916667Y51011848D02*
X-30773810Y51011848D01*
X-30773810Y51011848D02*
X-30678572Y50964229D01*
X-30678572Y50964229D02*
X-30630953Y50868991D01*
X-30630953Y50868991D02*
X-30630953Y50345181D01*
X-30297619Y51011848D02*
X-29916667Y51011848D01*
X-30154762Y51345181D02*
X-30154762Y50488039D01*
X-30154762Y50488039D02*
X-30107143Y50392800D01*
X-30107143Y50392800D02*
X-30011905Y50345181D01*
X-30011905Y50345181D02*
X-29916667Y50345181D01*
X-29202381Y50392800D02*
X-29297619Y50345181D01*
X-29297619Y50345181D02*
X-29488095Y50345181D01*
X-29488095Y50345181D02*
X-29583333Y50392800D01*
X-29583333Y50392800D02*
X-29630952Y50488039D01*
X-29630952Y50488039D02*
X-29630952Y50868991D01*
X-29630952Y50868991D02*
X-29583333Y50964229D01*
X-29583333Y50964229D02*
X-29488095Y51011848D01*
X-29488095Y51011848D02*
X-29297619Y51011848D01*
X-29297619Y51011848D02*
X-29202381Y50964229D01*
X-29202381Y50964229D02*
X-29154762Y50868991D01*
X-29154762Y50868991D02*
X-29154762Y50773753D01*
X-29154762Y50773753D02*
X-29630952Y50678515D01*
X-28726190Y51011848D02*
X-28726190Y50345181D01*
X-28726190Y50916610D02*
X-28678571Y50964229D01*
X-28678571Y50964229D02*
X-28583333Y51011848D01*
X-28583333Y51011848D02*
X-28440476Y51011848D01*
X-28440476Y51011848D02*
X-28345238Y50964229D01*
X-28345238Y50964229D02*
X-28297619Y50868991D01*
X-28297619Y50868991D02*
X-28297619Y50345181D01*
X-27821428Y51011848D02*
X-27821428Y50345181D01*
X-27821428Y50916610D02*
X-27773809Y50964229D01*
X-27773809Y50964229D02*
X-27678571Y51011848D01*
X-27678571Y51011848D02*
X-27535714Y51011848D01*
X-27535714Y51011848D02*
X-27440476Y50964229D01*
X-27440476Y50964229D02*
X-27392857Y50868991D01*
X-27392857Y50868991D02*
X-27392857Y50345181D01*
X-26488095Y50345181D02*
X-26488095Y50868991D01*
X-26488095Y50868991D02*
X-26535714Y50964229D01*
X-26535714Y50964229D02*
X-26630952Y51011848D01*
X-26630952Y51011848D02*
X-26821428Y51011848D01*
X-26821428Y51011848D02*
X-26916666Y50964229D01*
X-26488095Y50392800D02*
X-26583333Y50345181D01*
X-26583333Y50345181D02*
X-26821428Y50345181D01*
X-26821428Y50345181D02*
X-26916666Y50392800D01*
X-26916666Y50392800D02*
X-26964285Y50488039D01*
X-26964285Y50488039D02*
X-26964285Y50583277D01*
X-26964285Y50583277D02*
X-26916666Y50678515D01*
X-26916666Y50678515D02*
X-26821428Y50726134D01*
X-26821428Y50726134D02*
X-26583333Y50726134D01*
X-26583333Y50726134D02*
X-26488095Y50773753D01*
X51254819Y29892858D02*
X50254819Y29892858D01*
X50254819Y29892858D02*
X50254819Y30273810D01*
X50254819Y30273810D02*
X50302438Y30369048D01*
X50302438Y30369048D02*
X50350057Y30416667D01*
X50350057Y30416667D02*
X50445295Y30464286D01*
X50445295Y30464286D02*
X50588152Y30464286D01*
X50588152Y30464286D02*
X50683390Y30416667D01*
X50683390Y30416667D02*
X50731009Y30369048D01*
X50731009Y30369048D02*
X50778628Y30273810D01*
X50778628Y30273810D02*
X50778628Y29892858D01*
X51254819Y31321429D02*
X50731009Y31321429D01*
X50731009Y31321429D02*
X50635771Y31273810D01*
X50635771Y31273810D02*
X50588152Y31178572D01*
X50588152Y31178572D02*
X50588152Y30988096D01*
X50588152Y30988096D02*
X50635771Y30892858D01*
X51207200Y31321429D02*
X51254819Y31226191D01*
X51254819Y31226191D02*
X51254819Y30988096D01*
X51254819Y30988096D02*
X51207200Y30892858D01*
X51207200Y30892858D02*
X51111961Y30845239D01*
X51111961Y30845239D02*
X51016723Y30845239D01*
X51016723Y30845239D02*
X50921485Y30892858D01*
X50921485Y30892858D02*
X50873866Y30988096D01*
X50873866Y30988096D02*
X50873866Y31226191D01*
X50873866Y31226191D02*
X50826247Y31321429D01*
X50588152Y31797620D02*
X51254819Y31797620D01*
X50683390Y31797620D02*
X50635771Y31845239D01*
X50635771Y31845239D02*
X50588152Y31940477D01*
X50588152Y31940477D02*
X50588152Y32083334D01*
X50588152Y32083334D02*
X50635771Y32178572D01*
X50635771Y32178572D02*
X50731009Y32226191D01*
X50731009Y32226191D02*
X51254819Y32226191D01*
X51207200Y33083334D02*
X51254819Y32988096D01*
X51254819Y32988096D02*
X51254819Y32797620D01*
X51254819Y32797620D02*
X51207200Y32702382D01*
X51207200Y32702382D02*
X51111961Y32654763D01*
X51111961Y32654763D02*
X50731009Y32654763D01*
X50731009Y32654763D02*
X50635771Y32702382D01*
X50635771Y32702382D02*
X50588152Y32797620D01*
X50588152Y32797620D02*
X50588152Y32988096D01*
X50588152Y32988096D02*
X50635771Y33083334D01*
X50635771Y33083334D02*
X50731009Y33130953D01*
X50731009Y33130953D02*
X50826247Y33130953D01*
X50826247Y33130953D02*
X50921485Y32654763D01*
X51254819Y33702382D02*
X51207200Y33607144D01*
X51207200Y33607144D02*
X51111961Y33559525D01*
X51111961Y33559525D02*
X50254819Y33559525D01*
X47926666Y-33630519D02*
X47926666Y-34344804D01*
X47926666Y-34344804D02*
X47879047Y-34487661D01*
X47879047Y-34487661D02*
X47783809Y-34582900D01*
X47783809Y-34582900D02*
X47640952Y-34630519D01*
X47640952Y-34630519D02*
X47545714Y-34630519D01*
X48926666Y-34630519D02*
X48355238Y-34630519D01*
X48640952Y-34630519D02*
X48640952Y-33630519D01*
X48640952Y-33630519D02*
X48545714Y-33773376D01*
X48545714Y-33773376D02*
X48450476Y-33868614D01*
X48450476Y-33868614D02*
X48355238Y-33916233D01*
X11884819Y1397143D02*
X11884819Y920953D01*
X11884819Y920953D02*
X10884819Y920953D01*
X10884819Y1920953D02*
X10884819Y2111429D01*
X10884819Y2111429D02*
X10932438Y2206667D01*
X10932438Y2206667D02*
X11027676Y2301905D01*
X11027676Y2301905D02*
X11218152Y2349524D01*
X11218152Y2349524D02*
X11551485Y2349524D01*
X11551485Y2349524D02*
X11741961Y2301905D01*
X11741961Y2301905D02*
X11837200Y2206667D01*
X11837200Y2206667D02*
X11884819Y2111429D01*
X11884819Y2111429D02*
X11884819Y1920953D01*
X11884819Y1920953D02*
X11837200Y1825715D01*
X11837200Y1825715D02*
X11741961Y1730477D01*
X11741961Y1730477D02*
X11551485Y1682858D01*
X11551485Y1682858D02*
X11218152Y1682858D01*
X11218152Y1682858D02*
X11027676Y1730477D01*
X11027676Y1730477D02*
X10932438Y1825715D01*
X10932438Y1825715D02*
X10884819Y1920953D01*
X11599104Y2730477D02*
X11599104Y3206667D01*
X11884819Y2635239D02*
X10884819Y2968572D01*
X10884819Y2968572D02*
X11884819Y3301905D01*
X11884819Y3635239D02*
X10884819Y3635239D01*
X10884819Y3635239D02*
X10884819Y3873334D01*
X10884819Y3873334D02*
X10932438Y4016191D01*
X10932438Y4016191D02*
X11027676Y4111429D01*
X11027676Y4111429D02*
X11122914Y4159048D01*
X11122914Y4159048D02*
X11313390Y4206667D01*
X11313390Y4206667D02*
X11456247Y4206667D01*
X11456247Y4206667D02*
X11646723Y4159048D01*
X11646723Y4159048D02*
X11741961Y4111429D01*
X11741961Y4111429D02*
X11837200Y4016191D01*
X11837200Y4016191D02*
X11884819Y3873334D01*
X11884819Y3873334D02*
X11884819Y3635239D01*
X16629285Y-41729819D02*
X16295952Y-41253628D01*
X16057857Y-41729819D02*
X16057857Y-40729819D01*
X16057857Y-40729819D02*
X16438809Y-40729819D01*
X16438809Y-40729819D02*
X16534047Y-40777438D01*
X16534047Y-40777438D02*
X16581666Y-40825057D01*
X16581666Y-40825057D02*
X16629285Y-40920295D01*
X16629285Y-40920295D02*
X16629285Y-41063152D01*
X16629285Y-41063152D02*
X16581666Y-41158390D01*
X16581666Y-41158390D02*
X16534047Y-41206009D01*
X16534047Y-41206009D02*
X16438809Y-41253628D01*
X16438809Y-41253628D02*
X16057857Y-41253628D01*
X17486428Y-41063152D02*
X17486428Y-41729819D01*
X17057857Y-41063152D02*
X17057857Y-41586961D01*
X17057857Y-41586961D02*
X17105476Y-41682200D01*
X17105476Y-41682200D02*
X17200714Y-41729819D01*
X17200714Y-41729819D02*
X17343571Y-41729819D01*
X17343571Y-41729819D02*
X17438809Y-41682200D01*
X17438809Y-41682200D02*
X17486428Y-41634580D01*
X18391190Y-41729819D02*
X18391190Y-40729819D01*
X18391190Y-41682200D02*
X18295952Y-41729819D01*
X18295952Y-41729819D02*
X18105476Y-41729819D01*
X18105476Y-41729819D02*
X18010238Y-41682200D01*
X18010238Y-41682200D02*
X17962619Y-41634580D01*
X17962619Y-41634580D02*
X17915000Y-41539342D01*
X17915000Y-41539342D02*
X17915000Y-41253628D01*
X17915000Y-41253628D02*
X17962619Y-41158390D01*
X17962619Y-41158390D02*
X18010238Y-41110771D01*
X18010238Y-41110771D02*
X18105476Y-41063152D01*
X18105476Y-41063152D02*
X18295952Y-41063152D01*
X18295952Y-41063152D02*
X18391190Y-41110771D01*
X19295952Y-41729819D02*
X19295952Y-40729819D01*
X19295952Y-41682200D02*
X19200714Y-41729819D01*
X19200714Y-41729819D02*
X19010238Y-41729819D01*
X19010238Y-41729819D02*
X18915000Y-41682200D01*
X18915000Y-41682200D02*
X18867381Y-41634580D01*
X18867381Y-41634580D02*
X18819762Y-41539342D01*
X18819762Y-41539342D02*
X18819762Y-41253628D01*
X18819762Y-41253628D02*
X18867381Y-41158390D01*
X18867381Y-41158390D02*
X18915000Y-41110771D01*
X18915000Y-41110771D02*
X19010238Y-41063152D01*
X19010238Y-41063152D02*
X19200714Y-41063152D01*
X19200714Y-41063152D02*
X19295952Y-41110771D01*
X20153095Y-41682200D02*
X20057857Y-41729819D01*
X20057857Y-41729819D02*
X19867381Y-41729819D01*
X19867381Y-41729819D02*
X19772143Y-41682200D01*
X19772143Y-41682200D02*
X19724524Y-41586961D01*
X19724524Y-41586961D02*
X19724524Y-41206009D01*
X19724524Y-41206009D02*
X19772143Y-41110771D01*
X19772143Y-41110771D02*
X19867381Y-41063152D01*
X19867381Y-41063152D02*
X20057857Y-41063152D01*
X20057857Y-41063152D02*
X20153095Y-41110771D01*
X20153095Y-41110771D02*
X20200714Y-41206009D01*
X20200714Y-41206009D02*
X20200714Y-41301247D01*
X20200714Y-41301247D02*
X19724524Y-41396485D01*
X20629286Y-41729819D02*
X20629286Y-41063152D01*
X20629286Y-41253628D02*
X20676905Y-41158390D01*
X20676905Y-41158390D02*
X20724524Y-41110771D01*
X20724524Y-41110771D02*
X20819762Y-41063152D01*
X20819762Y-41063152D02*
X20915000Y-41063152D01*
X-5625181Y-50243571D02*
X-5625181Y-49672143D01*
X-4625181Y-49957857D02*
X-5625181Y-49957857D01*
X-4625181Y-49338809D02*
X-5625181Y-49338809D01*
X-4625181Y-48910238D02*
X-5148991Y-48910238D01*
X-5148991Y-48910238D02*
X-5244229Y-48957857D01*
X-5244229Y-48957857D02*
X-5291848Y-49053095D01*
X-5291848Y-49053095D02*
X-5291848Y-49195952D01*
X-5291848Y-49195952D02*
X-5244229Y-49291190D01*
X-5244229Y-49291190D02*
X-5196610Y-49338809D01*
X-4625181Y-48434047D02*
X-5291848Y-48434047D01*
X-5101372Y-48434047D02*
X-5196610Y-48386428D01*
X-5196610Y-48386428D02*
X-5244229Y-48338809D01*
X-5244229Y-48338809D02*
X-5291848Y-48243571D01*
X-5291848Y-48243571D02*
X-5291848Y-48148333D01*
X-5291848Y-47386428D02*
X-4625181Y-47386428D01*
X-5291848Y-47814999D02*
X-4768039Y-47814999D01*
X-4768039Y-47814999D02*
X-4672800Y-47767380D01*
X-4672800Y-47767380D02*
X-4625181Y-47672142D01*
X-4625181Y-47672142D02*
X-4625181Y-47529285D01*
X-4625181Y-47529285D02*
X-4672800Y-47434047D01*
X-4672800Y-47434047D02*
X-4720420Y-47386428D01*
X-4672800Y-46957856D02*
X-4625181Y-46862618D01*
X-4625181Y-46862618D02*
X-4625181Y-46672142D01*
X-4625181Y-46672142D02*
X-4672800Y-46576904D01*
X-4672800Y-46576904D02*
X-4768039Y-46529285D01*
X-4768039Y-46529285D02*
X-4815658Y-46529285D01*
X-4815658Y-46529285D02*
X-4910896Y-46576904D01*
X-4910896Y-46576904D02*
X-4958515Y-46672142D01*
X-4958515Y-46672142D02*
X-4958515Y-46814999D01*
X-4958515Y-46814999D02*
X-5006134Y-46910237D01*
X-5006134Y-46910237D02*
X-5101372Y-46957856D01*
X-5101372Y-46957856D02*
X-5148991Y-46957856D01*
X-5148991Y-46957856D02*
X-5244229Y-46910237D01*
X-5244229Y-46910237D02*
X-5291848Y-46814999D01*
X-5291848Y-46814999D02*
X-5291848Y-46672142D01*
X-5291848Y-46672142D02*
X-5244229Y-46576904D01*
X-5291848Y-46243570D02*
X-5291848Y-45862618D01*
X-5625181Y-46100713D02*
X-4768039Y-46100713D01*
X-4768039Y-46100713D02*
X-4672800Y-46053094D01*
X-4672800Y-46053094D02*
X-4625181Y-45957856D01*
X-4625181Y-45957856D02*
X-4625181Y-45862618D01*
X-4672800Y-45148332D02*
X-4625181Y-45243570D01*
X-4625181Y-45243570D02*
X-4625181Y-45434046D01*
X-4625181Y-45434046D02*
X-4672800Y-45529284D01*
X-4672800Y-45529284D02*
X-4768039Y-45576903D01*
X-4768039Y-45576903D02*
X-5148991Y-45576903D01*
X-5148991Y-45576903D02*
X-5244229Y-45529284D01*
X-5244229Y-45529284D02*
X-5291848Y-45434046D01*
X-5291848Y-45434046D02*
X-5291848Y-45243570D01*
X-5291848Y-45243570D02*
X-5244229Y-45148332D01*
X-5244229Y-45148332D02*
X-5148991Y-45100713D01*
X-5148991Y-45100713D02*
X-5053753Y-45100713D01*
X-5053753Y-45100713D02*
X-4958515Y-45576903D01*
X-4625181Y-44672141D02*
X-5291848Y-44672141D01*
X-5101372Y-44672141D02*
X-5196610Y-44624522D01*
X-5196610Y-44624522D02*
X-5244229Y-44576903D01*
X-5244229Y-44576903D02*
X-5291848Y-44481665D01*
X-5291848Y-44481665D02*
X-5291848Y-44386427D01*
X-43042562Y46285715D02*
X-43090181Y46190477D01*
X-43090181Y46190477D02*
X-43090181Y46047620D01*
X-43090181Y46047620D02*
X-43042562Y45904763D01*
X-43042562Y45904763D02*
X-42947324Y45809525D01*
X-42947324Y45809525D02*
X-42852086Y45761906D01*
X-42852086Y45761906D02*
X-42661610Y45714287D01*
X-42661610Y45714287D02*
X-42518753Y45714287D01*
X-42518753Y45714287D02*
X-42328277Y45761906D01*
X-42328277Y45761906D02*
X-42233039Y45809525D01*
X-42233039Y45809525D02*
X-42137800Y45904763D01*
X-42137800Y45904763D02*
X-42090181Y46047620D01*
X-42090181Y46047620D02*
X-42090181Y46142858D01*
X-42090181Y46142858D02*
X-42137800Y46285715D01*
X-42137800Y46285715D02*
X-42185420Y46333334D01*
X-42185420Y46333334D02*
X-42518753Y46333334D01*
X-42518753Y46333334D02*
X-42518753Y46142858D01*
X-42090181Y46761906D02*
X-43090181Y46761906D01*
X-43090181Y46761906D02*
X-43090181Y47142858D01*
X-43090181Y47142858D02*
X-43042562Y47238096D01*
X-43042562Y47238096D02*
X-42994943Y47285715D01*
X-42994943Y47285715D02*
X-42899705Y47333334D01*
X-42899705Y47333334D02*
X-42756848Y47333334D01*
X-42756848Y47333334D02*
X-42661610Y47285715D01*
X-42661610Y47285715D02*
X-42613991Y47238096D01*
X-42613991Y47238096D02*
X-42566372Y47142858D01*
X-42566372Y47142858D02*
X-42566372Y46761906D01*
X-42137800Y47714287D02*
X-42090181Y47857144D01*
X-42090181Y47857144D02*
X-42090181Y48095239D01*
X-42090181Y48095239D02*
X-42137800Y48190477D01*
X-42137800Y48190477D02*
X-42185420Y48238096D01*
X-42185420Y48238096D02*
X-42280658Y48285715D01*
X-42280658Y48285715D02*
X-42375896Y48285715D01*
X-42375896Y48285715D02*
X-42471134Y48238096D01*
X-42471134Y48238096D02*
X-42518753Y48190477D01*
X-42518753Y48190477D02*
X-42566372Y48095239D01*
X-42566372Y48095239D02*
X-42613991Y47904763D01*
X-42613991Y47904763D02*
X-42661610Y47809525D01*
X-42661610Y47809525D02*
X-42709229Y47761906D01*
X-42709229Y47761906D02*
X-42804467Y47714287D01*
X-42804467Y47714287D02*
X-42899705Y47714287D01*
X-42899705Y47714287D02*
X-42994943Y47761906D01*
X-42994943Y47761906D02*
X-43042562Y47809525D01*
X-43042562Y47809525D02*
X-43090181Y47904763D01*
X-43090181Y47904763D02*
X-43090181Y48142858D01*
X-43090181Y48142858D02*
X-43042562Y48285715D01*
X50731009Y2611905D02*
X50778628Y2754762D01*
X50778628Y2754762D02*
X50826247Y2802381D01*
X50826247Y2802381D02*
X50921485Y2850000D01*
X50921485Y2850000D02*
X51064342Y2850000D01*
X51064342Y2850000D02*
X51159580Y2802381D01*
X51159580Y2802381D02*
X51207200Y2754762D01*
X51207200Y2754762D02*
X51254819Y2659524D01*
X51254819Y2659524D02*
X51254819Y2278572D01*
X51254819Y2278572D02*
X50254819Y2278572D01*
X50254819Y2278572D02*
X50254819Y2611905D01*
X50254819Y2611905D02*
X50302438Y2707143D01*
X50302438Y2707143D02*
X50350057Y2754762D01*
X50350057Y2754762D02*
X50445295Y2802381D01*
X50445295Y2802381D02*
X50540533Y2802381D01*
X50540533Y2802381D02*
X50635771Y2754762D01*
X50635771Y2754762D02*
X50683390Y2707143D01*
X50683390Y2707143D02*
X50731009Y2611905D01*
X50731009Y2611905D02*
X50731009Y2278572D01*
X51254819Y3707143D02*
X50731009Y3707143D01*
X50731009Y3707143D02*
X50635771Y3659524D01*
X50635771Y3659524D02*
X50588152Y3564286D01*
X50588152Y3564286D02*
X50588152Y3373810D01*
X50588152Y3373810D02*
X50635771Y3278572D01*
X51207200Y3707143D02*
X51254819Y3611905D01*
X51254819Y3611905D02*
X51254819Y3373810D01*
X51254819Y3373810D02*
X51207200Y3278572D01*
X51207200Y3278572D02*
X51111961Y3230953D01*
X51111961Y3230953D02*
X51016723Y3230953D01*
X51016723Y3230953D02*
X50921485Y3278572D01*
X50921485Y3278572D02*
X50873866Y3373810D01*
X50873866Y3373810D02*
X50873866Y3611905D01*
X50873866Y3611905D02*
X50826247Y3707143D01*
X50588152Y4040477D02*
X50588152Y4421429D01*
X50254819Y4183334D02*
X51111961Y4183334D01*
X51111961Y4183334D02*
X51207200Y4230953D01*
X51207200Y4230953D02*
X51254819Y4326191D01*
X51254819Y4326191D02*
X51254819Y4421429D01*
X50588152Y4611906D02*
X50588152Y4992858D01*
X50254819Y4754763D02*
X51111961Y4754763D01*
X51111961Y4754763D02*
X51207200Y4802382D01*
X51207200Y4802382D02*
X51254819Y4897620D01*
X51254819Y4897620D02*
X51254819Y4992858D01*
X51207200Y6040478D02*
X51254819Y6183335D01*
X51254819Y6183335D02*
X51254819Y6421430D01*
X51254819Y6421430D02*
X51207200Y6516668D01*
X51207200Y6516668D02*
X51159580Y6564287D01*
X51159580Y6564287D02*
X51064342Y6611906D01*
X51064342Y6611906D02*
X50969104Y6611906D01*
X50969104Y6611906D02*
X50873866Y6564287D01*
X50873866Y6564287D02*
X50826247Y6516668D01*
X50826247Y6516668D02*
X50778628Y6421430D01*
X50778628Y6421430D02*
X50731009Y6230954D01*
X50731009Y6230954D02*
X50683390Y6135716D01*
X50683390Y6135716D02*
X50635771Y6088097D01*
X50635771Y6088097D02*
X50540533Y6040478D01*
X50540533Y6040478D02*
X50445295Y6040478D01*
X50445295Y6040478D02*
X50350057Y6088097D01*
X50350057Y6088097D02*
X50302438Y6135716D01*
X50302438Y6135716D02*
X50254819Y6230954D01*
X50254819Y6230954D02*
X50254819Y6469049D01*
X50254819Y6469049D02*
X50302438Y6611906D01*
X50588152Y6945240D02*
X51254819Y7135716D01*
X51254819Y7135716D02*
X50778628Y7326192D01*
X50778628Y7326192D02*
X51254819Y7516668D01*
X51254819Y7516668D02*
X50588152Y7707144D01*
X51254819Y8088097D02*
X50588152Y8088097D01*
X50254819Y8088097D02*
X50302438Y8040478D01*
X50302438Y8040478D02*
X50350057Y8088097D01*
X50350057Y8088097D02*
X50302438Y8135716D01*
X50302438Y8135716D02*
X50254819Y8088097D01*
X50254819Y8088097D02*
X50350057Y8088097D01*
X50588152Y8421430D02*
X50588152Y8802382D01*
X50254819Y8564287D02*
X51111961Y8564287D01*
X51111961Y8564287D02*
X51207200Y8611906D01*
X51207200Y8611906D02*
X51254819Y8707144D01*
X51254819Y8707144D02*
X51254819Y8802382D01*
X51207200Y9564287D02*
X51254819Y9469049D01*
X51254819Y9469049D02*
X51254819Y9278573D01*
X51254819Y9278573D02*
X51207200Y9183335D01*
X51207200Y9183335D02*
X51159580Y9135716D01*
X51159580Y9135716D02*
X51064342Y9088097D01*
X51064342Y9088097D02*
X50778628Y9088097D01*
X50778628Y9088097D02*
X50683390Y9135716D01*
X50683390Y9135716D02*
X50635771Y9183335D01*
X50635771Y9183335D02*
X50588152Y9278573D01*
X50588152Y9278573D02*
X50588152Y9469049D01*
X50588152Y9469049D02*
X50635771Y9564287D01*
X51254819Y9992859D02*
X50254819Y9992859D01*
X51254819Y10421430D02*
X50731009Y10421430D01*
X50731009Y10421430D02*
X50635771Y10373811D01*
X50635771Y10373811D02*
X50588152Y10278573D01*
X50588152Y10278573D02*
X50588152Y10135716D01*
X50588152Y10135716D02*
X50635771Y10040478D01*
X50635771Y10040478D02*
X50683390Y9992859D01*
X-51254820Y10183334D02*
X-51254820Y10659524D01*
X-51254820Y10659524D02*
X-50254820Y10659524D01*
X-51254820Y9707143D02*
X-51207200Y9802381D01*
X-51207200Y9802381D02*
X-51159581Y9850000D01*
X-51159581Y9850000D02*
X-51064343Y9897619D01*
X-51064343Y9897619D02*
X-50778629Y9897619D01*
X-50778629Y9897619D02*
X-50683391Y9850000D01*
X-50683391Y9850000D02*
X-50635772Y9802381D01*
X-50635772Y9802381D02*
X-50588153Y9707143D01*
X-50588153Y9707143D02*
X-50588153Y9564286D01*
X-50588153Y9564286D02*
X-50635772Y9469048D01*
X-50635772Y9469048D02*
X-50683391Y9421429D01*
X-50683391Y9421429D02*
X-50778629Y9373810D01*
X-50778629Y9373810D02*
X-51064343Y9373810D01*
X-51064343Y9373810D02*
X-51159581Y9421429D01*
X-51159581Y9421429D02*
X-51207200Y9469048D01*
X-51207200Y9469048D02*
X-51254820Y9564286D01*
X-51254820Y9564286D02*
X-51254820Y9707143D01*
X-51254820Y8516667D02*
X-50731010Y8516667D01*
X-50731010Y8516667D02*
X-50635772Y8564286D01*
X-50635772Y8564286D02*
X-50588153Y8659524D01*
X-50588153Y8659524D02*
X-50588153Y8850000D01*
X-50588153Y8850000D02*
X-50635772Y8945238D01*
X-51207200Y8516667D02*
X-51254820Y8611905D01*
X-51254820Y8611905D02*
X-51254820Y8850000D01*
X-51254820Y8850000D02*
X-51207200Y8945238D01*
X-51207200Y8945238D02*
X-51111962Y8992857D01*
X-51111962Y8992857D02*
X-51016724Y8992857D01*
X-51016724Y8992857D02*
X-50921486Y8945238D01*
X-50921486Y8945238D02*
X-50873867Y8850000D01*
X-50873867Y8850000D02*
X-50873867Y8611905D01*
X-50873867Y8611905D02*
X-50826248Y8516667D01*
X-51254820Y7611905D02*
X-50254820Y7611905D01*
X-51207200Y7611905D02*
X-51254820Y7707143D01*
X-51254820Y7707143D02*
X-51254820Y7897619D01*
X-51254820Y7897619D02*
X-51207200Y7992857D01*
X-51207200Y7992857D02*
X-51159581Y8040476D01*
X-51159581Y8040476D02*
X-51064343Y8088095D01*
X-51064343Y8088095D02*
X-50778629Y8088095D01*
X-50778629Y8088095D02*
X-50683391Y8040476D01*
X-50683391Y8040476D02*
X-50635772Y7992857D01*
X-50635772Y7992857D02*
X-50588153Y7897619D01*
X-50588153Y7897619D02*
X-50588153Y7707143D01*
X-50588153Y7707143D02*
X-50635772Y7611905D01*
X-51207200Y6421428D02*
X-51254820Y6278571D01*
X-51254820Y6278571D02*
X-51254820Y6040476D01*
X-51254820Y6040476D02*
X-51207200Y5945238D01*
X-51207200Y5945238D02*
X-51159581Y5897619D01*
X-51159581Y5897619D02*
X-51064343Y5850000D01*
X-51064343Y5850000D02*
X-50969105Y5850000D01*
X-50969105Y5850000D02*
X-50873867Y5897619D01*
X-50873867Y5897619D02*
X-50826248Y5945238D01*
X-50826248Y5945238D02*
X-50778629Y6040476D01*
X-50778629Y6040476D02*
X-50731010Y6230952D01*
X-50731010Y6230952D02*
X-50683391Y6326190D01*
X-50683391Y6326190D02*
X-50635772Y6373809D01*
X-50635772Y6373809D02*
X-50540534Y6421428D01*
X-50540534Y6421428D02*
X-50445296Y6421428D01*
X-50445296Y6421428D02*
X-50350058Y6373809D01*
X-50350058Y6373809D02*
X-50302439Y6326190D01*
X-50302439Y6326190D02*
X-50254820Y6230952D01*
X-50254820Y6230952D02*
X-50254820Y5992857D01*
X-50254820Y5992857D02*
X-50302439Y5850000D01*
X-50588153Y5516666D02*
X-51254820Y5326190D01*
X-51254820Y5326190D02*
X-50778629Y5135714D01*
X-50778629Y5135714D02*
X-51254820Y4945238D01*
X-51254820Y4945238D02*
X-50588153Y4754762D01*
X-51254820Y4373809D02*
X-50588153Y4373809D01*
X-50254820Y4373809D02*
X-50302439Y4421428D01*
X-50302439Y4421428D02*
X-50350058Y4373809D01*
X-50350058Y4373809D02*
X-50302439Y4326190D01*
X-50302439Y4326190D02*
X-50254820Y4373809D01*
X-50254820Y4373809D02*
X-50350058Y4373809D01*
X-50588153Y4040476D02*
X-50588153Y3659524D01*
X-50254820Y3897619D02*
X-51111962Y3897619D01*
X-51111962Y3897619D02*
X-51207200Y3850000D01*
X-51207200Y3850000D02*
X-51254820Y3754762D01*
X-51254820Y3754762D02*
X-51254820Y3659524D01*
X-51207200Y2897619D02*
X-51254820Y2992857D01*
X-51254820Y2992857D02*
X-51254820Y3183333D01*
X-51254820Y3183333D02*
X-51207200Y3278571D01*
X-51207200Y3278571D02*
X-51159581Y3326190D01*
X-51159581Y3326190D02*
X-51064343Y3373809D01*
X-51064343Y3373809D02*
X-50778629Y3373809D01*
X-50778629Y3373809D02*
X-50683391Y3326190D01*
X-50683391Y3326190D02*
X-50635772Y3278571D01*
X-50635772Y3278571D02*
X-50588153Y3183333D01*
X-50588153Y3183333D02*
X-50588153Y2992857D01*
X-50588153Y2992857D02*
X-50635772Y2897619D01*
X-51254820Y2469047D02*
X-50254820Y2469047D01*
X-51254820Y2040476D02*
X-50731010Y2040476D01*
X-50731010Y2040476D02*
X-50635772Y2088095D01*
X-50635772Y2088095D02*
X-50588153Y2183333D01*
X-50588153Y2183333D02*
X-50588153Y2326190D01*
X-50588153Y2326190D02*
X-50635772Y2421428D01*
X-50635772Y2421428D02*
X-50683391Y2469047D01*
X-9445476Y25945181D02*
X-9112143Y24945181D01*
X-9112143Y24945181D02*
X-8778810Y25945181D01*
X-8588333Y25945181D02*
X-8016905Y25945181D01*
X-8302619Y24945181D02*
X-8302619Y25945181D01*
X-7778809Y25945181D02*
X-7112143Y24945181D01*
X-7112143Y25945181D02*
X-7778809Y24945181D01*
X-22135181Y44823334D02*
X-22135181Y45394762D01*
X-21135181Y45109048D02*
X-22135181Y45109048D01*
X-21658991Y45728096D02*
X-21658991Y46061429D01*
X-21135181Y46204286D02*
X-21135181Y45728096D01*
X-21135181Y45728096D02*
X-22135181Y45728096D01*
X-22135181Y45728096D02*
X-22135181Y46204286D01*
X-21135181Y47109048D02*
X-21135181Y46632858D01*
X-21135181Y46632858D02*
X-22135181Y46632858D01*
X-21658991Y47442382D02*
X-21658991Y47775715D01*
X-21135181Y47918572D02*
X-21135181Y47442382D01*
X-21135181Y47442382D02*
X-22135181Y47442382D01*
X-22135181Y47442382D02*
X-22135181Y47918572D01*
X-21135181Y48347144D02*
X-22135181Y48347144D01*
X-22135181Y48347144D02*
X-21420896Y48680477D01*
X-21420896Y48680477D02*
X-22135181Y49013810D01*
X-22135181Y49013810D02*
X-21135181Y49013810D01*
X-10863991Y-13819047D02*
X-10816372Y-13676190D01*
X-10816372Y-13676190D02*
X-10768753Y-13628571D01*
X-10768753Y-13628571D02*
X-10673515Y-13580952D01*
X-10673515Y-13580952D02*
X-10530658Y-13580952D01*
X-10530658Y-13580952D02*
X-10435420Y-13628571D01*
X-10435420Y-13628571D02*
X-10387800Y-13676190D01*
X-10387800Y-13676190D02*
X-10340181Y-13771428D01*
X-10340181Y-13771428D02*
X-10340181Y-14152380D01*
X-10340181Y-14152380D02*
X-11340181Y-14152380D01*
X-11340181Y-14152380D02*
X-11340181Y-13819047D01*
X-11340181Y-13819047D02*
X-11292562Y-13723809D01*
X-11292562Y-13723809D02*
X-11244943Y-13676190D01*
X-11244943Y-13676190D02*
X-11149705Y-13628571D01*
X-11149705Y-13628571D02*
X-11054467Y-13628571D01*
X-11054467Y-13628571D02*
X-10959229Y-13676190D01*
X-10959229Y-13676190D02*
X-10911610Y-13723809D01*
X-10911610Y-13723809D02*
X-10863991Y-13819047D01*
X-10863991Y-13819047D02*
X-10863991Y-14152380D01*
X-10625896Y-13199999D02*
X-10625896Y-12723809D01*
X-10340181Y-13295237D02*
X-11340181Y-12961904D01*
X-11340181Y-12961904D02*
X-10340181Y-12628571D01*
X-11340181Y-12438094D02*
X-11340181Y-11866666D01*
X-10340181Y-12152380D02*
X-11340181Y-12152380D01*
X-11340181Y-11676189D02*
X-11340181Y-11104761D01*
X-10340181Y-11390475D02*
X-11340181Y-11390475D01*
X-21978572Y-40094819D02*
X-21407144Y-40094819D01*
X-21692858Y-41094819D02*
X-21692858Y-40094819D01*
X-21073810Y-41094819D02*
X-21073810Y-40094819D01*
X-20645239Y-41094819D02*
X-20645239Y-40571009D01*
X-20645239Y-40571009D02*
X-20692858Y-40475771D01*
X-20692858Y-40475771D02*
X-20788096Y-40428152D01*
X-20788096Y-40428152D02*
X-20930953Y-40428152D01*
X-20930953Y-40428152D02*
X-21026191Y-40475771D01*
X-21026191Y-40475771D02*
X-21073810Y-40523390D01*
X-20169048Y-41094819D02*
X-20169048Y-40428152D01*
X-20169048Y-40618628D02*
X-20121429Y-40523390D01*
X-20121429Y-40523390D02*
X-20073810Y-40475771D01*
X-20073810Y-40475771D02*
X-19978572Y-40428152D01*
X-19978572Y-40428152D02*
X-19883334Y-40428152D01*
X-19121429Y-40428152D02*
X-19121429Y-41094819D01*
X-19550000Y-40428152D02*
X-19550000Y-40951961D01*
X-19550000Y-40951961D02*
X-19502381Y-41047200D01*
X-19502381Y-41047200D02*
X-19407143Y-41094819D01*
X-19407143Y-41094819D02*
X-19264286Y-41094819D01*
X-19264286Y-41094819D02*
X-19169048Y-41047200D01*
X-19169048Y-41047200D02*
X-19121429Y-40999580D01*
X-18692857Y-41047200D02*
X-18597619Y-41094819D01*
X-18597619Y-41094819D02*
X-18407143Y-41094819D01*
X-18407143Y-41094819D02*
X-18311905Y-41047200D01*
X-18311905Y-41047200D02*
X-18264286Y-40951961D01*
X-18264286Y-40951961D02*
X-18264286Y-40904342D01*
X-18264286Y-40904342D02*
X-18311905Y-40809104D01*
X-18311905Y-40809104D02*
X-18407143Y-40761485D01*
X-18407143Y-40761485D02*
X-18550000Y-40761485D01*
X-18550000Y-40761485D02*
X-18645238Y-40713866D01*
X-18645238Y-40713866D02*
X-18692857Y-40618628D01*
X-18692857Y-40618628D02*
X-18692857Y-40571009D01*
X-18692857Y-40571009D02*
X-18645238Y-40475771D01*
X-18645238Y-40475771D02*
X-18550000Y-40428152D01*
X-18550000Y-40428152D02*
X-18407143Y-40428152D01*
X-18407143Y-40428152D02*
X-18311905Y-40475771D01*
X-17978571Y-40428152D02*
X-17597619Y-40428152D01*
X-17835714Y-40094819D02*
X-17835714Y-40951961D01*
X-17835714Y-40951961D02*
X-17788095Y-41047200D01*
X-17788095Y-41047200D02*
X-17692857Y-41094819D01*
X-17692857Y-41094819D02*
X-17597619Y-41094819D01*
X-16883333Y-41047200D02*
X-16978571Y-41094819D01*
X-16978571Y-41094819D02*
X-17169047Y-41094819D01*
X-17169047Y-41094819D02*
X-17264285Y-41047200D01*
X-17264285Y-41047200D02*
X-17311904Y-40951961D01*
X-17311904Y-40951961D02*
X-17311904Y-40571009D01*
X-17311904Y-40571009D02*
X-17264285Y-40475771D01*
X-17264285Y-40475771D02*
X-17169047Y-40428152D01*
X-17169047Y-40428152D02*
X-16978571Y-40428152D01*
X-16978571Y-40428152D02*
X-16883333Y-40475771D01*
X-16883333Y-40475771D02*
X-16835714Y-40571009D01*
X-16835714Y-40571009D02*
X-16835714Y-40666247D01*
X-16835714Y-40666247D02*
X-17311904Y-40761485D01*
X-16407142Y-41094819D02*
X-16407142Y-40428152D01*
X-16407142Y-40618628D02*
X-16359523Y-40523390D01*
X-16359523Y-40523390D02*
X-16311904Y-40475771D01*
X-16311904Y-40475771D02*
X-16216666Y-40428152D01*
X-16216666Y-40428152D02*
X-16121428Y-40428152D01*
X-33964286Y-407200D02*
X-33821429Y-454819D01*
X-33821429Y-454819D02*
X-33583334Y-454819D01*
X-33583334Y-454819D02*
X-33488096Y-407200D01*
X-33488096Y-407200D02*
X-33440477Y-359580D01*
X-33440477Y-359580D02*
X-33392858Y-264342D01*
X-33392858Y-264342D02*
X-33392858Y-169104D01*
X-33392858Y-169104D02*
X-33440477Y-73866D01*
X-33440477Y-73866D02*
X-33488096Y-26247D01*
X-33488096Y-26247D02*
X-33583334Y21372D01*
X-33583334Y21372D02*
X-33773810Y68991D01*
X-33773810Y68991D02*
X-33869048Y116610D01*
X-33869048Y116610D02*
X-33916667Y164229D01*
X-33916667Y164229D02*
X-33964286Y259467D01*
X-33964286Y259467D02*
X-33964286Y354705D01*
X-33964286Y354705D02*
X-33916667Y449943D01*
X-33916667Y449943D02*
X-33869048Y497562D01*
X-33869048Y497562D02*
X-33773810Y545181D01*
X-33773810Y545181D02*
X-33535715Y545181D01*
X-33535715Y545181D02*
X-33392858Y497562D01*
X-33107143Y211848D02*
X-32726191Y211848D01*
X-32964286Y545181D02*
X-32964286Y-311961D01*
X-32964286Y-311961D02*
X-32916667Y-407200D01*
X-32916667Y-407200D02*
X-32821429Y-454819D01*
X-32821429Y-454819D02*
X-32726191Y-454819D01*
X-32392857Y-454819D02*
X-32392857Y211848D01*
X-32392857Y21372D02*
X-32345238Y116610D01*
X-32345238Y116610D02*
X-32297619Y164229D01*
X-32297619Y164229D02*
X-32202381Y211848D01*
X-32202381Y211848D02*
X-32107143Y211848D01*
X-31630952Y-454819D02*
X-31726190Y-407200D01*
X-31726190Y-407200D02*
X-31773809Y-359580D01*
X-31773809Y-359580D02*
X-31821428Y-264342D01*
X-31821428Y-264342D02*
X-31821428Y21372D01*
X-31821428Y21372D02*
X-31773809Y116610D01*
X-31773809Y116610D02*
X-31726190Y164229D01*
X-31726190Y164229D02*
X-31630952Y211848D01*
X-31630952Y211848D02*
X-31488095Y211848D01*
X-31488095Y211848D02*
X-31392857Y164229D01*
X-31392857Y164229D02*
X-31345238Y116610D01*
X-31345238Y116610D02*
X-31297619Y21372D01*
X-31297619Y21372D02*
X-31297619Y-264342D01*
X-31297619Y-264342D02*
X-31345238Y-359580D01*
X-31345238Y-359580D02*
X-31392857Y-407200D01*
X-31392857Y-407200D02*
X-31488095Y-454819D01*
X-31488095Y-454819D02*
X-31630952Y-454819D01*
X-30869047Y-454819D02*
X-30869047Y545181D01*
X-30869047Y164229D02*
X-30773809Y211848D01*
X-30773809Y211848D02*
X-30583333Y211848D01*
X-30583333Y211848D02*
X-30488095Y164229D01*
X-30488095Y164229D02*
X-30440476Y116610D01*
X-30440476Y116610D02*
X-30392857Y21372D01*
X-30392857Y21372D02*
X-30392857Y-264342D01*
X-30392857Y-264342D02*
X-30440476Y-359580D01*
X-30440476Y-359580D02*
X-30488095Y-407200D01*
X-30488095Y-407200D02*
X-30583333Y-454819D01*
X-30583333Y-454819D02*
X-30773809Y-454819D01*
X-30773809Y-454819D02*
X-30869047Y-407200D01*
X-29583333Y-407200D02*
X-29678571Y-454819D01*
X-29678571Y-454819D02*
X-29869047Y-454819D01*
X-29869047Y-454819D02*
X-29964285Y-407200D01*
X-29964285Y-407200D02*
X-30011904Y-311961D01*
X-30011904Y-311961D02*
X-30011904Y68991D01*
X-30011904Y68991D02*
X-29964285Y164229D01*
X-29964285Y164229D02*
X-29869047Y211848D01*
X-29869047Y211848D02*
X-29678571Y211848D01*
X-29678571Y211848D02*
X-29583333Y164229D01*
X-29583333Y164229D02*
X-29535714Y68991D01*
X-29535714Y68991D02*
X-29535714Y-26247D01*
X-29535714Y-26247D02*
X-30011904Y-121485D01*
X-35787800Y14843334D02*
X-35740181Y14986191D01*
X-35740181Y14986191D02*
X-35740181Y15224286D01*
X-35740181Y15224286D02*
X-35787800Y15319524D01*
X-35787800Y15319524D02*
X-35835420Y15367143D01*
X-35835420Y15367143D02*
X-35930658Y15414762D01*
X-35930658Y15414762D02*
X-36025896Y15414762D01*
X-36025896Y15414762D02*
X-36121134Y15367143D01*
X-36121134Y15367143D02*
X-36168753Y15319524D01*
X-36168753Y15319524D02*
X-36216372Y15224286D01*
X-36216372Y15224286D02*
X-36263991Y15033810D01*
X-36263991Y15033810D02*
X-36311610Y14938572D01*
X-36311610Y14938572D02*
X-36359229Y14890953D01*
X-36359229Y14890953D02*
X-36454467Y14843334D01*
X-36454467Y14843334D02*
X-36549705Y14843334D01*
X-36549705Y14843334D02*
X-36644943Y14890953D01*
X-36644943Y14890953D02*
X-36692562Y14938572D01*
X-36692562Y14938572D02*
X-36740181Y15033810D01*
X-36740181Y15033810D02*
X-36740181Y15271905D01*
X-36740181Y15271905D02*
X-36692562Y15414762D01*
X-36740181Y15700477D02*
X-36740181Y16271905D01*
X-35740181Y15986191D02*
X-36740181Y15986191D01*
X-35740181Y17176667D02*
X-36216372Y16843334D01*
X-35740181Y16605239D02*
X-36740181Y16605239D01*
X-36740181Y16605239D02*
X-36740181Y16986191D01*
X-36740181Y16986191D02*
X-36692562Y17081429D01*
X-36692562Y17081429D02*
X-36644943Y17129048D01*
X-36644943Y17129048D02*
X-36549705Y17176667D01*
X-36549705Y17176667D02*
X-36406848Y17176667D01*
X-36406848Y17176667D02*
X-36311610Y17129048D01*
X-36311610Y17129048D02*
X-36263991Y17081429D01*
X-36263991Y17081429D02*
X-36216372Y16986191D01*
X-36216372Y16986191D02*
X-36216372Y16605239D01*
X-36263991Y17938572D02*
X-36216372Y18081429D01*
X-36216372Y18081429D02*
X-36168753Y18129048D01*
X-36168753Y18129048D02*
X-36073515Y18176667D01*
X-36073515Y18176667D02*
X-35930658Y18176667D01*
X-35930658Y18176667D02*
X-35835420Y18129048D01*
X-35835420Y18129048D02*
X-35787800Y18081429D01*
X-35787800Y18081429D02*
X-35740181Y17986191D01*
X-35740181Y17986191D02*
X-35740181Y17605239D01*
X-35740181Y17605239D02*
X-36740181Y17605239D01*
X-36740181Y17605239D02*
X-36740181Y17938572D01*
X-36740181Y17938572D02*
X-36692562Y18033810D01*
X-36692562Y18033810D02*
X-36644943Y18081429D01*
X-36644943Y18081429D02*
X-36549705Y18129048D01*
X-36549705Y18129048D02*
X-36454467Y18129048D01*
X-36454467Y18129048D02*
X-36359229Y18081429D01*
X-36359229Y18081429D02*
X-36311610Y18033810D01*
X-36311610Y18033810D02*
X-36263991Y17938572D01*
X-36263991Y17938572D02*
X-36263991Y17605239D01*
D15*
%TO.C,J9*%
X15590000Y54560000D02*
X15590000Y40440000D01*
X15590000Y40440000D02*
X20310000Y40440000D01*
X16200000Y53950000D02*
X16200000Y41050000D01*
X16200000Y51600000D02*
X16700000Y51600000D01*
X16200000Y51500000D02*
X16700000Y51500000D01*
X16200000Y49600000D02*
X16700000Y49600000D01*
X16200000Y49500000D02*
X16700000Y49500000D01*
X16200000Y47600000D02*
X16700000Y47600000D01*
X16200000Y47500000D02*
X16700000Y47500000D01*
X16200000Y45600000D02*
X16700000Y45600000D01*
X16200000Y45500000D02*
X16700000Y45500000D01*
X16200000Y43600000D02*
X16700000Y43600000D01*
X16200000Y43500000D02*
X16700000Y43500000D01*
X16200000Y41050000D02*
X19700000Y41050000D01*
X16700000Y51600000D02*
X16700000Y51400000D01*
X16700000Y51400000D02*
X16200000Y51400000D01*
X16700000Y49600000D02*
X16700000Y49400000D01*
X16700000Y49400000D02*
X16200000Y49400000D01*
X16700000Y47600000D02*
X16700000Y47400000D01*
X16700000Y47400000D02*
X16200000Y47400000D01*
X16700000Y45600000D02*
X16700000Y45400000D01*
X16700000Y45400000D02*
X16200000Y45400000D01*
X16700000Y43600000D02*
X16700000Y43400000D01*
X16700000Y43400000D02*
X16200000Y43400000D01*
X17700000Y54560000D02*
X17700000Y53950000D01*
X17700000Y40440000D02*
X17700000Y41050000D01*
X19000000Y54560000D02*
X19000000Y53950000D01*
X19000000Y40440000D02*
X19000000Y41050000D01*
X19700000Y53950000D02*
X16200000Y53950000D01*
X19700000Y52000000D02*
X19700000Y53950000D01*
X19700000Y43000000D02*
X20310000Y43000000D01*
X19700000Y41050000D02*
X19700000Y43000000D01*
X20310000Y54560000D02*
X15590000Y54560000D01*
X20310000Y52800000D02*
X20510000Y52800000D01*
X20310000Y52000000D02*
X19700000Y52000000D01*
X20310000Y40440000D02*
X20310000Y54560000D01*
X20410000Y52800000D02*
X20410000Y53100000D01*
X20510000Y53100000D02*
X20310000Y53100000D01*
X20510000Y52800000D02*
X20510000Y53100000D01*
X20610000Y54860000D02*
X19360000Y54860000D01*
X20610000Y53610000D02*
X20610000Y54860000D01*
%TO.C,J14*%
X24770000Y-2805000D02*
X24770000Y-7525000D01*
X24770000Y-4915000D02*
X25380000Y-4915000D01*
X24770000Y-6215000D02*
X25380000Y-6215000D01*
X24770000Y-7525000D02*
X38890000Y-7525000D01*
X25380000Y-3415000D02*
X25380000Y-6915000D01*
X25380000Y-6915000D02*
X27330000Y-6915000D01*
X27330000Y-6915000D02*
X27330000Y-7525000D01*
X27730000Y-3915000D02*
X27730000Y-3415000D01*
X27830000Y-3415000D02*
X27830000Y-3915000D01*
X27930000Y-3415000D02*
X27930000Y-3915000D01*
X27930000Y-3915000D02*
X27730000Y-3915000D01*
X29730000Y-3915000D02*
X29730000Y-3415000D01*
X29830000Y-3415000D02*
X29830000Y-3915000D01*
X29930000Y-3415000D02*
X29930000Y-3915000D01*
X29930000Y-3915000D02*
X29730000Y-3915000D01*
X31730000Y-3915000D02*
X31730000Y-3415000D01*
X31830000Y-3415000D02*
X31830000Y-3915000D01*
X31930000Y-3415000D02*
X31930000Y-3915000D01*
X31930000Y-3915000D02*
X31730000Y-3915000D01*
X33730000Y-3915000D02*
X33730000Y-3415000D01*
X33830000Y-3415000D02*
X33830000Y-3915000D01*
X33930000Y-3415000D02*
X33930000Y-3915000D01*
X33930000Y-3915000D02*
X33730000Y-3915000D01*
X35730000Y-3915000D02*
X35730000Y-3415000D01*
X35830000Y-3415000D02*
X35830000Y-3915000D01*
X35930000Y-3415000D02*
X35930000Y-3915000D01*
X35930000Y-3915000D02*
X35730000Y-3915000D01*
X36330000Y-6915000D02*
X38280000Y-6915000D01*
X36330000Y-7525000D02*
X36330000Y-6915000D01*
X37130000Y-7525000D02*
X37130000Y-7725000D01*
X37130000Y-7625000D02*
X37430000Y-7625000D01*
X37130000Y-7725000D02*
X37430000Y-7725000D01*
X37430000Y-7725000D02*
X37430000Y-7525000D01*
X37940000Y-7825000D02*
X39190000Y-7825000D01*
X38280000Y-3415000D02*
X25380000Y-3415000D01*
X38280000Y-6915000D02*
X38280000Y-3415000D01*
X38890000Y-2805000D02*
X24770000Y-2805000D01*
X38890000Y-4915000D02*
X38280000Y-4915000D01*
X38890000Y-6215000D02*
X38280000Y-6215000D01*
X38890000Y-7525000D02*
X38890000Y-2805000D01*
X39190000Y-7825000D02*
X39190000Y-6575000D01*
D16*
%TO.C,REF\u002A\u002A*%
X-19250000Y31750000D02*
G75*
G02*
X-44250000Y31750000I-12500000J0D01*
G01*
X-44250000Y31750000D02*
G75*
G02*
X-19250000Y31750000I12500000J0D01*
G01*
D15*
%TO.C,J11*%
X7440000Y31910000D02*
X7440000Y27190000D01*
X7440000Y29800000D02*
X8050000Y29800000D01*
X7440000Y28500000D02*
X8050000Y28500000D01*
X7440000Y27190000D02*
X13560000Y27190000D01*
X8050000Y31300000D02*
X8050000Y27800000D01*
X8050000Y27800000D02*
X10000000Y27800000D01*
X10000000Y27800000D02*
X10000000Y27190000D01*
X10400000Y30800000D02*
X10400000Y31300000D01*
X10500000Y31300000D02*
X10500000Y30800000D01*
X10600000Y31300000D02*
X10600000Y30800000D01*
X10600000Y30800000D02*
X10400000Y30800000D01*
X11000000Y27800000D02*
X12950000Y27800000D01*
X11000000Y27190000D02*
X11000000Y27800000D01*
X11800000Y27190000D02*
X11800000Y26990000D01*
X11800000Y27090000D02*
X12100000Y27090000D01*
X11800000Y26990000D02*
X12100000Y26990000D01*
X12100000Y26990000D02*
X12100000Y27190000D01*
X12610000Y26890000D02*
X13860000Y26890000D01*
X12950000Y31300000D02*
X8050000Y31300000D01*
X12950000Y27800000D02*
X12950000Y31300000D01*
X13560000Y31910000D02*
X7440000Y31910000D01*
X13560000Y29800000D02*
X12950000Y29800000D01*
X13560000Y28500000D02*
X12950000Y28500000D01*
X13560000Y27190000D02*
X13560000Y31910000D01*
X13860000Y26890000D02*
X13860000Y28140000D01*
D10*
%TO.C,J2*%
X-20510000Y25580000D02*
X-20510000Y23780000D01*
X-20510000Y23980000D02*
X-20510000Y9980000D01*
X-20510000Y9980000D02*
X-12410000Y9980000D01*
X-19010000Y25480000D02*
X-20510000Y23980000D01*
X-14010000Y25480000D02*
X-19010000Y25480000D01*
X-12410000Y25580000D02*
X-20510000Y25580000D01*
X-12410000Y23880000D02*
X-14010000Y25480000D01*
X-12410000Y23880000D02*
X-12410000Y25580000D01*
X-12410000Y22980000D02*
X-12410000Y23880000D01*
X-12410000Y9980000D02*
X-12410000Y23080000D01*
D16*
%TO.C,REF\u002A\u002A*%
X44250000Y31750000D02*
G75*
G02*
X19250000Y31750000I-12500000J0D01*
G01*
X19250000Y31750000D02*
G75*
G02*
X44250000Y31750000I12500000J0D01*
G01*
D17*
%TO.C,C1*%
X-49530000Y27679650D02*
X-49530000Y26409650D01*
X-48895000Y27044650D02*
X-50165000Y27044650D01*
X-42900600Y19653250D02*
G75*
G02*
X-56159400Y19653250I-6629400J0D01*
G01*
X-56159400Y19653250D02*
G75*
G02*
X-42900600Y19653250I6629400J0D01*
G01*
D15*
%TO.C,J10*%
X40390000Y48910000D02*
X40390000Y44190000D01*
X40390000Y46800000D02*
X41000000Y46800000D01*
X40390000Y45500000D02*
X41000000Y45500000D01*
X40390000Y44190000D02*
X46510000Y44190000D01*
X41000000Y48300000D02*
X41000000Y44800000D01*
X41000000Y44800000D02*
X42950000Y44800000D01*
X42950000Y44800000D02*
X42950000Y44190000D01*
X43350000Y47800000D02*
X43350000Y48300000D01*
X43450000Y48300000D02*
X43450000Y47800000D01*
X43550000Y48300000D02*
X43550000Y47800000D01*
X43550000Y47800000D02*
X43350000Y47800000D01*
X43950000Y44800000D02*
X45900000Y44800000D01*
X43950000Y44190000D02*
X43950000Y44800000D01*
X44750000Y44190000D02*
X44750000Y43990000D01*
X44750000Y44090000D02*
X45050000Y44090000D01*
X44750000Y43990000D02*
X45050000Y43990000D01*
X45050000Y43990000D02*
X45050000Y44190000D01*
X45560000Y43890000D02*
X46810000Y43890000D01*
X45900000Y48300000D02*
X41000000Y48300000D01*
X45900000Y44800000D02*
X45900000Y48300000D01*
X46510000Y48910000D02*
X40390000Y48910000D01*
X46510000Y46800000D02*
X45900000Y46800000D01*
X46510000Y45500000D02*
X45900000Y45500000D01*
X46510000Y44190000D02*
X46510000Y48910000D01*
X46810000Y43890000D02*
X46810000Y45140000D01*
%TO.C,J6*%
X4530000Y-48690000D02*
X4530000Y-49940000D01*
X4830000Y-48990000D02*
X4830000Y-53710000D01*
X4830000Y-50300000D02*
X5440000Y-50300000D01*
X4830000Y-51600000D02*
X5440000Y-51600000D01*
X4830000Y-53710000D02*
X12950000Y-53710000D01*
X5440000Y-49600000D02*
X5440000Y-53100000D01*
X5440000Y-53100000D02*
X12340000Y-53100000D01*
X5780000Y-48690000D02*
X4530000Y-48690000D01*
X6290000Y-48790000D02*
X6290000Y-48990000D01*
X6590000Y-48790000D02*
X6290000Y-48790000D01*
X6590000Y-48890000D02*
X6290000Y-48890000D01*
X6590000Y-48990000D02*
X6590000Y-48790000D01*
X7390000Y-48990000D02*
X7390000Y-49600000D01*
X7390000Y-49600000D02*
X5440000Y-49600000D01*
X7790000Y-52600000D02*
X7990000Y-52600000D01*
X7790000Y-53100000D02*
X7790000Y-52600000D01*
X7890000Y-53100000D02*
X7890000Y-52600000D01*
X7990000Y-52600000D02*
X7990000Y-53100000D01*
X9790000Y-52600000D02*
X9990000Y-52600000D01*
X9790000Y-53100000D02*
X9790000Y-52600000D01*
X9890000Y-53100000D02*
X9890000Y-52600000D01*
X9990000Y-52600000D02*
X9990000Y-53100000D01*
X10390000Y-49600000D02*
X10390000Y-48990000D01*
X12340000Y-49600000D02*
X10390000Y-49600000D01*
X12340000Y-53100000D02*
X12340000Y-49600000D01*
X12950000Y-48990000D02*
X4830000Y-48990000D01*
X12950000Y-50300000D02*
X12340000Y-50300000D01*
X12950000Y-51600000D02*
X12340000Y-51600000D01*
X12950000Y-53710000D02*
X12950000Y-48990000D01*
D17*
%TO.C,J1*%
X-46736000Y-26885900D02*
X-46736000Y-36614100D01*
X-46736000Y-36614100D02*
X46736000Y-36614100D01*
X46736000Y-26885900D02*
X-46736000Y-26885900D01*
X46736000Y-36614100D02*
X46736000Y-26885900D01*
D18*
X-48133000Y-29324300D02*
G75*
G02*
X-48895000Y-29324300I-381000J0D01*
G01*
X-48895000Y-29324300D02*
G75*
G02*
X-48133000Y-29324300I381000J0D01*
G01*
D10*
%TO.C,J4*%
X12510000Y10340000D02*
X12510000Y8540000D01*
X12510000Y8740000D02*
X12510000Y-5260000D01*
X12510000Y-5260000D02*
X20610000Y-5260000D01*
X14010000Y10240000D02*
X12510000Y8740000D01*
X19010000Y10240000D02*
X14010000Y10240000D01*
X20610000Y10340000D02*
X12510000Y10340000D01*
X20610000Y8640000D02*
X19010000Y10240000D01*
X20610000Y8640000D02*
X20610000Y10340000D01*
X20610000Y7740000D02*
X20610000Y8640000D01*
X20610000Y-5260000D02*
X20610000Y7840000D01*
D16*
%TO.C,REF\u002A\u002A*%
X44250000Y-50800000D02*
G75*
G02*
X19250000Y-50800000I-12500000J0D01*
G01*
X19250000Y-50800000D02*
G75*
G02*
X44250000Y-50800000I12500000J0D01*
G01*
D10*
%TO.C,J5*%
X-11340000Y-43825000D02*
X-11340000Y-50805000D01*
X-10940000Y-47325000D02*
X-10940000Y-50815000D01*
X-10230000Y-45365000D02*
X-10180000Y-45415000D01*
X-10180000Y-45415000D02*
X-10180000Y-45725000D01*
X-7600000Y-45415000D02*
X-7600000Y-45725000D01*
X-7550000Y-45365000D02*
X-7600000Y-45415000D01*
X-6840000Y-47325000D02*
X-6840000Y-50815000D01*
X-6440000Y-43825000D02*
X-6440000Y-50805000D01*
X-11340000Y-43825000D02*
G75*
G02*
X-6440000Y-43825000I2450000J10000D01*
G01*
X-10937486Y-47313683D02*
G75*
G02*
X-10180000Y-45725000I2047486J-1317D01*
G01*
X-10230000Y-45365000D02*
G75*
G02*
X-7551296Y-45366119I1340000J1550000D01*
G01*
X-7600000Y-45725000D02*
G75*
G02*
X-6842514Y-47313683I-1290000J-1590000D01*
G01*
X-6840000Y-50815000D02*
G75*
G02*
X-10940000Y-50815000I-2050000J0D01*
G01*
X-6440000Y-50805000D02*
G75*
G02*
X-11340000Y-50805000I-2450000J-10000D01*
G01*
D15*
%TO.C,J7*%
X-48410000Y54060000D02*
X-48410000Y39940000D01*
X-48410000Y39940000D02*
X-43690000Y39940000D01*
X-47800000Y53450000D02*
X-47800000Y40550000D01*
X-47800000Y51100000D02*
X-47300000Y51100000D01*
X-47800000Y51000000D02*
X-47300000Y51000000D01*
X-47800000Y49100000D02*
X-47300000Y49100000D01*
X-47800000Y49000000D02*
X-47300000Y49000000D01*
X-47800000Y47100000D02*
X-47300000Y47100000D01*
X-47800000Y47000000D02*
X-47300000Y47000000D01*
X-47800000Y45100000D02*
X-47300000Y45100000D01*
X-47800000Y45000000D02*
X-47300000Y45000000D01*
X-47800000Y43100000D02*
X-47300000Y43100000D01*
X-47800000Y43000000D02*
X-47300000Y43000000D01*
X-47800000Y40550000D02*
X-44300000Y40550000D01*
X-47300000Y51100000D02*
X-47300000Y50900000D01*
X-47300000Y50900000D02*
X-47800000Y50900000D01*
X-47300000Y49100000D02*
X-47300000Y48900000D01*
X-47300000Y48900000D02*
X-47800000Y48900000D01*
X-47300000Y47100000D02*
X-47300000Y46900000D01*
X-47300000Y46900000D02*
X-47800000Y46900000D01*
X-47300000Y45100000D02*
X-47300000Y44900000D01*
X-47300000Y44900000D02*
X-47800000Y44900000D01*
X-47300000Y43100000D02*
X-47300000Y42900000D01*
X-47300000Y42900000D02*
X-47800000Y42900000D01*
X-46300000Y54060000D02*
X-46300000Y53450000D01*
X-46300000Y39940000D02*
X-46300000Y40550000D01*
X-45000000Y54060000D02*
X-45000000Y53450000D01*
X-45000000Y39940000D02*
X-45000000Y40550000D01*
X-44300000Y53450000D02*
X-47800000Y53450000D01*
X-44300000Y51500000D02*
X-44300000Y53450000D01*
X-44300000Y42500000D02*
X-43690000Y42500000D01*
X-44300000Y40550000D02*
X-44300000Y42500000D01*
X-43690000Y54060000D02*
X-48410000Y54060000D01*
X-43690000Y52300000D02*
X-43490000Y52300000D01*
X-43690000Y51500000D02*
X-44300000Y51500000D01*
X-43690000Y39940000D02*
X-43690000Y54060000D01*
X-43590000Y52300000D02*
X-43590000Y52600000D01*
X-43490000Y52600000D02*
X-43690000Y52600000D01*
X-43490000Y52300000D02*
X-43490000Y52600000D01*
X-43390000Y54360000D02*
X-44640000Y54360000D01*
X-43390000Y53110000D02*
X-43390000Y54360000D01*
%TO.C,J12*%
X-12315000Y31485000D02*
X-12315000Y26765000D01*
X-12315000Y29375000D02*
X-11705000Y29375000D01*
X-12315000Y28075000D02*
X-11705000Y28075000D01*
X-12315000Y26765000D02*
X-6195000Y26765000D01*
X-11705000Y30875000D02*
X-11705000Y27375000D01*
X-11705000Y27375000D02*
X-9755000Y27375000D01*
X-9755000Y27375000D02*
X-9755000Y26765000D01*
X-9355000Y30375000D02*
X-9355000Y30875000D01*
X-9255000Y30875000D02*
X-9255000Y30375000D01*
X-9155000Y30875000D02*
X-9155000Y30375000D01*
X-9155000Y30375000D02*
X-9355000Y30375000D01*
X-8755000Y27375000D02*
X-6805000Y27375000D01*
X-8755000Y26765000D02*
X-8755000Y27375000D01*
X-7955000Y26765000D02*
X-7955000Y26565000D01*
X-7955000Y26665000D02*
X-7655000Y26665000D01*
X-7955000Y26565000D02*
X-7655000Y26565000D01*
X-7655000Y26565000D02*
X-7655000Y26765000D01*
X-7145000Y26465000D02*
X-5895000Y26465000D01*
X-6805000Y30875000D02*
X-11705000Y30875000D01*
X-6805000Y27375000D02*
X-6805000Y30875000D01*
X-6195000Y31485000D02*
X-12315000Y31485000D01*
X-6195000Y29375000D02*
X-6805000Y29375000D01*
X-6195000Y28075000D02*
X-6805000Y28075000D01*
X-6195000Y26765000D02*
X-6195000Y31485000D01*
X-5895000Y26465000D02*
X-5895000Y27715000D01*
%TO.C,J8*%
X-20110000Y40890000D02*
X-20110000Y39640000D01*
X-20110000Y39640000D02*
X-18860000Y39640000D01*
X-20010000Y41700000D02*
X-20010000Y41400000D01*
X-20010000Y41400000D02*
X-19810000Y41400000D01*
X-19910000Y41700000D02*
X-19910000Y41400000D01*
X-19810000Y54060000D02*
X-19810000Y39940000D01*
X-19810000Y42500000D02*
X-19200000Y42500000D01*
X-19810000Y41700000D02*
X-20010000Y41700000D01*
X-19810000Y39940000D02*
X-15090000Y39940000D01*
X-19200000Y53450000D02*
X-19200000Y51500000D01*
X-19200000Y51500000D02*
X-19810000Y51500000D01*
X-19200000Y42500000D02*
X-19200000Y40550000D01*
X-19200000Y40550000D02*
X-15700000Y40550000D01*
X-18500000Y54060000D02*
X-18500000Y53450000D01*
X-18500000Y39940000D02*
X-18500000Y40550000D01*
X-17200000Y54060000D02*
X-17200000Y53450000D01*
X-17200000Y39940000D02*
X-17200000Y40550000D01*
X-16200000Y51100000D02*
X-15700000Y51100000D01*
X-16200000Y50900000D02*
X-16200000Y51100000D01*
X-16200000Y49100000D02*
X-15700000Y49100000D01*
X-16200000Y48900000D02*
X-16200000Y49100000D01*
X-16200000Y47100000D02*
X-15700000Y47100000D01*
X-16200000Y46900000D02*
X-16200000Y47100000D01*
X-16200000Y45100000D02*
X-15700000Y45100000D01*
X-16200000Y44900000D02*
X-16200000Y45100000D01*
X-16200000Y43100000D02*
X-15700000Y43100000D01*
X-16200000Y42900000D02*
X-16200000Y43100000D01*
X-15700000Y53450000D02*
X-19200000Y53450000D01*
X-15700000Y51000000D02*
X-16200000Y51000000D01*
X-15700000Y50900000D02*
X-16200000Y50900000D01*
X-15700000Y49000000D02*
X-16200000Y49000000D01*
X-15700000Y48900000D02*
X-16200000Y48900000D01*
X-15700000Y47000000D02*
X-16200000Y47000000D01*
X-15700000Y46900000D02*
X-16200000Y46900000D01*
X-15700000Y45000000D02*
X-16200000Y45000000D01*
X-15700000Y44900000D02*
X-16200000Y44900000D01*
X-15700000Y43000000D02*
X-16200000Y43000000D01*
X-15700000Y42900000D02*
X-16200000Y42900000D01*
X-15700000Y40550000D02*
X-15700000Y53450000D01*
X-15090000Y54060000D02*
X-19810000Y54060000D01*
X-15090000Y39940000D02*
X-15090000Y54060000D01*
D10*
%TO.C,J3*%
X-20510000Y-4900000D02*
X-20510000Y-6700000D01*
X-20510000Y-6500000D02*
X-20510000Y-20500000D01*
X-20510000Y-20500000D02*
X-12410000Y-20500000D01*
X-19010000Y-5000000D02*
X-20510000Y-6500000D01*
X-14010000Y-5000000D02*
X-19010000Y-5000000D01*
X-12410000Y-4900000D02*
X-20510000Y-4900000D01*
X-12410000Y-6600000D02*
X-14010000Y-5000000D01*
X-12410000Y-6600000D02*
X-12410000Y-4900000D01*
X-12410000Y-7500000D02*
X-12410000Y-6600000D01*
X-12410000Y-20500000D02*
X-12410000Y-7400000D01*
D16*
%TO.C,REF\u002A\u002A*%
X-19250000Y-50800000D02*
G75*
G02*
X-44250000Y-50800000I-12500000J0D01*
G01*
X-44250000Y-50800000D02*
G75*
G02*
X-19250000Y-50800000I12500000J0D01*
G01*
D15*
%TO.C,J13*%
X-42280000Y20030000D02*
X-42280000Y11910000D01*
X-42280000Y11910000D02*
X-37560000Y11910000D01*
X-41670000Y19420000D02*
X-41670000Y12520000D01*
X-41670000Y17070000D02*
X-41170000Y17070000D01*
X-41670000Y16970000D02*
X-41170000Y16970000D01*
X-41670000Y15070000D02*
X-41170000Y15070000D01*
X-41670000Y14970000D02*
X-41170000Y14970000D01*
X-41670000Y12520000D02*
X-38170000Y12520000D01*
X-41170000Y17070000D02*
X-41170000Y16870000D01*
X-41170000Y16870000D02*
X-41670000Y16870000D01*
X-41170000Y15070000D02*
X-41170000Y14870000D01*
X-41170000Y14870000D02*
X-41670000Y14870000D01*
X-40170000Y20030000D02*
X-40170000Y19420000D01*
X-40170000Y11910000D02*
X-40170000Y12520000D01*
X-38870000Y20030000D02*
X-38870000Y19420000D01*
X-38870000Y11910000D02*
X-38870000Y12520000D01*
X-38170000Y19420000D02*
X-41670000Y19420000D01*
X-38170000Y17470000D02*
X-38170000Y19420000D01*
X-38170000Y14470000D02*
X-37560000Y14470000D01*
X-38170000Y12520000D02*
X-38170000Y14470000D01*
X-37560000Y20030000D02*
X-42280000Y20030000D01*
X-37560000Y18270000D02*
X-37360000Y18270000D01*
X-37560000Y17470000D02*
X-38170000Y17470000D01*
X-37560000Y11910000D02*
X-37560000Y20030000D01*
X-37460000Y18270000D02*
X-37460000Y18570000D01*
X-37360000Y18570000D02*
X-37560000Y18570000D01*
X-37360000Y18270000D02*
X-37360000Y18570000D01*
X-37260000Y20330000D02*
X-38510000Y20330000D01*
X-37260000Y19080000D02*
X-37260000Y20330000D01*
%TD*%
%LPC*%
D19*
%TO.C,J9*%
X18500000Y52500000D03*
D20*
X18500000Y50500000D03*
X18500000Y48500000D03*
X18500000Y46500000D03*
X18500000Y44500000D03*
X18500000Y42500000D03*
%TD*%
D21*
%TO.C,J14*%
X36830000Y-5715000D03*
D22*
X34830000Y-5715000D03*
X32830000Y-5715000D03*
X30830000Y-5715000D03*
X28830000Y-5715000D03*
X26830000Y-5715000D03*
%TD*%
D21*
%TO.C,J11*%
X11500000Y29000000D03*
D22*
X9500000Y29000000D03*
%TD*%
D23*
%TO.C,J2*%
X-16510000Y21380000D03*
X-16510000Y14180000D03*
%TD*%
D24*
%TO.C,C1*%
X-49530000Y22153250D03*
X-49530000Y17153250D03*
%TD*%
D21*
%TO.C,J10*%
X44450000Y46000000D03*
D22*
X42450000Y46000000D03*
%TD*%
D25*
%TO.C,J6*%
X6890000Y-50800000D03*
D22*
X8890000Y-50800000D03*
X10890000Y-50800000D03*
%TD*%
D26*
%TO.C,J1*%
X-41910000Y-29324300D03*
X-39370000Y-29324300D03*
X-36830000Y-29324300D03*
X-34290000Y-29324300D03*
X-31750000Y-29324300D03*
X-29210000Y-29324300D03*
X-26670000Y-29324300D03*
X-24130000Y-29324300D03*
X-21590000Y-29324300D03*
X-19050000Y-29324300D03*
X-16510000Y-29324300D03*
X-13970000Y-29324300D03*
X-11430000Y-29324300D03*
X-8890000Y-29324300D03*
X-6350000Y-29324300D03*
X-3810000Y-29324300D03*
X-1270000Y-29324300D03*
X1270000Y-29324300D03*
X3810000Y-29324300D03*
X6350000Y-29324300D03*
X8890000Y-29324300D03*
X11430000Y-29324300D03*
X13970000Y-29324300D03*
X16510000Y-29324300D03*
X19050000Y-29324300D03*
X21590000Y-29324300D03*
X24130000Y-29324300D03*
X26670000Y-29324300D03*
X29210000Y-29324300D03*
X31750000Y-29324300D03*
X34290000Y-29324300D03*
X36830000Y-29324300D03*
X39370000Y-29324300D03*
X41910000Y-29324300D03*
X41910000Y-34175700D03*
X39370000Y-34175700D03*
X36830000Y-34175700D03*
X34290000Y-34175700D03*
X31750000Y-34175700D03*
X29210000Y-34175700D03*
X26670000Y-34175700D03*
X24130000Y-34175700D03*
X21590000Y-34175700D03*
X19050000Y-34175700D03*
X16510000Y-34175700D03*
X13970000Y-34175700D03*
X11430000Y-34175700D03*
X8890000Y-34175700D03*
X6350000Y-34175700D03*
X3810000Y-34175700D03*
X1270000Y-34175700D03*
X-1270000Y-34175700D03*
X-3810000Y-34175700D03*
X-6350000Y-34175700D03*
X-8890000Y-34175700D03*
X-11430000Y-34175700D03*
X-13970000Y-34175700D03*
X-16510000Y-34175700D03*
X-19050000Y-34175700D03*
X-21590000Y-34175700D03*
X-24130000Y-34175700D03*
X-26670000Y-34175700D03*
X-29210000Y-34175700D03*
X-31750000Y-34175700D03*
X-34290000Y-34175700D03*
X-36830000Y-34175700D03*
X-39370000Y-34175700D03*
X-41910000Y-34175700D03*
%TD*%
D23*
%TO.C,J4*%
X16510000Y6140000D03*
X16510000Y-1060000D03*
%TD*%
D27*
%TO.C,J5*%
X-8890000Y-43815000D03*
X-8890000Y-47315000D03*
X-8890000Y-50815000D03*
%TD*%
D19*
%TO.C,J7*%
X-45500000Y52000000D03*
D20*
X-45500000Y50000000D03*
X-45500000Y48000000D03*
X-45500000Y46000000D03*
X-45500000Y44000000D03*
X-45500000Y42000000D03*
%TD*%
D21*
%TO.C,J12*%
X-8255000Y28575000D03*
D22*
X-10255000Y28575000D03*
%TD*%
D28*
%TO.C,J8*%
X-18000000Y42000000D03*
D20*
X-18000000Y44000000D03*
X-18000000Y46000000D03*
X-18000000Y48000000D03*
X-18000000Y50000000D03*
X-18000000Y52000000D03*
%TD*%
D23*
%TO.C,J3*%
X-16510000Y-9100000D03*
X-16510000Y-16300000D03*
%TD*%
D19*
%TO.C,J13*%
X-39370000Y17970000D03*
D20*
X-39370000Y15970000D03*
X-39370000Y13970000D03*
%TD*%
%LPD*%
M02*
