%TF.GenerationSoftware,KiCad,Pcbnew,8.0.4*%
%TF.CreationDate,2025-03-13T14:26:21-04:00*%
%TF.ProjectId,erie_rov_mainboard,65726965-5f72-46f7-965f-6d61696e626f,rev?*%
%TF.SameCoordinates,Original*%
%TF.FileFunction,Paste,Top*%
%TF.FilePolarity,Positive*%
%FSLAX46Y46*%
G04 Gerber Fmt 4.6, Leading zero omitted, Abs format (unit mm)*
G04 Created by KiCad (PCBNEW 8.0.4) date 2025-03-13 14:26:21*
%MOMM*%
%LPD*%
G01*
G04 APERTURE LIST*
%ADD10R,1.380599X0.350800*%
%ADD11R,1.300000X0.600000*%
%ADD12R,1.066800X1.219200*%
%ADD13R,1.397000X0.812800*%
%ADD14R,1.420000X1.000000*%
%ADD15R,0.600000X1.300000*%
%ADD16R,5.003800X0.762000*%
%ADD17R,4.495800X8.788400*%
G04 APERTURE END LIST*
D10*
%TO.C,U2*%
X68179701Y-152665001D03*
X68179701Y-153314999D03*
X68179701Y-153965001D03*
X68179701Y-154614999D03*
X68179701Y-155264998D03*
X68179701Y-155914999D03*
X68179701Y-156564998D03*
X68179701Y-157214999D03*
X74060299Y-157214999D03*
X74060299Y-156565001D03*
X74060299Y-155914999D03*
X74060299Y-155265001D03*
X74060299Y-154615002D03*
X74060299Y-153965001D03*
X74060299Y-153315002D03*
X74060299Y-152665001D03*
%TD*%
D11*
%TO.C,Q3*%
X89315000Y-194305000D03*
X89315000Y-192405000D03*
X87215000Y-193355000D03*
%TD*%
D12*
%TO.C,C3*%
X65595500Y-151765000D03*
X63944500Y-151765000D03*
%TD*%
D13*
%TO.C,R3*%
X89512700Y-187566300D03*
X89512700Y-185813700D03*
%TD*%
D12*
%TO.C,C1*%
X65595500Y-153670000D03*
X63944500Y-153670000D03*
%TD*%
D14*
%TO.C,R5*%
X92075000Y-192740000D03*
X92075000Y-194610000D03*
%TD*%
D15*
%TO.C,Q2*%
X87183000Y-188053000D03*
X85283000Y-188053000D03*
X86233000Y-190153000D03*
%TD*%
D12*
%TO.C,C5*%
X72644000Y-150495000D03*
X74295000Y-150495000D03*
%TD*%
D14*
%TO.C,R4*%
X91694000Y-187625000D03*
X91694000Y-185755000D03*
%TD*%
D16*
%TO.C,J6*%
X79134098Y-157480000D03*
X79134098Y-156210000D03*
X79134098Y-154940000D03*
X79134098Y-153670000D03*
X79134098Y-152400000D03*
X79134098Y-151130000D03*
D17*
X95184099Y-154305000D03*
%TD*%
D12*
%TO.C,C2*%
X65595500Y-155575000D03*
X63944500Y-155575000D03*
%TD*%
%TO.C,C4*%
X63944500Y-157480000D03*
X65595500Y-157480000D03*
%TD*%
M02*
