%TF.GenerationSoftware,KiCad,Pcbnew,8.0.4*%
%TF.CreationDate,2025-03-13T14:26:21-04:00*%
%TF.ProjectId,erie_rov_mainboard,65726965-5f72-46f7-965f-6d61696e626f,rev?*%
%TF.SameCoordinates,Original*%
%TF.FileFunction,Copper,L1,Top*%
%TF.FilePolarity,Positive*%
%FSLAX46Y46*%
G04 Gerber Fmt 4.6, Leading zero omitted, Abs format (unit mm)*
G04 Created by KiCad (PCBNEW 8.0.4) date 2025-03-13 14:26:21*
%MOMM*%
%LPD*%
G01*
G04 APERTURE LIST*
G04 Aperture macros list*
%AMRoundRect*
0 Rectangle with rounded corners*
0 $1 Rounding radius*
0 $2 $3 $4 $5 $6 $7 $8 $9 X,Y pos of 4 corners*
0 Add a 4 corners polygon primitive as box body*
4,1,4,$2,$3,$4,$5,$6,$7,$8,$9,$2,$3,0*
0 Add four circle primitives for the rounded corners*
1,1,$1+$1,$2,$3*
1,1,$1+$1,$4,$5*
1,1,$1+$1,$6,$7*
1,1,$1+$1,$8,$9*
0 Add four rect primitives between the rounded corners*
20,1,$1+$1,$2,$3,$4,$5,0*
20,1,$1+$1,$4,$5,$6,$7,0*
20,1,$1+$1,$6,$7,$8,$9,0*
20,1,$1+$1,$8,$9,$2,$3,0*%
G04 Aperture macros list end*
%TA.AperFunction,ConnectorPad*%
%ADD10R,6.350000X5.080000*%
%TD*%
%TA.AperFunction,ConnectorPad*%
%ADD11R,1.651000X5.080000*%
%TD*%
%TA.AperFunction,ComponentPad*%
%ADD12C,5.800000*%
%TD*%
%TA.AperFunction,SMDPad,CuDef*%
%ADD13R,1.380599X0.350800*%
%TD*%
%TA.AperFunction,SMDPad,CuDef*%
%ADD14R,1.300000X0.600000*%
%TD*%
%TA.AperFunction,SMDPad,CuDef*%
%ADD15R,1.066800X1.219200*%
%TD*%
%TA.AperFunction,ComponentPad*%
%ADD16RoundRect,0.264583X-0.610417X0.370417X-0.610417X-0.370417X0.610417X-0.370417X0.610417X0.370417X0*%
%TD*%
%TA.AperFunction,ComponentPad*%
%ADD17O,1.750000X1.270000*%
%TD*%
%TA.AperFunction,ComponentPad*%
%ADD18RoundRect,0.264583X-0.370417X-0.610417X0.370417X-0.610417X0.370417X0.610417X-0.370417X0.610417X0*%
%TD*%
%TA.AperFunction,ComponentPad*%
%ADD19O,1.270000X1.750000*%
%TD*%
%TA.AperFunction,SMDPad,CuDef*%
%ADD20R,1.397000X0.812800*%
%TD*%
%TA.AperFunction,ComponentPad*%
%ADD21C,1.651000*%
%TD*%
%TA.AperFunction,SMDPad,CuDef*%
%ADD22R,1.420000X1.000000*%
%TD*%
%TA.AperFunction,SMDPad,CuDef*%
%ADD23R,0.600000X1.300000*%
%TD*%
%TA.AperFunction,SMDPad,CuDef*%
%ADD24R,5.003800X0.762000*%
%TD*%
%TA.AperFunction,SMDPad,CuDef*%
%ADD25R,4.495800X8.788400*%
%TD*%
%TA.AperFunction,ComponentPad*%
%ADD26C,3.200000*%
%TD*%
%TA.AperFunction,ComponentPad*%
%ADD27C,1.219200*%
%TD*%
%TA.AperFunction,ViaPad*%
%ADD28C,0.812800*%
%TD*%
%TA.AperFunction,ViaPad*%
%ADD29C,0.800000*%
%TD*%
%TA.AperFunction,ViaPad*%
%ADD30C,2.032000*%
%TD*%
%TA.AperFunction,ViaPad*%
%ADD31C,3.810000*%
%TD*%
%TA.AperFunction,Conductor*%
%ADD32C,0.250000*%
%TD*%
%TA.AperFunction,Conductor*%
%ADD33C,5.080000*%
%TD*%
%TA.AperFunction,Conductor*%
%ADD34C,2.540000*%
%TD*%
%TA.AperFunction,Conductor*%
%ADD35C,2.032000*%
%TD*%
%TA.AperFunction,Conductor*%
%ADD36C,3.810000*%
%TD*%
G04 APERTURE END LIST*
D10*
%TO.P,J1,1,P1*%
%TO.N,5V_AUX*%
X140970000Y-199390000D03*
%TO.P,J1,4,P2*%
%TO.N,PNL+*%
X133350000Y-199390000D03*
%TO.P,J1,7,P3*%
%TO.N,BATT_CC*%
X125730000Y-199390000D03*
%TO.P,J1,10,P4*%
%TO.N,BATT_SW*%
X118110000Y-199390000D03*
%TO.P,J1,13,P5*%
%TO.N,+12V*%
X110490000Y-199390000D03*
%TO.P,J1,16,P6*%
%TO.N,LOAD_CC*%
X102870000Y-199390000D03*
%TO.P,J1,19,P7*%
%TO.N,GND*%
X95250000Y-199390000D03*
%TO.P,J1,22,P8*%
%TO.N,VID_PWR*%
X87630000Y-199390000D03*
D11*
%TO.P,J1,25,S1*%
%TO.N,TELEM1_TX*%
X82550000Y-199390000D03*
%TO.P,J1,26,S2*%
%TO.N,TELEM1_RX*%
X80010000Y-199390000D03*
%TO.P,J1,27,S3*%
%TO.N,TELEM1_CTS*%
X77470000Y-199390000D03*
%TO.P,J1,28,S4*%
%TO.N,TELEM1_RTS*%
X74930000Y-199390000D03*
%TO.P,J1,29,S5*%
%TO.N,EXP_4*%
X72390000Y-199390000D03*
%TO.P,J1,30,S6*%
%TO.N,EXP_3*%
X69850000Y-199390000D03*
%TO.P,J1,31,S7*%
%TO.N,EXP_2*%
X67310000Y-199390000D03*
%TO.P,J1,32,S8*%
%TO.N,EXP_1*%
X64770000Y-199390000D03*
%TO.P,J1,33,S9*%
%TO.N,OSD_RX*%
X62230000Y-199390000D03*
%TO.P,J1,34,S10*%
%TO.N,OSD_TX*%
X59690000Y-199390000D03*
%TD*%
D12*
%TO.P,J2,1,-*%
%TO.N,GND*%
X81280000Y-110700000D03*
%TO.P,J2,2,+*%
%TO.N,BATT_SW*%
X81280000Y-117900000D03*
%TD*%
%TO.P,J5,1,-*%
%TO.N,GND*%
X65405000Y-110700000D03*
%TO.P,J5,2,+*%
%TO.N,LOAD_CC*%
X65405000Y-117900000D03*
%TD*%
D13*
%TO.P,U2,1,C1+*%
%TO.N,Net-(U2-C1+)*%
X68179701Y-152665001D03*
%TO.P,U2,2,V+*%
%TO.N,Net-(U2-V+)*%
X68179701Y-153314999D03*
%TO.P,U2,3,C1-*%
%TO.N,Net-(U2-C1-)*%
X68179701Y-153965001D03*
%TO.P,U2,4,C2+*%
%TO.N,Net-(U2-C2+)*%
X68179701Y-154614999D03*
%TO.P,U2,5,C2-*%
%TO.N,Net-(U2-C2-)*%
X68179701Y-155264998D03*
%TO.P,U2,6,V-*%
%TO.N,Net-(U2-V-)*%
X68179701Y-155914999D03*
%TO.P,U2,7,T2OUT*%
%TO.N,unconnected-(U2-T2OUT-Pad7)*%
X68179701Y-156564998D03*
%TO.P,U2,8,R2IN*%
%TO.N,unconnected-(U2-R2IN-Pad8)*%
X68179701Y-157214999D03*
%TO.P,U2,9,R2OUT*%
%TO.N,unconnected-(U2-R2OUT-Pad9)*%
X74060299Y-157214999D03*
%TO.P,U2,10,T2IN*%
%TO.N,unconnected-(U2-T2IN-Pad10)*%
X74060299Y-156565001D03*
%TO.P,U2,11,T1IN*%
%TO.N,SCC_TX*%
X74060299Y-155914999D03*
%TO.P,U2,12,R1OUT*%
%TO.N,SCC_RX*%
X74060299Y-155265001D03*
%TO.P,U2,13,R1IN*%
%TO.N,Net-(U2-R1IN)*%
X74060299Y-154615002D03*
%TO.P,U2,14,T1OUT*%
%TO.N,Net-(U2-T1OUT)*%
X74060299Y-153965001D03*
%TO.P,U2,15,GND*%
%TO.N,GND*%
X74060299Y-153315002D03*
%TO.P,U2,16,VCC*%
%TO.N,+3.3V*%
X74060299Y-152665001D03*
%TD*%
D14*
%TO.P,Q3,1,G*%
%TO.N,Net-(Q2-D)*%
X89315000Y-194305000D03*
%TO.P,Q3,2,S*%
%TO.N,+12V*%
X89315000Y-192405000D03*
%TO.P,Q3,3,D*%
%TO.N,VID_PWR*%
X87215000Y-193355000D03*
%TD*%
D15*
%TO.P,C3,1*%
%TO.N,Net-(U2-V+)*%
X65595500Y-151765000D03*
%TO.P,C3,2*%
%TO.N,GND*%
X63944500Y-151765000D03*
%TD*%
D12*
%TO.P,J4,1,-*%
%TO.N,GND*%
X96520000Y-110700000D03*
%TO.P,J4,2,+*%
%TO.N,BATT_CC*%
X96520000Y-117900000D03*
%TD*%
D16*
%TO.P,J14,1,Pin_1*%
%TO.N,RDR_PWM*%
X97790000Y-138240000D03*
D17*
%TO.P,J14,2,Pin_2*%
%TO.N,unconnected-(J14-Pin_2-Pad2)*%
X97790000Y-140240000D03*
%TO.P,J14,3,Pin_3*%
%TO.N,GND*%
X97790000Y-142240000D03*
%TD*%
D12*
%TO.P,J3,1,-*%
%TO.N,GND*%
X111760000Y-110700000D03*
%TO.P,J3,2,+*%
%TO.N,PNL+*%
X111760000Y-117900000D03*
%TD*%
D18*
%TO.P,J10,1,Pin_1*%
%TO.N,+5V*%
X80170000Y-135890000D03*
D19*
%TO.P,J10,2,Pin_2*%
%TO.N,TELEM2_TX*%
X82170000Y-135890000D03*
%TO.P,J10,3,Pin_3*%
%TO.N,TELEM2_RX*%
X84170000Y-135890000D03*
%TO.P,J10,4,Pin_4*%
%TO.N,unconnected-(J10-Pin_4-Pad4)*%
X86170000Y-135890000D03*
%TO.P,J10,5,Pin_5*%
%TO.N,unconnected-(J10-Pin_5-Pad5)*%
X88170000Y-135890000D03*
%TO.P,J10,6,Pin_6*%
%TO.N,GND*%
X90170000Y-135890000D03*
%TD*%
D18*
%TO.P,J15,1,Pin_1*%
%TO.N,+5V*%
X62230000Y-192405000D03*
D19*
%TO.P,J15,2,Pin_2*%
%TO.N,EXP_1*%
X64230000Y-192405000D03*
%TO.P,J15,3,Pin_3*%
%TO.N,EXP_2*%
X66230000Y-192405000D03*
%TO.P,J15,4,Pin_4*%
%TO.N,EXP_3*%
X68230000Y-192405000D03*
%TO.P,J15,5,Pin_5*%
%TO.N,EXP_4*%
X70230000Y-192405000D03*
%TO.P,J15,6,Pin_6*%
%TO.N,GND*%
X72230000Y-192405000D03*
%TD*%
D18*
%TO.P,J12,1,Pin_1*%
%TO.N,+5V*%
X64135000Y-143510000D03*
D19*
%TO.P,J12,2,Pin_2*%
%TO.N,GPS_TX*%
X66135000Y-143510000D03*
%TO.P,J12,3,Pin_3*%
%TO.N,GPS_RX*%
X68135000Y-143510000D03*
%TO.P,J12,4,Pin_4*%
%TO.N,unconnected-(J12-Pin_4-Pad4)*%
X70135000Y-143510000D03*
%TO.P,J12,5,Pin_5*%
%TO.N,unconnected-(J12-Pin_5-Pad5)*%
X72135000Y-143510000D03*
%TO.P,J12,6,Pin_6*%
%TO.N,GND*%
X74135000Y-143510000D03*
%TD*%
D20*
%TO.P,R3,1*%
%TO.N,Net-(Q2-G)*%
X89512700Y-187566300D03*
%TO.P,R3,2*%
%TO.N,VTX_SW*%
X89512700Y-185813700D03*
%TD*%
D21*
%TO.P,U1,1,GND*%
%TO.N,GND*%
X66040000Y-179705000D03*
%TO.P,U1,2,0_RX1_CRX2_CS1*%
%TO.N,SCC_RX*%
X68580000Y-179705000D03*
%TO.P,U1,3,1_TX1_CTX2_MISO1*%
%TO.N,SCC_TX*%
X71120000Y-179705000D03*
%TO.P,U1,4,2_OUT2*%
%TO.N,unconnected-(U1-2_OUT2-Pad4)*%
X73660000Y-179705000D03*
%TO.P,U1,5,3_LRCLK2*%
%TO.N,unconnected-(U1-3_LRCLK2-Pad5)*%
X76200000Y-179705000D03*
%TO.P,U1,6,4_BCLK2*%
%TO.N,unconnected-(U1-4_BCLK2-Pad6)*%
X78740000Y-179705000D03*
%TO.P,U1,7,5_IN2*%
%TO.N,unconnected-(U1-5_IN2-Pad7)*%
X81280000Y-179705000D03*
%TO.P,U1,8,6_OUT1D*%
%TO.N,STRB_PWM*%
X83820000Y-179705000D03*
%TO.P,U1,9,7_RX2_OUT1A*%
%TO.N,TELEM2_TX*%
X86360000Y-179705000D03*
%TO.P,U1,10,8_TX2_IN1*%
%TO.N,TELEM2_RX*%
X88900000Y-179705000D03*
%TO.P,U1,11,9_OUT1C*%
%TO.N,VTX_SW*%
X91440000Y-179705000D03*
%TO.P,U1,12,10_CS_MQSR*%
%TO.N,TELEM_SW*%
X93980000Y-179705000D03*
%TO.P,U1,13,11_MOSI_CTX1*%
%TO.N,unconnected-(U1-11_MOSI_CTX1-Pad13)*%
X96520000Y-179705000D03*
%TO.P,U1,14,12_MISO_MQSL*%
%TO.N,unconnected-(U1-12_MISO_MQSL-Pad14)*%
X99060000Y-179705000D03*
%TO.P,U1,15,VBAT*%
%TO.N,Net-(U1-VBAT)*%
X99060000Y-177165000D03*
%TO.P,U1,16,3V3*%
%TO.N,unconnected-(U1-3V3-Pad16)*%
X99060000Y-174625000D03*
%TO.P,U1,17,GND*%
%TO.N,GND*%
X99060000Y-172085000D03*
%TO.P,U1,18,PROGRAM*%
%TO.N,unconnected-(U1-PROGRAM-Pad18)*%
X99060000Y-169545000D03*
%TO.P,U1,19,ON_OFF*%
%TO.N,unconnected-(U1-ON_OFF-Pad19)*%
X99060000Y-167005000D03*
%TO.P,U1,20,13_SCK_CRX1_LED*%
%TO.N,unconnected-(U1-13_SCK_CRX1_LED-Pad20)*%
X99060000Y-164465000D03*
%TO.P,U1,21,14_A0_TX3_SPDIF_OUT*%
%TO.N,unconnected-(U1-14_A0_TX3_SPDIF_OUT-Pad21)*%
X96520000Y-164465000D03*
%TO.P,U1,22,15_A1_RX3_SPDIF_IN*%
%TO.N,unconnected-(U1-15_A1_RX3_SPDIF_IN-Pad22)*%
X93980000Y-164465000D03*
%TO.P,U1,23,16_A2_RX4_SCL1*%
%TO.N,unconnected-(U1-16_A2_RX4_SCL1-Pad23)*%
X91440000Y-164465000D03*
%TO.P,U1,24,17_A3_TX4_SDA1*%
%TO.N,unconnected-(U1-17_A3_TX4_SDA1-Pad24)*%
X88900000Y-164465000D03*
%TO.P,U1,25,18_A4_SDA0*%
%TO.N,unconnected-(U1-18_A4_SDA0-Pad25)*%
X86360000Y-164465000D03*
%TO.P,U1,26,19_A5_SCL0*%
%TO.N,unconnected-(U1-19_A5_SCL0-Pad26)*%
X83820000Y-164465000D03*
%TO.P,U1,27,20_A6_TX5_LRCLK1*%
%TO.N,unconnected-(U1-20_A6_TX5_LRCLK1-Pad27)*%
X81280000Y-164465000D03*
%TO.P,U1,28,21_A7_RX5_BCLK1*%
%TO.N,unconnected-(U1-21_A7_RX5_BCLK1-Pad28)*%
X78740000Y-164465000D03*
%TO.P,U1,29,22_A8_CTX1*%
%TO.N,unconnected-(U1-22_A8_CTX1-Pad29)*%
X76200000Y-164465000D03*
%TO.P,U1,30,23_A9_CRX1_MCLK1*%
%TO.N,unconnected-(U1-23_A9_CRX1_MCLK1-Pad30)*%
X73660000Y-164465000D03*
%TO.P,U1,31,3V3*%
%TO.N,+3.3V*%
X71120000Y-164465000D03*
%TO.P,U1,32,GND*%
%TO.N,GND*%
X68580000Y-164465000D03*
%TO.P,U1,33,VIN*%
%TO.N,+5V*%
X66040000Y-164465000D03*
%TO.P,U1,34,VUSB*%
%TO.N,unconnected-(U1-VUSB-Pad34)*%
X68580000Y-167005000D03*
%TD*%
D18*
%TO.P,J11,1,Pin_1*%
%TO.N,+5V*%
X64135000Y-135890000D03*
D19*
%TO.P,J11,2,Pin_2*%
%TO.N,GPS_SCL*%
X66135000Y-135890000D03*
%TO.P,J11,3,Pin_3*%
%TO.N,GPS_SCA*%
X68135000Y-135890000D03*
%TO.P,J11,4,Pin_4*%
%TO.N,GND*%
X70135000Y-135890000D03*
%TD*%
D15*
%TO.P,C1,1*%
%TO.N,Net-(U2-C1-)*%
X65595500Y-153670000D03*
%TO.P,C1,2*%
%TO.N,Net-(U2-C1+)*%
X63944500Y-153670000D03*
%TD*%
D22*
%TO.P,R5,1*%
%TO.N,+12V*%
X92075000Y-192740000D03*
%TO.P,R5,2*%
%TO.N,Net-(Q2-D)*%
X92075000Y-194610000D03*
%TD*%
D18*
%TO.P,J9,1,Pin_1*%
%TO.N,+5V*%
X80170000Y-143510000D03*
D19*
%TO.P,J9,2,Pin_2*%
%TO.N,TELEM1_TX*%
X82170000Y-143510000D03*
%TO.P,J9,3,Pin_3*%
%TO.N,TELEM1_RX*%
X84170000Y-143510000D03*
%TO.P,J9,4,Pin_4*%
%TO.N,TELEM1_CTS*%
X86170000Y-143510000D03*
%TO.P,J9,5,Pin_5*%
%TO.N,TELEM1_RTS*%
X88170000Y-143510000D03*
%TO.P,J9,6,Pin_6*%
%TO.N,GND*%
X90170000Y-143510000D03*
%TD*%
D23*
%TO.P,Q2,1,G*%
%TO.N,Net-(Q2-G)*%
X87183000Y-188053000D03*
%TO.P,Q2,2,S*%
%TO.N,GND*%
X85283000Y-188053000D03*
%TO.P,Q2,3,D*%
%TO.N,Net-(Q2-D)*%
X86233000Y-190153000D03*
%TD*%
D15*
%TO.P,C5,1*%
%TO.N,GND*%
X72644000Y-150495000D03*
%TO.P,C5,2*%
%TO.N,+3.3V*%
X74295000Y-150495000D03*
%TD*%
D22*
%TO.P,R4,1*%
%TO.N,Net-(Q2-G)*%
X91694000Y-187625000D03*
%TO.P,R4,2*%
%TO.N,GND*%
X91694000Y-185755000D03*
%TD*%
D24*
%TO.P,J6,1,1*%
%TO.N,unconnected-(J6-Pad1)*%
X79134098Y-157480000D03*
%TO.P,J6,2,2*%
%TO.N,GND*%
X79134098Y-156210000D03*
%TO.P,J6,3,3*%
%TO.N,Net-(U2-R1IN)*%
X79134098Y-154940000D03*
%TO.P,J6,4,4*%
%TO.N,Net-(U2-T1OUT)*%
X79134098Y-153670000D03*
%TO.P,J6,5,5*%
%TO.N,unconnected-(J6-Pad5)*%
X79134098Y-152400000D03*
%TO.P,J6,6,6*%
%TO.N,unconnected-(J6-Pad6)*%
X79134098Y-151130000D03*
D25*
%TO.P,J6,7*%
%TO.N,N/C*%
X95184099Y-154305000D03*
%TD*%
D26*
%TO.P,J7,1,1*%
%TO.N,MTR_B*%
X142240000Y-109530000D03*
%TO.P,J7,2,2*%
%TO.N,MTR_G*%
X142240000Y-113030000D03*
%TO.P,J7,3,3*%
%TO.N,MTR_W*%
X142240000Y-116530000D03*
%TD*%
D27*
%TO.P,U3,1,+VIN*%
%TO.N,+12V*%
X124460000Y-156421709D03*
%TO.P,U3,2,GND*%
%TO.N,GND*%
X124460000Y-158961709D03*
%TO.P,U3,3,+VOUT*%
%TO.N,5V_AUX*%
X124460000Y-161501709D03*
%TD*%
D12*
%TO.P,J8,1,-*%
%TO.N,GND*%
X128270000Y-110700000D03*
%TO.P,J8,2,+*%
%TO.N,+12V*%
X128270000Y-117900000D03*
%TD*%
D18*
%TO.P,J13,1,Pin_1*%
%TO.N,+5V*%
X64135000Y-128270000D03*
D19*
%TO.P,J13,2,Pin_2*%
%TO.N,OSD_TX*%
X66135000Y-128270000D03*
%TO.P,J13,3,Pin_3*%
%TO.N,OSD_RX*%
X68135000Y-128270000D03*
%TO.P,J13,4,Pin_4*%
%TO.N,unconnected-(J13-Pin_4-Pad4)*%
X70135000Y-128270000D03*
%TO.P,J13,5,Pin_5*%
%TO.N,unconnected-(J13-Pin_5-Pad5)*%
X72135000Y-128270000D03*
%TO.P,J13,6,Pin_6*%
%TO.N,GND*%
X74135000Y-128270000D03*
%TD*%
D15*
%TO.P,C2,1*%
%TO.N,Net-(U2-C2-)*%
X65595500Y-155575000D03*
%TO.P,C2,2*%
%TO.N,Net-(U2-C2+)*%
X63944500Y-155575000D03*
%TD*%
%TO.P,C4,1*%
%TO.N,GND*%
X63944500Y-157480000D03*
%TO.P,C4,2*%
%TO.N,Net-(U2-V-)*%
X65595500Y-157480000D03*
%TD*%
D28*
%TO.N,GND*%
X81026000Y-162433000D03*
X88519000Y-183388000D03*
X87122000Y-157988000D03*
X65913000Y-166878000D03*
X98679000Y-185293000D03*
X90424000Y-195834000D03*
X94361000Y-148082000D03*
X97790000Y-162306000D03*
X91821000Y-181737000D03*
X144526000Y-178562000D03*
X69291200Y-147421600D03*
X93853000Y-142875000D03*
X144526000Y-106680000D03*
X140970000Y-102743000D03*
D29*
X97155000Y-174244000D03*
D28*
X83820000Y-161417000D03*
X91186000Y-148082000D03*
X62103000Y-102743000D03*
X126111000Y-158623000D03*
X82169000Y-139065000D03*
D30*
X94361000Y-195580000D03*
D28*
X70739000Y-162306000D03*
X63754000Y-150368000D03*
X80899000Y-149733000D03*
X69215000Y-133223000D03*
X126238000Y-137287000D03*
X72136000Y-181483000D03*
X58547000Y-185293000D03*
D29*
X93345000Y-177927000D03*
D28*
X75692000Y-155702000D03*
X76073000Y-148463000D03*
X95758000Y-160274000D03*
X144907000Y-195580000D03*
D29*
X97155000Y-177927000D03*
D28*
X72644000Y-148971000D03*
X70993000Y-175260000D03*
X73152000Y-137668000D03*
X120269000Y-122682000D03*
X77216000Y-136271000D03*
X122047000Y-137287000D03*
X60325000Y-189357000D03*
D30*
X141478000Y-192024000D03*
D28*
X125730000Y-168783000D03*
X85217000Y-178181000D03*
X97790000Y-145161000D03*
X73152000Y-122809000D03*
X77089000Y-141605000D03*
X90932000Y-184277000D03*
D30*
X139446000Y-185420000D03*
D28*
X126111000Y-154178000D03*
X77063600Y-146354800D03*
X81153000Y-131064000D03*
X93599000Y-187579000D03*
X70866000Y-166370000D03*
X75692000Y-152908000D03*
X87376000Y-146939000D03*
X106807000Y-116332000D03*
X96901000Y-132588000D03*
X58293000Y-195707000D03*
X68326000Y-177546000D03*
X67056000Y-150114000D03*
X69596000Y-184404000D03*
X76454000Y-115443000D03*
X68014808Y-181539386D03*
X88900000Y-119761000D03*
X64008000Y-159004000D03*
X126111000Y-122809000D03*
X142113000Y-195580000D03*
X100330000Y-195707000D03*
D30*
X97155000Y-195580000D03*
D28*
X58547000Y-106553000D03*
X85344000Y-186690000D03*
X91440000Y-166624000D03*
X99060000Y-181864000D03*
X122047000Y-160528000D03*
X90932000Y-139700000D03*
X65532000Y-162306000D03*
D30*
%TO.N,+5V*%
X63627000Y-188722000D03*
D28*
%TO.N,GPS_TX*%
X67310000Y-148463000D03*
X74123000Y-190799000D03*
X73593009Y-181229000D03*
%TO.N,GPS_RX*%
X76200000Y-191008000D03*
X75928500Y-181119500D03*
%TO.N,RDR_PWM*%
X83439000Y-195707000D03*
D31*
%TO.N,+12V*%
X109154493Y-191704493D03*
X98425000Y-189230000D03*
D28*
%TO.N,OSD_TX*%
X63500000Y-178435000D03*
%TO.N,OSD_RX*%
X66040000Y-181254400D03*
%TO.N,STRB_PWM*%
X82469587Y-194879208D03*
%TO.N,GPS_SCL*%
X67945000Y-137922000D03*
X78493900Y-181144900D03*
X78740000Y-191008000D03*
%TO.N,GPS_SCA*%
X80772000Y-191008000D03*
X80792600Y-181157600D03*
%TO.N,TELEM_SW*%
X136906000Y-185928000D03*
X125730000Y-170434000D03*
%TD*%
D32*
%TO.N,GND*%
X96520000Y-199390000D02*
X95250000Y-199390000D01*
D33*
X95250000Y-199390000D02*
X95280000Y-199360000D01*
D32*
X75692000Y-152908000D02*
X75284998Y-153315002D01*
X75284998Y-153315002D02*
X74060299Y-153315002D01*
D33*
%TO.N,PNL+*%
X118745000Y-178435000D02*
X118745000Y-126517952D01*
X133350000Y-193040000D02*
X118745000Y-178435000D01*
X133350000Y-199390000D02*
X133350000Y-193040000D01*
X111760000Y-119532952D02*
X111760000Y-117900000D01*
X118745000Y-126517952D02*
X111760000Y-119532952D01*
D34*
%TO.N,+5V*%
X59690000Y-135890000D02*
X59690000Y-128270000D01*
D35*
X64135000Y-135890000D02*
X59690000Y-135890000D01*
D34*
X59690000Y-182631344D02*
X59690000Y-164465000D01*
D35*
X80170000Y-135890000D02*
X80170000Y-139700000D01*
D34*
X63627000Y-188722000D02*
X63627000Y-186568344D01*
D35*
X66040000Y-164465000D02*
X59690000Y-164465000D01*
X80170000Y-139700000D02*
X80170000Y-143510000D01*
X64135000Y-143510000D02*
X59690000Y-143510000D01*
D34*
X63627000Y-186568344D02*
X59690000Y-182631344D01*
X59690000Y-164465000D02*
X59690000Y-143510000D01*
X59690000Y-143510000D02*
X59690000Y-139700000D01*
X59690000Y-139700000D02*
X59690000Y-135890000D01*
D35*
X80170000Y-139700000D02*
X59690000Y-139700000D01*
X64135000Y-128270000D02*
X59690000Y-128270000D01*
D32*
%TO.N,GPS_TX*%
X67310000Y-144685000D02*
X66135000Y-143510000D01*
X74123000Y-190799000D02*
X73787000Y-190463000D01*
X73787000Y-181422991D02*
X73593009Y-181229000D01*
X67310000Y-148463000D02*
X67310000Y-144685000D01*
X73787000Y-190463000D02*
X73787000Y-181422991D01*
%TO.N,GPS_RX*%
X76200000Y-181391000D02*
X76200000Y-191008000D01*
X75928500Y-181119500D02*
X76200000Y-181391000D01*
%TO.N,TELEM1_TX*%
X81661000Y-182499000D02*
X82550000Y-181610000D01*
X82550000Y-181610000D02*
X82550000Y-177800000D01*
X82550000Y-197675500D02*
X81661000Y-196786500D01*
X81661000Y-196786500D02*
X81661000Y-182499000D01*
X84710000Y-140970000D02*
X82170000Y-143510000D01*
X90170000Y-147321396D02*
X92710000Y-144781396D01*
X92710000Y-144781396D02*
X92710000Y-143103600D01*
X82550000Y-199390000D02*
X82550000Y-197675500D01*
X90170000Y-170180000D02*
X90170000Y-147321396D01*
X92710000Y-143103600D02*
X90576400Y-140970000D01*
X90576400Y-140970000D02*
X84710000Y-140970000D01*
X82550000Y-177800000D02*
X90170000Y-170180000D01*
%TO.N,TELEM1_RX*%
X89535000Y-147320000D02*
X89535000Y-162052000D01*
X90552396Y-141606396D02*
X92075000Y-143129000D01*
X89535000Y-162052000D02*
X87630000Y-163957000D01*
X92075000Y-143129000D02*
X92075000Y-144780000D01*
X87630000Y-171577000D02*
X79890500Y-179316500D01*
X79890500Y-199270500D02*
X80010000Y-199390000D01*
X85798604Y-141606396D02*
X90552396Y-141606396D01*
X84170000Y-143235000D02*
X85798604Y-141606396D01*
X92075000Y-144780000D02*
X89535000Y-147320000D01*
X87630000Y-163957000D02*
X87630000Y-171577000D01*
X84170000Y-143510000D02*
X84170000Y-143235000D01*
X79890500Y-179316500D02*
X79890500Y-199270500D01*
%TO.N,RDR_PWM*%
X90170000Y-179324000D02*
X97790000Y-171704000D01*
X97790000Y-164007800D02*
X98990000Y-162807800D01*
X90170000Y-180086000D02*
X90170000Y-179324000D01*
X83439000Y-186817000D02*
X90170000Y-180086000D01*
X83439000Y-195707000D02*
X83439000Y-186817000D01*
X97790000Y-171704000D02*
X97790000Y-164007800D01*
X98990000Y-139440000D02*
X97790000Y-138240000D01*
X98990000Y-162807800D02*
X98990000Y-139440000D01*
D33*
%TO.N,+12V*%
X110490000Y-193040000D02*
X110490000Y-199390000D01*
X109154493Y-191704493D02*
X110490000Y-193040000D01*
X98425000Y-189230000D02*
X96520000Y-191135000D01*
X96520000Y-191135000D02*
X90805000Y-191135000D01*
D32*
%TO.N,TELEM1_CTS*%
X77470000Y-179290504D02*
X85090000Y-171670504D01*
X77470000Y-199390000D02*
X77470000Y-179290504D01*
X90504374Y-142240000D02*
X87440000Y-142240000D01*
X91440000Y-143175626D02*
X90504374Y-142240000D01*
X85090000Y-163830000D02*
X88900000Y-160020000D01*
X87440000Y-142240000D02*
X86170000Y-143510000D01*
X85090000Y-171670504D02*
X85090000Y-163830000D01*
X91440000Y-144778604D02*
X91440000Y-143175626D01*
X88900000Y-160020000D02*
X88900000Y-147318604D01*
X88900000Y-147318604D02*
X91440000Y-144778604D01*
%TO.N,TELEM1_RTS*%
X88265000Y-158242000D02*
X82550000Y-163957000D01*
X82550000Y-171577000D02*
X74930000Y-179197000D01*
X88265000Y-143605000D02*
X88265000Y-158242000D01*
X88170000Y-143510000D02*
X88265000Y-143605000D01*
X74930000Y-179197000D02*
X74930000Y-199390000D01*
X82550000Y-163957000D02*
X82550000Y-171577000D01*
%TO.N,TELEM2_TX*%
X95435000Y-149135800D02*
X92424803Y-149135800D01*
X92161199Y-149399404D02*
X92161199Y-159471199D01*
X92424803Y-149135800D02*
X92161199Y-149399404D01*
X85888604Y-138245000D02*
X91253604Y-138245000D01*
X82170000Y-135890000D02*
X82296000Y-135890000D01*
X92710000Y-173355000D02*
X86360000Y-179705000D01*
X84733604Y-137090000D02*
X85888604Y-138245000D01*
X91253604Y-138245000D02*
X95435000Y-142426396D01*
X82296000Y-135890000D02*
X83496000Y-137090000D01*
X92161199Y-159471199D02*
X92710000Y-160020000D01*
X95435000Y-142426396D02*
X95435000Y-149135800D01*
X83496000Y-137090000D02*
X84733604Y-137090000D01*
X92710000Y-160020000D02*
X92710000Y-173355000D01*
%TO.N,Net-(U2-C1-)*%
X68179701Y-153965001D02*
X65890501Y-153965001D01*
X65890501Y-153965001D02*
X65595500Y-153670000D01*
%TO.N,Net-(U2-C1+)*%
X68109302Y-152735400D02*
X68179701Y-152665001D01*
X64403700Y-153210800D02*
X64403700Y-152785861D01*
X64454161Y-152735400D02*
X68109302Y-152735400D01*
X64403700Y-152785861D02*
X64454161Y-152735400D01*
X63944500Y-153670000D02*
X64403700Y-153210800D01*
%TO.N,Net-(U2-C2-)*%
X65595500Y-155575000D02*
X65905502Y-155264998D01*
X65905502Y-155264998D02*
X68179701Y-155264998D01*
%TO.N,Net-(U2-C2+)*%
X64753123Y-154614999D02*
X63944500Y-155423622D01*
X63944500Y-155423622D02*
X63944500Y-155575000D01*
X68179701Y-154614999D02*
X64753123Y-154614999D01*
%TO.N,Net-(U2-V+)*%
X69120000Y-153314999D02*
X69195000Y-153239999D01*
X68179701Y-153314999D02*
X69120000Y-153314999D01*
X69195000Y-153239999D02*
X69195000Y-152164601D01*
X68795399Y-151765000D02*
X65595500Y-151765000D01*
X69195000Y-152164601D02*
X68795399Y-151765000D01*
%TO.N,Net-(U2-V-)*%
X67160501Y-155914999D02*
X68179701Y-155914999D01*
X65595500Y-157480000D02*
X67160501Y-155914999D01*
%TO.N,+3.3V*%
X73194601Y-152665001D02*
X74060299Y-152665001D01*
X71882000Y-163703000D02*
X71882000Y-153977602D01*
X71882000Y-153977602D02*
X73194601Y-152665001D01*
X74295000Y-152430300D02*
X74060299Y-152665001D01*
X74295000Y-150495000D02*
X74295000Y-152430300D01*
X71120000Y-164465000D02*
X71882000Y-163703000D01*
%TO.N,Net-(U2-R1IN)*%
X78809100Y-154615002D02*
X74060299Y-154615002D01*
X79134098Y-154940000D02*
X78809100Y-154615002D01*
%TO.N,Net-(U2-T1OUT)*%
X79134098Y-153670000D02*
X78839097Y-153965001D01*
X78839097Y-153965001D02*
X74060299Y-153965001D01*
%TO.N,SCC_TX*%
X73045000Y-156064601D02*
X73194602Y-155914999D01*
X74930000Y-164084000D02*
X73045000Y-162199000D01*
X74930000Y-175895000D02*
X74930000Y-164084000D01*
X71120000Y-179705000D02*
X74930000Y-175895000D01*
X73045000Y-162199000D02*
X73045000Y-156064601D01*
X73194602Y-155914999D02*
X74060299Y-155914999D01*
%TO.N,SCC_RX*%
X73194598Y-155265001D02*
X72390000Y-156069599D01*
X74060299Y-155265001D02*
X73194598Y-155265001D01*
X72390000Y-175895000D02*
X68580000Y-179705000D01*
X72390000Y-156069599D02*
X72390000Y-175895000D01*
D36*
%TO.N,VID_PWR*%
X86360000Y-196850000D02*
X86360000Y-194310000D01*
X87630000Y-198120000D02*
X86360000Y-196850000D01*
X87630000Y-199390000D02*
X87630000Y-198120000D01*
D32*
%TO.N,TELEM2_RX*%
X92611199Y-159024200D02*
X92611199Y-149585800D01*
X88900000Y-179705000D02*
X95250000Y-173355000D01*
X92611199Y-149585800D02*
X95885000Y-149585800D01*
X95250000Y-161663001D02*
X92611199Y-159024200D01*
X95250000Y-173355000D02*
X95250000Y-161663001D01*
X95885000Y-142240000D02*
X91440000Y-137795000D01*
X86075000Y-137795000D02*
X84170000Y-135890000D01*
X95885000Y-149585800D02*
X95885000Y-142240000D01*
X91440000Y-137795000D02*
X86075000Y-137795000D01*
%TO.N,EXP_3*%
X69850000Y-199390000D02*
X69850000Y-194025000D01*
X69850000Y-194025000D02*
X68230000Y-192405000D01*
%TO.N,EXP_4*%
X72390000Y-199390000D02*
X72390000Y-194565000D01*
X72390000Y-194565000D02*
X70230000Y-192405000D01*
%TO.N,EXP_2*%
X67310000Y-193485000D02*
X66230000Y-192405000D01*
X67310000Y-199390000D02*
X67310000Y-193485000D01*
D33*
%TO.N,LOAD_CC*%
X103874493Y-186729293D02*
X103874493Y-198385507D01*
X102625500Y-132799596D02*
X102625500Y-185480300D01*
X102625500Y-185480300D02*
X103874493Y-186729293D01*
X98645904Y-128820000D02*
X102625500Y-132799596D01*
X84223835Y-128820000D02*
X98645904Y-128820000D01*
X103874493Y-198385507D02*
X102870000Y-199390000D01*
X65405000Y-117900000D02*
X73303835Y-117900000D01*
X73303835Y-117900000D02*
X84223835Y-128820000D01*
D32*
%TO.N,OSD_TX*%
X63500000Y-178435000D02*
X63500000Y-179070000D01*
X65222000Y-180792000D02*
X65222000Y-189413000D01*
X63500000Y-179070000D02*
X65222000Y-180792000D01*
X65222000Y-189413000D02*
X64135000Y-190500000D01*
X64135000Y-190500000D02*
X61595000Y-190500000D01*
X61595000Y-190500000D02*
X59690000Y-192405000D01*
X59690000Y-192405000D02*
X59690000Y-199390000D01*
%TO.N,EXP_1*%
X64770000Y-199390000D02*
X64770000Y-192945000D01*
X64770000Y-192945000D02*
X64230000Y-192405000D01*
%TO.N,OSD_RX*%
X62230000Y-196469000D02*
X62230000Y-199390000D01*
X64955000Y-190950000D02*
X61781396Y-190950000D01*
X61781396Y-190950000D02*
X60960698Y-191770698D01*
X60960698Y-195199698D02*
X62230000Y-196469000D01*
X60960698Y-191770698D02*
X60960698Y-195199698D01*
X66040000Y-181254400D02*
X66040000Y-189865000D01*
X66040000Y-189865000D02*
X64955000Y-190950000D01*
%TO.N,STRB_PWM*%
X82804000Y-192405000D02*
X82804000Y-182626000D01*
X82804000Y-182626000D02*
X83820000Y-181610000D01*
X83820000Y-181610000D02*
X83820000Y-179705000D01*
X82469587Y-192739413D02*
X82804000Y-192405000D01*
X82469587Y-194879208D02*
X82469587Y-192739413D01*
D34*
%TO.N,5V_AUX*%
X138430000Y-191770000D02*
X123190000Y-176530000D01*
X123190000Y-162771709D02*
X124460000Y-161501709D01*
X138430000Y-196850000D02*
X138430000Y-191770000D01*
X123190000Y-176530000D02*
X123190000Y-162771709D01*
X140970000Y-199390000D02*
X138430000Y-196850000D01*
D32*
%TO.N,GPS_SCL*%
X67945000Y-137922000D02*
X67945000Y-137700000D01*
X67945000Y-137700000D02*
X66135000Y-135890000D01*
X78493900Y-181144900D02*
X78740000Y-181391000D01*
X78740000Y-181391000D02*
X78740000Y-191008000D01*
%TO.N,GPS_SCA*%
X80792600Y-181157600D02*
X80772000Y-181178200D01*
X80772000Y-181178200D02*
X80772000Y-191008000D01*
%TO.N,VTX_SW*%
X89512700Y-181632300D02*
X91440000Y-179705000D01*
X89512700Y-185813700D02*
X89512700Y-181632300D01*
%TO.N,TELEM_SW*%
X125730000Y-173990000D02*
X125730000Y-170434000D01*
X136906000Y-185166000D02*
X125730000Y-173990000D01*
X136906000Y-185928000D02*
X136906000Y-185166000D01*
D33*
%TO.N,BATT_SW*%
X81280000Y-117900000D02*
X86920000Y-123540000D01*
X100832952Y-123540000D02*
X108108800Y-130815848D01*
X118110000Y-192734096D02*
X118110000Y-199390000D01*
X108108800Y-182732896D02*
X118110000Y-192734096D01*
X108108800Y-130815848D02*
X108108800Y-182732896D01*
X86920000Y-123540000D02*
X100832952Y-123540000D01*
%TO.N,BATT_CC*%
X113465000Y-180622048D02*
X113465000Y-128705000D01*
X102660000Y-117900000D02*
X96520000Y-117900000D01*
X125730000Y-199390000D02*
X125730000Y-192887048D01*
X125730000Y-192887048D02*
X113465000Y-180622048D01*
X113465000Y-128705000D02*
X102660000Y-117900000D01*
D32*
%TO.N,Net-(Q2-G)*%
X87183000Y-188053000D02*
X89026000Y-188053000D01*
X89512700Y-187566300D02*
X91635300Y-187566300D01*
X89026000Y-188053000D02*
X89512700Y-187566300D01*
X91635300Y-187566300D02*
X91694000Y-187625000D01*
%TO.N,Net-(Q2-D)*%
X92075000Y-194610000D02*
X89620000Y-194610000D01*
X88340000Y-192734000D02*
X86233000Y-190627000D01*
X89315000Y-194217000D02*
X88340000Y-193242000D01*
X89315000Y-194305000D02*
X89315000Y-194217000D01*
X89620000Y-194610000D02*
X89315000Y-194305000D01*
X86233000Y-190627000D02*
X86233000Y-190153000D01*
X88340000Y-193242000D02*
X88340000Y-192734000D01*
%TD*%
%TA.AperFunction,Conductor*%
%TO.N,GND*%
G36*
X100845709Y-191116542D02*
G01*
X100911646Y-191169122D01*
X100948241Y-191245105D01*
X100952993Y-191287278D01*
X100952993Y-196279000D01*
X100934227Y-196361221D01*
X100881644Y-196427157D01*
X100805661Y-196463749D01*
X100763493Y-196468500D01*
X99658787Y-196468500D01*
X99584635Y-196479304D01*
X99584634Y-196479305D01*
X99470257Y-196535222D01*
X99470252Y-196535225D01*
X99380225Y-196625252D01*
X99380222Y-196625257D01*
X99324305Y-196739634D01*
X99324304Y-196739635D01*
X99313500Y-196813787D01*
X99313500Y-201740500D01*
X99294734Y-201822721D01*
X99242151Y-201888657D01*
X99166168Y-201925249D01*
X99124000Y-201930000D01*
X91376000Y-201930000D01*
X91293779Y-201911234D01*
X91227843Y-201858651D01*
X91191251Y-201782668D01*
X91186500Y-201740500D01*
X91186500Y-196813798D01*
X91186499Y-196813787D01*
X91175695Y-196739635D01*
X91175694Y-196739634D01*
X91130621Y-196647438D01*
X91119776Y-196625254D01*
X91029746Y-196535224D01*
X91029742Y-196535222D01*
X90915365Y-196479305D01*
X90915364Y-196479304D01*
X90841212Y-196468500D01*
X90841206Y-196468500D01*
X89290593Y-196468500D01*
X89208372Y-196449734D01*
X89156596Y-196412997D01*
X88702003Y-195958404D01*
X88657134Y-195886995D01*
X88646500Y-195824407D01*
X88646500Y-195176000D01*
X88665266Y-195093779D01*
X88717849Y-195027843D01*
X88793832Y-194991251D01*
X88836000Y-194986500D01*
X89208340Y-194986500D01*
X89290561Y-195005266D01*
X89303090Y-195011888D01*
X89309000Y-195015300D01*
X89309001Y-195015301D01*
X89361138Y-195045402D01*
X89406341Y-195071500D01*
X89424494Y-195081981D01*
X89424495Y-195081981D01*
X89424498Y-195081983D01*
X89553318Y-195116500D01*
X89686681Y-195116500D01*
X90825237Y-195116500D01*
X90907458Y-195135266D01*
X90973394Y-195187849D01*
X90995481Y-195222770D01*
X91050223Y-195334745D01*
X91050224Y-195334746D01*
X91140254Y-195424776D01*
X91188037Y-195448136D01*
X91254634Y-195480694D01*
X91254635Y-195480695D01*
X91254637Y-195480695D01*
X91254639Y-195480696D01*
X91328794Y-195491500D01*
X91328799Y-195491500D01*
X92821201Y-195491500D01*
X92821206Y-195491500D01*
X92895361Y-195480696D01*
X92895362Y-195480695D01*
X92895364Y-195480695D01*
X92895365Y-195480694D01*
X93009746Y-195424776D01*
X93099776Y-195334746D01*
X93155696Y-195220361D01*
X93166500Y-195146206D01*
X93166500Y-194246000D01*
X93185266Y-194163779D01*
X93237849Y-194097843D01*
X93313832Y-194061251D01*
X93356000Y-194056500D01*
X96684072Y-194056500D01*
X96684073Y-194056499D01*
X97010140Y-194019760D01*
X97330050Y-193946743D01*
X97639771Y-193838367D01*
X97935411Y-193695994D01*
X98213252Y-193521415D01*
X98469799Y-193316826D01*
X100606826Y-191179799D01*
X100615335Y-191169127D01*
X100681267Y-191116547D01*
X100763487Y-191097778D01*
X100845709Y-191116542D01*
G37*
%TD.AperFunction*%
%TA.AperFunction,Conductor*%
G36*
X142689806Y-101854797D02*
G01*
X143000862Y-101872266D01*
X143021979Y-101874645D01*
X143101200Y-101888105D01*
X143323890Y-101925941D01*
X143344590Y-101930666D01*
X143638864Y-102015445D01*
X143658913Y-102022462D01*
X143941823Y-102139647D01*
X143960962Y-102148863D01*
X144109296Y-102230844D01*
X144228987Y-102296995D01*
X144246980Y-102308301D01*
X144496722Y-102485502D01*
X144513336Y-102498752D01*
X144741670Y-102702803D01*
X144756697Y-102717830D01*
X144960747Y-102946163D01*
X144973997Y-102962777D01*
X145151198Y-103212520D01*
X145162504Y-103230513D01*
X145310633Y-103498530D01*
X145319853Y-103517676D01*
X145437039Y-103800588D01*
X145444058Y-103820647D01*
X145528829Y-104114898D01*
X145533558Y-104135615D01*
X145584854Y-104437520D01*
X145587233Y-104458637D01*
X145604702Y-104769692D01*
X145605000Y-104780318D01*
X145605000Y-200476088D01*
X145586234Y-200558309D01*
X145549497Y-200610085D01*
X144849997Y-201309585D01*
X144778588Y-201354454D01*
X144694783Y-201363896D01*
X144615180Y-201336042D01*
X144555546Y-201276408D01*
X144527692Y-201196805D01*
X144526500Y-201175588D01*
X144526500Y-196813798D01*
X144526499Y-196813787D01*
X144515695Y-196739635D01*
X144515694Y-196739634D01*
X144470621Y-196647438D01*
X144459776Y-196625254D01*
X144369746Y-196535224D01*
X144369742Y-196535222D01*
X144255365Y-196479305D01*
X144255364Y-196479304D01*
X144181212Y-196468500D01*
X144181206Y-196468500D01*
X140462568Y-196468500D01*
X140380347Y-196449734D01*
X140328571Y-196412997D01*
X140137003Y-196221429D01*
X140092134Y-196150020D01*
X140081500Y-196087432D01*
X140081500Y-191640022D01*
X140052433Y-191456500D01*
X140040835Y-191383273D01*
X139960505Y-191136044D01*
X139852083Y-190923252D01*
X139842491Y-190904426D01*
X139842488Y-190904422D01*
X139689693Y-190694119D01*
X139505880Y-190510305D01*
X139505880Y-190510306D01*
X136320574Y-187325000D01*
X141225015Y-187325000D01*
X141244919Y-187565217D01*
X141244920Y-187565223D01*
X141304091Y-187798885D01*
X141304096Y-187798900D01*
X141326639Y-187850292D01*
X141400921Y-188019638D01*
X141532761Y-188221434D01*
X141532763Y-188221436D01*
X141532765Y-188221439D01*
X141696018Y-188398778D01*
X141696022Y-188398782D01*
X141772493Y-188458301D01*
X141886237Y-188546832D01*
X141970983Y-188592694D01*
X142098227Y-188661555D01*
X142098230Y-188661556D01*
X142098232Y-188661557D01*
X142326218Y-188739825D01*
X142326224Y-188739826D01*
X142563972Y-188779500D01*
X142563977Y-188779500D01*
X142805028Y-188779500D01*
X143002908Y-188746478D01*
X143042782Y-188739825D01*
X143270768Y-188661557D01*
X143283515Y-188654659D01*
X143327512Y-188630849D01*
X143482763Y-188546832D01*
X143672982Y-188398778D01*
X143836239Y-188221434D01*
X143968079Y-188019638D01*
X144064906Y-187798894D01*
X144124080Y-187565223D01*
X144143985Y-187325000D01*
X144124080Y-187084777D01*
X144064906Y-186851106D01*
X144062282Y-186845125D01*
X144007786Y-186720885D01*
X143968079Y-186630362D01*
X143836239Y-186428566D01*
X143836235Y-186428561D01*
X143836234Y-186428560D01*
X143677662Y-186256306D01*
X143672982Y-186251222D01*
X143672981Y-186251221D01*
X143672977Y-186251217D01*
X143546357Y-186152665D01*
X143482763Y-186103168D01*
X143468763Y-186095592D01*
X143270772Y-185988444D01*
X143042788Y-185910177D01*
X143042775Y-185910173D01*
X142805028Y-185870500D01*
X142805023Y-185870500D01*
X142563977Y-185870500D01*
X142563972Y-185870500D01*
X142326224Y-185910173D01*
X142326211Y-185910177D01*
X142098227Y-185988444D01*
X141886238Y-186103167D01*
X141696022Y-186251217D01*
X141696018Y-186251221D01*
X141532765Y-186428560D01*
X141400919Y-186630365D01*
X141304096Y-186851099D01*
X141304091Y-186851114D01*
X141244920Y-187084776D01*
X141244919Y-187084782D01*
X141225015Y-187325000D01*
X136320574Y-187325000D01*
X124897003Y-175901429D01*
X124852134Y-175830020D01*
X124841500Y-175767432D01*
X124841500Y-171117252D01*
X124860266Y-171035031D01*
X124912849Y-170969095D01*
X124988832Y-170932503D01*
X125073168Y-170932503D01*
X125149151Y-170969095D01*
X125164997Y-170983255D01*
X125167997Y-170986255D01*
X125212866Y-171057664D01*
X125223500Y-171120252D01*
X125223500Y-173911689D01*
X125223499Y-173911707D01*
X125223499Y-173923318D01*
X125223499Y-174056682D01*
X125249039Y-174151997D01*
X125257553Y-174183770D01*
X125257549Y-174183770D01*
X125257563Y-174183807D01*
X125258016Y-174185500D01*
X125324696Y-174300995D01*
X125324697Y-174300996D01*
X125324699Y-174300999D01*
X125419001Y-174395301D01*
X125419003Y-174395302D01*
X136245319Y-185221618D01*
X136290188Y-185293027D01*
X136299630Y-185376832D01*
X136271776Y-185456435D01*
X136191636Y-185583977D01*
X136191635Y-185583977D01*
X136132994Y-185751563D01*
X136113115Y-185928000D01*
X136132994Y-186104436D01*
X136191635Y-186272020D01*
X136286098Y-186422356D01*
X136411644Y-186547902D01*
X136561980Y-186642365D01*
X136729566Y-186701006D01*
X136906000Y-186720885D01*
X137082434Y-186701006D01*
X137250020Y-186642365D01*
X137400356Y-186547902D01*
X137525902Y-186422356D01*
X137620365Y-186272020D01*
X137679006Y-186104434D01*
X137698885Y-185928000D01*
X137679006Y-185751566D01*
X137620365Y-185583980D01*
X137525902Y-185433644D01*
X137468004Y-185375746D01*
X137423135Y-185304337D01*
X137412501Y-185241749D01*
X137412501Y-185099320D01*
X137410680Y-185092525D01*
X137391528Y-185021049D01*
X137377983Y-184970498D01*
X137311303Y-184855004D01*
X137311302Y-184855003D01*
X137311301Y-184855001D01*
X137292600Y-184836300D01*
X137210398Y-184754097D01*
X137210375Y-184754076D01*
X126292003Y-173835704D01*
X126247134Y-173764295D01*
X126236500Y-173701707D01*
X126236500Y-171120252D01*
X126255266Y-171038031D01*
X126292003Y-170986255D01*
X126309163Y-170969095D01*
X126349902Y-170928356D01*
X126444365Y-170778020D01*
X126503006Y-170610434D01*
X126522885Y-170434000D01*
X126503006Y-170257566D01*
X126444365Y-170089980D01*
X126349902Y-169939644D01*
X126224356Y-169814098D01*
X126074020Y-169719635D01*
X125906436Y-169660994D01*
X125730000Y-169641115D01*
X125553563Y-169660994D01*
X125385979Y-169719635D01*
X125235642Y-169814099D01*
X125164997Y-169884745D01*
X125093588Y-169929614D01*
X125009783Y-169939056D01*
X124930180Y-169911202D01*
X124870546Y-169851568D01*
X124842692Y-169771965D01*
X124841500Y-169750748D01*
X124841500Y-163534277D01*
X124860266Y-163452056D01*
X124897003Y-163400280D01*
X125301132Y-162996151D01*
X125719694Y-162577589D01*
X125872489Y-162367284D01*
X125990505Y-162135665D01*
X126070835Y-161888436D01*
X126111500Y-161631685D01*
X126111500Y-161371733D01*
X126108374Y-161351998D01*
X126092390Y-161251077D01*
X126070835Y-161114982D01*
X125990505Y-160867753D01*
X125872489Y-160636134D01*
X125821557Y-160566032D01*
X125719696Y-160425831D01*
X125535877Y-160242012D01*
X125325575Y-160089220D01*
X125325572Y-160089218D01*
X125160155Y-160004934D01*
X125113883Y-159966304D01*
X125112463Y-159967725D01*
X125096674Y-159951936D01*
X125095415Y-159950885D01*
X125095241Y-159950503D01*
X124462047Y-159317309D01*
X124506816Y-159317309D01*
X124597256Y-159293075D01*
X124678343Y-159246259D01*
X124744550Y-159180052D01*
X124791366Y-159098965D01*
X124815600Y-159008525D01*
X124815600Y-158963756D01*
X125404319Y-159552475D01*
X125407443Y-159548339D01*
X125499101Y-159364265D01*
X125555378Y-159166475D01*
X125574353Y-158961709D01*
X125555378Y-158756942D01*
X125499101Y-158559149D01*
X125407447Y-158375084D01*
X125407447Y-158375083D01*
X125404319Y-158370942D01*
X124815600Y-158959661D01*
X124815600Y-158914893D01*
X124791366Y-158824453D01*
X124744550Y-158743366D01*
X124678343Y-158677159D01*
X124597256Y-158630343D01*
X124506816Y-158606109D01*
X124462046Y-158606109D01*
X125047660Y-158020493D01*
X124956710Y-157964180D01*
X124764949Y-157889892D01*
X124562822Y-157852109D01*
X124357178Y-157852109D01*
X124155050Y-157889892D01*
X123963290Y-157964179D01*
X123872338Y-158020493D01*
X124457954Y-158606109D01*
X124413184Y-158606109D01*
X124322744Y-158630343D01*
X124241657Y-158677159D01*
X124175450Y-158743366D01*
X124128634Y-158824453D01*
X124104400Y-158914893D01*
X124104400Y-158959663D01*
X123515678Y-158370941D01*
X123512558Y-158375073D01*
X123420897Y-158559154D01*
X123364621Y-158756942D01*
X123345646Y-158961709D01*
X123364621Y-159166475D01*
X123420898Y-159364265D01*
X123512555Y-159548337D01*
X123512559Y-159548344D01*
X123515678Y-159552475D01*
X123515679Y-159552475D01*
X124104400Y-158963754D01*
X124104400Y-159008525D01*
X124128634Y-159098965D01*
X124175450Y-159180052D01*
X124241657Y-159246259D01*
X124322744Y-159293075D01*
X124413184Y-159317309D01*
X124457953Y-159317309D01*
X123812577Y-159962683D01*
X123808206Y-159969687D01*
X123759844Y-160004933D01*
X123594432Y-160089215D01*
X123594424Y-160089220D01*
X123384122Y-160242012D01*
X121989997Y-161636138D01*
X121918588Y-161681007D01*
X121834783Y-161690449D01*
X121755180Y-161662595D01*
X121695546Y-161602961D01*
X121667692Y-161523358D01*
X121666500Y-161502141D01*
X121666500Y-156421703D01*
X123464104Y-156421703D01*
X123464104Y-156421714D01*
X123483239Y-156615998D01*
X123539908Y-156802813D01*
X123539912Y-156802822D01*
X123620229Y-156953084D01*
X123631944Y-156975000D01*
X123631947Y-156975005D01*
X123755792Y-157125911D01*
X123755797Y-157125916D01*
X123906703Y-157249761D01*
X123906706Y-157249763D01*
X123906710Y-157249766D01*
X124078887Y-157341797D01*
X124078890Y-157341798D01*
X124078895Y-157341800D01*
X124265710Y-157398469D01*
X124459994Y-157417605D01*
X124460000Y-157417605D01*
X124460006Y-157417605D01*
X124626534Y-157401202D01*
X124654290Y-157398469D01*
X124753148Y-157368480D01*
X124841104Y-157341800D01*
X124841105Y-157341799D01*
X124841113Y-157341797D01*
X125013290Y-157249766D01*
X125164205Y-157125914D01*
X125288057Y-156974999D01*
X125380088Y-156802822D01*
X125385730Y-156784225D01*
X125436760Y-156615998D01*
X125455896Y-156421714D01*
X125455896Y-156421703D01*
X125436760Y-156227419D01*
X125380091Y-156040604D01*
X125380089Y-156040599D01*
X125380088Y-156040596D01*
X125288057Y-155868419D01*
X125288054Y-155868415D01*
X125288052Y-155868412D01*
X125164207Y-155717506D01*
X125164202Y-155717501D01*
X125013296Y-155593656D01*
X125013291Y-155593653D01*
X125013290Y-155593652D01*
X124841113Y-155501621D01*
X124841104Y-155501617D01*
X124654289Y-155444948D01*
X124460006Y-155425813D01*
X124459994Y-155425813D01*
X124265710Y-155444948D01*
X124078895Y-155501617D01*
X124078886Y-155501621D01*
X123906708Y-155593653D01*
X123906703Y-155593656D01*
X123755797Y-155717501D01*
X123755792Y-155717506D01*
X123631947Y-155868412D01*
X123631944Y-155868417D01*
X123539912Y-156040595D01*
X123539908Y-156040604D01*
X123483239Y-156227419D01*
X123464104Y-156421703D01*
X121666500Y-156421703D01*
X121666500Y-126353879D01*
X121666499Y-126353877D01*
X121629760Y-126027812D01*
X121556743Y-125707903D01*
X121448367Y-125398181D01*
X121305994Y-125102541D01*
X121305993Y-125102540D01*
X121305992Y-125102537D01*
X121131420Y-124824707D01*
X121131417Y-124824703D01*
X120926828Y-124568156D01*
X120926823Y-124568150D01*
X120694799Y-124336125D01*
X120694799Y-124336126D01*
X115037606Y-118678933D01*
X114992737Y-118607524D01*
X114983295Y-118523719D01*
X114984590Y-118514339D01*
X115027055Y-118255314D01*
X115046320Y-117900000D01*
X124983680Y-117900000D01*
X125002945Y-118255314D01*
X125060512Y-118606462D01*
X125155708Y-118949327D01*
X125287417Y-119279890D01*
X125454093Y-119594275D01*
X125653783Y-119888796D01*
X125884146Y-120160000D01*
X125884151Y-120160005D01*
X125884153Y-120160007D01*
X126142479Y-120404706D01*
X126425757Y-120620049D01*
X126425770Y-120620058D01*
X126730646Y-120803495D01*
X126730669Y-120803508D01*
X127053606Y-120952914D01*
X127053604Y-120952914D01*
X127230462Y-121012504D01*
X127390816Y-121066534D01*
X127738333Y-121143028D01*
X128092082Y-121181500D01*
X128092085Y-121181500D01*
X128447915Y-121181500D01*
X128447918Y-121181500D01*
X128801667Y-121143028D01*
X129149184Y-121066534D01*
X129486392Y-120952915D01*
X129650473Y-120877003D01*
X129809330Y-120803508D01*
X129809333Y-120803505D01*
X129809340Y-120803503D01*
X129906404Y-120745101D01*
X130114229Y-120620058D01*
X130114233Y-120620055D01*
X130114240Y-120620051D01*
X130397518Y-120404708D01*
X130655854Y-120160000D01*
X130886217Y-119888796D01*
X131085907Y-119594275D01*
X131252583Y-119279890D01*
X131384292Y-118949327D01*
X131479488Y-118606462D01*
X131537055Y-118255314D01*
X131556320Y-117900000D01*
X131537055Y-117544686D01*
X131479488Y-117193538D01*
X131384292Y-116850673D01*
X131252583Y-116520110D01*
X131085907Y-116205725D01*
X130886217Y-115911204D01*
X130655854Y-115640000D01*
X130655846Y-115639992D01*
X130397520Y-115395293D01*
X130114242Y-115179950D01*
X130114229Y-115179941D01*
X129809353Y-114996504D01*
X129809330Y-114996491D01*
X129486393Y-114847085D01*
X129486395Y-114847085D01*
X129149188Y-114733467D01*
X129149185Y-114733466D01*
X129010961Y-114703041D01*
X128801667Y-114656972D01*
X128801662Y-114656971D01*
X128801660Y-114656971D01*
X128447921Y-114618500D01*
X128447918Y-114618500D01*
X128092082Y-114618500D01*
X128092078Y-114618500D01*
X127738339Y-114656971D01*
X127738335Y-114656971D01*
X127738333Y-114656972D01*
X127591873Y-114689210D01*
X127390814Y-114733466D01*
X127390811Y-114733467D01*
X127053605Y-114847085D01*
X126730669Y-114996491D01*
X126730646Y-114996504D01*
X126425770Y-115179941D01*
X126425757Y-115179950D01*
X126142479Y-115395293D01*
X125884153Y-115639992D01*
X125653780Y-115911207D01*
X125454094Y-116205723D01*
X125454093Y-116205725D01*
X125287417Y-116520110D01*
X125155708Y-116850673D01*
X125060512Y-117193538D01*
X125002945Y-117544686D01*
X124983680Y-117900000D01*
X115046320Y-117900000D01*
X115027055Y-117544686D01*
X114969488Y-117193538D01*
X114874292Y-116850673D01*
X114742583Y-116520110D01*
X114575907Y-116205725D01*
X114376217Y-115911204D01*
X114145854Y-115640000D01*
X114145846Y-115639992D01*
X113887520Y-115395293D01*
X113604242Y-115179950D01*
X113604229Y-115179941D01*
X113299353Y-114996504D01*
X113299330Y-114996491D01*
X112976393Y-114847085D01*
X112976395Y-114847085D01*
X112639188Y-114733467D01*
X112639185Y-114733466D01*
X112500961Y-114703041D01*
X112291667Y-114656972D01*
X112291662Y-114656971D01*
X112291660Y-114656971D01*
X111937921Y-114618500D01*
X111937918Y-114618500D01*
X111582082Y-114618500D01*
X111582078Y-114618500D01*
X111228339Y-114656971D01*
X111228335Y-114656971D01*
X111228333Y-114656972D01*
X111081873Y-114689210D01*
X110880814Y-114733466D01*
X110880811Y-114733467D01*
X110543605Y-114847085D01*
X110220669Y-114996491D01*
X110220646Y-114996504D01*
X109915770Y-115179941D01*
X109915757Y-115179950D01*
X109632479Y-115395293D01*
X109374153Y-115639992D01*
X109143780Y-115911207D01*
X108944094Y-116205723D01*
X108944093Y-116205725D01*
X108777417Y-116520110D01*
X108645708Y-116850673D01*
X108550512Y-117193538D01*
X108492945Y-117544686D01*
X108473680Y-117900000D01*
X108492945Y-118255314D01*
X108550512Y-118606462D01*
X108645708Y-118949327D01*
X108645711Y-118949334D01*
X108777418Y-119279893D01*
X108816425Y-119353467D01*
X108838358Y-119434901D01*
X108838500Y-119442231D01*
X108838500Y-119489381D01*
X108819734Y-119571602D01*
X108767151Y-119637538D01*
X108691168Y-119674130D01*
X108606832Y-119674130D01*
X108530849Y-119637538D01*
X108515003Y-119623378D01*
X106722545Y-117830920D01*
X104609799Y-115718174D01*
X104592968Y-115704752D01*
X104353248Y-115513582D01*
X104353244Y-115513579D01*
X104075414Y-115339007D01*
X103921201Y-115264742D01*
X103779771Y-115196633D01*
X103779767Y-115196631D01*
X103779766Y-115196631D01*
X103470048Y-115088256D01*
X103470044Y-115088255D01*
X103150141Y-115015240D01*
X103150134Y-115015239D01*
X102824074Y-114978500D01*
X102824068Y-114978500D01*
X98062151Y-114978500D01*
X97982582Y-114960985D01*
X97736393Y-114847085D01*
X97736395Y-114847085D01*
X97399188Y-114733467D01*
X97399185Y-114733466D01*
X97260961Y-114703041D01*
X97051667Y-114656972D01*
X97051662Y-114656971D01*
X97051660Y-114656971D01*
X96697921Y-114618500D01*
X96697918Y-114618500D01*
X96342082Y-114618500D01*
X96342078Y-114618500D01*
X95988339Y-114656971D01*
X95988335Y-114656971D01*
X95988333Y-114656972D01*
X95841873Y-114689210D01*
X95640814Y-114733466D01*
X95640811Y-114733467D01*
X95303605Y-114847085D01*
X94980669Y-114996491D01*
X94980646Y-114996504D01*
X94675770Y-115179941D01*
X94675757Y-115179950D01*
X94392479Y-115395293D01*
X94134153Y-115639992D01*
X93903780Y-115911207D01*
X93704094Y-116205723D01*
X93704093Y-116205725D01*
X93537417Y-116520110D01*
X93405708Y-116850673D01*
X93310512Y-117193538D01*
X93252945Y-117544686D01*
X93233680Y-117900000D01*
X93252945Y-118255314D01*
X93310512Y-118606462D01*
X93405708Y-118949327D01*
X93537417Y-119279890D01*
X93704093Y-119594275D01*
X93903783Y-119888796D01*
X94134146Y-120160000D01*
X94272890Y-120291425D01*
X94319675Y-120361591D01*
X94331384Y-120445110D01*
X94305696Y-120525438D01*
X94247699Y-120586665D01*
X94168879Y-120616665D01*
X94142570Y-120618500D01*
X88208619Y-120618500D01*
X88126398Y-120599734D01*
X88074622Y-120562997D01*
X84441846Y-116930221D01*
X84396977Y-116858812D01*
X84395952Y-116855542D01*
X84395935Y-116855548D01*
X84394293Y-116850677D01*
X84394292Y-116850673D01*
X84262583Y-116520110D01*
X84095907Y-116205725D01*
X83896217Y-115911204D01*
X83665854Y-115640000D01*
X83665846Y-115639992D01*
X83407520Y-115395293D01*
X83124242Y-115179950D01*
X83124229Y-115179941D01*
X82819353Y-114996504D01*
X82819330Y-114996491D01*
X82496393Y-114847085D01*
X82496395Y-114847085D01*
X82159188Y-114733467D01*
X82159185Y-114733466D01*
X82020961Y-114703041D01*
X81811667Y-114656972D01*
X81811662Y-114656971D01*
X81811660Y-114656971D01*
X81457921Y-114618500D01*
X81457918Y-114618500D01*
X81102082Y-114618500D01*
X81102078Y-114618500D01*
X80748339Y-114656971D01*
X80748335Y-114656971D01*
X80748333Y-114656972D01*
X80601873Y-114689210D01*
X80400814Y-114733466D01*
X80400811Y-114733467D01*
X80063605Y-114847085D01*
X79740669Y-114996491D01*
X79740646Y-114996504D01*
X79435770Y-115179941D01*
X79435757Y-115179950D01*
X79152479Y-115395293D01*
X78894153Y-115639992D01*
X78663780Y-115911207D01*
X78464094Y-116205723D01*
X78464093Y-116205725D01*
X78297417Y-116520110D01*
X78165708Y-116850673D01*
X78070512Y-117193538D01*
X78044002Y-117355248D01*
X78012945Y-117544688D01*
X77993680Y-117899998D01*
X77993680Y-117900002D01*
X77998882Y-117995947D01*
X77984595Y-118079063D01*
X77935659Y-118147749D01*
X77861768Y-118188401D01*
X77777556Y-118192967D01*
X77699703Y-118160542D01*
X77675663Y-118140203D01*
X76465681Y-116930221D01*
X75253634Y-115718174D01*
X75236803Y-115704752D01*
X74997083Y-115513582D01*
X74997079Y-115513579D01*
X74719249Y-115339007D01*
X74565036Y-115264742D01*
X74423606Y-115196633D01*
X74423602Y-115196631D01*
X74423601Y-115196631D01*
X74113883Y-115088256D01*
X74113879Y-115088255D01*
X73793976Y-115015240D01*
X73793969Y-115015239D01*
X73467909Y-114978500D01*
X73467903Y-114978500D01*
X66947151Y-114978500D01*
X66867582Y-114960985D01*
X66621393Y-114847085D01*
X66621395Y-114847085D01*
X66284188Y-114733467D01*
X66284185Y-114733466D01*
X66145961Y-114703041D01*
X65936667Y-114656972D01*
X65936662Y-114656971D01*
X65936660Y-114656971D01*
X65582921Y-114618500D01*
X65582918Y-114618500D01*
X65227082Y-114618500D01*
X65227078Y-114618500D01*
X64873339Y-114656971D01*
X64873335Y-114656971D01*
X64873333Y-114656972D01*
X64726873Y-114689210D01*
X64525814Y-114733466D01*
X64525811Y-114733467D01*
X64188605Y-114847085D01*
X63865669Y-114996491D01*
X63865646Y-114996504D01*
X63560770Y-115179941D01*
X63560757Y-115179950D01*
X63277479Y-115395293D01*
X63019153Y-115639992D01*
X62788780Y-115911207D01*
X62589094Y-116205723D01*
X62589093Y-116205725D01*
X62422417Y-116520110D01*
X62290708Y-116850673D01*
X62195512Y-117193538D01*
X62137945Y-117544686D01*
X62118680Y-117900000D01*
X62137945Y-118255314D01*
X62195512Y-118606462D01*
X62290708Y-118949327D01*
X62422417Y-119279890D01*
X62589093Y-119594275D01*
X62788783Y-119888796D01*
X63019146Y-120160000D01*
X63019151Y-120160005D01*
X63019153Y-120160007D01*
X63277479Y-120404706D01*
X63560757Y-120620049D01*
X63560770Y-120620058D01*
X63865646Y-120803495D01*
X63865669Y-120803508D01*
X64188606Y-120952914D01*
X64188604Y-120952914D01*
X64365462Y-121012504D01*
X64525816Y-121066534D01*
X64873333Y-121143028D01*
X65227082Y-121181500D01*
X65227085Y-121181500D01*
X65582915Y-121181500D01*
X65582918Y-121181500D01*
X65936667Y-121143028D01*
X66284184Y-121066534D01*
X66621392Y-120952915D01*
X66867582Y-120839014D01*
X66947151Y-120821500D01*
X72015216Y-120821500D01*
X72097437Y-120840266D01*
X72149213Y-120877003D01*
X82274036Y-131001826D01*
X82274040Y-131001829D01*
X82274041Y-131001830D01*
X82530586Y-131206417D01*
X82530590Y-131206420D01*
X82808424Y-131380994D01*
X83104063Y-131523367D01*
X83413785Y-131631743D01*
X83733695Y-131704760D01*
X84059760Y-131741499D01*
X84059763Y-131741500D01*
X84059767Y-131741500D01*
X84387903Y-131741500D01*
X97357285Y-131741500D01*
X97439506Y-131760266D01*
X97491282Y-131797003D01*
X99648497Y-133954218D01*
X99693366Y-134025627D01*
X99704000Y-134088215D01*
X99704000Y-138980206D01*
X99685234Y-139062427D01*
X99632651Y-139128363D01*
X99556668Y-139164955D01*
X99472332Y-139164955D01*
X99396349Y-139128363D01*
X99380503Y-139114203D01*
X99294386Y-139028086D01*
X99294375Y-139028076D01*
X99100645Y-138834346D01*
X99055776Y-138762937D01*
X99045727Y-138685471D01*
X99046500Y-138675660D01*
X99046500Y-137804340D01*
X99043617Y-137767710D01*
X98998075Y-137610953D01*
X98914980Y-137470447D01*
X98799553Y-137355020D01*
X98693416Y-137292251D01*
X98659049Y-137271926D01*
X98659048Y-137271925D01*
X98659047Y-137271925D01*
X98502290Y-137226383D01*
X98465660Y-137223500D01*
X97114340Y-137223500D01*
X97096025Y-137224941D01*
X97077709Y-137226383D01*
X96985787Y-137253089D01*
X96928495Y-137269734D01*
X96920950Y-137271926D01*
X96780449Y-137355018D01*
X96665018Y-137470449D01*
X96581926Y-137610950D01*
X96581925Y-137610952D01*
X96581925Y-137610953D01*
X96536383Y-137767710D01*
X96533500Y-137804340D01*
X96533500Y-138675660D01*
X96536383Y-138712290D01*
X96581925Y-138869047D01*
X96665020Y-139009553D01*
X96780447Y-139124980D01*
X96780449Y-139124981D01*
X96780451Y-139124983D01*
X96825484Y-139151615D01*
X96851066Y-139166743D01*
X96912284Y-139224749D01*
X96942272Y-139303573D01*
X96935090Y-139387602D01*
X96892160Y-139460193D01*
X96888600Y-139463850D01*
X96760432Y-139592018D01*
X96649189Y-139758506D01*
X96572563Y-139943498D01*
X96533500Y-140139884D01*
X96533500Y-140340115D01*
X96572563Y-140536501D01*
X96649189Y-140721493D01*
X96760431Y-140887979D01*
X96906307Y-141033855D01*
X96951176Y-141105264D01*
X96960618Y-141189069D01*
X96932764Y-141268672D01*
X96883695Y-141321161D01*
X96810599Y-141374267D01*
X96684267Y-141500599D01*
X96579261Y-141645129D01*
X96579256Y-141645137D01*
X96504318Y-141792211D01*
X96450270Y-141856950D01*
X96373484Y-141891828D01*
X96289170Y-141889935D01*
X96214026Y-141851647D01*
X96201476Y-141840176D01*
X96189386Y-141828086D01*
X96189375Y-141828076D01*
X91845302Y-137484003D01*
X91845301Y-137484001D01*
X91750999Y-137389699D01*
X91704220Y-137362691D01*
X91635503Y-137323017D01*
X91592562Y-137311511D01*
X91506682Y-137288499D01*
X91373318Y-137288499D01*
X91361706Y-137288499D01*
X91361690Y-137288500D01*
X91074127Y-137288500D01*
X90991906Y-137269734D01*
X90925970Y-137217151D01*
X90889378Y-137141168D01*
X90889378Y-137056832D01*
X90925970Y-136980849D01*
X90940130Y-136965003D01*
X91035732Y-136869400D01*
X91140738Y-136724870D01*
X91140740Y-136724867D01*
X91221843Y-136565692D01*
X91221846Y-136565685D01*
X91277052Y-136395783D01*
X91277052Y-136395782D01*
X91305000Y-136219327D01*
X91305000Y-136140001D01*
X91304999Y-136140000D01*
X90450330Y-136140000D01*
X90470075Y-136120255D01*
X90519444Y-136034745D01*
X90545000Y-135939370D01*
X90545000Y-135840630D01*
X90519444Y-135745255D01*
X90470075Y-135659745D01*
X90450330Y-135640000D01*
X91304999Y-135640000D01*
X91305000Y-135639999D01*
X91305000Y-135560672D01*
X91277052Y-135384217D01*
X91277052Y-135384216D01*
X91221846Y-135214314D01*
X91221843Y-135214307D01*
X91140740Y-135055132D01*
X91140738Y-135055129D01*
X91035732Y-134910599D01*
X90909400Y-134784267D01*
X90764870Y-134679261D01*
X90764867Y-134679259D01*
X90605692Y-134598156D01*
X90605685Y-134598153D01*
X90435780Y-134542947D01*
X90420000Y-134540447D01*
X90420000Y-135609670D01*
X90400255Y-135589925D01*
X90314745Y-135540556D01*
X90219370Y-135515000D01*
X90120630Y-135515000D01*
X90025255Y-135540556D01*
X89939745Y-135589925D01*
X89920000Y-135609670D01*
X89920000Y-134540447D01*
X89904219Y-134542947D01*
X89734314Y-134598153D01*
X89734307Y-134598156D01*
X89575132Y-134679259D01*
X89575129Y-134679261D01*
X89430599Y-134784267D01*
X89304267Y-134910599D01*
X89251161Y-134983695D01*
X89187651Y-135039182D01*
X89106355Y-135061619D01*
X89023374Y-135046561D01*
X88963855Y-135006307D01*
X88817979Y-134860431D01*
X88651493Y-134749189D01*
X88466501Y-134672563D01*
X88270116Y-134633500D01*
X88069884Y-134633500D01*
X87873498Y-134672563D01*
X87688506Y-134749189D01*
X87522020Y-134860431D01*
X87380431Y-135002020D01*
X87327564Y-135081143D01*
X87266281Y-135139081D01*
X87185928Y-135164692D01*
X87102421Y-135152903D01*
X87032298Y-135106049D01*
X87012436Y-135081143D01*
X86959568Y-135002020D01*
X86817979Y-134860431D01*
X86651493Y-134749189D01*
X86466501Y-134672563D01*
X86270116Y-134633500D01*
X86069884Y-134633500D01*
X85873498Y-134672563D01*
X85688506Y-134749189D01*
X85522020Y-134860431D01*
X85380431Y-135002020D01*
X85327564Y-135081143D01*
X85266281Y-135139081D01*
X85185928Y-135164692D01*
X85102421Y-135152903D01*
X85032298Y-135106049D01*
X85012436Y-135081143D01*
X84959568Y-135002020D01*
X84817979Y-134860431D01*
X84651493Y-134749189D01*
X84466501Y-134672563D01*
X84270116Y-134633500D01*
X84069884Y-134633500D01*
X83873498Y-134672563D01*
X83688506Y-134749189D01*
X83522020Y-134860431D01*
X83380431Y-135002020D01*
X83327564Y-135081143D01*
X83266281Y-135139081D01*
X83185928Y-135164692D01*
X83102421Y-135152903D01*
X83032298Y-135106049D01*
X83012436Y-135081143D01*
X82959568Y-135002020D01*
X82817979Y-134860431D01*
X82651493Y-134749189D01*
X82466501Y-134672563D01*
X82270116Y-134633500D01*
X82069884Y-134633500D01*
X81873498Y-134672563D01*
X81688506Y-134749189D01*
X81522019Y-134860432D01*
X81453403Y-134929048D01*
X81381994Y-134973916D01*
X81298188Y-134983358D01*
X81218586Y-134955504D01*
X81185410Y-134929047D01*
X81080410Y-134824047D01*
X80902450Y-134694751D01*
X80706464Y-134594890D01*
X80706456Y-134594887D01*
X80706454Y-134594886D01*
X80654152Y-134577892D01*
X80497252Y-134526911D01*
X80279986Y-134492500D01*
X80060014Y-134492500D01*
X79842747Y-134526911D01*
X79633546Y-134594886D01*
X79633535Y-134594890D01*
X79437549Y-134694751D01*
X79259589Y-134824047D01*
X79104047Y-134979589D01*
X78974751Y-135157549D01*
X78874890Y-135353535D01*
X78874886Y-135353546D01*
X78806911Y-135562747D01*
X78772500Y-135780013D01*
X78772500Y-138113000D01*
X78753734Y-138195221D01*
X78701151Y-138261157D01*
X78625168Y-138297749D01*
X78583000Y-138302500D01*
X68907064Y-138302500D01*
X68824843Y-138283734D01*
X68758907Y-138231151D01*
X68722315Y-138155168D01*
X68718755Y-138091783D01*
X68737885Y-137922000D01*
X68718006Y-137745566D01*
X68659365Y-137577980D01*
X68564902Y-137427644D01*
X68499949Y-137362691D01*
X68455080Y-137291282D01*
X68445638Y-137207477D01*
X68473492Y-137127874D01*
X68533126Y-137068240D01*
X68561428Y-137053619D01*
X68590173Y-137041712D01*
X68616493Y-137030810D01*
X68782981Y-136919567D01*
X68924567Y-136777981D01*
X68928855Y-136773693D01*
X69000264Y-136728823D01*
X69084069Y-136719380D01*
X69163672Y-136747234D01*
X69216162Y-136796305D01*
X69269268Y-136869401D01*
X69395599Y-136995732D01*
X69540129Y-137100738D01*
X69540132Y-137100740D01*
X69699307Y-137181843D01*
X69699314Y-137181846D01*
X69869220Y-137237052D01*
X69885000Y-137239551D01*
X69885000Y-136170330D01*
X69904745Y-136190075D01*
X69990255Y-136239444D01*
X70085630Y-136265000D01*
X70184370Y-136265000D01*
X70279745Y-136239444D01*
X70365255Y-136190075D01*
X70385000Y-136170330D01*
X70385000Y-137239551D01*
X70400779Y-137237052D01*
X70570685Y-137181846D01*
X70570692Y-137181843D01*
X70729867Y-137100740D01*
X70729870Y-137100738D01*
X70874400Y-136995732D01*
X71000732Y-136869400D01*
X71105738Y-136724870D01*
X71105740Y-136724867D01*
X71186843Y-136565692D01*
X71186846Y-136565685D01*
X71242052Y-136395783D01*
X71242052Y-136395782D01*
X71270000Y-136219327D01*
X71270000Y-136140001D01*
X71269999Y-136140000D01*
X70415330Y-136140000D01*
X70435075Y-136120255D01*
X70484444Y-136034745D01*
X70510000Y-135939370D01*
X70510000Y-135840630D01*
X70484444Y-135745255D01*
X70435075Y-135659745D01*
X70415330Y-135640000D01*
X71269999Y-135640000D01*
X71270000Y-135639999D01*
X71270000Y-135560672D01*
X71242052Y-135384217D01*
X71242052Y-135384216D01*
X71186846Y-135214314D01*
X71186843Y-135214307D01*
X71105740Y-135055132D01*
X71105738Y-135055129D01*
X71000732Y-134910599D01*
X70874400Y-134784267D01*
X70729870Y-134679261D01*
X70729867Y-134679259D01*
X70570692Y-134598156D01*
X70570685Y-134598153D01*
X70400780Y-134542947D01*
X70385000Y-134540447D01*
X70385000Y-135609670D01*
X70365255Y-135589925D01*
X70279745Y-135540556D01*
X70184370Y-135515000D01*
X70085630Y-135515000D01*
X69990255Y-135540556D01*
X69904745Y-135589925D01*
X69885000Y-135609670D01*
X69885000Y-134540447D01*
X69869219Y-134542947D01*
X69699314Y-134598153D01*
X69699307Y-134598156D01*
X69540132Y-134679259D01*
X69540129Y-134679261D01*
X69395599Y-134784267D01*
X69269267Y-134910599D01*
X69216161Y-134983695D01*
X69152651Y-135039182D01*
X69071355Y-135061619D01*
X68988374Y-135046561D01*
X68928855Y-135006307D01*
X68782979Y-134860431D01*
X68616493Y-134749189D01*
X68431501Y-134672563D01*
X68235116Y-134633500D01*
X68034884Y-134633500D01*
X67838498Y-134672563D01*
X67653506Y-134749189D01*
X67487020Y-134860431D01*
X67345431Y-135002020D01*
X67292564Y-135081143D01*
X67231281Y-135139081D01*
X67150928Y-135164692D01*
X67067421Y-135152903D01*
X66997298Y-135106049D01*
X66977436Y-135081143D01*
X66924568Y-135002020D01*
X66782979Y-134860431D01*
X66616493Y-134749189D01*
X66431501Y-134672563D01*
X66235116Y-134633500D01*
X66034884Y-134633500D01*
X65838498Y-134672563D01*
X65653506Y-134749189D01*
X65487019Y-134860432D01*
X65418403Y-134929048D01*
X65346994Y-134973916D01*
X65263188Y-134983358D01*
X65183586Y-134955504D01*
X65150410Y-134929047D01*
X65045410Y-134824047D01*
X64867450Y-134694751D01*
X64671464Y-134594890D01*
X64671456Y-134594887D01*
X64671454Y-134594886D01*
X64619152Y-134577892D01*
X64462252Y-134526911D01*
X64244986Y-134492500D01*
X61531000Y-134492500D01*
X61448779Y-134473734D01*
X61382843Y-134421151D01*
X61346251Y-134345168D01*
X61341500Y-134303000D01*
X61341500Y-129857000D01*
X61360266Y-129774779D01*
X61412849Y-129708843D01*
X61488832Y-129672251D01*
X61531000Y-129667500D01*
X64244986Y-129667500D01*
X64462249Y-129633089D01*
X64671454Y-129565114D01*
X64867449Y-129465249D01*
X65045410Y-129335953D01*
X65150410Y-129230953D01*
X65221818Y-129186083D01*
X65305623Y-129176640D01*
X65385226Y-129204494D01*
X65418404Y-129230952D01*
X65487020Y-129299568D01*
X65653506Y-129410810D01*
X65784934Y-129465249D01*
X65838498Y-129487436D01*
X66034884Y-129526500D01*
X66235116Y-129526500D01*
X66431502Y-129487436D01*
X66616493Y-129410810D01*
X66782981Y-129299567D01*
X66924567Y-129157981D01*
X66927432Y-129153693D01*
X66977436Y-129078857D01*
X67038718Y-129020918D01*
X67119071Y-128995307D01*
X67202578Y-129007095D01*
X67272701Y-129053949D01*
X67292564Y-129078857D01*
X67345429Y-129157977D01*
X67487020Y-129299568D01*
X67653506Y-129410810D01*
X67784934Y-129465249D01*
X67838498Y-129487436D01*
X68034884Y-129526500D01*
X68235116Y-129526500D01*
X68431502Y-129487436D01*
X68616493Y-129410810D01*
X68782981Y-129299567D01*
X68924567Y-129157981D01*
X68927432Y-129153693D01*
X68977436Y-129078857D01*
X69038718Y-129020918D01*
X69119071Y-128995307D01*
X69202578Y-129007095D01*
X69272701Y-129053949D01*
X69292564Y-129078857D01*
X69345429Y-129157977D01*
X69487020Y-129299568D01*
X69653506Y-129410810D01*
X69784934Y-129465249D01*
X69838498Y-129487436D01*
X70034884Y-129526500D01*
X70235116Y-129526500D01*
X70431502Y-129487436D01*
X70616493Y-129410810D01*
X70782981Y-129299567D01*
X70924567Y-129157981D01*
X70927432Y-129153693D01*
X70977436Y-129078857D01*
X71038718Y-129020918D01*
X71119071Y-128995307D01*
X71202578Y-129007095D01*
X71272701Y-129053949D01*
X71292564Y-129078857D01*
X71345429Y-129157977D01*
X71487020Y-129299568D01*
X71653506Y-129410810D01*
X71784934Y-129465249D01*
X71838498Y-129487436D01*
X72034884Y-129526500D01*
X72235116Y-129526500D01*
X72431502Y-129487436D01*
X72616493Y-129410810D01*
X72782981Y-129299567D01*
X72924567Y-129157981D01*
X72928855Y-129153693D01*
X73000264Y-129108823D01*
X73084069Y-129099380D01*
X73163672Y-129127234D01*
X73216162Y-129176305D01*
X73269268Y-129249401D01*
X73395599Y-129375732D01*
X73540129Y-129480738D01*
X73540132Y-129480740D01*
X73699307Y-129561843D01*
X73699314Y-129561846D01*
X73869220Y-129617052D01*
X73885000Y-129619551D01*
X73885000Y-128550330D01*
X73904745Y-128570075D01*
X73990255Y-128619444D01*
X74085630Y-128645000D01*
X74184370Y-128645000D01*
X74279745Y-128619444D01*
X74365255Y-128570075D01*
X74385000Y-128550330D01*
X74385000Y-129619551D01*
X74400779Y-129617052D01*
X74570685Y-129561846D01*
X74570692Y-129561843D01*
X74729867Y-129480740D01*
X74729870Y-129480738D01*
X74874400Y-129375732D01*
X75000732Y-129249400D01*
X75105738Y-129104870D01*
X75105740Y-129104867D01*
X75186843Y-128945692D01*
X75186846Y-128945685D01*
X75242052Y-128775783D01*
X75242052Y-128775782D01*
X75270000Y-128599327D01*
X75270000Y-128520001D01*
X75269999Y-128520000D01*
X74415330Y-128520000D01*
X74435075Y-128500255D01*
X74484444Y-128414745D01*
X74510000Y-128319370D01*
X74510000Y-128220630D01*
X74484444Y-128125255D01*
X74435075Y-128039745D01*
X74415330Y-128020000D01*
X75269999Y-128020000D01*
X75270000Y-128019999D01*
X75270000Y-127940672D01*
X75242052Y-127764217D01*
X75242052Y-127764216D01*
X75186846Y-127594314D01*
X75186843Y-127594307D01*
X75105740Y-127435132D01*
X75105738Y-127435129D01*
X75000732Y-127290599D01*
X74874400Y-127164267D01*
X74729870Y-127059261D01*
X74729867Y-127059259D01*
X74570692Y-126978156D01*
X74570685Y-126978153D01*
X74400780Y-126922947D01*
X74385000Y-126920447D01*
X74385000Y-127989670D01*
X74365255Y-127969925D01*
X74279745Y-127920556D01*
X74184370Y-127895000D01*
X74085630Y-127895000D01*
X73990255Y-127920556D01*
X73904745Y-127969925D01*
X73885000Y-127989670D01*
X73885000Y-126920447D01*
X73869219Y-126922947D01*
X73699314Y-126978153D01*
X73699307Y-126978156D01*
X73540132Y-127059259D01*
X73540129Y-127059261D01*
X73395599Y-127164267D01*
X73269267Y-127290599D01*
X73216161Y-127363695D01*
X73152651Y-127419182D01*
X73071355Y-127441619D01*
X72988374Y-127426561D01*
X72928855Y-127386307D01*
X72782979Y-127240431D01*
X72616493Y-127129189D01*
X72431501Y-127052563D01*
X72235116Y-127013500D01*
X72034884Y-127013500D01*
X71838498Y-127052563D01*
X71653506Y-127129189D01*
X71487020Y-127240431D01*
X71345431Y-127382020D01*
X71292564Y-127461143D01*
X71231281Y-127519081D01*
X71150928Y-127544692D01*
X71067421Y-127532903D01*
X70997298Y-127486049D01*
X70977436Y-127461143D01*
X70924568Y-127382020D01*
X70782979Y-127240431D01*
X70616493Y-127129189D01*
X70431501Y-127052563D01*
X70235116Y-127013500D01*
X70034884Y-127013500D01*
X69838498Y-127052563D01*
X69653506Y-127129189D01*
X69487020Y-127240431D01*
X69345431Y-127382020D01*
X69292564Y-127461143D01*
X69231281Y-127519081D01*
X69150928Y-127544692D01*
X69067421Y-127532903D01*
X68997298Y-127486049D01*
X68977436Y-127461143D01*
X68924568Y-127382020D01*
X68782979Y-127240431D01*
X68616493Y-127129189D01*
X68431501Y-127052563D01*
X68235116Y-127013500D01*
X68034884Y-127013500D01*
X67838498Y-127052563D01*
X67653506Y-127129189D01*
X67487020Y-127240431D01*
X67345431Y-127382020D01*
X67292564Y-127461143D01*
X67231281Y-127519081D01*
X67150928Y-127544692D01*
X67067421Y-127532903D01*
X66997298Y-127486049D01*
X66977436Y-127461143D01*
X66924568Y-127382020D01*
X66782979Y-127240431D01*
X66616493Y-127129189D01*
X66431501Y-127052563D01*
X66235116Y-127013500D01*
X66034884Y-127013500D01*
X65838498Y-127052563D01*
X65653506Y-127129189D01*
X65487019Y-127240432D01*
X65418403Y-127309048D01*
X65346994Y-127353916D01*
X65263188Y-127363358D01*
X65183586Y-127335504D01*
X65150410Y-127309047D01*
X65045410Y-127204047D01*
X64867450Y-127074751D01*
X64671464Y-126974890D01*
X64671456Y-126974887D01*
X64671454Y-126974886D01*
X64619152Y-126957892D01*
X64462252Y-126906911D01*
X64244986Y-126872500D01*
X60630490Y-126872500D01*
X60548269Y-126853734D01*
X60544459Y-126851846D01*
X60323960Y-126739497D01*
X60323959Y-126739496D01*
X60323956Y-126739495D01*
X60245924Y-126714140D01*
X60076729Y-126659165D01*
X59819978Y-126618500D01*
X59819976Y-126618500D01*
X59560024Y-126618500D01*
X59560022Y-126618500D01*
X59303270Y-126659165D01*
X59303269Y-126659165D01*
X59056047Y-126739494D01*
X59056039Y-126739497D01*
X58824426Y-126857508D01*
X58824422Y-126857511D01*
X58614123Y-127010303D01*
X58430303Y-127194123D01*
X58277511Y-127404422D01*
X58277508Y-127404426D01*
X58159497Y-127636039D01*
X58159494Y-127636047D01*
X58079165Y-127883269D01*
X58079165Y-127883270D01*
X58038500Y-128140022D01*
X58038500Y-182761321D01*
X58079165Y-183018073D01*
X58079165Y-183018074D01*
X58159494Y-183265296D01*
X58159497Y-183265304D01*
X58277508Y-183496917D01*
X58277511Y-183496921D01*
X58430306Y-183707224D01*
X59477158Y-184754076D01*
X60304862Y-185581780D01*
X60349731Y-185653189D01*
X60359173Y-185736994D01*
X60331319Y-185816597D01*
X60271685Y-185876231D01*
X60202058Y-185902692D01*
X60157222Y-185910174D01*
X60157211Y-185910177D01*
X59929227Y-185988444D01*
X59717238Y-186103167D01*
X59527022Y-186251217D01*
X59527018Y-186251221D01*
X59363765Y-186428560D01*
X59231919Y-186630365D01*
X59135096Y-186851099D01*
X59135091Y-186851114D01*
X59075920Y-187084776D01*
X59075919Y-187084782D01*
X59056015Y-187325000D01*
X59075919Y-187565217D01*
X59075920Y-187565223D01*
X59135091Y-187798885D01*
X59135096Y-187798900D01*
X59157639Y-187850292D01*
X59231921Y-188019638D01*
X59363761Y-188221434D01*
X59363763Y-188221436D01*
X59363765Y-188221439D01*
X59527018Y-188398778D01*
X59527022Y-188398782D01*
X59603493Y-188458301D01*
X59717237Y-188546832D01*
X59801983Y-188592694D01*
X59929227Y-188661555D01*
X59929230Y-188661556D01*
X59929232Y-188661557D01*
X60157218Y-188739825D01*
X60157224Y-188739826D01*
X60394972Y-188779500D01*
X60394977Y-188779500D01*
X60636028Y-188779500D01*
X60833908Y-188746478D01*
X60873782Y-188739825D01*
X61101768Y-188661557D01*
X61114515Y-188654659D01*
X61158512Y-188630849D01*
X61313763Y-188546832D01*
X61503982Y-188398778D01*
X61603026Y-188291186D01*
X61646581Y-188243875D01*
X61716074Y-188196093D01*
X61799418Y-188183196D01*
X61880104Y-188207737D01*
X61942151Y-188264856D01*
X61973271Y-188343239D01*
X61975500Y-188372220D01*
X61975500Y-188851977D01*
X62016165Y-189108729D01*
X62016165Y-189108730D01*
X62096494Y-189355952D01*
X62096497Y-189355960D01*
X62214508Y-189587573D01*
X62214510Y-189587575D01*
X62290826Y-189692615D01*
X62323972Y-189770163D01*
X62320188Y-189854414D01*
X62280224Y-189928679D01*
X62211995Y-189978251D01*
X62137517Y-189993500D01*
X61673310Y-189993500D01*
X61673294Y-189993499D01*
X61661682Y-189993499D01*
X61528319Y-189993499D01*
X61434016Y-190018767D01*
X61434014Y-190018767D01*
X61399498Y-190028016D01*
X61284005Y-190094696D01*
X61283997Y-190094702D01*
X61189698Y-190189000D01*
X61189699Y-190189001D01*
X59284697Y-192094002D01*
X59258027Y-192140198D01*
X59258027Y-192140199D01*
X59218017Y-192209496D01*
X59205852Y-192254898D01*
X59183499Y-192338318D01*
X59183499Y-192338320D01*
X59183499Y-192486951D01*
X59183500Y-192486964D01*
X59183500Y-196279000D01*
X59164734Y-196361221D01*
X59112151Y-196427157D01*
X59036168Y-196463749D01*
X58994000Y-196468500D01*
X58828287Y-196468500D01*
X58754135Y-196479304D01*
X58754134Y-196479305D01*
X58639757Y-196535222D01*
X58639752Y-196535225D01*
X58549725Y-196625252D01*
X58549722Y-196625257D01*
X58493805Y-196739634D01*
X58493804Y-196739635D01*
X58483000Y-196813787D01*
X58483000Y-200985088D01*
X58464234Y-201067309D01*
X58411651Y-201133245D01*
X58335668Y-201169837D01*
X58251332Y-201169837D01*
X58175349Y-201133245D01*
X58159503Y-201119085D01*
X57650503Y-200610085D01*
X57605634Y-200538676D01*
X57595000Y-200476088D01*
X57595000Y-109529997D01*
X140253438Y-109529997D01*
X140253438Y-109530002D01*
X140273658Y-109812719D01*
X140273659Y-109812723D01*
X140333906Y-110089673D01*
X140432956Y-110355238D01*
X140432964Y-110355257D01*
X140568789Y-110604003D01*
X140568795Y-110604013D01*
X140568798Y-110604017D01*
X140738657Y-110830921D01*
X140939079Y-111031343D01*
X141068597Y-111128299D01*
X141123170Y-111192594D01*
X141144443Y-111274203D01*
X141128201Y-111356959D01*
X141077660Y-111424473D01*
X141068609Y-111431691D01*
X140939079Y-111528657D01*
X140738657Y-111729079D01*
X140568795Y-111955986D01*
X140568789Y-111955996D01*
X140432964Y-112204742D01*
X140432956Y-112204761D01*
X140333906Y-112470326D01*
X140273659Y-112747276D01*
X140273658Y-112747280D01*
X140253438Y-113029997D01*
X140253438Y-113030002D01*
X140273658Y-113312719D01*
X140273659Y-113312723D01*
X140333906Y-113589673D01*
X140432956Y-113855238D01*
X140432964Y-113855257D01*
X140568789Y-114104003D01*
X140568795Y-114104013D01*
X140568798Y-114104017D01*
X140738657Y-114330921D01*
X140939079Y-114531343D01*
X141068597Y-114628299D01*
X141123170Y-114692594D01*
X141144443Y-114774203D01*
X141128201Y-114856959D01*
X141077660Y-114924473D01*
X141068609Y-114931691D01*
X141029478Y-114960985D01*
X140939079Y-115028657D01*
X140738657Y-115229079D01*
X140568795Y-115455986D01*
X140568789Y-115455996D01*
X140432964Y-115704742D01*
X140432956Y-115704761D01*
X140333906Y-115970326D01*
X140273659Y-116247276D01*
X140273658Y-116247280D01*
X140253438Y-116529997D01*
X140253438Y-116530002D01*
X140273658Y-116812719D01*
X140273659Y-116812723D01*
X140333906Y-117089673D01*
X140432956Y-117355238D01*
X140432964Y-117355257D01*
X140568789Y-117604003D01*
X140568795Y-117604013D01*
X140568798Y-117604017D01*
X140738657Y-117830921D01*
X140939079Y-118031343D01*
X141165983Y-118201202D01*
X141165986Y-118201204D01*
X141165996Y-118201210D01*
X141414742Y-118337035D01*
X141414745Y-118337036D01*
X141414752Y-118337040D01*
X141680321Y-118436092D01*
X141957283Y-118496342D01*
X142196442Y-118513446D01*
X142239998Y-118516562D01*
X142240000Y-118516562D01*
X142240002Y-118516562D01*
X142280442Y-118513669D01*
X142522717Y-118496342D01*
X142799679Y-118436092D01*
X143065248Y-118337040D01*
X143214924Y-118255311D01*
X143314003Y-118201210D01*
X143314013Y-118201204D01*
X143314012Y-118201204D01*
X143314017Y-118201202D01*
X143540921Y-118031343D01*
X143741343Y-117830921D01*
X143911202Y-117604017D01*
X144047040Y-117355248D01*
X144146092Y-117089679D01*
X144206342Y-116812717D01*
X144226562Y-116530000D01*
X144206342Y-116247283D01*
X144146092Y-115970321D01*
X144047040Y-115704752D01*
X144011683Y-115640000D01*
X143911210Y-115455996D01*
X143911204Y-115455986D01*
X143911202Y-115455983D01*
X143741343Y-115229079D01*
X143540921Y-115028657D01*
X143411400Y-114931698D01*
X143356829Y-114867406D01*
X143335556Y-114785798D01*
X143351798Y-114703041D01*
X143402338Y-114635527D01*
X143411369Y-114628324D01*
X143540921Y-114531343D01*
X143741343Y-114330921D01*
X143911202Y-114104017D01*
X144047040Y-113855248D01*
X144146092Y-113589679D01*
X144206342Y-113312717D01*
X144226562Y-113030000D01*
X144206342Y-112747283D01*
X144146092Y-112470321D01*
X144047040Y-112204752D01*
X144047035Y-112204742D01*
X143911210Y-111955996D01*
X143911204Y-111955986D01*
X143911202Y-111955983D01*
X143741343Y-111729079D01*
X143540921Y-111528657D01*
X143411400Y-111431698D01*
X143356829Y-111367406D01*
X143335556Y-111285798D01*
X143351798Y-111203041D01*
X143402338Y-111135527D01*
X143411369Y-111128324D01*
X143540921Y-111031343D01*
X143741343Y-110830921D01*
X143911202Y-110604017D01*
X144047040Y-110355248D01*
X144146092Y-110089679D01*
X144206342Y-109812717D01*
X144226562Y-109530000D01*
X144206342Y-109247283D01*
X144146092Y-108970321D01*
X144047040Y-108704752D01*
X144047035Y-108704742D01*
X143911210Y-108455996D01*
X143911204Y-108455986D01*
X143911202Y-108455983D01*
X143741343Y-108229079D01*
X143540921Y-108028657D01*
X143314017Y-107858798D01*
X143314013Y-107858795D01*
X143314003Y-107858789D01*
X143065257Y-107722964D01*
X143065249Y-107722960D01*
X143065248Y-107722960D01*
X143065243Y-107722958D01*
X143065238Y-107722956D01*
X142924010Y-107670281D01*
X142799679Y-107623908D01*
X142799677Y-107623907D01*
X142799673Y-107623906D01*
X142522723Y-107563659D01*
X142522719Y-107563658D01*
X142240002Y-107543438D01*
X142239998Y-107543438D01*
X141957280Y-107563658D01*
X141957276Y-107563659D01*
X141680326Y-107623906D01*
X141414761Y-107722956D01*
X141414742Y-107722964D01*
X141165996Y-107858789D01*
X141165986Y-107858795D01*
X140939079Y-108028657D01*
X140738657Y-108229079D01*
X140568795Y-108455986D01*
X140568789Y-108455996D01*
X140432964Y-108704742D01*
X140432956Y-108704761D01*
X140333906Y-108970326D01*
X140273659Y-109247276D01*
X140273658Y-109247280D01*
X140253438Y-109529997D01*
X57595000Y-109529997D01*
X57595000Y-104780318D01*
X57595149Y-104775000D01*
X59056015Y-104775000D01*
X59075919Y-105015217D01*
X59075920Y-105015223D01*
X59135091Y-105248885D01*
X59135096Y-105248900D01*
X59157639Y-105300292D01*
X59231921Y-105469638D01*
X59363761Y-105671434D01*
X59363763Y-105671436D01*
X59363765Y-105671439D01*
X59527018Y-105848778D01*
X59527022Y-105848782D01*
X59628317Y-105927623D01*
X59717237Y-105996832D01*
X59809235Y-106046618D01*
X59929227Y-106111555D01*
X59929230Y-106111556D01*
X59929232Y-106111557D01*
X60157218Y-106189825D01*
X60157224Y-106189826D01*
X60394972Y-106229500D01*
X60394977Y-106229500D01*
X60636028Y-106229500D01*
X60833908Y-106196478D01*
X60873782Y-106189825D01*
X61101768Y-106111557D01*
X61313763Y-105996832D01*
X61503982Y-105848778D01*
X61667239Y-105671434D01*
X61799079Y-105469638D01*
X61895906Y-105248894D01*
X61955080Y-105015223D01*
X61974985Y-104775000D01*
X141225015Y-104775000D01*
X141244919Y-105015217D01*
X141244920Y-105015223D01*
X141304091Y-105248885D01*
X141304096Y-105248900D01*
X141326639Y-105300292D01*
X141400921Y-105469638D01*
X141532761Y-105671434D01*
X141532763Y-105671436D01*
X141532765Y-105671439D01*
X141696018Y-105848778D01*
X141696022Y-105848782D01*
X141797317Y-105927623D01*
X141886237Y-105996832D01*
X141978235Y-106046618D01*
X142098227Y-106111555D01*
X142098230Y-106111556D01*
X142098232Y-106111557D01*
X142326218Y-106189825D01*
X142326224Y-106189826D01*
X142563972Y-106229500D01*
X142563977Y-106229500D01*
X142805028Y-106229500D01*
X143002908Y-106196478D01*
X143042782Y-106189825D01*
X143270768Y-106111557D01*
X143482763Y-105996832D01*
X143672982Y-105848778D01*
X143836239Y-105671434D01*
X143968079Y-105469638D01*
X144064906Y-105248894D01*
X144124080Y-105015223D01*
X144143985Y-104775000D01*
X144124080Y-104534777D01*
X144064906Y-104301106D01*
X143968079Y-104080362D01*
X143836239Y-103878566D01*
X143836235Y-103878561D01*
X143836234Y-103878560D01*
X143672981Y-103701221D01*
X143672977Y-103701217D01*
X143546357Y-103602665D01*
X143482763Y-103553168D01*
X143417185Y-103517679D01*
X143270772Y-103438444D01*
X143042788Y-103360177D01*
X143042775Y-103360173D01*
X142805028Y-103320500D01*
X142805023Y-103320500D01*
X142563977Y-103320500D01*
X142563972Y-103320500D01*
X142326224Y-103360173D01*
X142326211Y-103360177D01*
X142098227Y-103438444D01*
X141886238Y-103553167D01*
X141696022Y-103701217D01*
X141696018Y-103701221D01*
X141532765Y-103878560D01*
X141400919Y-104080365D01*
X141304096Y-104301099D01*
X141304091Y-104301114D01*
X141244920Y-104534776D01*
X141244919Y-104534782D01*
X141225015Y-104775000D01*
X61974985Y-104775000D01*
X61955080Y-104534777D01*
X61895906Y-104301106D01*
X61799079Y-104080362D01*
X61667239Y-103878566D01*
X61667235Y-103878561D01*
X61667234Y-103878560D01*
X61503981Y-103701221D01*
X61503977Y-103701217D01*
X61377357Y-103602665D01*
X61313763Y-103553168D01*
X61248185Y-103517679D01*
X61101772Y-103438444D01*
X60873788Y-103360177D01*
X60873775Y-103360173D01*
X60636028Y-103320500D01*
X60636023Y-103320500D01*
X60394977Y-103320500D01*
X60394972Y-103320500D01*
X60157224Y-103360173D01*
X60157211Y-103360177D01*
X59929227Y-103438444D01*
X59717238Y-103553167D01*
X59527022Y-103701217D01*
X59527018Y-103701221D01*
X59363765Y-103878560D01*
X59231919Y-104080365D01*
X59135096Y-104301099D01*
X59135091Y-104301114D01*
X59075920Y-104534776D01*
X59075919Y-104534782D01*
X59056015Y-104775000D01*
X57595149Y-104775000D01*
X57595298Y-104769693D01*
X57612766Y-104458637D01*
X57615145Y-104437519D01*
X57619282Y-104413173D01*
X57666441Y-104135612D01*
X57671170Y-104114898D01*
X57755949Y-103820624D01*
X57762953Y-103800607D01*
X57880150Y-103517666D01*
X57889365Y-103498533D01*
X57987761Y-103320500D01*
X58037498Y-103230506D01*
X58048797Y-103212525D01*
X58226010Y-102962766D01*
X58239243Y-102946173D01*
X58443319Y-102717812D01*
X58458312Y-102702819D01*
X58686673Y-102498743D01*
X58703266Y-102485510D01*
X58953025Y-102308297D01*
X58971006Y-102296998D01*
X59239039Y-102148861D01*
X59258166Y-102139650D01*
X59541107Y-102022453D01*
X59561124Y-102015449D01*
X59855401Y-101930669D01*
X59876112Y-101925941D01*
X60178021Y-101874644D01*
X60199135Y-101872266D01*
X60510193Y-101854797D01*
X60520818Y-101854500D01*
X60560375Y-101854500D01*
X142639625Y-101854500D01*
X142679182Y-101854500D01*
X142689806Y-101854797D01*
G37*
%TD.AperFunction*%
%TA.AperFunction,Conductor*%
G36*
X67137333Y-180448779D02*
G01*
X67192300Y-180370282D01*
X67205512Y-180341949D01*
X67257268Y-180275362D01*
X67332789Y-180237825D01*
X67417117Y-180236772D01*
X67493552Y-180272413D01*
X67532488Y-180313340D01*
X67649885Y-180481001D01*
X67651852Y-180483809D01*
X67801191Y-180633148D01*
X67801194Y-180633150D01*
X67801195Y-180633151D01*
X67946142Y-180734644D01*
X67974194Y-180754286D01*
X68165605Y-180843542D01*
X68165609Y-180843543D01*
X68165611Y-180843544D01*
X68245445Y-180864935D01*
X68369606Y-180898204D01*
X68580000Y-180916611D01*
X68790394Y-180898204D01*
X68994395Y-180843542D01*
X69185806Y-180754286D01*
X69358809Y-180633148D01*
X69508148Y-180483809D01*
X69629286Y-180310806D01*
X69678255Y-180205790D01*
X69730010Y-180139205D01*
X69805532Y-180101668D01*
X69889860Y-180100617D01*
X69966294Y-180136258D01*
X70019695Y-180201533D01*
X70021726Y-180205752D01*
X70036192Y-180236772D01*
X70070713Y-180310805D01*
X70070715Y-180310808D01*
X70189885Y-180481001D01*
X70191852Y-180483809D01*
X70341191Y-180633148D01*
X70341194Y-180633150D01*
X70341195Y-180633151D01*
X70486142Y-180734644D01*
X70514194Y-180754286D01*
X70705605Y-180843542D01*
X70705609Y-180843543D01*
X70705611Y-180843544D01*
X70785445Y-180864935D01*
X70909606Y-180898204D01*
X71120000Y-180916611D01*
X71330394Y-180898204D01*
X71534395Y-180843542D01*
X71725806Y-180754286D01*
X71898809Y-180633148D01*
X72048148Y-180483809D01*
X72169286Y-180310806D01*
X72218255Y-180205790D01*
X72270010Y-180139205D01*
X72345532Y-180101668D01*
X72429860Y-180100617D01*
X72506294Y-180136258D01*
X72559695Y-180201533D01*
X72561726Y-180205752D01*
X72576192Y-180236772D01*
X72610713Y-180310805D01*
X72610715Y-180310808D01*
X72729885Y-180481001D01*
X72731852Y-180483809D01*
X72869945Y-180621902D01*
X72914813Y-180693309D01*
X72924255Y-180777114D01*
X72896404Y-180856713D01*
X72878644Y-180884978D01*
X72820003Y-181052563D01*
X72800124Y-181229000D01*
X72820003Y-181405436D01*
X72878644Y-181573020D01*
X72973108Y-181723357D01*
X73098653Y-181848902D01*
X73191820Y-181907443D01*
X73251454Y-181967077D01*
X73279309Y-182046680D01*
X73280500Y-182067897D01*
X73280500Y-190384689D01*
X73280499Y-190384707D01*
X73280499Y-190396318D01*
X73280499Y-190529682D01*
X73311363Y-190644865D01*
X73315019Y-190658508D01*
X73319771Y-190669981D01*
X73316504Y-190671333D01*
X73334573Y-190729900D01*
X73333913Y-190765282D01*
X73330115Y-190798996D01*
X73330115Y-190799000D01*
X73343000Y-190913361D01*
X73349994Y-190975436D01*
X73392804Y-191097778D01*
X73408635Y-191143020D01*
X73503098Y-191293356D01*
X73628644Y-191418902D01*
X73778980Y-191513365D01*
X73946566Y-191572006D01*
X74123000Y-191591885D01*
X74212782Y-191581769D01*
X74296587Y-191591211D01*
X74367996Y-191636080D01*
X74412866Y-191707488D01*
X74423500Y-191770077D01*
X74423500Y-196279000D01*
X74404734Y-196361221D01*
X74352151Y-196427157D01*
X74276168Y-196463749D01*
X74234000Y-196468500D01*
X74068287Y-196468500D01*
X73994135Y-196479304D01*
X73994134Y-196479305D01*
X73879757Y-196535222D01*
X73879752Y-196535225D01*
X73793997Y-196620981D01*
X73722588Y-196665850D01*
X73638783Y-196675292D01*
X73559180Y-196647438D01*
X73526003Y-196620981D01*
X73440247Y-196535225D01*
X73440246Y-196535224D01*
X73440242Y-196535222D01*
X73325865Y-196479305D01*
X73325864Y-196479304D01*
X73251712Y-196468500D01*
X73251706Y-196468500D01*
X73086000Y-196468500D01*
X73003779Y-196449734D01*
X72937843Y-196397151D01*
X72901251Y-196321168D01*
X72896500Y-196279000D01*
X72896500Y-194498317D01*
X72887250Y-194463800D01*
X72861983Y-194369498D01*
X72802246Y-194266030D01*
X72795305Y-194254007D01*
X72795303Y-194254004D01*
X72795301Y-194254001D01*
X72776099Y-194234799D01*
X72694398Y-194153097D01*
X72694375Y-194153076D01*
X72561657Y-194020358D01*
X72516788Y-193948949D01*
X72507346Y-193865144D01*
X72535200Y-193785541D01*
X72594834Y-193725907D01*
X72637098Y-193706135D01*
X72665686Y-193696846D01*
X72665692Y-193696843D01*
X72824867Y-193615740D01*
X72824870Y-193615738D01*
X72969400Y-193510732D01*
X73095732Y-193384400D01*
X73200738Y-193239870D01*
X73200740Y-193239867D01*
X73281843Y-193080692D01*
X73281846Y-193080685D01*
X73337052Y-192910783D01*
X73337052Y-192910782D01*
X73365000Y-192734327D01*
X73365000Y-192655001D01*
X73364999Y-192655000D01*
X72510330Y-192655000D01*
X72530075Y-192635255D01*
X72579444Y-192549745D01*
X72605000Y-192454370D01*
X72605000Y-192355630D01*
X72579444Y-192260255D01*
X72530075Y-192174745D01*
X72510330Y-192155000D01*
X73364999Y-192155000D01*
X73365000Y-192154999D01*
X73365000Y-192075672D01*
X73337052Y-191899217D01*
X73337052Y-191899216D01*
X73281846Y-191729314D01*
X73281843Y-191729307D01*
X73200740Y-191570132D01*
X73200738Y-191570129D01*
X73095732Y-191425599D01*
X72969400Y-191299267D01*
X72824870Y-191194261D01*
X72824867Y-191194259D01*
X72665692Y-191113156D01*
X72665685Y-191113153D01*
X72495780Y-191057947D01*
X72480000Y-191055447D01*
X72480000Y-192124670D01*
X72460255Y-192104925D01*
X72374745Y-192055556D01*
X72279370Y-192030000D01*
X72180630Y-192030000D01*
X72085255Y-192055556D01*
X71999745Y-192104925D01*
X71980000Y-192124670D01*
X71980000Y-191055447D01*
X71964219Y-191057947D01*
X71794314Y-191113153D01*
X71794307Y-191113156D01*
X71635132Y-191194259D01*
X71635129Y-191194261D01*
X71490599Y-191299267D01*
X71364267Y-191425599D01*
X71311161Y-191498695D01*
X71247651Y-191554182D01*
X71166355Y-191576619D01*
X71083374Y-191561561D01*
X71023855Y-191521307D01*
X70877979Y-191375431D01*
X70711493Y-191264189D01*
X70526501Y-191187563D01*
X70330116Y-191148500D01*
X70129884Y-191148500D01*
X69933498Y-191187563D01*
X69748506Y-191264189D01*
X69582020Y-191375431D01*
X69440431Y-191517020D01*
X69387564Y-191596143D01*
X69326281Y-191654081D01*
X69245928Y-191679692D01*
X69162421Y-191667903D01*
X69092298Y-191621049D01*
X69072436Y-191596143D01*
X69019568Y-191517020D01*
X68877979Y-191375431D01*
X68711493Y-191264189D01*
X68526501Y-191187563D01*
X68330116Y-191148500D01*
X68129884Y-191148500D01*
X67933498Y-191187563D01*
X67748506Y-191264189D01*
X67582020Y-191375431D01*
X67440431Y-191517020D01*
X67387564Y-191596143D01*
X67326281Y-191654081D01*
X67245928Y-191679692D01*
X67162421Y-191667903D01*
X67092298Y-191621049D01*
X67072436Y-191596143D01*
X67019568Y-191517020D01*
X66877979Y-191375431D01*
X66711493Y-191264189D01*
X66526501Y-191187563D01*
X66330116Y-191148500D01*
X66129884Y-191148500D01*
X65924366Y-191189380D01*
X65923835Y-191186712D01*
X65855920Y-191191475D01*
X65777563Y-191160287D01*
X65720497Y-191098190D01*
X65696026Y-191017483D01*
X65708996Y-190934151D01*
X65751063Y-190870234D01*
X66350996Y-190270302D01*
X66350999Y-190270301D01*
X66445301Y-190175999D01*
X66511983Y-190060502D01*
X66525182Y-190011241D01*
X66546501Y-189931681D01*
X66546501Y-189798318D01*
X66546501Y-189786707D01*
X66546500Y-189786689D01*
X66546500Y-181940652D01*
X66565266Y-181858431D01*
X66602003Y-181806655D01*
X66625843Y-181782815D01*
X66659902Y-181748756D01*
X66754365Y-181598420D01*
X66813006Y-181430834D01*
X66832885Y-181254400D01*
X66813006Y-181077966D01*
X66777194Y-180975622D01*
X66767752Y-180891822D01*
X66778686Y-180860574D01*
X66783780Y-180802334D01*
X66210234Y-180228787D01*
X66252292Y-180217518D01*
X66377708Y-180145110D01*
X66480110Y-180042708D01*
X66552518Y-179917292D01*
X66563787Y-179875234D01*
X67137333Y-180448779D01*
G37*
%TD.AperFunction*%
%TA.AperFunction,Conductor*%
G36*
X88917520Y-182263139D02*
G01*
X88977154Y-182322773D01*
X89005008Y-182402376D01*
X89006200Y-182423593D01*
X89006200Y-184836300D01*
X88987434Y-184918521D01*
X88934851Y-184984457D01*
X88858868Y-185021049D01*
X88816700Y-185025800D01*
X88777987Y-185025800D01*
X88703835Y-185036604D01*
X88703834Y-185036605D01*
X88589457Y-185092522D01*
X88589452Y-185092525D01*
X88499425Y-185182552D01*
X88499422Y-185182557D01*
X88443505Y-185296934D01*
X88443504Y-185296935D01*
X88432700Y-185371087D01*
X88432700Y-186256312D01*
X88443504Y-186330464D01*
X88443505Y-186330465D01*
X88499422Y-186444842D01*
X88499425Y-186444847D01*
X88589455Y-186534877D01*
X88590711Y-186535774D01*
X88593568Y-186538990D01*
X88600557Y-186545979D01*
X88600144Y-186546391D01*
X88646723Y-186598822D01*
X88669832Y-186679930D01*
X88655462Y-186763032D01*
X88606457Y-186831669D01*
X88590711Y-186844226D01*
X88589455Y-186845122D01*
X88499425Y-186935152D01*
X88499422Y-186935157D01*
X88443505Y-187049534D01*
X88443504Y-187049535D01*
X88432700Y-187123687D01*
X88432700Y-187357000D01*
X88413934Y-187439221D01*
X88361351Y-187505157D01*
X88285368Y-187541749D01*
X88243200Y-187546500D01*
X88053787Y-187546500D01*
X87971566Y-187527734D01*
X87905630Y-187475151D01*
X87869038Y-187399168D01*
X87864782Y-187370690D01*
X87864500Y-187366802D01*
X87864500Y-187366794D01*
X87853696Y-187292639D01*
X87853695Y-187292637D01*
X87853695Y-187292635D01*
X87853694Y-187292634D01*
X87797777Y-187178257D01*
X87797776Y-187178254D01*
X87707746Y-187088224D01*
X87707742Y-187088222D01*
X87593365Y-187032305D01*
X87593364Y-187032304D01*
X87519212Y-187021500D01*
X87519206Y-187021500D01*
X86846794Y-187021500D01*
X86846787Y-187021500D01*
X86772635Y-187032304D01*
X86772634Y-187032305D01*
X86658257Y-187088222D01*
X86658252Y-187088225D01*
X86568225Y-187178252D01*
X86568222Y-187178257D01*
X86512305Y-187292634D01*
X86512304Y-187292635D01*
X86501500Y-187366787D01*
X86501500Y-188739212D01*
X86512304Y-188813363D01*
X86529615Y-188848772D01*
X86548867Y-188930880D01*
X86530587Y-189013211D01*
X86478395Y-189079456D01*
X86402629Y-189116496D01*
X86359370Y-189121500D01*
X85896787Y-189121500D01*
X85822635Y-189132304D01*
X85822634Y-189132305D01*
X85708257Y-189188222D01*
X85708252Y-189188225D01*
X85618225Y-189278252D01*
X85618222Y-189278257D01*
X85562305Y-189392634D01*
X85562304Y-189392635D01*
X85551500Y-189466787D01*
X85551500Y-190839212D01*
X85562304Y-190913364D01*
X85562305Y-190913365D01*
X85613207Y-191017483D01*
X85618224Y-191027746D01*
X85708254Y-191117776D01*
X85745628Y-191136047D01*
X85822634Y-191173694D01*
X85822635Y-191173695D01*
X85822637Y-191173695D01*
X85822639Y-191173696D01*
X85896794Y-191184500D01*
X85995707Y-191184500D01*
X86077928Y-191203266D01*
X86129704Y-191240003D01*
X86589704Y-191700003D01*
X86634573Y-191771412D01*
X86644015Y-191855217D01*
X86616161Y-191934820D01*
X86556527Y-191994454D01*
X86476924Y-192022308D01*
X86455707Y-192023500D01*
X86210131Y-192023500D01*
X85912965Y-192062623D01*
X85714495Y-192115804D01*
X85623452Y-192140199D01*
X85623449Y-192140200D01*
X85623446Y-192140201D01*
X85346540Y-192254898D01*
X85346525Y-192254905D01*
X85086963Y-192404765D01*
X85086958Y-192404768D01*
X84849178Y-192587223D01*
X84637223Y-192799178D01*
X84454768Y-193036958D01*
X84454765Y-193036963D01*
X84301797Y-193301910D01*
X84300909Y-193301397D01*
X84251765Y-193361858D01*
X84175443Y-193397740D01*
X84091111Y-193396954D01*
X84015472Y-193359655D01*
X83963507Y-193293231D01*
X83945500Y-193212606D01*
X83945500Y-187105293D01*
X83964266Y-187023072D01*
X84001003Y-186971296D01*
X88682703Y-182289596D01*
X88754112Y-182244727D01*
X88837917Y-182235285D01*
X88917520Y-182263139D01*
G37*
%TD.AperFunction*%
%TA.AperFunction,Conductor*%
G36*
X97906294Y-180136258D02*
G01*
X97959695Y-180201533D01*
X97961726Y-180205752D01*
X97976192Y-180236772D01*
X98010713Y-180310805D01*
X98010715Y-180310808D01*
X98129885Y-180481001D01*
X98131852Y-180483809D01*
X98281191Y-180633148D01*
X98281194Y-180633150D01*
X98281195Y-180633151D01*
X98426142Y-180734644D01*
X98454194Y-180754286D01*
X98645605Y-180843542D01*
X98645609Y-180843543D01*
X98645611Y-180843544D01*
X98725445Y-180864935D01*
X98849606Y-180898204D01*
X99060000Y-180916611D01*
X99270394Y-180898204D01*
X99425240Y-180856713D01*
X99465454Y-180845938D01*
X99549731Y-180842785D01*
X99627029Y-180876510D01*
X99682040Y-180940434D01*
X99703868Y-181021896D01*
X99704000Y-181028981D01*
X99704000Y-185644374D01*
X99740739Y-185970434D01*
X99740740Y-185970441D01*
X99813755Y-186290344D01*
X99813760Y-186290360D01*
X99816604Y-186298488D01*
X99826046Y-186382293D01*
X99798191Y-186461896D01*
X99738557Y-186521529D01*
X99658954Y-186549383D01*
X99575148Y-186539939D01*
X99555526Y-186531812D01*
X99544772Y-186526633D01*
X99544768Y-186526631D01*
X99544767Y-186526631D01*
X99235048Y-186418256D01*
X99235044Y-186418255D01*
X98915141Y-186345240D01*
X98915134Y-186345239D01*
X98589074Y-186308500D01*
X98589068Y-186308500D01*
X98260932Y-186308500D01*
X98260925Y-186308500D01*
X97934865Y-186345239D01*
X97934862Y-186345239D01*
X97614953Y-186418256D01*
X97614952Y-186418256D01*
X97305233Y-186526631D01*
X97009585Y-186669007D01*
X96731755Y-186843579D01*
X96731751Y-186843582D01*
X96475206Y-187048169D01*
X95365378Y-188157997D01*
X95293969Y-188202866D01*
X95231381Y-188213500D01*
X92975000Y-188213500D01*
X92892779Y-188194734D01*
X92826843Y-188142151D01*
X92790251Y-188066168D01*
X92785500Y-188024000D01*
X92785500Y-187088798D01*
X92785499Y-187088787D01*
X92777270Y-187032305D01*
X92774696Y-187014639D01*
X92774695Y-187014637D01*
X92774695Y-187014635D01*
X92774694Y-187014634D01*
X92735837Y-186935152D01*
X92718776Y-186900254D01*
X92628746Y-186810224D01*
X92628742Y-186810222D01*
X92514365Y-186754305D01*
X92514364Y-186754304D01*
X92440212Y-186743500D01*
X92440206Y-186743500D01*
X90947794Y-186743500D01*
X90947787Y-186743500D01*
X90873635Y-186754304D01*
X90873634Y-186754305D01*
X90759257Y-186810222D01*
X90759252Y-186810225D01*
X90714147Y-186855331D01*
X90642738Y-186900200D01*
X90558933Y-186909642D01*
X90479330Y-186881788D01*
X90446153Y-186855331D01*
X90435947Y-186845125D01*
X90434693Y-186844230D01*
X90431833Y-186841011D01*
X90424843Y-186834021D01*
X90425255Y-186833608D01*
X90378679Y-186781183D01*
X90355567Y-186700076D01*
X90369935Y-186616974D01*
X90418937Y-186548335D01*
X90434693Y-186535770D01*
X90435940Y-186534878D01*
X90435946Y-186534876D01*
X90525976Y-186444846D01*
X90581896Y-186330461D01*
X90592700Y-186256306D01*
X90592700Y-185371094D01*
X90581896Y-185296939D01*
X90581895Y-185296937D01*
X90581895Y-185296935D01*
X90581894Y-185296934D01*
X90525977Y-185182557D01*
X90525976Y-185182554D01*
X90435946Y-185092524D01*
X90435942Y-185092522D01*
X90321565Y-185036605D01*
X90321564Y-185036604D01*
X90247412Y-185025800D01*
X90247406Y-185025800D01*
X90208700Y-185025800D01*
X90126479Y-185007034D01*
X90060543Y-184954451D01*
X90023951Y-184878468D01*
X90019200Y-184836300D01*
X90019200Y-181920592D01*
X90037966Y-181838371D01*
X90074700Y-181786598D01*
X90942053Y-180919244D01*
X91013460Y-180874377D01*
X91097265Y-180864935D01*
X91125093Y-180870199D01*
X91229606Y-180898204D01*
X91440000Y-180916611D01*
X91650394Y-180898204D01*
X91854395Y-180843542D01*
X92045806Y-180754286D01*
X92218809Y-180633148D01*
X92368148Y-180483809D01*
X92489286Y-180310806D01*
X92538255Y-180205790D01*
X92590010Y-180139205D01*
X92665532Y-180101668D01*
X92749860Y-180100617D01*
X92826294Y-180136258D01*
X92879695Y-180201533D01*
X92881726Y-180205752D01*
X92896192Y-180236772D01*
X92930713Y-180310805D01*
X92930715Y-180310808D01*
X93049885Y-180481001D01*
X93051852Y-180483809D01*
X93201191Y-180633148D01*
X93201194Y-180633150D01*
X93201195Y-180633151D01*
X93346142Y-180734644D01*
X93374194Y-180754286D01*
X93565605Y-180843542D01*
X93565609Y-180843543D01*
X93565611Y-180843544D01*
X93645445Y-180864935D01*
X93769606Y-180898204D01*
X93980000Y-180916611D01*
X94190394Y-180898204D01*
X94394395Y-180843542D01*
X94585806Y-180754286D01*
X94758809Y-180633148D01*
X94908148Y-180483809D01*
X95029286Y-180310806D01*
X95078255Y-180205790D01*
X95130010Y-180139205D01*
X95205532Y-180101668D01*
X95289860Y-180100617D01*
X95366294Y-180136258D01*
X95419695Y-180201533D01*
X95421726Y-180205752D01*
X95436192Y-180236772D01*
X95470713Y-180310805D01*
X95470715Y-180310808D01*
X95589885Y-180481001D01*
X95591852Y-180483809D01*
X95741191Y-180633148D01*
X95741194Y-180633150D01*
X95741195Y-180633151D01*
X95886142Y-180734644D01*
X95914194Y-180754286D01*
X96105605Y-180843542D01*
X96105609Y-180843543D01*
X96105611Y-180843544D01*
X96185445Y-180864935D01*
X96309606Y-180898204D01*
X96520000Y-180916611D01*
X96730394Y-180898204D01*
X96934395Y-180843542D01*
X97125806Y-180754286D01*
X97298809Y-180633148D01*
X97448148Y-180483809D01*
X97569286Y-180310806D01*
X97618255Y-180205790D01*
X97670010Y-180139205D01*
X97745532Y-180101668D01*
X97829860Y-180100617D01*
X97906294Y-180136258D01*
G37*
%TD.AperFunction*%
%TA.AperFunction,Conductor*%
G36*
X68067482Y-164677292D02*
G01*
X68139890Y-164802708D01*
X68242292Y-164905110D01*
X68367708Y-164977518D01*
X68409765Y-164988787D01*
X67836218Y-165562334D01*
X67914712Y-165617298D01*
X67943051Y-165630512D01*
X68009638Y-165682268D01*
X68047175Y-165757789D01*
X68048228Y-165842117D01*
X68012587Y-165918552D01*
X67971660Y-165957488D01*
X67801195Y-166076848D01*
X67651849Y-166226194D01*
X67530712Y-166399198D01*
X67530710Y-166399201D01*
X67441459Y-166590601D01*
X67441457Y-166590606D01*
X67386795Y-166794608D01*
X67386795Y-166794609D01*
X67368389Y-167005000D01*
X67386795Y-167215390D01*
X67386795Y-167215391D01*
X67441455Y-167419388D01*
X67441457Y-167419393D01*
X67441458Y-167419395D01*
X67530714Y-167610806D01*
X67651852Y-167783809D01*
X67801191Y-167933148D01*
X67801194Y-167933150D01*
X67801195Y-167933151D01*
X67974191Y-168054284D01*
X67974194Y-168054286D01*
X68165605Y-168143542D01*
X68165609Y-168143543D01*
X68165611Y-168143544D01*
X68251829Y-168166645D01*
X68369606Y-168198204D01*
X68580000Y-168216611D01*
X68790394Y-168198204D01*
X68994395Y-168143542D01*
X69185806Y-168054286D01*
X69358809Y-167933148D01*
X69508148Y-167783809D01*
X69629286Y-167610806D01*
X69718542Y-167419395D01*
X69773204Y-167215394D01*
X69791611Y-167005000D01*
X69773204Y-166794606D01*
X69718542Y-166590605D01*
X69629286Y-166399195D01*
X69508148Y-166226191D01*
X69358809Y-166076852D01*
X69358805Y-166076849D01*
X69358804Y-166076848D01*
X69188340Y-165957488D01*
X69131753Y-165894956D01*
X69107901Y-165814063D01*
X69121509Y-165730833D01*
X69169882Y-165661750D01*
X69216949Y-165630512D01*
X69245282Y-165617300D01*
X69323780Y-165562333D01*
X68750234Y-164988787D01*
X68792292Y-164977518D01*
X68917708Y-164905110D01*
X69020110Y-164802708D01*
X69092518Y-164677292D01*
X69103787Y-164635234D01*
X69677333Y-165208779D01*
X69732300Y-165130282D01*
X69745512Y-165101949D01*
X69797268Y-165035362D01*
X69872789Y-164997825D01*
X69957117Y-164996772D01*
X70033552Y-165032413D01*
X70072488Y-165073340D01*
X70167323Y-165208779D01*
X70191852Y-165243809D01*
X70341191Y-165393148D01*
X70341194Y-165393150D01*
X70341195Y-165393151D01*
X70514191Y-165514284D01*
X70514194Y-165514286D01*
X70705605Y-165603542D01*
X70705609Y-165603543D01*
X70705611Y-165603544D01*
X70791829Y-165626645D01*
X70909606Y-165658204D01*
X71120000Y-165676611D01*
X71330394Y-165658204D01*
X71534395Y-165603542D01*
X71603137Y-165571487D01*
X71613914Y-165566462D01*
X71696363Y-165548722D01*
X71778343Y-165568512D01*
X71843619Y-165621912D01*
X71879260Y-165698346D01*
X71883500Y-165738207D01*
X71883500Y-175606706D01*
X71864734Y-175688927D01*
X71827997Y-175740703D01*
X69077946Y-178490753D01*
X69006537Y-178535622D01*
X68922732Y-178545064D01*
X68894904Y-178539799D01*
X68790395Y-178511796D01*
X68790390Y-178511795D01*
X68580000Y-178493389D01*
X68369609Y-178511795D01*
X68369608Y-178511795D01*
X68165606Y-178566457D01*
X68165601Y-178566459D01*
X67974201Y-178655710D01*
X67974198Y-178655712D01*
X67801194Y-178776849D01*
X67651848Y-178926195D01*
X67532488Y-179096660D01*
X67469956Y-179153247D01*
X67389063Y-179177099D01*
X67305833Y-179163491D01*
X67236750Y-179115118D01*
X67205513Y-179068052D01*
X67192301Y-179039720D01*
X67137334Y-178961218D01*
X66563787Y-179534765D01*
X66552518Y-179492708D01*
X66480110Y-179367292D01*
X66377708Y-179264890D01*
X66252292Y-179192482D01*
X66210233Y-179181212D01*
X66783781Y-178607664D01*
X66705285Y-178552700D01*
X66705277Y-178552695D01*
X66495086Y-178454682D01*
X66271046Y-178394650D01*
X66040000Y-178374437D01*
X65808953Y-178394650D01*
X65584913Y-178454682D01*
X65374720Y-178552697D01*
X65296218Y-178607665D01*
X65869766Y-179181212D01*
X65827708Y-179192482D01*
X65702292Y-179264890D01*
X65599890Y-179367292D01*
X65527482Y-179492708D01*
X65516212Y-179534765D01*
X64942665Y-178961218D01*
X64887697Y-179039720D01*
X64789680Y-179249919D01*
X64786853Y-179257688D01*
X64784317Y-179256765D01*
X64752047Y-179317789D01*
X64684180Y-179367853D01*
X64601311Y-179383513D01*
X64519854Y-179361666D01*
X64474443Y-179328144D01*
X64209687Y-179063388D01*
X64164818Y-178991979D01*
X64155376Y-178908174D01*
X64183230Y-178828571D01*
X64183231Y-178828570D01*
X64209269Y-178787130D01*
X64214365Y-178779020D01*
X64273006Y-178611434D01*
X64292885Y-178435000D01*
X64273006Y-178258566D01*
X64214365Y-178090980D01*
X64119902Y-177940644D01*
X63994356Y-177815098D01*
X63844020Y-177720635D01*
X63676436Y-177661994D01*
X63500000Y-177642115D01*
X63323563Y-177661994D01*
X63155979Y-177720635D01*
X63005642Y-177815099D01*
X62880099Y-177940642D01*
X62785635Y-178090979D01*
X62726994Y-178258563D01*
X62707115Y-178435000D01*
X62726994Y-178611436D01*
X62781069Y-178765972D01*
X62785635Y-178779020D01*
X62878111Y-178926194D01*
X62880099Y-178929357D01*
X62937996Y-178987254D01*
X62982865Y-179058663D01*
X62993499Y-179121251D01*
X62993499Y-179136682D01*
X63000683Y-179163491D01*
X63025823Y-179257315D01*
X63028016Y-179265499D01*
X63028017Y-179265503D01*
X63083537Y-179361666D01*
X63094699Y-179380999D01*
X63189001Y-179475301D01*
X63189003Y-179475302D01*
X64659997Y-180946296D01*
X64704866Y-181017705D01*
X64715500Y-181080293D01*
X64715500Y-184863776D01*
X64696734Y-184945997D01*
X64644151Y-185011933D01*
X64568168Y-185048525D01*
X64483832Y-185048525D01*
X64407849Y-185011933D01*
X64392003Y-184997773D01*
X61397003Y-182002773D01*
X61352134Y-181931364D01*
X61341500Y-181868776D01*
X61341500Y-166052000D01*
X61360266Y-165969779D01*
X61412849Y-165903843D01*
X61488832Y-165867251D01*
X61531000Y-165862500D01*
X66149986Y-165862500D01*
X66367249Y-165828089D01*
X66576454Y-165760114D01*
X66772449Y-165660249D01*
X66950410Y-165530953D01*
X67105953Y-165375410D01*
X67201043Y-165244528D01*
X67264552Y-165189042D01*
X67345848Y-165166605D01*
X67428828Y-165181663D01*
X67463892Y-165207138D01*
X67482664Y-165208781D01*
X68056212Y-164635233D01*
X68067482Y-164677292D01*
G37*
%TD.AperFunction*%
%TA.AperFunction,Conductor*%
G36*
X92098343Y-165568512D02*
G01*
X92163619Y-165621912D01*
X92199260Y-165698346D01*
X92203500Y-165738207D01*
X92203500Y-173066706D01*
X92184734Y-173148927D01*
X92147997Y-173200703D01*
X86857946Y-178490753D01*
X86786537Y-178535622D01*
X86702732Y-178545064D01*
X86674904Y-178539799D01*
X86570395Y-178511796D01*
X86570390Y-178511795D01*
X86360000Y-178493389D01*
X86149609Y-178511795D01*
X86149608Y-178511795D01*
X85945606Y-178566457D01*
X85945601Y-178566459D01*
X85754201Y-178655710D01*
X85754198Y-178655712D01*
X85581194Y-178776849D01*
X85431849Y-178926194D01*
X85310712Y-179099198D01*
X85310710Y-179099201D01*
X85261745Y-179204207D01*
X85209989Y-179270794D01*
X85134467Y-179308330D01*
X85050138Y-179309381D01*
X84973705Y-179273739D01*
X84920304Y-179208464D01*
X84918255Y-179204207D01*
X84869289Y-179099201D01*
X84869287Y-179099198D01*
X84869286Y-179099195D01*
X84748148Y-178926191D01*
X84598809Y-178776852D01*
X84598805Y-178776849D01*
X84598804Y-178776848D01*
X84425808Y-178655715D01*
X84330851Y-178611436D01*
X84234395Y-178566458D01*
X84234393Y-178566457D01*
X84234388Y-178566455D01*
X84030391Y-178511795D01*
X83820000Y-178493389D01*
X83609609Y-178511795D01*
X83609608Y-178511795D01*
X83405606Y-178566457D01*
X83326085Y-178603538D01*
X83243636Y-178621277D01*
X83161656Y-178601487D01*
X83096381Y-178548086D01*
X83060740Y-178471652D01*
X83056500Y-178431792D01*
X83056500Y-178088293D01*
X83075266Y-178006072D01*
X83112003Y-177954296D01*
X86765304Y-174300995D01*
X90575301Y-170490999D01*
X90641983Y-170375502D01*
X90676500Y-170246682D01*
X90676500Y-170113319D01*
X90676500Y-165738207D01*
X90695266Y-165655986D01*
X90747849Y-165590050D01*
X90823832Y-165553458D01*
X90908168Y-165553458D01*
X90946086Y-165566462D01*
X90965066Y-165575312D01*
X91025605Y-165603542D01*
X91229606Y-165658204D01*
X91440000Y-165676611D01*
X91650394Y-165658204D01*
X91854395Y-165603542D01*
X91923137Y-165571487D01*
X91933914Y-165566462D01*
X92016363Y-165548722D01*
X92098343Y-165568512D01*
G37*
%TD.AperFunction*%
%TA.AperFunction,Conductor*%
G36*
X98547482Y-172297292D02*
G01*
X98619890Y-172422708D01*
X98722292Y-172525110D01*
X98847708Y-172597518D01*
X98889765Y-172608787D01*
X98316218Y-173182334D01*
X98394712Y-173237298D01*
X98423051Y-173250512D01*
X98489638Y-173302268D01*
X98527175Y-173377789D01*
X98528228Y-173462117D01*
X98492587Y-173538552D01*
X98451660Y-173577488D01*
X98281195Y-173696848D01*
X98131849Y-173846194D01*
X98010712Y-174019198D01*
X98010710Y-174019201D01*
X97921459Y-174210601D01*
X97921457Y-174210606D01*
X97866795Y-174414608D01*
X97866795Y-174414609D01*
X97848389Y-174625000D01*
X97866795Y-174835390D01*
X97866795Y-174835391D01*
X97921455Y-175039388D01*
X97921457Y-175039393D01*
X97921458Y-175039395D01*
X98010714Y-175230806D01*
X98131852Y-175403809D01*
X98281191Y-175553148D01*
X98281194Y-175553150D01*
X98281195Y-175553151D01*
X98454191Y-175674284D01*
X98454194Y-175674286D01*
X98559210Y-175723255D01*
X98625794Y-175775009D01*
X98663330Y-175850530D01*
X98664383Y-175934859D01*
X98628741Y-176011293D01*
X98563466Y-176064694D01*
X98559209Y-176066744D01*
X98454197Y-176115712D01*
X98281194Y-176236849D01*
X98131849Y-176386194D01*
X98010712Y-176559198D01*
X98010710Y-176559201D01*
X97921459Y-176750601D01*
X97921457Y-176750606D01*
X97866795Y-176954608D01*
X97866795Y-176954609D01*
X97848389Y-177165000D01*
X97866795Y-177375390D01*
X97866795Y-177375391D01*
X97921455Y-177579388D01*
X97921457Y-177579393D01*
X97921458Y-177579395D01*
X97987319Y-177720635D01*
X98010715Y-177770808D01*
X98129635Y-177940644D01*
X98131852Y-177943809D01*
X98281191Y-178093148D01*
X98281194Y-178093150D01*
X98281195Y-178093151D01*
X98452539Y-178213127D01*
X98454194Y-178214286D01*
X98559210Y-178263255D01*
X98625794Y-178315009D01*
X98663330Y-178390530D01*
X98664383Y-178474859D01*
X98628741Y-178551293D01*
X98563466Y-178604694D01*
X98559209Y-178606744D01*
X98454197Y-178655712D01*
X98281194Y-178776849D01*
X98131849Y-178926194D01*
X98010712Y-179099198D01*
X98010710Y-179099201D01*
X97961745Y-179204207D01*
X97909989Y-179270794D01*
X97834467Y-179308330D01*
X97750138Y-179309381D01*
X97673705Y-179273739D01*
X97620304Y-179208464D01*
X97618255Y-179204207D01*
X97569289Y-179099201D01*
X97569287Y-179099198D01*
X97569286Y-179099195D01*
X97448148Y-178926191D01*
X97298809Y-178776852D01*
X97298805Y-178776849D01*
X97298804Y-178776848D01*
X97125808Y-178655715D01*
X97030851Y-178611436D01*
X96934395Y-178566458D01*
X96934393Y-178566457D01*
X96934388Y-178566455D01*
X96730391Y-178511795D01*
X96520000Y-178493389D01*
X96309609Y-178511795D01*
X96309608Y-178511795D01*
X96105606Y-178566457D01*
X96105601Y-178566459D01*
X95914201Y-178655710D01*
X95914198Y-178655712D01*
X95741194Y-178776849D01*
X95591849Y-178926194D01*
X95470712Y-179099198D01*
X95470710Y-179099201D01*
X95421745Y-179204207D01*
X95369989Y-179270794D01*
X95294467Y-179308330D01*
X95210138Y-179309381D01*
X95133705Y-179273739D01*
X95080304Y-179208464D01*
X95078255Y-179204207D01*
X95029289Y-179099201D01*
X95029287Y-179099198D01*
X95029286Y-179099195D01*
X94908148Y-178926191D01*
X94758809Y-178776852D01*
X94758805Y-178776849D01*
X94758804Y-178776848D01*
X94585808Y-178655715D01*
X94490851Y-178611436D01*
X94394395Y-178566458D01*
X94394393Y-178566457D01*
X94394388Y-178566455D01*
X94190391Y-178511795D01*
X93980000Y-178493389D01*
X93769609Y-178511795D01*
X93769608Y-178511795D01*
X93565606Y-178566457D01*
X93565601Y-178566459D01*
X93374201Y-178655710D01*
X93374198Y-178655712D01*
X93201194Y-178776849D01*
X93051849Y-178926194D01*
X92930712Y-179099198D01*
X92930710Y-179099201D01*
X92881745Y-179204207D01*
X92829989Y-179270794D01*
X92754467Y-179308330D01*
X92670138Y-179309381D01*
X92593705Y-179273739D01*
X92540304Y-179208464D01*
X92538255Y-179204207D01*
X92489289Y-179099201D01*
X92489287Y-179099198D01*
X92489286Y-179099195D01*
X92368148Y-178926191D01*
X92218809Y-178776852D01*
X92218805Y-178776849D01*
X92218804Y-178776848D01*
X92045808Y-178655715D01*
X92045803Y-178655712D01*
X91956077Y-178613872D01*
X91889491Y-178562115D01*
X91851955Y-178486593D01*
X91850904Y-178402264D01*
X91886546Y-178325831D01*
X91902158Y-178308139D01*
X97573968Y-172636331D01*
X97645370Y-172591467D01*
X97729175Y-172582025D01*
X97808778Y-172609879D01*
X97868412Y-172669513D01*
X97879703Y-172690246D01*
X97907698Y-172750280D01*
X97907700Y-172750285D01*
X97962664Y-172828780D01*
X98536212Y-172255232D01*
X98547482Y-172297292D01*
G37*
%TD.AperFunction*%
%TA.AperFunction,Conductor*%
G36*
X78665221Y-141116266D02*
G01*
X78731157Y-141168849D01*
X78767749Y-141244832D01*
X78772500Y-141287000D01*
X78772500Y-143619986D01*
X78806911Y-143837252D01*
X78874886Y-144046453D01*
X78874890Y-144046464D01*
X78974751Y-144242450D01*
X79104047Y-144420410D01*
X79259589Y-144575952D01*
X79437549Y-144705248D01*
X79633535Y-144805109D01*
X79633539Y-144805110D01*
X79633546Y-144805114D01*
X79793394Y-144857052D01*
X79842747Y-144873088D01*
X79842748Y-144873088D01*
X79842751Y-144873089D01*
X80060014Y-144907500D01*
X80279986Y-144907500D01*
X80497249Y-144873089D01*
X80706454Y-144805114D01*
X80718713Y-144798868D01*
X80782238Y-144766500D01*
X80902449Y-144705249D01*
X81080410Y-144575953D01*
X81185410Y-144470953D01*
X81256818Y-144426083D01*
X81340623Y-144416640D01*
X81420226Y-144444494D01*
X81453404Y-144470952D01*
X81522020Y-144539568D01*
X81688506Y-144650810D01*
X81819934Y-144705249D01*
X81873498Y-144727436D01*
X82069884Y-144766500D01*
X82270116Y-144766500D01*
X82466502Y-144727436D01*
X82651493Y-144650810D01*
X82817981Y-144539567D01*
X82959567Y-144397981D01*
X82962432Y-144393693D01*
X83012436Y-144318857D01*
X83073718Y-144260918D01*
X83154071Y-144235307D01*
X83237578Y-144247095D01*
X83307701Y-144293949D01*
X83327564Y-144318857D01*
X83380429Y-144397977D01*
X83522020Y-144539568D01*
X83688506Y-144650810D01*
X83819934Y-144705249D01*
X83873498Y-144727436D01*
X84069884Y-144766500D01*
X84270116Y-144766500D01*
X84466502Y-144727436D01*
X84651493Y-144650810D01*
X84817981Y-144539567D01*
X84959567Y-144397981D01*
X84962432Y-144393693D01*
X85012436Y-144318857D01*
X85073718Y-144260918D01*
X85154071Y-144235307D01*
X85237578Y-144247095D01*
X85307701Y-144293949D01*
X85327564Y-144318857D01*
X85380429Y-144397977D01*
X85522020Y-144539568D01*
X85688506Y-144650810D01*
X85819934Y-144705249D01*
X85873498Y-144727436D01*
X86069884Y-144766500D01*
X86270116Y-144766500D01*
X86466502Y-144727436D01*
X86651493Y-144650810D01*
X86817981Y-144539567D01*
X86959567Y-144397981D01*
X86962432Y-144393693D01*
X87012436Y-144318857D01*
X87073718Y-144260918D01*
X87154071Y-144235307D01*
X87237578Y-144247095D01*
X87307701Y-144293949D01*
X87327564Y-144318857D01*
X87380429Y-144397977D01*
X87522019Y-144539567D01*
X87674280Y-144641304D01*
X87732218Y-144702587D01*
X87757829Y-144782940D01*
X87758500Y-144798868D01*
X87758500Y-157953706D01*
X87739734Y-158035927D01*
X87702997Y-158087703D01*
X82285960Y-163504739D01*
X82214551Y-163549608D01*
X82130746Y-163559050D01*
X82051143Y-163531196D01*
X82043271Y-163525972D01*
X81923999Y-163442457D01*
X81885806Y-163415714D01*
X81694395Y-163326458D01*
X81694393Y-163326457D01*
X81694388Y-163326455D01*
X81490391Y-163271795D01*
X81280000Y-163253389D01*
X81069609Y-163271795D01*
X81069608Y-163271795D01*
X80865606Y-163326457D01*
X80865601Y-163326459D01*
X80674201Y-163415710D01*
X80674198Y-163415712D01*
X80501194Y-163536849D01*
X80351849Y-163686194D01*
X80230712Y-163859198D01*
X80230710Y-163859201D01*
X80181745Y-163964207D01*
X80129989Y-164030794D01*
X80054467Y-164068330D01*
X79970138Y-164069381D01*
X79893705Y-164033739D01*
X79840304Y-163968464D01*
X79838255Y-163964207D01*
X79789289Y-163859201D01*
X79789287Y-163859198D01*
X79789286Y-163859195D01*
X79668148Y-163686191D01*
X79518809Y-163536852D01*
X79518805Y-163536849D01*
X79518804Y-163536848D01*
X79345808Y-163415715D01*
X79345797Y-163415710D01*
X79154395Y-163326458D01*
X79154393Y-163326457D01*
X79154388Y-163326455D01*
X78950391Y-163271795D01*
X78740000Y-163253389D01*
X78529609Y-163271795D01*
X78529608Y-163271795D01*
X78325606Y-163326457D01*
X78325601Y-163326459D01*
X78134201Y-163415710D01*
X78134198Y-163415712D01*
X77961194Y-163536849D01*
X77811849Y-163686194D01*
X77690712Y-163859198D01*
X77690710Y-163859201D01*
X77641745Y-163964207D01*
X77589989Y-164030794D01*
X77514467Y-164068330D01*
X77430138Y-164069381D01*
X77353705Y-164033739D01*
X77300304Y-163968464D01*
X77298255Y-163964207D01*
X77249289Y-163859201D01*
X77249287Y-163859198D01*
X77249286Y-163859195D01*
X77128148Y-163686191D01*
X76978809Y-163536852D01*
X76978805Y-163536849D01*
X76978804Y-163536848D01*
X76805808Y-163415715D01*
X76805797Y-163415710D01*
X76614395Y-163326458D01*
X76614393Y-163326457D01*
X76614388Y-163326455D01*
X76410391Y-163271795D01*
X76200000Y-163253389D01*
X75989609Y-163271795D01*
X75989608Y-163271795D01*
X75785606Y-163326457D01*
X75785601Y-163326459D01*
X75594201Y-163415710D01*
X75594198Y-163415712D01*
X75421193Y-163536850D01*
X75394166Y-163563877D01*
X75322756Y-163608745D01*
X75238951Y-163618186D01*
X75159348Y-163590331D01*
X75126174Y-163563875D01*
X73607003Y-162044704D01*
X73562134Y-161973295D01*
X73551500Y-161910707D01*
X73551500Y-157961399D01*
X73570266Y-157879178D01*
X73622849Y-157813242D01*
X73698832Y-157776650D01*
X73741000Y-157771899D01*
X74786800Y-157771899D01*
X74786805Y-157771899D01*
X74860960Y-157761095D01*
X74860961Y-157761094D01*
X74860963Y-157761094D01*
X74860964Y-157761093D01*
X74975345Y-157705175D01*
X75065375Y-157615145D01*
X75121295Y-157500760D01*
X75132099Y-157426605D01*
X75132099Y-157062787D01*
X76250698Y-157062787D01*
X76250698Y-157897212D01*
X76261502Y-157971364D01*
X76261503Y-157971365D01*
X76303645Y-158057566D01*
X76317422Y-158085746D01*
X76407452Y-158175776D01*
X76456227Y-158199621D01*
X76521832Y-158231694D01*
X76521833Y-158231695D01*
X76521835Y-158231695D01*
X76521837Y-158231696D01*
X76595992Y-158242500D01*
X76595997Y-158242500D01*
X81672199Y-158242500D01*
X81672204Y-158242500D01*
X81746359Y-158231696D01*
X81746360Y-158231695D01*
X81746362Y-158231695D01*
X81746363Y-158231694D01*
X81860744Y-158175776D01*
X81950774Y-158085746D01*
X82006694Y-157971361D01*
X82017498Y-157897206D01*
X82017498Y-157062794D01*
X82006694Y-156988639D01*
X82006693Y-156988637D01*
X82006693Y-156988635D01*
X82006692Y-156988634D01*
X81971828Y-156917320D01*
X81950774Y-156874254D01*
X81860744Y-156784224D01*
X81845172Y-156776611D01*
X81746363Y-156728305D01*
X81746362Y-156728304D01*
X81672210Y-156717500D01*
X81672204Y-156717500D01*
X76595992Y-156717500D01*
X76595985Y-156717500D01*
X76521833Y-156728304D01*
X76521832Y-156728305D01*
X76407455Y-156784222D01*
X76407450Y-156784225D01*
X76317423Y-156874252D01*
X76317420Y-156874257D01*
X76261503Y-156988634D01*
X76261502Y-156988635D01*
X76250698Y-157062787D01*
X75132099Y-157062787D01*
X75132099Y-157003393D01*
X75121295Y-156929238D01*
X75121293Y-156929235D01*
X75119558Y-156917323D01*
X75119558Y-156862677D01*
X75121293Y-156850764D01*
X75121295Y-156850762D01*
X75132099Y-156776607D01*
X75132099Y-156353395D01*
X75121295Y-156279240D01*
X75121294Y-156279237D01*
X75119558Y-156267322D01*
X75119558Y-156212678D01*
X75121294Y-156200761D01*
X75121295Y-156200760D01*
X75132099Y-156126605D01*
X75132099Y-155703393D01*
X75121295Y-155629238D01*
X75121293Y-155629235D01*
X75119558Y-155617323D01*
X75119558Y-155562677D01*
X75121293Y-155550764D01*
X75121295Y-155550762D01*
X75132099Y-155476607D01*
X75132099Y-155311002D01*
X75150865Y-155228781D01*
X75203448Y-155162845D01*
X75279431Y-155126253D01*
X75321599Y-155121502D01*
X76061198Y-155121502D01*
X76143419Y-155140268D01*
X76209355Y-155192851D01*
X76245947Y-155268834D01*
X76250698Y-155311002D01*
X76250698Y-155357212D01*
X76261502Y-155431364D01*
X76261503Y-155431365D01*
X76295848Y-155501617D01*
X76317422Y-155545746D01*
X76407452Y-155635776D01*
X76466040Y-155664418D01*
X76521832Y-155691694D01*
X76521833Y-155691695D01*
X76521835Y-155691695D01*
X76521837Y-155691696D01*
X76595992Y-155702500D01*
X76595997Y-155702500D01*
X81672199Y-155702500D01*
X81672204Y-155702500D01*
X81746359Y-155691696D01*
X81746360Y-155691695D01*
X81746362Y-155691695D01*
X81746363Y-155691694D01*
X81860744Y-155635776D01*
X81950774Y-155545746D01*
X82006694Y-155431361D01*
X82017498Y-155357206D01*
X82017498Y-154522794D01*
X82006694Y-154448639D01*
X81977160Y-154388226D01*
X81957908Y-154306122D01*
X81976188Y-154223792D01*
X81977098Y-154221898D01*
X82006694Y-154161361D01*
X82017498Y-154087206D01*
X82017498Y-153252794D01*
X82006694Y-153178639D01*
X81977160Y-153118226D01*
X81957908Y-153036122D01*
X81976188Y-152953792D01*
X81977098Y-152951898D01*
X82006694Y-152891361D01*
X82017498Y-152817206D01*
X82017498Y-151982794D01*
X82006694Y-151908639D01*
X81977160Y-151848226D01*
X81957908Y-151766122D01*
X81976188Y-151683792D01*
X81977098Y-151681898D01*
X82006694Y-151621361D01*
X82017498Y-151547206D01*
X82017498Y-150712794D01*
X82006694Y-150638639D01*
X82006693Y-150638637D01*
X82006693Y-150638635D01*
X82006692Y-150638634D01*
X81950775Y-150524257D01*
X81950774Y-150524254D01*
X81860744Y-150434224D01*
X81860740Y-150434222D01*
X81746363Y-150378305D01*
X81746362Y-150378304D01*
X81672210Y-150367500D01*
X81672204Y-150367500D01*
X76595992Y-150367500D01*
X76595985Y-150367500D01*
X76521833Y-150378304D01*
X76521832Y-150378305D01*
X76407455Y-150434222D01*
X76407450Y-150434225D01*
X76317423Y-150524252D01*
X76317420Y-150524257D01*
X76261503Y-150638634D01*
X76261502Y-150638635D01*
X76250698Y-150712787D01*
X76250698Y-151547212D01*
X76261502Y-151621362D01*
X76291035Y-151681771D01*
X76310287Y-151763880D01*
X76292007Y-151846210D01*
X76291035Y-151848229D01*
X76261502Y-151908637D01*
X76250698Y-151982787D01*
X76250698Y-152817212D01*
X76261502Y-152891362D01*
X76291035Y-152951771D01*
X76310287Y-153033880D01*
X76292007Y-153116210D01*
X76291035Y-153118229D01*
X76261502Y-153178637D01*
X76250698Y-153252787D01*
X76250698Y-153269001D01*
X76231932Y-153351222D01*
X76179349Y-153417158D01*
X76103366Y-153453750D01*
X76061198Y-153458501D01*
X75129515Y-153458501D01*
X75047294Y-153439735D01*
X74981358Y-153387152D01*
X74944766Y-153311169D01*
X74944766Y-153226833D01*
X74981358Y-153150850D01*
X74995518Y-153135004D01*
X75014312Y-153116210D01*
X75065375Y-153065147D01*
X75121295Y-152950762D01*
X75132099Y-152876607D01*
X75132099Y-152453395D01*
X75121295Y-152379240D01*
X75121294Y-152379238D01*
X75121294Y-152379236D01*
X75121293Y-152379235D01*
X75065376Y-152264858D01*
X75065375Y-152264855D01*
X74975345Y-152174825D01*
X74975344Y-152174824D01*
X74907770Y-152141789D01*
X74842147Y-152088818D01*
X74806005Y-152012619D01*
X74801500Y-151971545D01*
X74801500Y-151657494D01*
X74820266Y-151575273D01*
X74872849Y-151509337D01*
X74935067Y-151476437D01*
X74938753Y-151475297D01*
X74938761Y-151475296D01*
X75053146Y-151419376D01*
X75143176Y-151329346D01*
X75199096Y-151214961D01*
X75209900Y-151140806D01*
X75209900Y-149849194D01*
X75199096Y-149775039D01*
X75199095Y-149775037D01*
X75199095Y-149775035D01*
X75199094Y-149775034D01*
X75143177Y-149660657D01*
X75143176Y-149660654D01*
X75053146Y-149570624D01*
X75053142Y-149570622D01*
X74938765Y-149514705D01*
X74938764Y-149514704D01*
X74864612Y-149503900D01*
X74864606Y-149503900D01*
X73725394Y-149503900D01*
X73725387Y-149503900D01*
X73651235Y-149514704D01*
X73651234Y-149514705D01*
X73536857Y-149570622D01*
X73536852Y-149570625D01*
X73446825Y-149660652D01*
X73446822Y-149660657D01*
X73390905Y-149775034D01*
X73386561Y-149789095D01*
X73385365Y-149788725D01*
X73360624Y-149852683D01*
X73299082Y-149910347D01*
X73233460Y-149930940D01*
X73228201Y-149936200D01*
X73228200Y-149936200D01*
X73228200Y-151053800D01*
X73228201Y-151053800D01*
X73235496Y-151061095D01*
X73285753Y-151072566D01*
X73351689Y-151125149D01*
X73388281Y-151201132D01*
X73390798Y-151214621D01*
X73390905Y-151214965D01*
X73446822Y-151329342D01*
X73446824Y-151329346D01*
X73536854Y-151419376D01*
X73596907Y-151448734D01*
X73651232Y-151475293D01*
X73651234Y-151475293D01*
X73651239Y-151475296D01*
X73651244Y-151475296D01*
X73654933Y-151476437D01*
X73662412Y-151480759D01*
X73664461Y-151481761D01*
X73664391Y-151481903D01*
X73727952Y-151518636D01*
X73775430Y-151588337D01*
X73788500Y-151657494D01*
X73788500Y-151918601D01*
X73769734Y-152000822D01*
X73717151Y-152066758D01*
X73641168Y-152103350D01*
X73599000Y-152108101D01*
X73333786Y-152108101D01*
X73259635Y-152118905D01*
X73218029Y-152139246D01*
X73135921Y-152158498D01*
X73134801Y-152158501D01*
X73127919Y-152158501D01*
X72999098Y-152193018D01*
X72999094Y-152193020D01*
X72883608Y-152259695D01*
X72883598Y-152259703D01*
X72789299Y-152354001D01*
X72789300Y-152354002D01*
X72789298Y-152354004D01*
X71571003Y-153572299D01*
X71571001Y-153572301D01*
X71571000Y-153572300D01*
X71476699Y-153666601D01*
X71476698Y-153666604D01*
X71447429Y-153717298D01*
X71447429Y-153717300D01*
X71410017Y-153782100D01*
X71410017Y-153782101D01*
X71410016Y-153782101D01*
X71391523Y-153851119D01*
X71375499Y-153910920D01*
X71375499Y-153910922D01*
X71375499Y-154059553D01*
X71375500Y-154059566D01*
X71375500Y-163068939D01*
X71356734Y-163151160D01*
X71304151Y-163217096D01*
X71228168Y-163253688D01*
X71169485Y-163257718D01*
X71120001Y-163253389D01*
X71120000Y-163253389D01*
X71098934Y-163255232D01*
X70909609Y-163271795D01*
X70909608Y-163271795D01*
X70705606Y-163326457D01*
X70705601Y-163326459D01*
X70514201Y-163415710D01*
X70514198Y-163415712D01*
X70341194Y-163536849D01*
X70191848Y-163686195D01*
X70072488Y-163856660D01*
X70009956Y-163913247D01*
X69929063Y-163937099D01*
X69845833Y-163923491D01*
X69776750Y-163875118D01*
X69745513Y-163828052D01*
X69732301Y-163799720D01*
X69677334Y-163721218D01*
X69103787Y-164294765D01*
X69092518Y-164252708D01*
X69020110Y-164127292D01*
X68917708Y-164024890D01*
X68792292Y-163952482D01*
X68750233Y-163941212D01*
X69323781Y-163367664D01*
X69245285Y-163312700D01*
X69245277Y-163312695D01*
X69035086Y-163214682D01*
X68811046Y-163154650D01*
X68580000Y-163134437D01*
X68348953Y-163154650D01*
X68124913Y-163214682D01*
X67914720Y-163312697D01*
X67836218Y-163367665D01*
X68409766Y-163941212D01*
X68367708Y-163952482D01*
X68242292Y-164024890D01*
X68139890Y-164127292D01*
X68067482Y-164252708D01*
X68056212Y-164294766D01*
X67482664Y-163721218D01*
X67465433Y-163722725D01*
X67447045Y-163739366D01*
X67366152Y-163763216D01*
X67282922Y-163749607D01*
X67213839Y-163701233D01*
X67201042Y-163685469D01*
X67152158Y-163618186D01*
X67105953Y-163554590D01*
X66950410Y-163399047D01*
X66919433Y-163376541D01*
X66772450Y-163269751D01*
X66576464Y-163169890D01*
X66576456Y-163169887D01*
X66576454Y-163169886D01*
X66524152Y-163152892D01*
X66367252Y-163101911D01*
X66149986Y-163067500D01*
X61531000Y-163067500D01*
X61448779Y-163048734D01*
X61382843Y-162996151D01*
X61346251Y-162920168D01*
X61341500Y-162878000D01*
X61341500Y-153024187D01*
X63029600Y-153024187D01*
X63029600Y-154315812D01*
X63040404Y-154389964D01*
X63040405Y-154389965D01*
X63096323Y-154504344D01*
X63102069Y-154512393D01*
X63134569Y-154590215D01*
X63130084Y-154674431D01*
X63102069Y-154732607D01*
X63096323Y-154740655D01*
X63040405Y-154855034D01*
X63040404Y-154855035D01*
X63029600Y-154929187D01*
X63029600Y-156220812D01*
X63040404Y-156294964D01*
X63040405Y-156294965D01*
X63096322Y-156409342D01*
X63096324Y-156409346D01*
X63186354Y-156499376D01*
X63243882Y-156527500D01*
X63300734Y-156555294D01*
X63300735Y-156555295D01*
X63300737Y-156555295D01*
X63300739Y-156555296D01*
X63374894Y-156566100D01*
X63374899Y-156566100D01*
X64426307Y-156566100D01*
X64508528Y-156584866D01*
X64574464Y-156637449D01*
X64611056Y-156713432D01*
X64611056Y-156797768D01*
X64574464Y-156873751D01*
X64560304Y-156889597D01*
X64528701Y-156921200D01*
X64528700Y-156921200D01*
X64528700Y-158038800D01*
X64528701Y-158038800D01*
X64535996Y-158046095D01*
X64586253Y-158057566D01*
X64652189Y-158110149D01*
X64688781Y-158186132D01*
X64691298Y-158199621D01*
X64691405Y-158199965D01*
X64712200Y-158242500D01*
X64747324Y-158314346D01*
X64837354Y-158404376D01*
X64895942Y-158433018D01*
X64951734Y-158460294D01*
X64951735Y-158460295D01*
X64951737Y-158460295D01*
X64951739Y-158460296D01*
X65025894Y-158471100D01*
X65025899Y-158471100D01*
X66165101Y-158471100D01*
X66165106Y-158471100D01*
X66239261Y-158460296D01*
X66239262Y-158460295D01*
X66239264Y-158460295D01*
X66239265Y-158460294D01*
X66353646Y-158404376D01*
X66443676Y-158314346D01*
X66499596Y-158199961D01*
X66510400Y-158125806D01*
X66510400Y-157359893D01*
X66529166Y-157277672D01*
X66565903Y-157225896D01*
X66784404Y-157007395D01*
X66855813Y-156962526D01*
X66939618Y-156953084D01*
X67019221Y-156980938D01*
X67078855Y-157040572D01*
X67106709Y-157120175D01*
X67107901Y-157141392D01*
X67107901Y-157426611D01*
X67118705Y-157500763D01*
X67118706Y-157500764D01*
X67174623Y-157615141D01*
X67174625Y-157615145D01*
X67264655Y-157705175D01*
X67323243Y-157733817D01*
X67379035Y-157761093D01*
X67379036Y-157761094D01*
X67379038Y-157761094D01*
X67379040Y-157761095D01*
X67453195Y-157771899D01*
X67453200Y-157771899D01*
X68906202Y-157771899D01*
X68906207Y-157771899D01*
X68980362Y-157761095D01*
X68980363Y-157761094D01*
X68980365Y-157761094D01*
X68980366Y-157761093D01*
X69094747Y-157705175D01*
X69184777Y-157615145D01*
X69240697Y-157500760D01*
X69251501Y-157426605D01*
X69251501Y-157003393D01*
X69240697Y-156929238D01*
X69240696Y-156929236D01*
X69238960Y-156917320D01*
X69238960Y-156862675D01*
X69240695Y-156850761D01*
X69240697Y-156850759D01*
X69251501Y-156776604D01*
X69251501Y-156353392D01*
X69240697Y-156279237D01*
X69240695Y-156279234D01*
X69238960Y-156267321D01*
X69238960Y-156212675D01*
X69240695Y-156200762D01*
X69240697Y-156200760D01*
X69251501Y-156126605D01*
X69251501Y-155703393D01*
X69240697Y-155629238D01*
X69240696Y-155629236D01*
X69238960Y-155617320D01*
X69238960Y-155562675D01*
X69240695Y-155550761D01*
X69240697Y-155550759D01*
X69251501Y-155476604D01*
X69251501Y-155053392D01*
X69240697Y-154979237D01*
X69240695Y-154979234D01*
X69238960Y-154967321D01*
X69238960Y-154912675D01*
X69240695Y-154900762D01*
X69240697Y-154900760D01*
X69251501Y-154826605D01*
X69251501Y-154403393D01*
X69240697Y-154329238D01*
X69240695Y-154329235D01*
X69238960Y-154317323D01*
X69238960Y-154262677D01*
X69240695Y-154250764D01*
X69240697Y-154250762D01*
X69251501Y-154176607D01*
X69251501Y-153933340D01*
X69270267Y-153851119D01*
X69322850Y-153785183D01*
X69346243Y-153769233D01*
X69430999Y-153720300D01*
X69525301Y-153625998D01*
X69525302Y-153625997D01*
X69600301Y-153550998D01*
X69666983Y-153435501D01*
X69687481Y-153359002D01*
X69701501Y-153306681D01*
X69701501Y-153173317D01*
X69701501Y-153161706D01*
X69701500Y-153161688D01*
X69701500Y-152097918D01*
X69675483Y-152000822D01*
X69666983Y-151969099D01*
X69632076Y-151908638D01*
X69600305Y-151853608D01*
X69600303Y-151853605D01*
X69600301Y-151853602D01*
X69592909Y-151846210D01*
X69499398Y-151752698D01*
X69499375Y-151752677D01*
X69200701Y-151454003D01*
X69200700Y-151454001D01*
X69106398Y-151359699D01*
X69053825Y-151329346D01*
X68990902Y-151293017D01*
X68947961Y-151281511D01*
X68862081Y-151258499D01*
X68728717Y-151258499D01*
X68717105Y-151258499D01*
X68717089Y-151258500D01*
X66694588Y-151258500D01*
X66612367Y-151239734D01*
X66546431Y-151187151D01*
X66509839Y-151111168D01*
X66507068Y-151096323D01*
X66504760Y-151080483D01*
X66499596Y-151045039D01*
X66499595Y-151045037D01*
X66499595Y-151045035D01*
X66499594Y-151045034D01*
X66443677Y-150930657D01*
X66443676Y-150930654D01*
X66353646Y-150840624D01*
X66353642Y-150840622D01*
X66239265Y-150784705D01*
X66239264Y-150784704D01*
X66165112Y-150773900D01*
X66165106Y-150773900D01*
X65025894Y-150773900D01*
X65025887Y-150773900D01*
X64951735Y-150784704D01*
X64951734Y-150784705D01*
X64837357Y-150840622D01*
X64837352Y-150840625D01*
X64747325Y-150930652D01*
X64747322Y-150930657D01*
X64691405Y-151045034D01*
X64687061Y-151059095D01*
X64685865Y-151058725D01*
X64661124Y-151122683D01*
X64599582Y-151180347D01*
X64533960Y-151200940D01*
X64528701Y-151206200D01*
X64528700Y-151206200D01*
X64528700Y-151206201D01*
X64528700Y-152045650D01*
X64509934Y-152127871D01*
X64457351Y-152193807D01*
X64388248Y-152228693D01*
X64371207Y-152233259D01*
X64293177Y-152254167D01*
X64293176Y-152254167D01*
X64258659Y-152263416D01*
X64143166Y-152330096D01*
X64143162Y-152330099D01*
X64092700Y-152380561D01*
X63998399Y-152474861D01*
X63960853Y-152539895D01*
X63960851Y-152539898D01*
X63935301Y-152584151D01*
X63877938Y-152645973D01*
X63799432Y-152676784D01*
X63771190Y-152678900D01*
X63374887Y-152678900D01*
X63300735Y-152689704D01*
X63300734Y-152689705D01*
X63186357Y-152745622D01*
X63186352Y-152745625D01*
X63096325Y-152835652D01*
X63096322Y-152835657D01*
X63040405Y-152950034D01*
X63040404Y-152950035D01*
X63029600Y-153024187D01*
X61341500Y-153024187D01*
X61341500Y-145097000D01*
X61360266Y-145014779D01*
X61412849Y-144948843D01*
X61488832Y-144912251D01*
X61531000Y-144907500D01*
X64244986Y-144907500D01*
X64462249Y-144873089D01*
X64671454Y-144805114D01*
X64683713Y-144798868D01*
X64747238Y-144766500D01*
X64867449Y-144705249D01*
X65045410Y-144575953D01*
X65150410Y-144470953D01*
X65221818Y-144426083D01*
X65305623Y-144416640D01*
X65385226Y-144444494D01*
X65418404Y-144470952D01*
X65487020Y-144539568D01*
X65653506Y-144650810D01*
X65784934Y-144705249D01*
X65838498Y-144727436D01*
X66034884Y-144766500D01*
X66235114Y-144766500D01*
X66235116Y-144766500D01*
X66431502Y-144727436D01*
X66459217Y-144715956D01*
X66542360Y-144701828D01*
X66623400Y-144725174D01*
X66665734Y-144757033D01*
X66747997Y-144839296D01*
X66792866Y-144910705D01*
X66803500Y-144973293D01*
X66803500Y-147776748D01*
X66784734Y-147858969D01*
X66747997Y-147910745D01*
X66690099Y-147968642D01*
X66595635Y-148118979D01*
X66536994Y-148286563D01*
X66517115Y-148463000D01*
X66536994Y-148639436D01*
X66568858Y-148730497D01*
X66595635Y-148807020D01*
X66690098Y-148957356D01*
X66815644Y-149082902D01*
X66965980Y-149177365D01*
X67133566Y-149236006D01*
X67310000Y-149255885D01*
X67486434Y-149236006D01*
X67654020Y-149177365D01*
X67804356Y-149082902D01*
X67929902Y-148957356D01*
X68024365Y-148807020D01*
X68083006Y-148639434D01*
X68102885Y-148463000D01*
X68083006Y-148286566D01*
X68024365Y-148118980D01*
X67929902Y-147968644D01*
X67872003Y-147910745D01*
X67827134Y-147839336D01*
X67816500Y-147776748D01*
X67816500Y-144953967D01*
X67835266Y-144871746D01*
X67887849Y-144805810D01*
X67963832Y-144769218D01*
X68025347Y-144768359D01*
X68025620Y-144765588D01*
X68034879Y-144766500D01*
X68034884Y-144766500D01*
X68235116Y-144766500D01*
X68431502Y-144727436D01*
X68616493Y-144650810D01*
X68782981Y-144539567D01*
X68924567Y-144397981D01*
X68927432Y-144393693D01*
X68977436Y-144318857D01*
X69038718Y-144260918D01*
X69119071Y-144235307D01*
X69202578Y-144247095D01*
X69272701Y-144293949D01*
X69292564Y-144318857D01*
X69345429Y-144397977D01*
X69487020Y-144539568D01*
X69653506Y-144650810D01*
X69784934Y-144705249D01*
X69838498Y-144727436D01*
X70034884Y-144766500D01*
X70235116Y-144766500D01*
X70431502Y-144727436D01*
X70616493Y-144650810D01*
X70782981Y-144539567D01*
X70924567Y-144397981D01*
X70927432Y-144393693D01*
X70977436Y-144318857D01*
X71038718Y-144260918D01*
X71119071Y-144235307D01*
X71202578Y-144247095D01*
X71272701Y-144293949D01*
X71292564Y-144318857D01*
X71345429Y-144397977D01*
X71487020Y-144539568D01*
X71653506Y-144650810D01*
X71784934Y-144705249D01*
X71838498Y-144727436D01*
X72034884Y-144766500D01*
X72235116Y-144766500D01*
X72431502Y-144727436D01*
X72616493Y-144650810D01*
X72782981Y-144539567D01*
X72924567Y-144397981D01*
X72928855Y-144393693D01*
X73000264Y-144348823D01*
X73084069Y-144339380D01*
X73163672Y-144367234D01*
X73216162Y-144416305D01*
X73269268Y-144489401D01*
X73395599Y-144615732D01*
X73540129Y-144720738D01*
X73540132Y-144720740D01*
X73699307Y-144801843D01*
X73699314Y-144801846D01*
X73869220Y-144857052D01*
X73885000Y-144859551D01*
X73885000Y-143790330D01*
X73904745Y-143810075D01*
X73990255Y-143859444D01*
X74085630Y-143885000D01*
X74184370Y-143885000D01*
X74279745Y-143859444D01*
X74365255Y-143810075D01*
X74385000Y-143790330D01*
X74385000Y-144859551D01*
X74400779Y-144857052D01*
X74570685Y-144801846D01*
X74570692Y-144801843D01*
X74729867Y-144720740D01*
X74729870Y-144720738D01*
X74874400Y-144615732D01*
X75000732Y-144489400D01*
X75105738Y-144344870D01*
X75105740Y-144344867D01*
X75186843Y-144185692D01*
X75186846Y-144185685D01*
X75242052Y-144015783D01*
X75242052Y-144015782D01*
X75270000Y-143839327D01*
X75270000Y-143760001D01*
X75269999Y-143760000D01*
X74415330Y-143760000D01*
X74435075Y-143740255D01*
X74484444Y-143654745D01*
X74510000Y-143559370D01*
X74510000Y-143460630D01*
X74484444Y-143365255D01*
X74435075Y-143279745D01*
X74415330Y-143260000D01*
X75269999Y-143260000D01*
X75270000Y-143259999D01*
X75270000Y-143180672D01*
X75242052Y-143004217D01*
X75242052Y-143004216D01*
X75186846Y-142834314D01*
X75186843Y-142834307D01*
X75105740Y-142675132D01*
X75105738Y-142675129D01*
X75000732Y-142530599D01*
X74874400Y-142404267D01*
X74729870Y-142299261D01*
X74729867Y-142299259D01*
X74570692Y-142218156D01*
X74570685Y-142218153D01*
X74400780Y-142162947D01*
X74385000Y-142160447D01*
X74385000Y-143229670D01*
X74365255Y-143209925D01*
X74279745Y-143160556D01*
X74184370Y-143135000D01*
X74085630Y-143135000D01*
X73990255Y-143160556D01*
X73904745Y-143209925D01*
X73885000Y-143229670D01*
X73885000Y-142160447D01*
X73869219Y-142162947D01*
X73699314Y-142218153D01*
X73699307Y-142218156D01*
X73540132Y-142299259D01*
X73540129Y-142299261D01*
X73395599Y-142404267D01*
X73269267Y-142530599D01*
X73216161Y-142603695D01*
X73152651Y-142659182D01*
X73071355Y-142681619D01*
X72988374Y-142666561D01*
X72928855Y-142626307D01*
X72782979Y-142480431D01*
X72616493Y-142369189D01*
X72431501Y-142292563D01*
X72235116Y-142253500D01*
X72034884Y-142253500D01*
X71838498Y-142292563D01*
X71653506Y-142369189D01*
X71487020Y-142480431D01*
X71345431Y-142622020D01*
X71292564Y-142701143D01*
X71231281Y-142759081D01*
X71150928Y-142784692D01*
X71067421Y-142772903D01*
X70997298Y-142726049D01*
X70977436Y-142701143D01*
X70924568Y-142622020D01*
X70782979Y-142480431D01*
X70616493Y-142369189D01*
X70431501Y-142292563D01*
X70235116Y-142253500D01*
X70034884Y-142253500D01*
X69838498Y-142292563D01*
X69653506Y-142369189D01*
X69487020Y-142480431D01*
X69345431Y-142622020D01*
X69292564Y-142701143D01*
X69231281Y-142759081D01*
X69150928Y-142784692D01*
X69067421Y-142772903D01*
X68997298Y-142726049D01*
X68977436Y-142701143D01*
X68924568Y-142622020D01*
X68782979Y-142480431D01*
X68616493Y-142369189D01*
X68431501Y-142292563D01*
X68235116Y-142253500D01*
X68034884Y-142253500D01*
X67838498Y-142292563D01*
X67653506Y-142369189D01*
X67487020Y-142480431D01*
X67345431Y-142622020D01*
X67292564Y-142701143D01*
X67231281Y-142759081D01*
X67150928Y-142784692D01*
X67067421Y-142772903D01*
X66997298Y-142726049D01*
X66977436Y-142701143D01*
X66924568Y-142622020D01*
X66782979Y-142480431D01*
X66616493Y-142369189D01*
X66431501Y-142292563D01*
X66235116Y-142253500D01*
X66034884Y-142253500D01*
X65838498Y-142292563D01*
X65653506Y-142369189D01*
X65487019Y-142480432D01*
X65418403Y-142549048D01*
X65346994Y-142593916D01*
X65263188Y-142603358D01*
X65183586Y-142575504D01*
X65150410Y-142549047D01*
X65045410Y-142444047D01*
X64867450Y-142314751D01*
X64671464Y-142214890D01*
X64671456Y-142214887D01*
X64671454Y-142214886D01*
X64596802Y-142190630D01*
X64462252Y-142146911D01*
X64244986Y-142112500D01*
X61531000Y-142112500D01*
X61448779Y-142093734D01*
X61382843Y-142041151D01*
X61346251Y-141965168D01*
X61341500Y-141923000D01*
X61341500Y-141287000D01*
X61360266Y-141204779D01*
X61412849Y-141138843D01*
X61488832Y-141102251D01*
X61531000Y-141097500D01*
X78583000Y-141097500D01*
X78665221Y-141116266D01*
G37*
%TD.AperFunction*%
%TA.AperFunction,Conductor*%
G36*
X98040000Y-143374999D02*
G01*
X98040001Y-143375000D01*
X98119326Y-143375000D01*
X98264355Y-143352029D01*
X98348499Y-143357702D01*
X98421849Y-143399322D01*
X98469877Y-143468646D01*
X98483500Y-143539196D01*
X98483500Y-162519506D01*
X98464734Y-162601727D01*
X98427997Y-162653503D01*
X97555267Y-163526232D01*
X97483858Y-163571101D01*
X97400053Y-163580543D01*
X97320450Y-163552689D01*
X97299451Y-163537392D01*
X97298816Y-163536859D01*
X97298809Y-163536852D01*
X97295132Y-163534277D01*
X97125808Y-163415715D01*
X97125797Y-163415710D01*
X96934395Y-163326458D01*
X96934393Y-163326457D01*
X96934388Y-163326455D01*
X96730391Y-163271795D01*
X96520000Y-163253389D01*
X96309609Y-163271795D01*
X96309608Y-163271795D01*
X96105606Y-163326457D01*
X96026085Y-163363538D01*
X95943636Y-163381277D01*
X95861656Y-163361487D01*
X95796381Y-163308086D01*
X95760740Y-163231652D01*
X95756500Y-163191792D01*
X95756500Y-161596318D01*
X95731265Y-161502141D01*
X95721983Y-161467499D01*
X95666692Y-161371731D01*
X95655305Y-161352008D01*
X95655303Y-161352005D01*
X95655301Y-161352002D01*
X95655297Y-161351998D01*
X95554398Y-161251098D01*
X95554375Y-161251077D01*
X93707495Y-159404197D01*
X93662626Y-159332788D01*
X93653184Y-159248983D01*
X93681038Y-159169380D01*
X93740672Y-159109746D01*
X93820275Y-159081892D01*
X93841492Y-159080700D01*
X97468200Y-159080700D01*
X97468205Y-159080700D01*
X97542360Y-159069896D01*
X97542361Y-159069895D01*
X97542363Y-159069895D01*
X97542364Y-159069894D01*
X97656745Y-159013976D01*
X97746775Y-158923946D01*
X97802695Y-158809561D01*
X97813499Y-158735406D01*
X97813499Y-149874594D01*
X97802695Y-149800439D01*
X97802694Y-149800437D01*
X97802694Y-149800435D01*
X97802693Y-149800434D01*
X97746776Y-149686057D01*
X97746775Y-149686054D01*
X97656745Y-149596024D01*
X97656741Y-149596022D01*
X97542364Y-149540105D01*
X97542363Y-149540104D01*
X97468211Y-149529300D01*
X97468205Y-149529300D01*
X96581000Y-149529300D01*
X96498779Y-149510534D01*
X96432843Y-149457951D01*
X96396251Y-149381968D01*
X96391500Y-149339800D01*
X96391500Y-143144127D01*
X96410266Y-143061906D01*
X96462849Y-142995970D01*
X96538832Y-142959378D01*
X96623168Y-142959378D01*
X96699151Y-142995970D01*
X96714997Y-143010130D01*
X96810599Y-143105732D01*
X96955129Y-143210738D01*
X96955132Y-143210740D01*
X97114307Y-143291843D01*
X97114314Y-143291846D01*
X97284217Y-143347052D01*
X97460672Y-143375000D01*
X97539999Y-143375000D01*
X97540000Y-143374999D01*
X97540000Y-142520330D01*
X97559745Y-142540075D01*
X97645255Y-142589444D01*
X97740630Y-142615000D01*
X97839370Y-142615000D01*
X97934745Y-142589444D01*
X98020255Y-142540075D01*
X98040000Y-142520330D01*
X98040000Y-143374999D01*
G37*
%TD.AperFunction*%
%TA.AperFunction,Conductor*%
G36*
X82747495Y-137068269D02*
G01*
X82789829Y-137100128D01*
X83084076Y-137394375D01*
X83084097Y-137394398D01*
X83160147Y-137470447D01*
X83185001Y-137495301D01*
X83185004Y-137495303D01*
X83185007Y-137495305D01*
X83280344Y-137550347D01*
X83300498Y-137561983D01*
X83429318Y-137596500D01*
X84445311Y-137596500D01*
X84527532Y-137615266D01*
X84579308Y-137652003D01*
X85476680Y-138549375D01*
X85476701Y-138549398D01*
X85577601Y-138650297D01*
X85577605Y-138650301D01*
X85577608Y-138650303D01*
X85577611Y-138650305D01*
X85621516Y-138675653D01*
X85693102Y-138716983D01*
X85712719Y-138722239D01*
X85712721Y-138722240D01*
X85767322Y-138736870D01*
X85821923Y-138751501D01*
X85821924Y-138751501D01*
X85966898Y-138751501D01*
X85966914Y-138751500D01*
X90965311Y-138751500D01*
X91047532Y-138770266D01*
X91099308Y-138807003D01*
X94872997Y-142580692D01*
X94917866Y-142652101D01*
X94928500Y-142714689D01*
X94928500Y-148439800D01*
X94909734Y-148522021D01*
X94857151Y-148587957D01*
X94781168Y-148624549D01*
X94739000Y-148629300D01*
X92358121Y-148629300D01*
X92229300Y-148663817D01*
X92229296Y-148663819D01*
X92113805Y-148730497D01*
X91982002Y-148862300D01*
X91850201Y-148994101D01*
X91850200Y-148994103D01*
X91850199Y-148994102D01*
X91755901Y-149088401D01*
X91755895Y-149088409D01*
X91704537Y-149177365D01*
X91689217Y-149203899D01*
X91689215Y-149203903D01*
X91675287Y-149255884D01*
X91654698Y-149332722D01*
X91654698Y-149332724D01*
X91654698Y-149481355D01*
X91654699Y-149481368D01*
X91654699Y-159392888D01*
X91654698Y-159392906D01*
X91654698Y-159404517D01*
X91654698Y-159537881D01*
X91657502Y-159548344D01*
X91675281Y-159614699D01*
X91689213Y-159666693D01*
X91689218Y-159666705D01*
X91755893Y-159782191D01*
X91755896Y-159782194D01*
X91755898Y-159782198D01*
X91850200Y-159876500D01*
X91850202Y-159876501D01*
X92147997Y-160174296D01*
X92192866Y-160245705D01*
X92203500Y-160308293D01*
X92203500Y-163191792D01*
X92184734Y-163274013D01*
X92132151Y-163339949D01*
X92056168Y-163376541D01*
X91971832Y-163376541D01*
X91933916Y-163363538D01*
X91854393Y-163326457D01*
X91650391Y-163271795D01*
X91440000Y-163253389D01*
X91229609Y-163271795D01*
X91229608Y-163271795D01*
X91025606Y-163326457D01*
X90946085Y-163363538D01*
X90863636Y-163381277D01*
X90781656Y-163361487D01*
X90716381Y-163308086D01*
X90680740Y-163231652D01*
X90676500Y-163191792D01*
X90676500Y-147609689D01*
X90695266Y-147527468D01*
X90732003Y-147475692D01*
X91833566Y-146374129D01*
X93115301Y-145092395D01*
X93181983Y-144976898D01*
X93216500Y-144848078D01*
X93216500Y-144714715D01*
X93216500Y-143185564D01*
X93216501Y-143185551D01*
X93216501Y-143036920D01*
X93216501Y-143036918D01*
X93181983Y-142908098D01*
X93163477Y-142876044D01*
X93115301Y-142792601D01*
X93069200Y-142746500D01*
X93014398Y-142691697D01*
X93014375Y-142691676D01*
X90981702Y-140659003D01*
X90981701Y-140659001D01*
X90887399Y-140564699D01*
X90887394Y-140564696D01*
X90771903Y-140498017D01*
X90728962Y-140486511D01*
X90643082Y-140463499D01*
X90509718Y-140463499D01*
X90498106Y-140463499D01*
X90498090Y-140463500D01*
X84643318Y-140463500D01*
X84514497Y-140498017D01*
X84514493Y-140498019D01*
X84399007Y-140564694D01*
X84399001Y-140564699D01*
X82700733Y-142262966D01*
X82629324Y-142307835D01*
X82545519Y-142317277D01*
X82494216Y-142304043D01*
X82466503Y-142292563D01*
X82270116Y-142253500D01*
X82069884Y-142253500D01*
X81873500Y-142292562D01*
X81829518Y-142310781D01*
X81746374Y-142324907D01*
X81665334Y-142301559D01*
X81602451Y-142245362D01*
X81570177Y-142167446D01*
X81567500Y-142135705D01*
X81567500Y-137264294D01*
X81586266Y-137182073D01*
X81638849Y-137116137D01*
X81714832Y-137079545D01*
X81799168Y-137079545D01*
X81829520Y-137089220D01*
X81873496Y-137107436D01*
X82069884Y-137146500D01*
X82270116Y-137146500D01*
X82466503Y-137107436D01*
X82528325Y-137081828D01*
X82583314Y-137059050D01*
X82666455Y-137044923D01*
X82747495Y-137068269D01*
G37*
%TD.AperFunction*%
%TA.AperFunction,Conductor*%
G36*
X90420000Y-144877076D02*
G01*
X90434591Y-144896692D01*
X90450580Y-144979498D01*
X90429057Y-145061041D01*
X90395184Y-145107118D01*
X89094997Y-146407306D01*
X89023588Y-146452175D01*
X88939783Y-146461617D01*
X88860180Y-146433763D01*
X88800546Y-146374129D01*
X88772692Y-146294526D01*
X88771500Y-146273309D01*
X88771500Y-144664542D01*
X88790266Y-144582321D01*
X88827003Y-144530546D01*
X88963855Y-144393693D01*
X89035263Y-144348823D01*
X89119069Y-144339380D01*
X89198671Y-144367234D01*
X89251162Y-144416305D01*
X89304268Y-144489401D01*
X89430599Y-144615732D01*
X89575129Y-144720738D01*
X89575132Y-144720740D01*
X89734307Y-144801843D01*
X89734314Y-144801846D01*
X89904220Y-144857052D01*
X89920000Y-144859551D01*
X89920000Y-143790330D01*
X89939745Y-143810075D01*
X90025255Y-143859444D01*
X90120630Y-143885000D01*
X90219370Y-143885000D01*
X90314745Y-143859444D01*
X90400255Y-143810075D01*
X90420000Y-143790330D01*
X90420000Y-144877076D01*
G37*
%TD.AperFunction*%
%TD*%
M02*
