%TF.GenerationSoftware,KiCad,Pcbnew,8.0.4*%
%TF.CreationDate,2025-03-15T02:55:24-04:00*%
%TF.ProjectId,erie_rov_mainboard,65726965-5f72-46f7-965f-6d61696e626f,rev?*%
%TF.SameCoordinates,Original*%
%TF.FileFunction,Copper,L2,Bot*%
%TF.FilePolarity,Positive*%
%FSLAX46Y46*%
G04 Gerber Fmt 4.6, Leading zero omitted, Abs format (unit mm)*
G04 Created by KiCad (PCBNEW 8.0.4) date 2025-03-15 02:55:24*
%MOMM*%
%LPD*%
G01*
G04 APERTURE LIST*
G04 Aperture macros list*
%AMRoundRect*
0 Rectangle with rounded corners*
0 $1 Rounding radius*
0 $2 $3 $4 $5 $6 $7 $8 $9 X,Y pos of 4 corners*
0 Add a 4 corners polygon primitive as box body*
4,1,4,$2,$3,$4,$5,$6,$7,$8,$9,$2,$3,0*
0 Add four circle primitives for the rounded corners*
1,1,$1+$1,$2,$3*
1,1,$1+$1,$4,$5*
1,1,$1+$1,$6,$7*
1,1,$1+$1,$8,$9*
0 Add four rect primitives between the rounded corners*
20,1,$1+$1,$2,$3,$4,$5,0*
20,1,$1+$1,$4,$5,$6,$7,0*
20,1,$1+$1,$6,$7,$8,$9,0*
20,1,$1+$1,$8,$9,$2,$3,0*%
G04 Aperture macros list end*
%TA.AperFunction,EtchedComponent*%
%ADD10C,0.000009*%
%TD*%
%TA.AperFunction,SMDPad,CuDef*%
%ADD11RoundRect,0.250000X0.450000X-0.350000X0.450000X0.350000X-0.450000X0.350000X-0.450000X-0.350000X0*%
%TD*%
%TA.AperFunction,SMDPad,CuDef*%
%ADD12RoundRect,0.200000X-0.200000X0.750000X-0.200000X-0.750000X0.200000X-0.750000X0.200000X0.750000X0*%
%TD*%
%TA.AperFunction,ConnectorPad*%
%ADD13R,1.651000X5.080000*%
%TD*%
%TA.AperFunction,ConnectorPad*%
%ADD14R,6.350000X5.080000*%
%TD*%
%TA.AperFunction,ComponentPad*%
%ADD15C,5.800000*%
%TD*%
%TA.AperFunction,ComponentPad*%
%ADD16RoundRect,0.264583X-0.610417X0.370417X-0.610417X-0.370417X0.610417X-0.370417X0.610417X0.370417X0*%
%TD*%
%TA.AperFunction,ComponentPad*%
%ADD17O,1.750000X1.270000*%
%TD*%
%TA.AperFunction,ComponentPad*%
%ADD18RoundRect,0.264583X-0.370417X-0.610417X0.370417X-0.610417X0.370417X0.610417X-0.370417X0.610417X0*%
%TD*%
%TA.AperFunction,ComponentPad*%
%ADD19O,1.270000X1.750000*%
%TD*%
%TA.AperFunction,ComponentPad*%
%ADD20C,1.651000*%
%TD*%
%TA.AperFunction,ComponentPad*%
%ADD21C,3.200000*%
%TD*%
%TA.AperFunction,ComponentPad*%
%ADD22C,1.219200*%
%TD*%
%TA.AperFunction,SMDPad,CuDef*%
%ADD23R,4.200000X3.200000*%
%TD*%
%TA.AperFunction,ViaPad*%
%ADD24C,0.812800*%
%TD*%
%TA.AperFunction,ViaPad*%
%ADD25C,2.032000*%
%TD*%
%TA.AperFunction,ViaPad*%
%ADD26C,3.810000*%
%TD*%
%TA.AperFunction,Conductor*%
%ADD27C,0.250000*%
%TD*%
%TA.AperFunction,Conductor*%
%ADD28C,2.540000*%
%TD*%
%TA.AperFunction,Conductor*%
%ADD29C,5.080000*%
%TD*%
%TA.AperFunction,Conductor*%
%ADD30C,3.810000*%
%TD*%
%TA.AperFunction,Conductor*%
%ADD31C,2.032000*%
%TD*%
G04 APERTURE END LIST*
D10*
%TO.C,BT1*%
X116784000Y-167044000D02*
X109784000Y-167044000D01*
X109784000Y-156044000D01*
X116784000Y-156044000D01*
X116784000Y-167044000D01*
%TA.AperFunction,EtchedComponent*%
G36*
X116784000Y-167044000D02*
G01*
X109784000Y-167044000D01*
X109784000Y-156044000D01*
X116784000Y-156044000D01*
X116784000Y-167044000D01*
G37*
%TD.AperFunction*%
%TD*%
D11*
%TO.P,R2,1*%
%TO.N,Net-(Q1-G)*%
X138430000Y-189468000D03*
%TO.P,R2,2*%
%TO.N,GND*%
X138430000Y-187468000D03*
%TD*%
%TO.P,R1,2*%
%TO.N,TELEM_SW*%
X135890000Y-187468000D03*
%TO.P,R1,1*%
%TO.N,Net-(Q1-G)*%
X135890000Y-189468000D03*
%TD*%
D12*
%TO.P,Q1,1,G*%
%TO.N,Net-(Q1-G)*%
X135956000Y-191667000D03*
%TO.P,Q1,2,S*%
%TO.N,GND*%
X137856000Y-191667000D03*
%TO.P,Q1,3,D*%
%TO.N,TELEM_GND*%
X136906000Y-194667000D03*
%TD*%
D13*
%TO.P,J1,35,S11*%
%TO.N,unconnected-(J1-S11-Pad35)*%
X59690000Y-199390000D03*
%TO.P,J1,36,S12*%
%TO.N,unconnected-(J1-S12-Pad36)*%
X62230000Y-199390000D03*
%TO.P,J1,37,S13*%
%TO.N,unconnected-(J1-S13-Pad37)*%
X64770000Y-199390000D03*
%TO.P,J1,38,S14*%
%TO.N,unconnected-(J1-S14-Pad38)*%
X67310000Y-199390000D03*
%TO.P,J1,39,S15*%
%TO.N,GPS_TX*%
X69850000Y-199390000D03*
%TO.P,J1,40,S16*%
%TO.N,GPS_RX*%
X72390000Y-199390000D03*
%TO.P,J1,41,S17*%
%TO.N,GPS_SCL*%
X74930000Y-199390000D03*
%TO.P,J1,42,S18*%
%TO.N,GPS_SCA*%
X77470000Y-199390000D03*
%TO.P,J1,43,S19*%
%TO.N,STRB_PWM*%
X80010000Y-199390000D03*
%TO.P,J1,44,S20*%
%TO.N,RDR_PWM*%
X82550000Y-199390000D03*
D14*
%TO.P,J1,45,P9*%
%TO.N,+5V*%
X87630000Y-199390000D03*
%TO.P,J1,48,P10*%
%TO.N,GND*%
X95250000Y-199390000D03*
%TO.P,J1,51,P11*%
X102870000Y-199390000D03*
%TO.P,J1,54,P12*%
%TO.N,MTR_B*%
X110490000Y-199390000D03*
%TO.P,J1,57,P13*%
%TO.N,MTR_G*%
X118110000Y-199390000D03*
%TO.P,J1,60,P14*%
%TO.N,MTR_W*%
X125730000Y-199390000D03*
%TO.P,J1,63,P15*%
%TO.N,unconnected-(J1-P15-Pad63)*%
X133350000Y-199390000D03*
%TO.P,J1,66,P16*%
%TO.N,TELEM_GND*%
X140970000Y-199390000D03*
%TD*%
D15*
%TO.P,J2,1,-*%
%TO.N,GND*%
X81280000Y-110700000D03*
%TO.P,J2,2,+*%
%TO.N,BATT_SW*%
X81280000Y-117900000D03*
%TD*%
%TO.P,J5,1,-*%
%TO.N,GND*%
X65405000Y-110700000D03*
%TO.P,J5,2,+*%
%TO.N,LOAD_CC*%
X65405000Y-117900000D03*
%TD*%
%TO.P,J4,1,-*%
%TO.N,GND*%
X96520000Y-110700000D03*
%TO.P,J4,2,+*%
%TO.N,BATT_CC*%
X96520000Y-117900000D03*
%TD*%
D16*
%TO.P,J14,1,Pin_1*%
%TO.N,RDR_PWM*%
X97790000Y-138240000D03*
D17*
%TO.P,J14,2,Pin_2*%
%TO.N,unconnected-(J14-Pin_2-Pad2)*%
X97790000Y-140240000D03*
%TO.P,J14,3,Pin_3*%
%TO.N,GND*%
X97790000Y-142240000D03*
%TD*%
D15*
%TO.P,J3,1,-*%
%TO.N,GND*%
X111760000Y-110700000D03*
%TO.P,J3,2,+*%
%TO.N,PNL+*%
X111760000Y-117900000D03*
%TD*%
D18*
%TO.P,J10,1,Pin_1*%
%TO.N,+5V*%
X80170000Y-135890000D03*
D19*
%TO.P,J10,2,Pin_2*%
%TO.N,TELEM2_TX*%
X82170000Y-135890000D03*
%TO.P,J10,3,Pin_3*%
%TO.N,TELEM2_RX*%
X84170000Y-135890000D03*
%TO.P,J10,4,Pin_4*%
%TO.N,unconnected-(J10-Pin_4-Pad4)*%
X86170000Y-135890000D03*
%TO.P,J10,5,Pin_5*%
%TO.N,unconnected-(J10-Pin_5-Pad5)*%
X88170000Y-135890000D03*
%TO.P,J10,6,Pin_6*%
%TO.N,GND*%
X90170000Y-135890000D03*
%TD*%
D18*
%TO.P,J15,1,Pin_1*%
%TO.N,+5V*%
X62230000Y-192405000D03*
D19*
%TO.P,J15,2,Pin_2*%
%TO.N,EXP_1*%
X64230000Y-192405000D03*
%TO.P,J15,3,Pin_3*%
%TO.N,EXP_2*%
X66230000Y-192405000D03*
%TO.P,J15,4,Pin_4*%
%TO.N,EXP_3*%
X68230000Y-192405000D03*
%TO.P,J15,5,Pin_5*%
%TO.N,EXP_4*%
X70230000Y-192405000D03*
%TO.P,J15,6,Pin_6*%
%TO.N,GND*%
X72230000Y-192405000D03*
%TD*%
D18*
%TO.P,J12,1,Pin_1*%
%TO.N,+5V*%
X64135000Y-143510000D03*
D19*
%TO.P,J12,2,Pin_2*%
%TO.N,GPS_TX*%
X66135000Y-143510000D03*
%TO.P,J12,3,Pin_3*%
%TO.N,GPS_RX*%
X68135000Y-143510000D03*
%TO.P,J12,4,Pin_4*%
%TO.N,unconnected-(J12-Pin_4-Pad4)*%
X70135000Y-143510000D03*
%TO.P,J12,5,Pin_5*%
%TO.N,unconnected-(J12-Pin_5-Pad5)*%
X72135000Y-143510000D03*
%TO.P,J12,6,Pin_6*%
%TO.N,GND*%
X74135000Y-143510000D03*
%TD*%
D20*
%TO.P,U1,1,GND*%
%TO.N,GND*%
X66040000Y-179705000D03*
%TO.P,U1,2,0_RX1_CRX2_CS1*%
%TO.N,SCC_RX*%
X68580000Y-179705000D03*
%TO.P,U1,3,1_TX1_CTX2_MISO1*%
%TO.N,SCC_TX*%
X71120000Y-179705000D03*
%TO.P,U1,4,2_OUT2*%
%TO.N,unconnected-(U1-2_OUT2-Pad4)*%
X73660000Y-179705000D03*
%TO.P,U1,5,3_LRCLK2*%
%TO.N,unconnected-(U1-3_LRCLK2-Pad5)*%
X76200000Y-179705000D03*
%TO.P,U1,6,4_BCLK2*%
%TO.N,unconnected-(U1-4_BCLK2-Pad6)*%
X78740000Y-179705000D03*
%TO.P,U1,7,5_IN2*%
%TO.N,unconnected-(U1-5_IN2-Pad7)*%
X81280000Y-179705000D03*
%TO.P,U1,8,6_OUT1D*%
%TO.N,STRB_PWM*%
X83820000Y-179705000D03*
%TO.P,U1,9,7_RX2_OUT1A*%
%TO.N,TELEM2_TX*%
X86360000Y-179705000D03*
%TO.P,U1,10,8_TX2_IN1*%
%TO.N,TELEM2_RX*%
X88900000Y-179705000D03*
%TO.P,U1,11,9_OUT1C*%
%TO.N,VTX_SW*%
X91440000Y-179705000D03*
%TO.P,U1,12,10_CS_MQSR*%
%TO.N,TELEM_SW*%
X93980000Y-179705000D03*
%TO.P,U1,13,11_MOSI_CTX1*%
%TO.N,unconnected-(U1-11_MOSI_CTX1-Pad13)*%
X96520000Y-179705000D03*
%TO.P,U1,14,12_MISO_MQSL*%
%TO.N,unconnected-(U1-12_MISO_MQSL-Pad14)*%
X99060000Y-179705000D03*
%TO.P,U1,15,VBAT*%
%TO.N,Net-(U1-VBAT)*%
X99060000Y-177165000D03*
%TO.P,U1,16,3V3*%
%TO.N,unconnected-(U1-3V3-Pad16)*%
X99060000Y-174625000D03*
%TO.P,U1,17,GND*%
%TO.N,GND*%
X99060000Y-172085000D03*
%TO.P,U1,18,PROGRAM*%
%TO.N,unconnected-(U1-PROGRAM-Pad18)*%
X99060000Y-169545000D03*
%TO.P,U1,19,ON_OFF*%
%TO.N,unconnected-(U1-ON_OFF-Pad19)*%
X99060000Y-167005000D03*
%TO.P,U1,20,13_SCK_CRX1_LED*%
%TO.N,unconnected-(U1-13_SCK_CRX1_LED-Pad20)*%
X99060000Y-164465000D03*
%TO.P,U1,21,14_A0_TX3_SPDIF_OUT*%
%TO.N,unconnected-(U1-14_A0_TX3_SPDIF_OUT-Pad21)*%
X96520000Y-164465000D03*
%TO.P,U1,22,15_A1_RX3_SPDIF_IN*%
%TO.N,unconnected-(U1-15_A1_RX3_SPDIF_IN-Pad22)*%
X93980000Y-164465000D03*
%TO.P,U1,23,16_A2_RX4_SCL1*%
%TO.N,unconnected-(U1-16_A2_RX4_SCL1-Pad23)*%
X91440000Y-164465000D03*
%TO.P,U1,24,17_A3_TX4_SDA1*%
%TO.N,unconnected-(U1-17_A3_TX4_SDA1-Pad24)*%
X88900000Y-164465000D03*
%TO.P,U1,25,18_A4_SDA0*%
%TO.N,unconnected-(U1-18_A4_SDA0-Pad25)*%
X86360000Y-164465000D03*
%TO.P,U1,26,19_A5_SCL0*%
%TO.N,unconnected-(U1-19_A5_SCL0-Pad26)*%
X83820000Y-164465000D03*
%TO.P,U1,27,20_A6_TX5_LRCLK1*%
%TO.N,unconnected-(U1-20_A6_TX5_LRCLK1-Pad27)*%
X81280000Y-164465000D03*
%TO.P,U1,28,21_A7_RX5_BCLK1*%
%TO.N,unconnected-(U1-21_A7_RX5_BCLK1-Pad28)*%
X78740000Y-164465000D03*
%TO.P,U1,29,22_A8_CTX1*%
%TO.N,unconnected-(U1-22_A8_CTX1-Pad29)*%
X76200000Y-164465000D03*
%TO.P,U1,30,23_A9_CRX1_MCLK1*%
%TO.N,unconnected-(U1-23_A9_CRX1_MCLK1-Pad30)*%
X73660000Y-164465000D03*
%TO.P,U1,31,3V3*%
%TO.N,+3.3V*%
X71120000Y-164465000D03*
%TO.P,U1,32,GND*%
%TO.N,GND*%
X68580000Y-164465000D03*
%TO.P,U1,33,VIN*%
%TO.N,+5V*%
X66040000Y-164465000D03*
%TO.P,U1,34,VUSB*%
%TO.N,unconnected-(U1-VUSB-Pad34)*%
X68580000Y-167005000D03*
%TD*%
D18*
%TO.P,J11,1,Pin_1*%
%TO.N,+5V*%
X64135000Y-135890000D03*
D19*
%TO.P,J11,2,Pin_2*%
%TO.N,GPS_SCL*%
X66135000Y-135890000D03*
%TO.P,J11,3,Pin_3*%
%TO.N,GPS_SCA*%
X68135000Y-135890000D03*
%TO.P,J11,4,Pin_4*%
%TO.N,GND*%
X70135000Y-135890000D03*
%TD*%
D18*
%TO.P,J9,1,Pin_1*%
%TO.N,+5V*%
X80170000Y-143510000D03*
D19*
%TO.P,J9,2,Pin_2*%
%TO.N,TELEM1_TX*%
X82170000Y-143510000D03*
%TO.P,J9,3,Pin_3*%
%TO.N,TELEM1_RX*%
X84170000Y-143510000D03*
%TO.P,J9,4,Pin_4*%
%TO.N,TELEM1_CTS*%
X86170000Y-143510000D03*
%TO.P,J9,5,Pin_5*%
%TO.N,TELEM1_RTS*%
X88170000Y-143510000D03*
%TO.P,J9,6,Pin_6*%
%TO.N,GND*%
X90170000Y-143510000D03*
%TD*%
D21*
%TO.P,J7,1,1*%
%TO.N,MTR_B*%
X142240000Y-109530000D03*
%TO.P,J7,2,2*%
%TO.N,MTR_G*%
X142240000Y-113030000D03*
%TO.P,J7,3,3*%
%TO.N,MTR_W*%
X142240000Y-116530000D03*
%TD*%
D22*
%TO.P,U3,1,+VIN*%
%TO.N,+12V*%
X124460000Y-156421709D03*
%TO.P,U3,2,GND*%
%TO.N,GND*%
X124460000Y-158961709D03*
%TO.P,U3,3,+VOUT*%
%TO.N,5V_AUX*%
X124460000Y-161501709D03*
%TD*%
D15*
%TO.P,J8,1,-*%
%TO.N,GND*%
X128270000Y-110700000D03*
%TO.P,J8,2,+*%
%TO.N,+12V*%
X128270000Y-117900000D03*
%TD*%
D18*
%TO.P,J13,1,Pin_1*%
%TO.N,+5V*%
X64135000Y-128270000D03*
D19*
%TO.P,J13,2,Pin_2*%
%TO.N,OSD_TX*%
X66135000Y-128270000D03*
%TO.P,J13,3,Pin_3*%
%TO.N,OSD_RX*%
X68135000Y-128270000D03*
%TO.P,J13,4,Pin_4*%
%TO.N,unconnected-(J13-Pin_4-Pad4)*%
X70135000Y-128270000D03*
%TO.P,J13,5,Pin_5*%
%TO.N,unconnected-(J13-Pin_5-Pad5)*%
X72135000Y-128270000D03*
%TO.P,J13,6,Pin_6*%
%TO.N,GND*%
X74135000Y-128270000D03*
%TD*%
D23*
%TO.P,BT1,+*%
%TO.N,Net-(U1-VBAT)*%
X113284000Y-176194000D03*
%TO.P,BT1,-*%
%TO.N,GND*%
X113284000Y-146894000D03*
%TD*%
D24*
%TO.N,GND*%
X90170000Y-195834000D03*
X97282000Y-174117000D03*
X93345000Y-177927000D03*
X97282000Y-177927000D03*
X93345000Y-187325000D03*
X86995000Y-182118000D03*
X81026000Y-162433000D03*
X87122000Y-157988000D03*
X65913000Y-166878000D03*
X98679000Y-185293000D03*
X94361000Y-148082000D03*
X97790000Y-162306000D03*
X144526000Y-178562000D03*
X69291200Y-147421600D03*
X93853000Y-142875000D03*
X144526000Y-106680000D03*
X140970000Y-102743000D03*
X83820000Y-161417000D03*
X91186000Y-148082000D03*
X62103000Y-102743000D03*
X126111000Y-158750000D03*
X82169000Y-139065000D03*
D25*
X94361000Y-195580000D03*
D24*
X70739000Y-162306000D03*
X63881000Y-148844000D03*
X80899000Y-149733000D03*
X69215000Y-133223000D03*
X126238000Y-137287000D03*
X72136000Y-181483000D03*
X58547000Y-185293000D03*
X75692000Y-155702000D03*
X76073000Y-148463000D03*
X95758000Y-160274000D03*
X144907000Y-195580000D03*
X72644000Y-148971000D03*
X70993000Y-175260000D03*
X73152000Y-137668000D03*
X120015000Y-120904000D03*
X77216000Y-136271000D03*
X122809000Y-137287000D03*
X60325000Y-189357000D03*
D25*
X141478000Y-192024000D03*
D24*
X125984000Y-168783000D03*
X85217000Y-178181000D03*
X97790000Y-145161000D03*
X72644000Y-123444000D03*
X77089000Y-141605000D03*
D25*
X139446000Y-185420000D03*
D24*
X126111000Y-154178000D03*
X77063600Y-146354800D03*
X80518000Y-131572000D03*
X70866000Y-166370000D03*
X75692000Y-152908000D03*
X87376000Y-146939000D03*
X106807000Y-116332000D03*
X95885000Y-133604000D03*
X58293000Y-195707000D03*
X68326000Y-177546000D03*
X67310000Y-150114000D03*
X69596000Y-184404000D03*
X76454000Y-115443000D03*
X68014808Y-181539386D03*
X88900000Y-119761000D03*
X63500000Y-159131000D03*
X126111000Y-122809000D03*
X142113000Y-195580000D03*
D25*
X97155000Y-195580000D03*
D24*
X91440000Y-162179000D03*
X58547000Y-106553000D03*
X91440000Y-166624000D03*
X99060000Y-181864000D03*
X122809000Y-159893000D03*
X90932000Y-139700000D03*
X65532000Y-162306000D03*
D25*
%TO.N,+5V*%
X63627000Y-188722000D03*
D24*
%TO.N,GPS_TX*%
X67310000Y-148463000D03*
X74123000Y-190799000D03*
X73593009Y-181229000D03*
%TO.N,GPS_RX*%
X76200000Y-191008000D03*
X75928500Y-181119500D03*
%TO.N,RDR_PWM*%
X83185000Y-195961000D03*
D26*
%TO.N,+12V*%
X109154493Y-191704493D03*
X98425000Y-189230000D03*
D24*
%TO.N,OSD_TX*%
X63500000Y-178435000D03*
%TO.N,OSD_RX*%
X66040000Y-181254400D03*
%TO.N,STRB_PWM*%
X82469587Y-194879208D03*
%TO.N,GPS_SCL*%
X67945000Y-137922000D03*
X78493900Y-181144900D03*
X78740000Y-191008000D03*
%TO.N,GPS_SCA*%
X80772000Y-191008000D03*
X80792600Y-181157600D03*
%TO.N,TELEM_SW*%
X136906000Y-185928000D03*
X125730000Y-170434000D03*
%TD*%
D27*
%TO.N,GND*%
X72230000Y-190787000D02*
X72263000Y-190754000D01*
X72230000Y-192405000D02*
X72230000Y-190787000D01*
%TO.N,RDR_PWM*%
X83185000Y-195961000D02*
X82550000Y-196596000D01*
X82550000Y-196596000D02*
X82550000Y-199390000D01*
%TO.N,Net-(Q1-G)*%
X135890000Y-189468000D02*
X138430000Y-189468000D01*
X135956000Y-189534000D02*
X135890000Y-189468000D01*
X135956000Y-191667000D02*
X135956000Y-189534000D01*
%TO.N,TELEM_SW*%
X135890000Y-186944000D02*
X136906000Y-185928000D01*
X135890000Y-187468000D02*
X135890000Y-186944000D01*
D28*
%TO.N,TELEM_GND*%
X140970000Y-198731000D02*
X136906000Y-194667000D01*
X140970000Y-199390000D02*
X140970000Y-198731000D01*
D29*
%TO.N,GND*%
X83185000Y-184531000D02*
X69723000Y-184531000D01*
X69723000Y-184531000D02*
X69596000Y-184404000D01*
X89730000Y-188790000D02*
X87444000Y-188790000D01*
X60325000Y-125095000D02*
X60765000Y-124655000D01*
X71120000Y-112313781D02*
X69506219Y-110700000D01*
X85344000Y-186690000D02*
X83185000Y-184531000D01*
X95250000Y-196469000D02*
X94361000Y-195580000D01*
X69506219Y-110700000D02*
X65405000Y-110700000D01*
X97155000Y-195580000D02*
X94361000Y-195580000D01*
X69596000Y-184404000D02*
X69469000Y-184531000D01*
X95250000Y-199390000D02*
X95250000Y-196469000D01*
X97155000Y-195580000D02*
X96520000Y-195580000D01*
X71120000Y-120161165D02*
X71120000Y-112313781D01*
X64452500Y-184531000D02*
X60325000Y-180403500D01*
X87444000Y-188790000D02*
X85344000Y-186690000D01*
X69469000Y-184531000D02*
X64452500Y-184531000D01*
X96520000Y-195580000D02*
X89730000Y-188790000D01*
X65405000Y-110700000D02*
X128270000Y-110700000D01*
X60765000Y-124655000D02*
X66626165Y-124655000D01*
X66626165Y-124655000D02*
X71120000Y-120161165D01*
X60325000Y-180403500D02*
X60325000Y-125095000D01*
D30*
%TO.N,MTR_B*%
X134220000Y-112160000D02*
X137055000Y-109325000D01*
X137055000Y-109325000D02*
X142240000Y-109325000D01*
X134220000Y-173208008D02*
X134220000Y-112160000D01*
X110490000Y-199390000D02*
X110490000Y-196938008D01*
X110490000Y-196938008D02*
X134220000Y-173208008D01*
%TO.N,MTR_G*%
X118110000Y-194989004D02*
X138230000Y-174869004D01*
X118110000Y-199390000D02*
X118110000Y-194989004D01*
X138230000Y-174869004D02*
X138230000Y-114500000D01*
%TO.N,MTR_W*%
X125730000Y-199390000D02*
X125730000Y-193040000D01*
X125730000Y-193040000D02*
X142240000Y-176530000D01*
X142240000Y-176530000D02*
X142240000Y-116735000D01*
D31*
%TO.N,+5V*%
X62230000Y-190119000D02*
X63627000Y-188722000D01*
D28*
X87630000Y-194818000D02*
X81534000Y-188722000D01*
D31*
X62230000Y-192405000D02*
X62230000Y-190119000D01*
D28*
X87630000Y-199390000D02*
X87630000Y-194818000D01*
X81534000Y-188722000D02*
X63627000Y-188722000D01*
D27*
%TO.N,GPS_TX*%
X72390000Y-180119496D02*
X72390000Y-153543000D01*
X73593009Y-181229000D02*
X73499504Y-181229000D01*
X74123000Y-190799000D02*
X74123000Y-192196000D01*
X74123000Y-192196000D02*
X69850000Y-196469000D01*
X73499504Y-181229000D02*
X72390000Y-180119496D01*
X72390000Y-153543000D02*
X67310000Y-148463000D01*
X69850000Y-196469000D02*
X69850000Y-199390000D01*
%TO.N,GPS_RX*%
X72390000Y-197675500D02*
X76200000Y-193865500D01*
X76200000Y-193865500D02*
X76200000Y-191008000D01*
X75928500Y-181119500D02*
X74930000Y-180121000D01*
X74930000Y-180121000D02*
X74930000Y-155321000D01*
X72390000Y-199390000D02*
X72390000Y-197675500D01*
X74930000Y-155321000D02*
X68135000Y-148526000D01*
X68135000Y-148526000D02*
X68135000Y-143510000D01*
D29*
%TO.N,+12V*%
X129575000Y-119205000D02*
X129575000Y-156210000D01*
D28*
X129363291Y-156421709D02*
X129575000Y-156210000D01*
D29*
X109154493Y-191704493D02*
X129575000Y-171283986D01*
X98425000Y-189230000D02*
X100076000Y-189230000D01*
X129575000Y-171283986D02*
X129575000Y-156210000D01*
X128270000Y-117900000D02*
X129575000Y-119205000D01*
X100076000Y-189230000D02*
X102550493Y-191704493D01*
D28*
X124460000Y-156421709D02*
X129363291Y-156421709D01*
D29*
X102550493Y-191704493D02*
X109154493Y-191704493D01*
D27*
%TO.N,OSD_TX*%
X65151000Y-129254000D02*
X66135000Y-128270000D01*
X65151000Y-159004000D02*
X65151000Y-129254000D01*
X63500000Y-160655000D02*
X65151000Y-159004000D01*
X63500000Y-178435000D02*
X63500000Y-160655000D01*
%TO.N,OSD_RX*%
X67132200Y-129272800D02*
X68135000Y-128270000D01*
X64262000Y-160529396D02*
X65935000Y-158856396D01*
X66040000Y-181254400D02*
X65557400Y-181254400D01*
X65557400Y-181254400D02*
X64262000Y-179959000D01*
X64262000Y-179959000D02*
X64262000Y-160529396D01*
X65935000Y-158856396D02*
X65935000Y-147320000D01*
X65935000Y-147320000D02*
X67132200Y-146122800D01*
X67132200Y-146122800D02*
X67132200Y-129272800D01*
%TO.N,STRB_PWM*%
X80010000Y-197338795D02*
X80010000Y-199390000D01*
X82469587Y-194879208D02*
X80010000Y-197338795D01*
%TO.N,Net-(U1-VBAT)*%
X100031000Y-176194000D02*
X99060000Y-177165000D01*
X113284000Y-176194000D02*
X100031000Y-176194000D01*
%TO.N,GPS_SCL*%
X74930000Y-199390000D02*
X74930000Y-197675500D01*
X73101200Y-144221200D02*
X73101200Y-142773400D01*
X77470000Y-148590000D02*
X73101200Y-144221200D01*
X73101200Y-142773400D02*
X68249800Y-137922000D01*
X78493900Y-181144900D02*
X77470000Y-180121000D01*
X77470000Y-180121000D02*
X77470000Y-148590000D01*
X74930000Y-197675500D02*
X78740000Y-193865500D01*
X78740000Y-193865500D02*
X78740000Y-191008000D01*
X68249800Y-137922000D02*
X67945000Y-137922000D01*
%TO.N,GPS_SCA*%
X79890500Y-147645500D02*
X68135000Y-135890000D01*
X79883000Y-164949053D02*
X79890500Y-164941553D01*
X80792600Y-181157600D02*
X80792600Y-181122600D01*
X80772000Y-194373500D02*
X80772000Y-191008000D01*
X79890500Y-179228447D02*
X79883000Y-179220947D01*
X79890500Y-180220500D02*
X79890500Y-179228447D01*
X80792600Y-181122600D02*
X79890500Y-180220500D01*
X77470000Y-197675500D02*
X80772000Y-194373500D01*
X79890500Y-164941553D02*
X79890500Y-147645500D01*
X77470000Y-199390000D02*
X77470000Y-197675500D01*
X79883000Y-179220947D02*
X79883000Y-164949053D01*
D28*
%TO.N,TELEM_GND*%
X142240000Y-198120000D02*
X140970000Y-199390000D01*
D27*
%TO.N,TELEM_SW*%
X95250000Y-180975000D02*
X93980000Y-179705000D01*
X125730000Y-170434000D02*
X115189000Y-180975000D01*
X115189000Y-180975000D02*
X95250000Y-180975000D01*
%TD*%
%TA.AperFunction,Conductor*%
%TO.N,GND*%
G36*
X142689806Y-101854797D02*
G01*
X143000862Y-101872266D01*
X143021979Y-101874645D01*
X143101200Y-101888105D01*
X143323890Y-101925941D01*
X143344590Y-101930666D01*
X143638864Y-102015445D01*
X143658913Y-102022462D01*
X143941823Y-102139647D01*
X143960962Y-102148863D01*
X144109296Y-102230844D01*
X144228987Y-102296995D01*
X144246980Y-102308301D01*
X144496722Y-102485502D01*
X144513336Y-102498752D01*
X144741670Y-102702803D01*
X144756697Y-102717830D01*
X144960747Y-102946163D01*
X144973997Y-102962777D01*
X145151198Y-103212520D01*
X145162504Y-103230513D01*
X145310633Y-103498530D01*
X145319853Y-103517676D01*
X145437039Y-103800588D01*
X145444058Y-103820647D01*
X145528829Y-104114898D01*
X145533558Y-104135615D01*
X145584854Y-104437520D01*
X145587233Y-104458637D01*
X145604702Y-104769692D01*
X145605000Y-104780318D01*
X145605000Y-200476088D01*
X145586234Y-200558309D01*
X145549497Y-200610085D01*
X144849997Y-201309585D01*
X144778588Y-201354454D01*
X144694783Y-201363896D01*
X144615180Y-201336042D01*
X144555546Y-201276408D01*
X144527692Y-201196805D01*
X144526500Y-201175588D01*
X144526500Y-196813798D01*
X144526499Y-196813787D01*
X144515695Y-196739635D01*
X144515694Y-196739634D01*
X144470621Y-196647438D01*
X144459776Y-196625254D01*
X144369746Y-196535224D01*
X144369740Y-196535221D01*
X144255365Y-196479305D01*
X144255364Y-196479304D01*
X144181212Y-196468500D01*
X144181206Y-196468500D01*
X141121568Y-196468500D01*
X141039347Y-196449734D01*
X140987571Y-196412997D01*
X139508218Y-194933644D01*
X137981880Y-193407306D01*
X137924963Y-193365953D01*
X137771577Y-193254511D01*
X137771573Y-193254508D01*
X137539960Y-193136497D01*
X137539959Y-193136496D01*
X137539956Y-193136495D01*
X137461924Y-193111140D01*
X137292729Y-193056165D01*
X137035978Y-193015500D01*
X137035976Y-193015500D01*
X136813987Y-193015500D01*
X136731766Y-192996734D01*
X136665830Y-192944151D01*
X136629238Y-192868168D01*
X136629238Y-192783832D01*
X136658547Y-192721487D01*
X136657729Y-192721015D01*
X136663331Y-192711310D01*
X136663647Y-192710638D01*
X136663939Y-192710259D01*
X136722533Y-192568802D01*
X136737500Y-192455116D01*
X136737500Y-190878884D01*
X136722533Y-190765198D01*
X136663939Y-190623741D01*
X136654944Y-190612019D01*
X136619780Y-190535366D01*
X136621357Y-190451045D01*
X136659363Y-190375759D01*
X136708822Y-190333548D01*
X136730127Y-190320949D01*
X136842949Y-190208127D01*
X136924168Y-190070792D01*
X136924168Y-190070791D01*
X136926093Y-190067537D01*
X136984100Y-190006319D01*
X137062924Y-189976331D01*
X137089204Y-189974500D01*
X137230796Y-189974500D01*
X137313017Y-189993266D01*
X137378953Y-190045849D01*
X137393907Y-190067537D01*
X137395832Y-190070792D01*
X137477051Y-190208127D01*
X137589873Y-190320949D01*
X137727208Y-190402168D01*
X137880426Y-190446682D01*
X137916230Y-190449500D01*
X137916231Y-190449500D01*
X138943769Y-190449500D01*
X138943770Y-190449500D01*
X138979574Y-190446682D01*
X139132792Y-190402168D01*
X139270127Y-190320949D01*
X139382949Y-190208127D01*
X139464168Y-190070792D01*
X139508682Y-189917574D01*
X139511500Y-189881770D01*
X139511500Y-189054230D01*
X139508682Y-189018426D01*
X139464168Y-188865208D01*
X139382949Y-188727873D01*
X139270127Y-188615051D01*
X139269288Y-188614555D01*
X139132794Y-188533833D01*
X139132793Y-188533832D01*
X139132792Y-188533832D01*
X138979574Y-188489318D01*
X138943770Y-188486500D01*
X137916230Y-188486500D01*
X137880426Y-188489318D01*
X137727205Y-188533833D01*
X137589875Y-188615049D01*
X137477049Y-188727875D01*
X137393907Y-188868463D01*
X137335900Y-188929681D01*
X137257076Y-188959669D01*
X137230796Y-188961500D01*
X137089204Y-188961500D01*
X137006983Y-188942734D01*
X136941047Y-188890151D01*
X136926093Y-188868463D01*
X136909035Y-188839619D01*
X136842949Y-188727873D01*
X136730127Y-188615051D01*
X136730124Y-188615049D01*
X136721696Y-188606621D01*
X136723224Y-188605092D01*
X136680125Y-188552523D01*
X136660248Y-188470563D01*
X136677901Y-188388096D01*
X136722678Y-188330361D01*
X136721696Y-188329379D01*
X136729468Y-188321606D01*
X136729586Y-188321455D01*
X136729753Y-188321321D01*
X136730122Y-188320951D01*
X136730127Y-188320949D01*
X136842949Y-188208127D01*
X136924168Y-188070792D01*
X136968682Y-187917574D01*
X136971500Y-187881770D01*
X136971500Y-187325000D01*
X141225015Y-187325000D01*
X141244919Y-187565217D01*
X141244920Y-187565223D01*
X141304091Y-187798885D01*
X141304096Y-187798900D01*
X141389486Y-187993569D01*
X141400921Y-188019638D01*
X141532761Y-188221434D01*
X141532763Y-188221436D01*
X141532765Y-188221439D01*
X141696018Y-188398778D01*
X141696022Y-188398782D01*
X141761185Y-188449500D01*
X141886237Y-188546832D01*
X141978235Y-188596618D01*
X142098227Y-188661555D01*
X142098230Y-188661556D01*
X142098232Y-188661557D01*
X142326218Y-188739825D01*
X142326224Y-188739826D01*
X142563972Y-188779500D01*
X142563977Y-188779500D01*
X142805028Y-188779500D01*
X143002908Y-188746478D01*
X143042782Y-188739825D01*
X143270768Y-188661557D01*
X143482763Y-188546832D01*
X143672982Y-188398778D01*
X143836239Y-188221434D01*
X143968079Y-188019638D01*
X144064906Y-187798894D01*
X144124080Y-187565223D01*
X144143985Y-187325000D01*
X144124080Y-187084777D01*
X144064906Y-186851106D01*
X143968079Y-186630362D01*
X143836239Y-186428566D01*
X143836235Y-186428561D01*
X143836234Y-186428560D01*
X143672981Y-186251221D01*
X143672977Y-186251217D01*
X143546357Y-186152665D01*
X143482763Y-186103168D01*
X143468763Y-186095592D01*
X143270772Y-185988444D01*
X143042788Y-185910177D01*
X143042775Y-185910173D01*
X142805028Y-185870500D01*
X142805023Y-185870500D01*
X142563977Y-185870500D01*
X142563972Y-185870500D01*
X142326224Y-185910173D01*
X142326211Y-185910177D01*
X142098227Y-185988444D01*
X141886238Y-186103167D01*
X141696022Y-186251217D01*
X141696018Y-186251221D01*
X141532765Y-186428560D01*
X141400919Y-186630365D01*
X141304096Y-186851099D01*
X141304091Y-186851114D01*
X141244920Y-187084776D01*
X141244919Y-187084782D01*
X141225015Y-187325000D01*
X136971500Y-187325000D01*
X136971500Y-187054230D01*
X136968682Y-187018426D01*
X136952629Y-186963173D01*
X136945319Y-186938010D01*
X136940401Y-186853818D01*
X136972499Y-186775829D01*
X137035257Y-186719492D01*
X137072620Y-186705182D01*
X137072389Y-186704521D01*
X137087821Y-186699120D01*
X137250020Y-186642365D01*
X137400356Y-186547902D01*
X137525902Y-186422356D01*
X137620365Y-186272020D01*
X137679006Y-186104434D01*
X137698885Y-185928000D01*
X137679006Y-185751566D01*
X137620365Y-185583980D01*
X137525902Y-185433644D01*
X137400356Y-185308098D01*
X137250020Y-185213635D01*
X137250017Y-185213633D01*
X137193878Y-185193989D01*
X137122469Y-185149120D01*
X137077601Y-185077711D01*
X137068159Y-184993905D01*
X137096013Y-184914303D01*
X137122465Y-184881132D01*
X143962770Y-178040829D01*
X144145234Y-177803037D01*
X144192809Y-177720635D01*
X144295100Y-177543463D01*
X144364716Y-177375394D01*
X144409802Y-177266549D01*
X144487377Y-176977031D01*
X144526500Y-176679865D01*
X144526500Y-176380135D01*
X144526500Y-116585135D01*
X144487377Y-116287969D01*
X144409801Y-115998452D01*
X144295100Y-115721537D01*
X144295097Y-115721533D01*
X144295094Y-115721525D01*
X144145234Y-115461963D01*
X144145231Y-115461958D01*
X143962776Y-115224178D01*
X143962773Y-115224175D01*
X143962770Y-115224171D01*
X143750829Y-115012230D01*
X143750824Y-115012226D01*
X143689440Y-114965124D01*
X143635634Y-114900182D01*
X143615334Y-114818326D01*
X143632560Y-114735769D01*
X143670800Y-114680791D01*
X144305778Y-114045816D01*
X144333429Y-114015032D01*
X144350063Y-113994390D01*
X144368158Y-113970037D01*
X144419958Y-113860770D01*
X144439643Y-113793731D01*
X144455300Y-113684838D01*
X144455300Y-112317372D01*
X144452156Y-112268178D01*
X144448138Y-112236867D01*
X144441392Y-112199186D01*
X144396113Y-112087059D01*
X144360138Y-112027162D01*
X144360135Y-112027159D01*
X144360132Y-112027153D01*
X144290651Y-111941876D01*
X143681432Y-111380753D01*
X143633669Y-111311247D01*
X143620793Y-111227900D01*
X143645355Y-111147220D01*
X143694453Y-111091028D01*
X143750829Y-111047770D01*
X143962770Y-110835829D01*
X144145234Y-110598037D01*
X144295100Y-110338463D01*
X144409801Y-110061548D01*
X144487377Y-109772031D01*
X144526500Y-109474865D01*
X144526500Y-109175135D01*
X144487377Y-108877969D01*
X144409801Y-108588452D01*
X144295100Y-108311537D01*
X144295097Y-108311533D01*
X144295094Y-108311525D01*
X144145234Y-108051963D01*
X144145231Y-108051958D01*
X143962776Y-107814178D01*
X143962773Y-107814175D01*
X143962770Y-107814171D01*
X143750829Y-107602230D01*
X143750824Y-107602226D01*
X143750821Y-107602223D01*
X143513041Y-107419768D01*
X143513036Y-107419765D01*
X143253474Y-107269905D01*
X143253459Y-107269898D01*
X142976553Y-107155201D01*
X142976552Y-107155200D01*
X142976548Y-107155199D01*
X142845991Y-107120216D01*
X142687034Y-107077623D01*
X142389868Y-107038500D01*
X142389865Y-107038500D01*
X136905135Y-107038500D01*
X136905131Y-107038500D01*
X136607965Y-107077623D01*
X136396022Y-107134413D01*
X136318451Y-107155199D01*
X136318448Y-107155200D01*
X136318445Y-107155201D01*
X136237345Y-107188794D01*
X136041546Y-107269895D01*
X136041537Y-107269900D01*
X135781958Y-107419768D01*
X135544178Y-107602223D01*
X132709171Y-110437230D01*
X132709170Y-110437229D01*
X132497229Y-110649171D01*
X132497224Y-110649177D01*
X132314768Y-110886958D01*
X132314765Y-110886963D01*
X132164907Y-111146522D01*
X132164903Y-111146529D01*
X132133244Y-111222962D01*
X132050197Y-111423453D01*
X132050194Y-111423462D01*
X131995153Y-111628885D01*
X131995153Y-111628887D01*
X131972623Y-111712965D01*
X131933500Y-112010131D01*
X131933500Y-116974381D01*
X131914734Y-117056602D01*
X131862151Y-117122538D01*
X131786168Y-117159130D01*
X131701832Y-117159130D01*
X131625849Y-117122538D01*
X131610003Y-117108378D01*
X131431846Y-116930221D01*
X131386977Y-116858812D01*
X131385952Y-116855542D01*
X131385935Y-116855548D01*
X131384293Y-116850677D01*
X131384292Y-116850673D01*
X131252583Y-116520110D01*
X131085907Y-116205725D01*
X130886217Y-115911204D01*
X130655854Y-115640000D01*
X130655846Y-115639992D01*
X130397520Y-115395293D01*
X130114242Y-115179950D01*
X130114229Y-115179941D01*
X129809353Y-114996504D01*
X129809330Y-114996491D01*
X129486393Y-114847085D01*
X129486395Y-114847085D01*
X129149188Y-114733467D01*
X129149185Y-114733466D01*
X129048655Y-114711338D01*
X128801667Y-114656972D01*
X128801662Y-114656971D01*
X128801660Y-114656971D01*
X128447921Y-114618500D01*
X128447918Y-114618500D01*
X128092082Y-114618500D01*
X128092078Y-114618500D01*
X127738339Y-114656971D01*
X127738335Y-114656971D01*
X127738333Y-114656972D01*
X127630140Y-114680787D01*
X127390814Y-114733466D01*
X127390811Y-114733467D01*
X127053605Y-114847085D01*
X126730669Y-114996491D01*
X126730646Y-114996504D01*
X126425770Y-115179941D01*
X126425757Y-115179950D01*
X126142479Y-115395293D01*
X125884153Y-115639992D01*
X125653780Y-115911207D01*
X125594627Y-115998452D01*
X125454093Y-116205725D01*
X125287417Y-116520110D01*
X125155708Y-116850673D01*
X125060512Y-117193538D01*
X125002945Y-117544686D01*
X124983680Y-117900000D01*
X125002945Y-118255314D01*
X125060512Y-118606462D01*
X125155708Y-118949327D01*
X125287417Y-119279890D01*
X125454093Y-119594275D01*
X125653783Y-119888796D01*
X125884146Y-120160000D01*
X125884151Y-120160005D01*
X125884153Y-120160007D01*
X126142479Y-120404706D01*
X126425757Y-120620049D01*
X126561697Y-120701841D01*
X126622474Y-120760311D01*
X126651863Y-120839360D01*
X126653500Y-120864216D01*
X126653500Y-154580709D01*
X126634734Y-154662930D01*
X126582151Y-154728866D01*
X126506168Y-154765458D01*
X126464000Y-154770209D01*
X124330022Y-154770209D01*
X124073270Y-154810874D01*
X124073269Y-154810874D01*
X123826047Y-154891203D01*
X123826039Y-154891206D01*
X123594426Y-155009217D01*
X123594422Y-155009220D01*
X123384123Y-155162012D01*
X123200303Y-155345832D01*
X123047511Y-155556131D01*
X123047508Y-155556135D01*
X122929497Y-155787748D01*
X122929494Y-155787756D01*
X122849165Y-156034978D01*
X122849165Y-156034979D01*
X122808500Y-156291731D01*
X122808500Y-156551686D01*
X122849165Y-156808438D01*
X122849165Y-156808439D01*
X122929494Y-157055661D01*
X122929497Y-157055669D01*
X123047508Y-157287282D01*
X123047511Y-157287286D01*
X123200306Y-157497589D01*
X123384120Y-157681403D01*
X123384123Y-157681405D01*
X123594422Y-157834197D01*
X123594426Y-157834200D01*
X123759843Y-157918483D01*
X123806114Y-157957113D01*
X123807536Y-157955692D01*
X123823328Y-157971484D01*
X123824582Y-157972531D01*
X123824754Y-157972910D01*
X124457953Y-158606109D01*
X124413184Y-158606109D01*
X124322744Y-158630343D01*
X124241657Y-158677159D01*
X124175450Y-158743366D01*
X124128634Y-158824453D01*
X124104400Y-158914893D01*
X124104400Y-158959663D01*
X123515678Y-158370941D01*
X123512558Y-158375073D01*
X123420897Y-158559154D01*
X123364621Y-158756942D01*
X123345646Y-158961709D01*
X123364621Y-159166475D01*
X123420898Y-159364265D01*
X123512555Y-159548337D01*
X123512559Y-159548344D01*
X123515678Y-159552475D01*
X123515679Y-159552475D01*
X124104400Y-158963754D01*
X124104400Y-159008525D01*
X124128634Y-159098965D01*
X124175450Y-159180052D01*
X124241657Y-159246259D01*
X124322744Y-159293075D01*
X124413184Y-159317309D01*
X124457953Y-159317309D01*
X123872338Y-159902923D01*
X123963291Y-159959238D01*
X123963290Y-159959238D01*
X124155050Y-160033525D01*
X124357178Y-160071309D01*
X124562822Y-160071309D01*
X124764949Y-160033525D01*
X124956704Y-159959240D01*
X125047660Y-159902922D01*
X124462047Y-159317309D01*
X124506816Y-159317309D01*
X124597256Y-159293075D01*
X124678343Y-159246259D01*
X124744550Y-159180052D01*
X124791366Y-159098965D01*
X124815600Y-159008525D01*
X124815600Y-158963756D01*
X125404319Y-159552475D01*
X125407443Y-159548339D01*
X125499101Y-159364265D01*
X125555378Y-159166475D01*
X125574353Y-158961709D01*
X125555378Y-158756942D01*
X125499101Y-158559152D01*
X125407440Y-158375071D01*
X125402829Y-158367624D01*
X125404257Y-158366739D01*
X125374254Y-158299993D01*
X125376477Y-158215687D01*
X125415058Y-158140694D01*
X125482357Y-158089868D01*
X125560050Y-158073209D01*
X126464000Y-158073209D01*
X126546221Y-158091975D01*
X126612157Y-158144558D01*
X126648749Y-158220541D01*
X126653500Y-158262709D01*
X126653500Y-169785748D01*
X126634734Y-169867969D01*
X126582151Y-169933905D01*
X126506168Y-169970497D01*
X126421832Y-169970497D01*
X126345849Y-169933905D01*
X126330003Y-169919745D01*
X126224357Y-169814099D01*
X126224356Y-169814098D01*
X126074020Y-169719635D01*
X125906436Y-169660994D01*
X125730000Y-169641115D01*
X125553563Y-169660994D01*
X125385979Y-169719635D01*
X125235642Y-169814099D01*
X125110099Y-169939642D01*
X125015635Y-170089979D01*
X124956994Y-170257563D01*
X124935924Y-170444575D01*
X124934307Y-170444392D01*
X124918349Y-170514312D01*
X124881612Y-170566088D01*
X115034704Y-180412997D01*
X114963295Y-180457866D01*
X114900707Y-180468500D01*
X100333207Y-180468500D01*
X100250986Y-180449734D01*
X100185050Y-180397151D01*
X100148458Y-180321168D01*
X100148458Y-180236832D01*
X100161462Y-180198914D01*
X100166487Y-180188137D01*
X100198542Y-180119395D01*
X100253204Y-179915394D01*
X100271611Y-179705000D01*
X100253204Y-179494606D01*
X100198542Y-179290605D01*
X100158254Y-179204207D01*
X100109289Y-179099201D01*
X100109287Y-179099198D01*
X100109286Y-179099195D01*
X99988148Y-178926191D01*
X99838809Y-178776852D01*
X99838805Y-178776849D01*
X99838804Y-178776848D01*
X99665808Y-178655715D01*
X99665805Y-178655713D01*
X99591955Y-178621277D01*
X99560790Y-178606744D01*
X99494205Y-178554990D01*
X99456668Y-178479468D01*
X99455617Y-178395140D01*
X99491258Y-178318706D01*
X99556533Y-178265305D01*
X99560752Y-178263273D01*
X99665806Y-178214286D01*
X99838809Y-178093148D01*
X99988148Y-177943809D01*
X100109286Y-177770806D01*
X100198542Y-177579395D01*
X100253204Y-177375394D01*
X100271611Y-177165000D01*
X100253204Y-176954606D01*
X100249034Y-176939046D01*
X100245880Y-176854772D01*
X100279605Y-176777473D01*
X100343528Y-176722461D01*
X100424989Y-176700633D01*
X100432077Y-176700500D01*
X110613000Y-176700500D01*
X110695221Y-176719266D01*
X110761157Y-176771849D01*
X110797749Y-176847832D01*
X110802500Y-176890000D01*
X110802500Y-177830212D01*
X110813304Y-177904364D01*
X110813305Y-177904365D01*
X110832589Y-177943809D01*
X110869224Y-178018746D01*
X110959254Y-178108776D01*
X111017842Y-178137418D01*
X111073634Y-178164694D01*
X111073635Y-178164695D01*
X111073637Y-178164695D01*
X111073639Y-178164696D01*
X111147794Y-178175500D01*
X111147799Y-178175500D01*
X115420201Y-178175500D01*
X115420206Y-178175500D01*
X115494361Y-178164696D01*
X115494362Y-178164695D01*
X115494364Y-178164695D01*
X115494365Y-178164694D01*
X115608746Y-178108776D01*
X115698776Y-178018746D01*
X115754696Y-177904361D01*
X115765500Y-177830206D01*
X115765500Y-174557794D01*
X115754696Y-174483639D01*
X115754695Y-174483637D01*
X115754695Y-174483635D01*
X115754694Y-174483634D01*
X115698777Y-174369257D01*
X115698776Y-174369254D01*
X115608746Y-174279224D01*
X115608742Y-174279222D01*
X115494365Y-174223305D01*
X115494364Y-174223304D01*
X115420212Y-174212500D01*
X115420206Y-174212500D01*
X111147794Y-174212500D01*
X111147787Y-174212500D01*
X111073635Y-174223304D01*
X111073634Y-174223305D01*
X110959257Y-174279222D01*
X110959252Y-174279225D01*
X110869225Y-174369252D01*
X110869222Y-174369257D01*
X110813305Y-174483634D01*
X110813304Y-174483635D01*
X110802500Y-174557787D01*
X110802500Y-175498000D01*
X110783734Y-175580221D01*
X110731151Y-175646157D01*
X110655168Y-175682749D01*
X110613000Y-175687500D01*
X100153532Y-175687500D01*
X100071311Y-175668734D01*
X100005375Y-175616151D01*
X99968783Y-175540168D01*
X99968783Y-175455832D01*
X99998302Y-175389308D01*
X100018597Y-175360323D01*
X100109286Y-175230806D01*
X100198542Y-175039395D01*
X100253204Y-174835394D01*
X100271611Y-174625000D01*
X100253204Y-174414606D01*
X100198542Y-174210605D01*
X100109286Y-174019195D01*
X99988148Y-173846191D01*
X99838809Y-173696852D01*
X99838805Y-173696849D01*
X99838804Y-173696848D01*
X99668340Y-173577488D01*
X99611753Y-173514956D01*
X99587901Y-173434063D01*
X99601509Y-173350833D01*
X99649882Y-173281750D01*
X99696949Y-173250512D01*
X99725282Y-173237300D01*
X99803780Y-173182333D01*
X99230234Y-172608787D01*
X99272292Y-172597518D01*
X99397708Y-172525110D01*
X99500110Y-172422708D01*
X99572518Y-172297292D01*
X99583787Y-172255234D01*
X100157333Y-172828780D01*
X100212300Y-172750282D01*
X100212306Y-172750272D01*
X100310317Y-172540086D01*
X100370349Y-172316046D01*
X100390562Y-172085000D01*
X100370349Y-171853953D01*
X100310317Y-171629913D01*
X100212304Y-171419725D01*
X100212301Y-171419720D01*
X100157334Y-171341218D01*
X99583787Y-171914765D01*
X99572518Y-171872708D01*
X99500110Y-171747292D01*
X99397708Y-171644890D01*
X99272292Y-171572482D01*
X99230233Y-171561212D01*
X99803781Y-170987664D01*
X99725285Y-170932700D01*
X99725280Y-170932697D01*
X99696946Y-170919485D01*
X99630359Y-170867728D01*
X99592824Y-170792206D01*
X99591773Y-170707877D01*
X99627415Y-170631444D01*
X99668337Y-170592513D01*
X99838809Y-170473148D01*
X99988148Y-170323809D01*
X100109286Y-170150806D01*
X100198542Y-169959395D01*
X100253204Y-169755394D01*
X100271611Y-169545000D01*
X100253204Y-169334606D01*
X100198542Y-169130605D01*
X100109286Y-168939195D01*
X99988148Y-168766191D01*
X99838809Y-168616852D01*
X99838805Y-168616849D01*
X99838804Y-168616848D01*
X99665808Y-168495715D01*
X99665805Y-168495713D01*
X99616571Y-168472755D01*
X99560790Y-168446744D01*
X99494205Y-168394990D01*
X99456668Y-168319468D01*
X99455617Y-168235140D01*
X99491258Y-168158706D01*
X99556533Y-168105305D01*
X99560752Y-168103273D01*
X99665806Y-168054286D01*
X99838809Y-167933148D01*
X99988148Y-167783809D01*
X100109286Y-167610806D01*
X100198542Y-167419395D01*
X100253204Y-167215394D01*
X100271611Y-167005000D01*
X100253204Y-166794606D01*
X100198542Y-166590605D01*
X100109286Y-166399195D01*
X99988148Y-166226191D01*
X99838809Y-166076852D01*
X99838805Y-166076849D01*
X99838804Y-166076848D01*
X99665808Y-165955715D01*
X99665805Y-165955713D01*
X99586111Y-165918552D01*
X99560790Y-165906744D01*
X99494205Y-165854990D01*
X99456668Y-165779468D01*
X99455617Y-165695140D01*
X99491258Y-165618706D01*
X99556533Y-165565305D01*
X99560752Y-165563273D01*
X99665806Y-165514286D01*
X99838809Y-165393148D01*
X99988148Y-165243809D01*
X100109286Y-165070806D01*
X100198542Y-164879395D01*
X100253204Y-164675394D01*
X100271611Y-164465000D01*
X100253204Y-164254606D01*
X100198542Y-164050605D01*
X100158254Y-163964207D01*
X100109289Y-163859201D01*
X100109287Y-163859198D01*
X100109286Y-163859195D01*
X99988148Y-163686191D01*
X99838809Y-163536852D01*
X99838805Y-163536849D01*
X99838804Y-163536848D01*
X99665808Y-163415715D01*
X99581799Y-163376541D01*
X99474395Y-163326458D01*
X99474393Y-163326457D01*
X99474388Y-163326455D01*
X99270391Y-163271795D01*
X99060000Y-163253389D01*
X98849609Y-163271795D01*
X98849608Y-163271795D01*
X98645606Y-163326457D01*
X98645601Y-163326459D01*
X98454201Y-163415710D01*
X98454198Y-163415712D01*
X98281194Y-163536849D01*
X98131849Y-163686194D01*
X98010712Y-163859198D01*
X98010710Y-163859201D01*
X97961745Y-163964207D01*
X97909989Y-164030794D01*
X97834467Y-164068330D01*
X97750138Y-164069381D01*
X97673705Y-164033739D01*
X97620304Y-163968464D01*
X97618255Y-163964207D01*
X97569289Y-163859201D01*
X97569287Y-163859198D01*
X97569286Y-163859195D01*
X97448148Y-163686191D01*
X97298809Y-163536852D01*
X97298805Y-163536849D01*
X97298804Y-163536848D01*
X97125808Y-163415715D01*
X97041799Y-163376541D01*
X96934395Y-163326458D01*
X96934393Y-163326457D01*
X96934388Y-163326455D01*
X96730391Y-163271795D01*
X96520000Y-163253389D01*
X96309609Y-163271795D01*
X96309608Y-163271795D01*
X96105606Y-163326457D01*
X96105601Y-163326459D01*
X95914201Y-163415710D01*
X95914198Y-163415712D01*
X95741194Y-163536849D01*
X95591849Y-163686194D01*
X95470712Y-163859198D01*
X95470710Y-163859201D01*
X95421745Y-163964207D01*
X95369989Y-164030794D01*
X95294467Y-164068330D01*
X95210138Y-164069381D01*
X95133705Y-164033739D01*
X95080304Y-163968464D01*
X95078255Y-163964207D01*
X95029289Y-163859201D01*
X95029287Y-163859198D01*
X95029286Y-163859195D01*
X94908148Y-163686191D01*
X94758809Y-163536852D01*
X94758805Y-163536849D01*
X94758804Y-163536848D01*
X94585808Y-163415715D01*
X94501799Y-163376541D01*
X94394395Y-163326458D01*
X94394393Y-163326457D01*
X94394388Y-163326455D01*
X94190391Y-163271795D01*
X93980000Y-163253389D01*
X93769609Y-163271795D01*
X93769608Y-163271795D01*
X93565606Y-163326457D01*
X93565601Y-163326459D01*
X93374201Y-163415710D01*
X93374198Y-163415712D01*
X93201194Y-163536849D01*
X93051849Y-163686194D01*
X92930712Y-163859198D01*
X92930710Y-163859201D01*
X92881745Y-163964207D01*
X92829989Y-164030794D01*
X92754467Y-164068330D01*
X92670138Y-164069381D01*
X92593705Y-164033739D01*
X92540304Y-163968464D01*
X92538255Y-163964207D01*
X92489289Y-163859201D01*
X92489287Y-163859198D01*
X92489286Y-163859195D01*
X92368148Y-163686191D01*
X92218809Y-163536852D01*
X92218805Y-163536849D01*
X92218804Y-163536848D01*
X92045808Y-163415715D01*
X91961799Y-163376541D01*
X91854395Y-163326458D01*
X91854393Y-163326457D01*
X91854388Y-163326455D01*
X91650391Y-163271795D01*
X91440000Y-163253389D01*
X91229609Y-163271795D01*
X91229608Y-163271795D01*
X91025606Y-163326457D01*
X91025601Y-163326459D01*
X90834201Y-163415710D01*
X90834198Y-163415712D01*
X90661194Y-163536849D01*
X90511849Y-163686194D01*
X90390712Y-163859198D01*
X90390710Y-163859201D01*
X90341745Y-163964207D01*
X90289989Y-164030794D01*
X90214467Y-164068330D01*
X90130138Y-164069381D01*
X90053705Y-164033739D01*
X90000304Y-163968464D01*
X89998255Y-163964207D01*
X89949289Y-163859201D01*
X89949287Y-163859198D01*
X89949286Y-163859195D01*
X89828148Y-163686191D01*
X89678809Y-163536852D01*
X89678805Y-163536849D01*
X89678804Y-163536848D01*
X89505808Y-163415715D01*
X89421799Y-163376541D01*
X89314395Y-163326458D01*
X89314393Y-163326457D01*
X89314388Y-163326455D01*
X89110391Y-163271795D01*
X88900000Y-163253389D01*
X88689609Y-163271795D01*
X88689608Y-163271795D01*
X88485606Y-163326457D01*
X88485601Y-163326459D01*
X88294201Y-163415710D01*
X88294198Y-163415712D01*
X88121194Y-163536849D01*
X87971849Y-163686194D01*
X87850712Y-163859198D01*
X87850710Y-163859201D01*
X87801745Y-163964207D01*
X87749989Y-164030794D01*
X87674467Y-164068330D01*
X87590138Y-164069381D01*
X87513705Y-164033739D01*
X87460304Y-163968464D01*
X87458255Y-163964207D01*
X87409289Y-163859201D01*
X87409287Y-163859198D01*
X87409286Y-163859195D01*
X87288148Y-163686191D01*
X87138809Y-163536852D01*
X87138805Y-163536849D01*
X87138804Y-163536848D01*
X86965808Y-163415715D01*
X86881799Y-163376541D01*
X86774395Y-163326458D01*
X86774393Y-163326457D01*
X86774388Y-163326455D01*
X86570391Y-163271795D01*
X86360000Y-163253389D01*
X86149609Y-163271795D01*
X86149608Y-163271795D01*
X85945606Y-163326457D01*
X85945601Y-163326459D01*
X85754201Y-163415710D01*
X85754198Y-163415712D01*
X85581194Y-163536849D01*
X85431849Y-163686194D01*
X85310712Y-163859198D01*
X85310710Y-163859201D01*
X85261745Y-163964207D01*
X85209989Y-164030794D01*
X85134467Y-164068330D01*
X85050138Y-164069381D01*
X84973705Y-164033739D01*
X84920304Y-163968464D01*
X84918255Y-163964207D01*
X84869289Y-163859201D01*
X84869287Y-163859198D01*
X84869286Y-163859195D01*
X84748148Y-163686191D01*
X84598809Y-163536852D01*
X84598805Y-163536849D01*
X84598804Y-163536848D01*
X84425808Y-163415715D01*
X84341799Y-163376541D01*
X84234395Y-163326458D01*
X84234393Y-163326457D01*
X84234388Y-163326455D01*
X84030391Y-163271795D01*
X83820000Y-163253389D01*
X83609609Y-163271795D01*
X83609608Y-163271795D01*
X83405606Y-163326457D01*
X83405601Y-163326459D01*
X83214201Y-163415710D01*
X83214198Y-163415712D01*
X83041194Y-163536849D01*
X82891849Y-163686194D01*
X82770712Y-163859198D01*
X82770710Y-163859201D01*
X82721745Y-163964207D01*
X82669989Y-164030794D01*
X82594467Y-164068330D01*
X82510138Y-164069381D01*
X82433705Y-164033739D01*
X82380304Y-163968464D01*
X82378255Y-163964207D01*
X82329289Y-163859201D01*
X82329287Y-163859198D01*
X82329286Y-163859195D01*
X82208148Y-163686191D01*
X82058809Y-163536852D01*
X82058805Y-163536849D01*
X82058804Y-163536848D01*
X81885808Y-163415715D01*
X81801799Y-163376541D01*
X81694395Y-163326458D01*
X81694393Y-163326457D01*
X81694388Y-163326455D01*
X81490391Y-163271795D01*
X81280000Y-163253389D01*
X81069609Y-163271795D01*
X81069608Y-163271795D01*
X80865606Y-163326457D01*
X80865601Y-163326459D01*
X80666696Y-163419210D01*
X80665478Y-163416598D01*
X80600005Y-163436546D01*
X80516655Y-163423687D01*
X80447140Y-163375937D01*
X80405226Y-163302755D01*
X80397000Y-163247528D01*
X80397000Y-156043998D01*
X109397496Y-156043998D01*
X109397496Y-167044001D01*
X109416412Y-167163433D01*
X109416412Y-167163434D01*
X109416412Y-167163435D01*
X109416413Y-167163436D01*
X109471312Y-167271181D01*
X109556819Y-167356688D01*
X109664564Y-167411587D01*
X109713817Y-167419388D01*
X109783999Y-167430504D01*
X109784000Y-167430504D01*
X116784001Y-167430504D01*
X116813859Y-167425774D01*
X116903436Y-167411587D01*
X117011181Y-167356688D01*
X117096688Y-167271181D01*
X117151587Y-167163436D01*
X117170504Y-167044000D01*
X117170504Y-161501703D01*
X123464104Y-161501703D01*
X123464104Y-161501714D01*
X123483239Y-161695998D01*
X123539908Y-161882813D01*
X123539912Y-161882822D01*
X123631944Y-162055000D01*
X123631947Y-162055005D01*
X123755792Y-162205911D01*
X123755797Y-162205916D01*
X123906703Y-162329761D01*
X123906706Y-162329763D01*
X123906710Y-162329766D01*
X124078887Y-162421797D01*
X124078890Y-162421798D01*
X124078895Y-162421800D01*
X124265710Y-162478469D01*
X124459994Y-162497605D01*
X124460000Y-162497605D01*
X124460006Y-162497605D01*
X124626534Y-162481202D01*
X124654290Y-162478469D01*
X124753148Y-162448480D01*
X124841104Y-162421800D01*
X124841105Y-162421799D01*
X124841113Y-162421797D01*
X125013290Y-162329766D01*
X125164205Y-162205914D01*
X125288057Y-162054999D01*
X125380088Y-161882822D01*
X125436760Y-161695999D01*
X125455896Y-161501709D01*
X125455896Y-161501703D01*
X125436760Y-161307419D01*
X125380091Y-161120604D01*
X125380089Y-161120599D01*
X125380088Y-161120596D01*
X125288057Y-160948419D01*
X125288054Y-160948415D01*
X125288052Y-160948412D01*
X125164207Y-160797506D01*
X125164202Y-160797501D01*
X125013296Y-160673656D01*
X125013291Y-160673653D01*
X125013290Y-160673652D01*
X124841113Y-160581621D01*
X124841104Y-160581617D01*
X124654289Y-160524948D01*
X124460006Y-160505813D01*
X124459994Y-160505813D01*
X124265710Y-160524948D01*
X124078895Y-160581617D01*
X124078886Y-160581621D01*
X123906708Y-160673653D01*
X123906703Y-160673656D01*
X123755797Y-160797501D01*
X123755792Y-160797506D01*
X123631947Y-160948412D01*
X123631944Y-160948417D01*
X123539912Y-161120595D01*
X123539908Y-161120604D01*
X123483239Y-161307419D01*
X123464104Y-161501703D01*
X117170504Y-161501703D01*
X117170504Y-156044000D01*
X117151587Y-155924564D01*
X117096688Y-155816819D01*
X117011181Y-155731312D01*
X117011178Y-155731310D01*
X116903434Y-155676412D01*
X116784001Y-155657496D01*
X116784000Y-155657496D01*
X109784000Y-155657496D01*
X109783999Y-155657496D01*
X109664566Y-155676412D01*
X109664565Y-155676412D01*
X109556821Y-155731310D01*
X109471310Y-155816821D01*
X109416412Y-155924565D01*
X109416412Y-155924566D01*
X109397496Y-156043998D01*
X80397000Y-156043998D01*
X80397000Y-147727464D01*
X80397001Y-147727451D01*
X80397001Y-147578818D01*
X80383866Y-147529799D01*
X80362484Y-147449999D01*
X80334300Y-147401184D01*
X80295801Y-147334501D01*
X80201499Y-147240199D01*
X80194886Y-147233586D01*
X80194875Y-147233576D01*
X75795639Y-142834340D01*
X79153500Y-142834340D01*
X79153500Y-144185660D01*
X79156383Y-144222290D01*
X79167605Y-144260918D01*
X79201926Y-144379049D01*
X79267187Y-144489400D01*
X79285020Y-144519553D01*
X79400447Y-144634980D01*
X79540953Y-144718075D01*
X79697710Y-144763617D01*
X79734340Y-144766500D01*
X79734341Y-144766500D01*
X80605659Y-144766500D01*
X80605660Y-144766500D01*
X80642290Y-144763617D01*
X80799047Y-144718075D01*
X80939553Y-144634980D01*
X81054980Y-144519553D01*
X81096745Y-144448931D01*
X81154748Y-144387716D01*
X81233572Y-144357727D01*
X81317601Y-144364909D01*
X81390192Y-144407838D01*
X81393851Y-144411399D01*
X81522020Y-144539568D01*
X81688506Y-144650810D01*
X81857325Y-144720737D01*
X81873498Y-144727436D01*
X82069884Y-144766500D01*
X82270116Y-144766500D01*
X82466502Y-144727436D01*
X82651493Y-144650810D01*
X82817981Y-144539567D01*
X82959567Y-144397981D01*
X82972217Y-144379049D01*
X83012436Y-144318857D01*
X83073718Y-144260918D01*
X83154071Y-144235307D01*
X83237578Y-144247095D01*
X83307701Y-144293949D01*
X83327564Y-144318857D01*
X83380429Y-144397977D01*
X83522020Y-144539568D01*
X83688506Y-144650810D01*
X83857325Y-144720737D01*
X83873498Y-144727436D01*
X84069884Y-144766500D01*
X84270116Y-144766500D01*
X84466502Y-144727436D01*
X84651493Y-144650810D01*
X84817981Y-144539567D01*
X84959567Y-144397981D01*
X84972217Y-144379049D01*
X85012436Y-144318857D01*
X85073718Y-144260918D01*
X85154071Y-144235307D01*
X85237578Y-144247095D01*
X85307701Y-144293949D01*
X85327564Y-144318857D01*
X85380429Y-144397977D01*
X85522020Y-144539568D01*
X85688506Y-144650810D01*
X85857325Y-144720737D01*
X85873498Y-144727436D01*
X86069884Y-144766500D01*
X86270116Y-144766500D01*
X86466502Y-144727436D01*
X86651493Y-144650810D01*
X86817981Y-144539567D01*
X86959567Y-144397981D01*
X86972217Y-144379049D01*
X87012436Y-144318857D01*
X87073718Y-144260918D01*
X87154071Y-144235307D01*
X87237578Y-144247095D01*
X87307701Y-144293949D01*
X87327564Y-144318857D01*
X87380429Y-144397977D01*
X87522020Y-144539568D01*
X87688506Y-144650810D01*
X87857325Y-144720737D01*
X87873498Y-144727436D01*
X88069884Y-144766500D01*
X88270116Y-144766500D01*
X88466502Y-144727436D01*
X88651493Y-144650810D01*
X88817981Y-144539567D01*
X88959567Y-144397981D01*
X88963855Y-144393693D01*
X89035264Y-144348823D01*
X89119069Y-144339380D01*
X89198672Y-144367234D01*
X89251162Y-144416305D01*
X89304268Y-144489401D01*
X89430599Y-144615732D01*
X89575129Y-144720738D01*
X89575132Y-144720740D01*
X89734307Y-144801843D01*
X89734314Y-144801846D01*
X89904220Y-144857052D01*
X89920000Y-144859551D01*
X89920000Y-143790330D01*
X89939745Y-143810075D01*
X90025255Y-143859444D01*
X90120630Y-143885000D01*
X90219370Y-143885000D01*
X90314745Y-143859444D01*
X90400255Y-143810075D01*
X90420000Y-143790330D01*
X90420000Y-144859551D01*
X90435779Y-144857052D01*
X90605685Y-144801846D01*
X90605692Y-144801843D01*
X90764867Y-144720740D01*
X90764870Y-144720738D01*
X90909400Y-144615732D01*
X91035732Y-144489400D01*
X91140738Y-144344870D01*
X91140740Y-144344867D01*
X91221843Y-144185692D01*
X91221846Y-144185685D01*
X91277052Y-144015783D01*
X91277052Y-144015782D01*
X91305000Y-143839327D01*
X91305000Y-143760001D01*
X91304999Y-143760000D01*
X90450330Y-143760000D01*
X90470075Y-143740255D01*
X90519444Y-143654745D01*
X90545000Y-143559370D01*
X90545000Y-143460630D01*
X90519444Y-143365255D01*
X90470075Y-143279745D01*
X90450330Y-143260000D01*
X91304999Y-143260000D01*
X91305000Y-143259999D01*
X91305000Y-143180672D01*
X91277052Y-143004217D01*
X91277052Y-143004216D01*
X91221846Y-142834314D01*
X91221843Y-142834307D01*
X91140740Y-142675132D01*
X91140738Y-142675129D01*
X91035732Y-142530599D01*
X90909400Y-142404267D01*
X90764870Y-142299261D01*
X90764867Y-142299259D01*
X90605692Y-142218156D01*
X90605685Y-142218153D01*
X90435780Y-142162947D01*
X90420000Y-142160447D01*
X90420000Y-143229670D01*
X90400255Y-143209925D01*
X90314745Y-143160556D01*
X90219370Y-143135000D01*
X90120630Y-143135000D01*
X90025255Y-143160556D01*
X89939745Y-143209925D01*
X89920000Y-143229670D01*
X89920000Y-142160447D01*
X89904219Y-142162947D01*
X89734314Y-142218153D01*
X89734307Y-142218156D01*
X89575132Y-142299259D01*
X89575129Y-142299261D01*
X89430599Y-142404267D01*
X89304267Y-142530599D01*
X89251161Y-142603695D01*
X89187651Y-142659182D01*
X89106355Y-142681619D01*
X89023374Y-142666561D01*
X88963855Y-142626307D01*
X88817979Y-142480431D01*
X88651493Y-142369189D01*
X88466501Y-142292563D01*
X88270116Y-142253500D01*
X88069884Y-142253500D01*
X87873498Y-142292563D01*
X87688506Y-142369189D01*
X87522020Y-142480431D01*
X87380431Y-142622020D01*
X87327564Y-142701143D01*
X87266281Y-142759081D01*
X87185928Y-142784692D01*
X87102421Y-142772903D01*
X87032298Y-142726049D01*
X87012436Y-142701143D01*
X86959568Y-142622020D01*
X86817979Y-142480431D01*
X86651493Y-142369189D01*
X86466501Y-142292563D01*
X86270116Y-142253500D01*
X86069884Y-142253500D01*
X85873498Y-142292563D01*
X85688506Y-142369189D01*
X85522020Y-142480431D01*
X85380431Y-142622020D01*
X85327564Y-142701143D01*
X85266281Y-142759081D01*
X85185928Y-142784692D01*
X85102421Y-142772903D01*
X85032298Y-142726049D01*
X85012436Y-142701143D01*
X84959568Y-142622020D01*
X84817979Y-142480431D01*
X84651493Y-142369189D01*
X84466501Y-142292563D01*
X84270116Y-142253500D01*
X84069884Y-142253500D01*
X83873498Y-142292563D01*
X83688506Y-142369189D01*
X83522020Y-142480431D01*
X83380431Y-142622020D01*
X83327564Y-142701143D01*
X83266281Y-142759081D01*
X83185928Y-142784692D01*
X83102421Y-142772903D01*
X83032298Y-142726049D01*
X83012436Y-142701143D01*
X82959568Y-142622020D01*
X82817979Y-142480431D01*
X82651493Y-142369189D01*
X82466501Y-142292563D01*
X82270116Y-142253500D01*
X82069884Y-142253500D01*
X81873498Y-142292563D01*
X81688506Y-142369189D01*
X81522018Y-142480432D01*
X81393850Y-142608600D01*
X81322441Y-142653469D01*
X81238636Y-142662911D01*
X81159033Y-142635057D01*
X81099399Y-142575422D01*
X81096743Y-142571065D01*
X81054983Y-142500451D01*
X81054981Y-142500449D01*
X81054980Y-142500447D01*
X80939553Y-142385020D01*
X80912784Y-142369189D01*
X80799049Y-142301926D01*
X80799048Y-142301925D01*
X80799047Y-142301925D01*
X80642290Y-142256383D01*
X80605660Y-142253500D01*
X79734340Y-142253500D01*
X79716025Y-142254941D01*
X79697709Y-142256383D01*
X79612454Y-142281152D01*
X79550130Y-142299259D01*
X79540950Y-142301926D01*
X79400449Y-142385018D01*
X79285018Y-142500449D01*
X79201926Y-142640950D01*
X79159057Y-142788507D01*
X79156383Y-142797710D01*
X79153500Y-142834340D01*
X75795639Y-142834340D01*
X74951299Y-141990000D01*
X96440448Y-141990000D01*
X97509670Y-141990000D01*
X97489925Y-142009745D01*
X97440556Y-142095255D01*
X97415000Y-142190630D01*
X97415000Y-142289370D01*
X97440556Y-142384745D01*
X97489925Y-142470255D01*
X97509670Y-142490000D01*
X96440448Y-142490000D01*
X96442947Y-142505779D01*
X96498153Y-142675685D01*
X96498156Y-142675692D01*
X96579259Y-142834867D01*
X96579261Y-142834870D01*
X96684267Y-142979400D01*
X96810599Y-143105732D01*
X96955129Y-143210738D01*
X96955132Y-143210740D01*
X97114307Y-143291843D01*
X97114314Y-143291846D01*
X97284217Y-143347052D01*
X97460672Y-143375000D01*
X97539999Y-143375000D01*
X97540000Y-143374999D01*
X97540000Y-142520330D01*
X97559745Y-142540075D01*
X97645255Y-142589444D01*
X97740630Y-142615000D01*
X97839370Y-142615000D01*
X97934745Y-142589444D01*
X98020255Y-142540075D01*
X98040000Y-142520330D01*
X98040000Y-143374999D01*
X98040001Y-143375000D01*
X98119328Y-143375000D01*
X98295782Y-143347052D01*
X98295783Y-143347052D01*
X98465685Y-143291846D01*
X98465692Y-143291843D01*
X98624867Y-143210740D01*
X98624870Y-143210738D01*
X98769400Y-143105732D01*
X98895732Y-142979400D01*
X99000738Y-142834870D01*
X99000740Y-142834867D01*
X99081843Y-142675692D01*
X99081846Y-142675685D01*
X99137052Y-142505779D01*
X99139552Y-142490000D01*
X98070330Y-142490000D01*
X98090075Y-142470255D01*
X98139444Y-142384745D01*
X98165000Y-142289370D01*
X98165000Y-142190630D01*
X98139444Y-142095255D01*
X98090075Y-142009745D01*
X98070330Y-141990000D01*
X99139551Y-141990000D01*
X99137052Y-141974220D01*
X99081846Y-141804314D01*
X99081843Y-141804307D01*
X99000740Y-141645132D01*
X99000738Y-141645129D01*
X98895732Y-141500599D01*
X98769401Y-141374268D01*
X98696305Y-141321162D01*
X98640817Y-141257652D01*
X98618380Y-141176356D01*
X98633438Y-141093376D01*
X98673693Y-141033855D01*
X98819567Y-140887981D01*
X98930810Y-140721493D01*
X99007436Y-140536501D01*
X99046500Y-140340115D01*
X99046500Y-140139884D01*
X99007436Y-139943498D01*
X98930810Y-139758506D01*
X98819568Y-139592020D01*
X98691399Y-139463851D01*
X98646530Y-139392442D01*
X98637088Y-139308637D01*
X98664942Y-139229034D01*
X98724576Y-139169400D01*
X98728860Y-139166787D01*
X98799553Y-139124980D01*
X98914980Y-139009553D01*
X98998075Y-138869047D01*
X99043617Y-138712290D01*
X99046500Y-138675660D01*
X99046500Y-137804340D01*
X99043617Y-137767710D01*
X98998075Y-137610953D01*
X98914980Y-137470447D01*
X98799553Y-137355020D01*
X98791308Y-137350144D01*
X98659049Y-137271926D01*
X98659048Y-137271925D01*
X98659047Y-137271925D01*
X98502290Y-137226383D01*
X98465660Y-137223500D01*
X97114340Y-137223500D01*
X97096025Y-137224941D01*
X97077709Y-137226383D01*
X96920950Y-137271926D01*
X96780449Y-137355018D01*
X96665018Y-137470449D01*
X96581926Y-137610950D01*
X96581925Y-137610952D01*
X96581925Y-137610953D01*
X96536383Y-137767710D01*
X96533500Y-137804340D01*
X96533500Y-138675660D01*
X96536383Y-138712290D01*
X96581925Y-138869047D01*
X96665020Y-139009553D01*
X96780447Y-139124980D01*
X96780449Y-139124981D01*
X96780451Y-139124983D01*
X96825484Y-139151615D01*
X96851066Y-139166743D01*
X96912284Y-139224749D01*
X96942272Y-139303573D01*
X96935090Y-139387602D01*
X96892160Y-139460193D01*
X96888600Y-139463850D01*
X96760432Y-139592018D01*
X96649189Y-139758506D01*
X96572563Y-139943498D01*
X96533500Y-140139884D01*
X96533500Y-140340115D01*
X96572563Y-140536501D01*
X96649189Y-140721493D01*
X96760431Y-140887979D01*
X96906307Y-141033855D01*
X96951176Y-141105264D01*
X96960618Y-141189069D01*
X96932764Y-141268672D01*
X96883695Y-141321161D01*
X96810599Y-141374267D01*
X96684267Y-141500599D01*
X96579261Y-141645129D01*
X96579259Y-141645132D01*
X96498156Y-141804307D01*
X96498153Y-141804314D01*
X96442947Y-141974220D01*
X96440448Y-141990000D01*
X74951299Y-141990000D01*
X70466657Y-137505358D01*
X70421788Y-137433949D01*
X70412346Y-137350144D01*
X70440200Y-137270541D01*
X70499834Y-137210907D01*
X70542098Y-137191135D01*
X70570686Y-137181846D01*
X70570692Y-137181843D01*
X70729867Y-137100740D01*
X70729870Y-137100738D01*
X70874400Y-136995732D01*
X71000732Y-136869400D01*
X71105738Y-136724870D01*
X71105740Y-136724867D01*
X71186843Y-136565692D01*
X71186846Y-136565685D01*
X71242052Y-136395783D01*
X71242052Y-136395782D01*
X71270000Y-136219327D01*
X71270000Y-136140001D01*
X71269999Y-136140000D01*
X70415330Y-136140000D01*
X70435075Y-136120255D01*
X70484444Y-136034745D01*
X70510000Y-135939370D01*
X70510000Y-135840630D01*
X70484444Y-135745255D01*
X70435075Y-135659745D01*
X70415330Y-135640000D01*
X71269999Y-135640000D01*
X71270000Y-135639999D01*
X71270000Y-135560672D01*
X71242052Y-135384217D01*
X71242052Y-135384216D01*
X71186854Y-135214340D01*
X79153500Y-135214340D01*
X79153500Y-136565660D01*
X79156383Y-136602290D01*
X79167605Y-136640918D01*
X79201926Y-136759049D01*
X79267187Y-136869400D01*
X79285020Y-136899553D01*
X79400447Y-137014980D01*
X79540953Y-137098075D01*
X79697710Y-137143617D01*
X79734340Y-137146500D01*
X79734341Y-137146500D01*
X80605659Y-137146500D01*
X80605660Y-137146500D01*
X80642290Y-137143617D01*
X80799047Y-137098075D01*
X80939553Y-137014980D01*
X81054980Y-136899553D01*
X81096745Y-136828931D01*
X81154748Y-136767716D01*
X81233572Y-136737727D01*
X81317601Y-136744909D01*
X81390192Y-136787838D01*
X81393851Y-136791399D01*
X81522020Y-136919568D01*
X81688506Y-137030810D01*
X81857328Y-137100738D01*
X81873498Y-137107436D01*
X82069884Y-137146500D01*
X82270116Y-137146500D01*
X82466502Y-137107436D01*
X82651493Y-137030810D01*
X82817981Y-136919567D01*
X82959567Y-136777981D01*
X82972217Y-136759049D01*
X83012436Y-136698857D01*
X83073718Y-136640918D01*
X83154071Y-136615307D01*
X83237578Y-136627095D01*
X83307701Y-136673949D01*
X83327564Y-136698857D01*
X83380429Y-136777977D01*
X83522020Y-136919568D01*
X83688506Y-137030810D01*
X83857328Y-137100738D01*
X83873498Y-137107436D01*
X84069884Y-137146500D01*
X84270116Y-137146500D01*
X84466502Y-137107436D01*
X84651493Y-137030810D01*
X84817981Y-136919567D01*
X84959567Y-136777981D01*
X84972217Y-136759049D01*
X85012436Y-136698857D01*
X85073718Y-136640918D01*
X85154071Y-136615307D01*
X85237578Y-136627095D01*
X85307701Y-136673949D01*
X85327564Y-136698857D01*
X85380429Y-136777977D01*
X85522020Y-136919568D01*
X85688506Y-137030810D01*
X85857328Y-137100738D01*
X85873498Y-137107436D01*
X86069884Y-137146500D01*
X86270116Y-137146500D01*
X86466502Y-137107436D01*
X86651493Y-137030810D01*
X86817981Y-136919567D01*
X86959567Y-136777981D01*
X86972217Y-136759049D01*
X87012436Y-136698857D01*
X87073718Y-136640918D01*
X87154071Y-136615307D01*
X87237578Y-136627095D01*
X87307701Y-136673949D01*
X87327564Y-136698857D01*
X87380429Y-136777977D01*
X87522020Y-136919568D01*
X87688506Y-137030810D01*
X87857328Y-137100738D01*
X87873498Y-137107436D01*
X88069884Y-137146500D01*
X88270116Y-137146500D01*
X88466502Y-137107436D01*
X88651493Y-137030810D01*
X88817981Y-136919567D01*
X88959567Y-136777981D01*
X88963855Y-136773693D01*
X89035264Y-136728823D01*
X89119069Y-136719380D01*
X89198672Y-136747234D01*
X89251162Y-136796305D01*
X89304268Y-136869401D01*
X89430599Y-136995732D01*
X89575129Y-137100738D01*
X89575132Y-137100740D01*
X89734307Y-137181843D01*
X89734314Y-137181846D01*
X89904220Y-137237052D01*
X89920000Y-137239551D01*
X89920000Y-136170330D01*
X89939745Y-136190075D01*
X90025255Y-136239444D01*
X90120630Y-136265000D01*
X90219370Y-136265000D01*
X90314745Y-136239444D01*
X90400255Y-136190075D01*
X90420000Y-136170330D01*
X90420000Y-137239551D01*
X90435779Y-137237052D01*
X90605685Y-137181846D01*
X90605692Y-137181843D01*
X90764867Y-137100740D01*
X90764870Y-137100738D01*
X90909400Y-136995732D01*
X91035732Y-136869400D01*
X91140738Y-136724870D01*
X91140740Y-136724867D01*
X91221843Y-136565692D01*
X91221846Y-136565685D01*
X91277052Y-136395783D01*
X91277052Y-136395782D01*
X91305000Y-136219327D01*
X91305000Y-136140001D01*
X91304999Y-136140000D01*
X90450330Y-136140000D01*
X90470075Y-136120255D01*
X90519444Y-136034745D01*
X90545000Y-135939370D01*
X90545000Y-135840630D01*
X90519444Y-135745255D01*
X90470075Y-135659745D01*
X90450330Y-135640000D01*
X91304999Y-135640000D01*
X91305000Y-135639999D01*
X91305000Y-135560672D01*
X91277052Y-135384217D01*
X91277052Y-135384216D01*
X91221846Y-135214314D01*
X91221843Y-135214307D01*
X91140740Y-135055132D01*
X91140738Y-135055129D01*
X91035732Y-134910599D01*
X90909400Y-134784267D01*
X90764870Y-134679261D01*
X90764867Y-134679259D01*
X90605692Y-134598156D01*
X90605685Y-134598153D01*
X90435780Y-134542947D01*
X90420000Y-134540447D01*
X90420000Y-135609670D01*
X90400255Y-135589925D01*
X90314745Y-135540556D01*
X90219370Y-135515000D01*
X90120630Y-135515000D01*
X90025255Y-135540556D01*
X89939745Y-135589925D01*
X89920000Y-135609670D01*
X89920000Y-134540447D01*
X89904219Y-134542947D01*
X89734314Y-134598153D01*
X89734307Y-134598156D01*
X89575132Y-134679259D01*
X89575129Y-134679261D01*
X89430599Y-134784267D01*
X89304267Y-134910599D01*
X89251161Y-134983695D01*
X89187651Y-135039182D01*
X89106355Y-135061619D01*
X89023374Y-135046561D01*
X88963855Y-135006307D01*
X88817979Y-134860431D01*
X88651493Y-134749189D01*
X88466501Y-134672563D01*
X88270116Y-134633500D01*
X88069884Y-134633500D01*
X87873498Y-134672563D01*
X87688506Y-134749189D01*
X87522020Y-134860431D01*
X87380431Y-135002020D01*
X87327564Y-135081143D01*
X87266281Y-135139081D01*
X87185928Y-135164692D01*
X87102421Y-135152903D01*
X87032298Y-135106049D01*
X87012436Y-135081143D01*
X86959568Y-135002020D01*
X86817979Y-134860431D01*
X86651493Y-134749189D01*
X86466501Y-134672563D01*
X86270116Y-134633500D01*
X86069884Y-134633500D01*
X85873498Y-134672563D01*
X85688506Y-134749189D01*
X85522020Y-134860431D01*
X85380431Y-135002020D01*
X85327564Y-135081143D01*
X85266281Y-135139081D01*
X85185928Y-135164692D01*
X85102421Y-135152903D01*
X85032298Y-135106049D01*
X85012436Y-135081143D01*
X84959568Y-135002020D01*
X84817979Y-134860431D01*
X84651493Y-134749189D01*
X84466501Y-134672563D01*
X84270116Y-134633500D01*
X84069884Y-134633500D01*
X83873498Y-134672563D01*
X83688506Y-134749189D01*
X83522020Y-134860431D01*
X83380431Y-135002020D01*
X83327564Y-135081143D01*
X83266281Y-135139081D01*
X83185928Y-135164692D01*
X83102421Y-135152903D01*
X83032298Y-135106049D01*
X83012436Y-135081143D01*
X82959568Y-135002020D01*
X82817979Y-134860431D01*
X82651493Y-134749189D01*
X82466501Y-134672563D01*
X82270116Y-134633500D01*
X82069884Y-134633500D01*
X81873498Y-134672563D01*
X81688506Y-134749189D01*
X81522018Y-134860432D01*
X81393850Y-134988600D01*
X81322441Y-135033469D01*
X81238636Y-135042911D01*
X81159033Y-135015057D01*
X81099399Y-134955422D01*
X81096743Y-134951065D01*
X81054983Y-134880451D01*
X81054981Y-134880449D01*
X81054980Y-134880447D01*
X80939553Y-134765020D01*
X80912784Y-134749189D01*
X80799049Y-134681926D01*
X80799048Y-134681925D01*
X80799047Y-134681925D01*
X80642290Y-134636383D01*
X80605660Y-134633500D01*
X79734340Y-134633500D01*
X79716025Y-134634941D01*
X79697709Y-134636383D01*
X79612454Y-134661152D01*
X79550130Y-134679259D01*
X79540950Y-134681926D01*
X79400449Y-134765018D01*
X79285018Y-134880449D01*
X79201926Y-135020950D01*
X79159057Y-135168507D01*
X79156383Y-135177710D01*
X79153500Y-135214340D01*
X71186854Y-135214340D01*
X71186846Y-135214314D01*
X71186843Y-135214307D01*
X71105740Y-135055132D01*
X71105738Y-135055129D01*
X71000732Y-134910599D01*
X70874400Y-134784267D01*
X70729870Y-134679261D01*
X70729867Y-134679259D01*
X70570692Y-134598156D01*
X70570685Y-134598153D01*
X70400780Y-134542947D01*
X70385000Y-134540447D01*
X70385000Y-135609670D01*
X70365255Y-135589925D01*
X70279745Y-135540556D01*
X70184370Y-135515000D01*
X70085630Y-135515000D01*
X69990255Y-135540556D01*
X69904745Y-135589925D01*
X69885000Y-135609670D01*
X69885000Y-134540447D01*
X69869219Y-134542947D01*
X69699314Y-134598153D01*
X69699307Y-134598156D01*
X69540132Y-134679259D01*
X69540129Y-134679261D01*
X69395599Y-134784267D01*
X69269267Y-134910599D01*
X69216161Y-134983695D01*
X69152651Y-135039182D01*
X69071355Y-135061619D01*
X68988374Y-135046561D01*
X68928855Y-135006307D01*
X68782979Y-134860431D01*
X68616493Y-134749189D01*
X68431501Y-134672563D01*
X68235116Y-134633500D01*
X68034884Y-134633500D01*
X67865169Y-134667258D01*
X67780867Y-134664892D01*
X67705940Y-134626184D01*
X67655227Y-134558799D01*
X67638700Y-134481399D01*
X67638700Y-129678599D01*
X67657466Y-129596378D01*
X67710049Y-129530442D01*
X67786032Y-129493850D01*
X67865163Y-129492740D01*
X68034884Y-129526500D01*
X68034887Y-129526500D01*
X68235116Y-129526500D01*
X68431502Y-129487436D01*
X68616493Y-129410810D01*
X68782981Y-129299567D01*
X68924567Y-129157981D01*
X68937217Y-129139049D01*
X68977436Y-129078857D01*
X69038718Y-129020918D01*
X69119071Y-128995307D01*
X69202578Y-129007095D01*
X69272701Y-129053949D01*
X69292564Y-129078857D01*
X69345429Y-129157977D01*
X69487020Y-129299568D01*
X69653506Y-129410810D01*
X69822328Y-129480738D01*
X69838498Y-129487436D01*
X70034884Y-129526500D01*
X70235116Y-129526500D01*
X70431502Y-129487436D01*
X70616493Y-129410810D01*
X70782981Y-129299567D01*
X70924567Y-129157981D01*
X70937217Y-129139049D01*
X70977436Y-129078857D01*
X71038718Y-129020918D01*
X71119071Y-128995307D01*
X71202578Y-129007095D01*
X71272701Y-129053949D01*
X71292564Y-129078857D01*
X71345429Y-129157977D01*
X71487020Y-129299568D01*
X71653506Y-129410810D01*
X71822328Y-129480738D01*
X71838498Y-129487436D01*
X72034884Y-129526500D01*
X72235116Y-129526500D01*
X72431502Y-129487436D01*
X72616493Y-129410810D01*
X72782981Y-129299567D01*
X72924567Y-129157981D01*
X72928855Y-129153693D01*
X73000264Y-129108823D01*
X73084069Y-129099380D01*
X73163672Y-129127234D01*
X73216162Y-129176305D01*
X73269268Y-129249401D01*
X73395599Y-129375732D01*
X73540129Y-129480738D01*
X73540132Y-129480740D01*
X73699307Y-129561843D01*
X73699314Y-129561846D01*
X73869220Y-129617052D01*
X73885000Y-129619551D01*
X73885000Y-128550330D01*
X73904745Y-128570075D01*
X73990255Y-128619444D01*
X74085630Y-128645000D01*
X74184370Y-128645000D01*
X74279745Y-128619444D01*
X74365255Y-128570075D01*
X74385000Y-128550330D01*
X74385000Y-129619551D01*
X74400779Y-129617052D01*
X74570685Y-129561846D01*
X74570692Y-129561843D01*
X74729867Y-129480740D01*
X74729870Y-129480738D01*
X74874400Y-129375732D01*
X75000732Y-129249400D01*
X75105738Y-129104870D01*
X75105740Y-129104867D01*
X75186843Y-128945692D01*
X75186846Y-128945685D01*
X75242052Y-128775783D01*
X75242052Y-128775782D01*
X75270000Y-128599327D01*
X75270000Y-128520001D01*
X75269999Y-128520000D01*
X74415330Y-128520000D01*
X74435075Y-128500255D01*
X74484444Y-128414745D01*
X74510000Y-128319370D01*
X74510000Y-128220630D01*
X74484444Y-128125255D01*
X74435075Y-128039745D01*
X74415330Y-128020000D01*
X75269999Y-128020000D01*
X75270000Y-128019999D01*
X75270000Y-127940672D01*
X75242052Y-127764217D01*
X75242052Y-127764216D01*
X75186846Y-127594314D01*
X75186843Y-127594307D01*
X75105740Y-127435132D01*
X75105738Y-127435129D01*
X75000732Y-127290599D01*
X74874400Y-127164267D01*
X74729870Y-127059261D01*
X74729867Y-127059259D01*
X74570692Y-126978156D01*
X74570685Y-126978153D01*
X74400780Y-126922947D01*
X74385000Y-126920447D01*
X74385000Y-127989670D01*
X74365255Y-127969925D01*
X74279745Y-127920556D01*
X74184370Y-127895000D01*
X74085630Y-127895000D01*
X73990255Y-127920556D01*
X73904745Y-127969925D01*
X73885000Y-127989670D01*
X73885000Y-126920447D01*
X73869219Y-126922947D01*
X73699314Y-126978153D01*
X73699307Y-126978156D01*
X73540132Y-127059259D01*
X73540129Y-127059261D01*
X73395599Y-127164267D01*
X73269267Y-127290599D01*
X73216161Y-127363695D01*
X73152651Y-127419182D01*
X73071355Y-127441619D01*
X72988374Y-127426561D01*
X72928855Y-127386307D01*
X72782979Y-127240431D01*
X72616493Y-127129189D01*
X72431501Y-127052563D01*
X72235116Y-127013500D01*
X72034884Y-127013500D01*
X71838498Y-127052563D01*
X71653506Y-127129189D01*
X71487020Y-127240431D01*
X71345431Y-127382020D01*
X71292564Y-127461143D01*
X71231281Y-127519081D01*
X71150928Y-127544692D01*
X71067421Y-127532903D01*
X70997298Y-127486049D01*
X70977436Y-127461143D01*
X70924568Y-127382020D01*
X70782979Y-127240431D01*
X70616493Y-127129189D01*
X70431501Y-127052563D01*
X70235116Y-127013500D01*
X70034884Y-127013500D01*
X69838498Y-127052563D01*
X69653506Y-127129189D01*
X69487020Y-127240431D01*
X69345431Y-127382020D01*
X69292564Y-127461143D01*
X69231281Y-127519081D01*
X69150928Y-127544692D01*
X69067421Y-127532903D01*
X68997298Y-127486049D01*
X68977436Y-127461143D01*
X68924568Y-127382020D01*
X68782979Y-127240431D01*
X68616493Y-127129189D01*
X68431501Y-127052563D01*
X68235116Y-127013500D01*
X68034884Y-127013500D01*
X67838498Y-127052563D01*
X67653506Y-127129189D01*
X67487020Y-127240431D01*
X67345431Y-127382020D01*
X67292564Y-127461143D01*
X67231281Y-127519081D01*
X67150928Y-127544692D01*
X67067421Y-127532903D01*
X66997298Y-127486049D01*
X66977436Y-127461143D01*
X66924568Y-127382020D01*
X66782979Y-127240431D01*
X66616493Y-127129189D01*
X66431501Y-127052563D01*
X66235116Y-127013500D01*
X66034884Y-127013500D01*
X65838498Y-127052563D01*
X65653506Y-127129189D01*
X65487018Y-127240432D01*
X65358850Y-127368600D01*
X65287441Y-127413469D01*
X65203636Y-127422911D01*
X65124033Y-127395057D01*
X65064399Y-127335422D01*
X65061743Y-127331065D01*
X65019983Y-127260451D01*
X65019981Y-127260449D01*
X65019980Y-127260447D01*
X64904553Y-127145020D01*
X64877784Y-127129189D01*
X64764049Y-127061926D01*
X64764048Y-127061925D01*
X64764047Y-127061925D01*
X64607290Y-127016383D01*
X64570660Y-127013500D01*
X63699340Y-127013500D01*
X63681025Y-127014941D01*
X63662709Y-127016383D01*
X63554001Y-127047965D01*
X63515130Y-127059259D01*
X63505950Y-127061926D01*
X63365449Y-127145018D01*
X63250018Y-127260449D01*
X63166926Y-127400950D01*
X63124057Y-127548507D01*
X63121383Y-127557710D01*
X63118500Y-127594340D01*
X63118500Y-128945660D01*
X63121383Y-128982290D01*
X63132605Y-129020918D01*
X63166926Y-129139049D01*
X63232187Y-129249400D01*
X63250020Y-129279553D01*
X63365447Y-129394980D01*
X63505953Y-129478075D01*
X63662710Y-129523617D01*
X63699340Y-129526500D01*
X63699341Y-129526500D01*
X64455000Y-129526500D01*
X64537221Y-129545266D01*
X64603157Y-129597849D01*
X64639749Y-129673832D01*
X64644500Y-129716000D01*
X64644500Y-134444000D01*
X64625734Y-134526221D01*
X64573151Y-134592157D01*
X64497168Y-134628749D01*
X64455000Y-134633500D01*
X63699340Y-134633500D01*
X63681025Y-134634941D01*
X63662709Y-134636383D01*
X63577454Y-134661152D01*
X63515130Y-134679259D01*
X63505950Y-134681926D01*
X63365449Y-134765018D01*
X63250018Y-134880449D01*
X63166926Y-135020950D01*
X63124057Y-135168507D01*
X63121383Y-135177710D01*
X63118500Y-135214340D01*
X63118500Y-136565660D01*
X63121383Y-136602290D01*
X63132605Y-136640918D01*
X63166926Y-136759049D01*
X63232187Y-136869400D01*
X63250020Y-136899553D01*
X63365447Y-137014980D01*
X63505953Y-137098075D01*
X63662710Y-137143617D01*
X63699340Y-137146500D01*
X63699341Y-137146500D01*
X64455000Y-137146500D01*
X64537221Y-137165266D01*
X64603157Y-137217849D01*
X64639749Y-137293832D01*
X64644500Y-137336000D01*
X64644500Y-142064000D01*
X64625734Y-142146221D01*
X64573151Y-142212157D01*
X64497168Y-142248749D01*
X64455000Y-142253500D01*
X63699340Y-142253500D01*
X63681025Y-142254941D01*
X63662709Y-142256383D01*
X63577454Y-142281152D01*
X63515130Y-142299259D01*
X63505950Y-142301926D01*
X63365449Y-142385018D01*
X63250018Y-142500449D01*
X63166926Y-142640950D01*
X63124057Y-142788507D01*
X63121383Y-142797710D01*
X63118500Y-142834340D01*
X63118500Y-144185660D01*
X63121383Y-144222290D01*
X63132605Y-144260918D01*
X63166926Y-144379049D01*
X63232187Y-144489400D01*
X63250020Y-144519553D01*
X63365447Y-144634980D01*
X63505953Y-144718075D01*
X63662710Y-144763617D01*
X63699340Y-144766500D01*
X63699341Y-144766500D01*
X64455000Y-144766500D01*
X64537221Y-144785266D01*
X64603157Y-144837849D01*
X64639749Y-144913832D01*
X64644500Y-144956000D01*
X64644500Y-158715706D01*
X64625734Y-158797927D01*
X64588997Y-158849703D01*
X63189001Y-160249699D01*
X63189000Y-160249698D01*
X63094702Y-160343997D01*
X63094696Y-160344005D01*
X63028017Y-160459496D01*
X63015607Y-160505813D01*
X62993499Y-160588318D01*
X62993499Y-160588320D01*
X62993499Y-160736951D01*
X62993500Y-160736964D01*
X62993500Y-177748748D01*
X62974734Y-177830969D01*
X62937997Y-177882745D01*
X62880099Y-177940642D01*
X62785635Y-178090979D01*
X62726994Y-178258563D01*
X62707115Y-178435000D01*
X62726994Y-178611436D01*
X62751276Y-178680829D01*
X62785635Y-178779020D01*
X62880098Y-178929356D01*
X63005644Y-179054902D01*
X63155980Y-179149365D01*
X63323566Y-179208006D01*
X63500000Y-179227885D01*
X63544783Y-179222839D01*
X63628586Y-179232280D01*
X63699995Y-179277149D01*
X63744865Y-179348557D01*
X63755500Y-179411147D01*
X63755500Y-179880689D01*
X63755499Y-179880707D01*
X63755499Y-179892318D01*
X63755499Y-180025682D01*
X63764307Y-180058553D01*
X63780609Y-180119394D01*
X63790014Y-180154494D01*
X63790019Y-180154506D01*
X63856694Y-180269992D01*
X63856697Y-180269995D01*
X63856699Y-180269999D01*
X63951001Y-180364301D01*
X63951003Y-180364302D01*
X65145476Y-181558775D01*
X65145497Y-181558798D01*
X65200556Y-181613856D01*
X65246401Y-181659701D01*
X65246403Y-181659702D01*
X65246404Y-181659703D01*
X65317904Y-181700983D01*
X65361894Y-181726381D01*
X65361895Y-181726381D01*
X65361898Y-181726383D01*
X65361900Y-181726383D01*
X65373370Y-181731134D01*
X65372914Y-181732234D01*
X65436345Y-181765754D01*
X65446741Y-181775399D01*
X65545644Y-181874302D01*
X65695980Y-181968765D01*
X65863566Y-182027406D01*
X66040000Y-182047285D01*
X66216434Y-182027406D01*
X66384020Y-181968765D01*
X66534356Y-181874302D01*
X66659902Y-181748756D01*
X66754365Y-181598420D01*
X66813006Y-181430834D01*
X66832885Y-181254400D01*
X66813006Y-181077966D01*
X66777194Y-180975622D01*
X66767752Y-180891822D01*
X66778686Y-180860574D01*
X66783780Y-180802334D01*
X66210234Y-180228787D01*
X66252292Y-180217518D01*
X66377708Y-180145110D01*
X66480110Y-180042708D01*
X66552518Y-179917292D01*
X66563787Y-179875234D01*
X67137333Y-180448779D01*
X67192300Y-180370282D01*
X67205512Y-180341949D01*
X67257268Y-180275362D01*
X67332789Y-180237825D01*
X67417117Y-180236772D01*
X67493552Y-180272413D01*
X67532488Y-180313340D01*
X67641132Y-180468500D01*
X67651852Y-180483809D01*
X67801191Y-180633148D01*
X67801194Y-180633150D01*
X67801195Y-180633151D01*
X67974191Y-180754284D01*
X67974194Y-180754286D01*
X68165605Y-180843542D01*
X68165609Y-180843543D01*
X68165611Y-180843544D01*
X68229169Y-180860574D01*
X68369606Y-180898204D01*
X68580000Y-180916611D01*
X68790394Y-180898204D01*
X68994395Y-180843542D01*
X69185806Y-180754286D01*
X69358809Y-180633148D01*
X69508148Y-180483809D01*
X69629286Y-180310806D01*
X69678255Y-180205790D01*
X69730010Y-180139205D01*
X69805532Y-180101668D01*
X69889860Y-180100617D01*
X69966294Y-180136258D01*
X70019695Y-180201533D01*
X70021726Y-180205752D01*
X70036192Y-180236772D01*
X70070713Y-180310805D01*
X70070715Y-180310808D01*
X70181132Y-180468500D01*
X70191852Y-180483809D01*
X70341191Y-180633148D01*
X70341194Y-180633150D01*
X70341195Y-180633151D01*
X70514191Y-180754284D01*
X70514194Y-180754286D01*
X70705605Y-180843542D01*
X70705609Y-180843543D01*
X70705611Y-180843544D01*
X70769169Y-180860574D01*
X70909606Y-180898204D01*
X71120000Y-180916611D01*
X71330394Y-180898204D01*
X71534395Y-180843542D01*
X71725806Y-180754286D01*
X71898809Y-180633148D01*
X71909077Y-180622879D01*
X71980481Y-180578007D01*
X72064286Y-180568559D01*
X72143890Y-180596409D01*
X72177077Y-180622872D01*
X72755385Y-181201180D01*
X72800254Y-181272589D01*
X72809696Y-181313960D01*
X72820002Y-181405432D01*
X72840328Y-181463520D01*
X72878644Y-181573020D01*
X72973107Y-181723356D01*
X73098653Y-181848902D01*
X73248989Y-181943365D01*
X73416575Y-182002006D01*
X73593009Y-182021885D01*
X73769443Y-182002006D01*
X73937029Y-181943365D01*
X74087365Y-181848902D01*
X74212911Y-181723356D01*
X74307374Y-181573020D01*
X74366015Y-181405434D01*
X74385894Y-181229000D01*
X74366015Y-181052566D01*
X74309870Y-180892113D01*
X74300428Y-180808308D01*
X74328282Y-180728705D01*
X74380042Y-180674297D01*
X74438809Y-180633148D01*
X74448325Y-180623631D01*
X74519728Y-180578759D01*
X74603533Y-180569311D01*
X74683138Y-180597160D01*
X74716325Y-180623624D01*
X75080112Y-180987411D01*
X75124981Y-181058820D01*
X75133511Y-181109027D01*
X75134424Y-181108925D01*
X75135615Y-181119497D01*
X75135615Y-181119500D01*
X75148912Y-181237524D01*
X75155494Y-181295936D01*
X75193809Y-181405432D01*
X75214135Y-181463520D01*
X75308598Y-181613856D01*
X75434144Y-181739402D01*
X75584480Y-181833865D01*
X75752066Y-181892506D01*
X75928500Y-181912385D01*
X76104934Y-181892506D01*
X76272520Y-181833865D01*
X76422856Y-181739402D01*
X76548402Y-181613856D01*
X76642865Y-181463520D01*
X76701506Y-181295934D01*
X76721385Y-181119500D01*
X76721384Y-181119497D01*
X76721385Y-181119495D01*
X76701758Y-180945301D01*
X76711200Y-180861496D01*
X76756069Y-180790087D01*
X76799406Y-180759750D01*
X76798640Y-180758423D01*
X76805798Y-180754289D01*
X76805806Y-180754286D01*
X76978809Y-180633148D01*
X76988325Y-180623631D01*
X77059728Y-180578759D01*
X77143533Y-180569311D01*
X77223138Y-180597160D01*
X77256325Y-180623624D01*
X77645512Y-181012811D01*
X77690381Y-181084220D01*
X77698911Y-181134427D01*
X77699824Y-181134325D01*
X77701015Y-181144897D01*
X77701015Y-181144900D01*
X77714312Y-181262924D01*
X77720894Y-181321336D01*
X77770647Y-181463520D01*
X77779535Y-181488920D01*
X77873998Y-181639256D01*
X77999544Y-181764802D01*
X78149880Y-181859265D01*
X78317466Y-181917906D01*
X78493900Y-181937785D01*
X78670334Y-181917906D01*
X78837920Y-181859265D01*
X78988256Y-181764802D01*
X79113802Y-181639256D01*
X79208265Y-181488920D01*
X79266906Y-181321334D01*
X79286785Y-181144900D01*
X79266906Y-180968466D01*
X79266904Y-180968462D01*
X79266904Y-180968456D01*
X79264538Y-180958088D01*
X79267522Y-180957406D01*
X79260198Y-180892534D01*
X79288033Y-180812925D01*
X79339819Y-180758477D01*
X79345801Y-180754288D01*
X79345806Y-180754286D01*
X79428576Y-180696329D01*
X79506691Y-180664543D01*
X79590862Y-180669797D01*
X79664419Y-180711051D01*
X79671264Y-180717563D01*
X79946485Y-180992784D01*
X79991354Y-181064193D01*
X80000797Y-181147994D01*
X79999715Y-181157597D01*
X80019594Y-181334036D01*
X80064903Y-181463520D01*
X80078235Y-181501620D01*
X80172698Y-181651956D01*
X80298244Y-181777502D01*
X80448580Y-181871965D01*
X80616166Y-181930606D01*
X80792600Y-181950485D01*
X80969034Y-181930606D01*
X81136620Y-181871965D01*
X81286956Y-181777502D01*
X81412502Y-181651956D01*
X81506965Y-181501620D01*
X81565606Y-181334034D01*
X81585485Y-181157600D01*
X81585484Y-181157597D01*
X81585485Y-181157595D01*
X81572489Y-181042252D01*
X81581931Y-180958447D01*
X81626800Y-180887038D01*
X81687512Y-180848361D01*
X81686896Y-180847038D01*
X81694390Y-180843543D01*
X81694395Y-180843542D01*
X81885806Y-180754286D01*
X82058809Y-180633148D01*
X82208148Y-180483809D01*
X82329286Y-180310806D01*
X82378255Y-180205790D01*
X82430010Y-180139205D01*
X82505532Y-180101668D01*
X82589860Y-180100617D01*
X82666294Y-180136258D01*
X82719695Y-180201533D01*
X82721726Y-180205752D01*
X82736192Y-180236772D01*
X82770713Y-180310805D01*
X82770715Y-180310808D01*
X82881132Y-180468500D01*
X82891852Y-180483809D01*
X83041191Y-180633148D01*
X83041194Y-180633150D01*
X83041195Y-180633151D01*
X83214191Y-180754284D01*
X83214194Y-180754286D01*
X83405605Y-180843542D01*
X83405609Y-180843543D01*
X83405611Y-180843544D01*
X83469169Y-180860574D01*
X83609606Y-180898204D01*
X83820000Y-180916611D01*
X84030394Y-180898204D01*
X84234395Y-180843542D01*
X84425806Y-180754286D01*
X84598809Y-180633148D01*
X84748148Y-180483809D01*
X84869286Y-180310806D01*
X84918255Y-180205790D01*
X84970010Y-180139205D01*
X85045532Y-180101668D01*
X85129860Y-180100617D01*
X85206294Y-180136258D01*
X85259695Y-180201533D01*
X85261726Y-180205752D01*
X85276192Y-180236772D01*
X85310713Y-180310805D01*
X85310715Y-180310808D01*
X85421132Y-180468500D01*
X85431852Y-180483809D01*
X85581191Y-180633148D01*
X85581194Y-180633150D01*
X85581195Y-180633151D01*
X85754191Y-180754284D01*
X85754194Y-180754286D01*
X85945605Y-180843542D01*
X85945609Y-180843543D01*
X85945611Y-180843544D01*
X86009169Y-180860574D01*
X86149606Y-180898204D01*
X86360000Y-180916611D01*
X86570394Y-180898204D01*
X86774395Y-180843542D01*
X86965806Y-180754286D01*
X87138809Y-180633148D01*
X87288148Y-180483809D01*
X87409286Y-180310806D01*
X87458255Y-180205790D01*
X87510010Y-180139205D01*
X87585532Y-180101668D01*
X87669860Y-180100617D01*
X87746294Y-180136258D01*
X87799695Y-180201533D01*
X87801726Y-180205752D01*
X87816192Y-180236772D01*
X87850713Y-180310805D01*
X87850715Y-180310808D01*
X87961132Y-180468500D01*
X87971852Y-180483809D01*
X88121191Y-180633148D01*
X88121194Y-180633150D01*
X88121195Y-180633151D01*
X88294191Y-180754284D01*
X88294194Y-180754286D01*
X88485605Y-180843542D01*
X88485609Y-180843543D01*
X88485611Y-180843544D01*
X88549169Y-180860574D01*
X88689606Y-180898204D01*
X88900000Y-180916611D01*
X89110394Y-180898204D01*
X89314395Y-180843542D01*
X89505806Y-180754286D01*
X89678809Y-180633148D01*
X89828148Y-180483809D01*
X89949286Y-180310806D01*
X89998255Y-180205790D01*
X90050010Y-180139205D01*
X90125532Y-180101668D01*
X90209860Y-180100617D01*
X90286294Y-180136258D01*
X90339695Y-180201533D01*
X90341726Y-180205752D01*
X90356192Y-180236772D01*
X90390713Y-180310805D01*
X90390715Y-180310808D01*
X90501132Y-180468500D01*
X90511852Y-180483809D01*
X90661191Y-180633148D01*
X90661194Y-180633150D01*
X90661195Y-180633151D01*
X90834191Y-180754284D01*
X90834194Y-180754286D01*
X91025605Y-180843542D01*
X91025609Y-180843543D01*
X91025611Y-180843544D01*
X91089169Y-180860574D01*
X91229606Y-180898204D01*
X91440000Y-180916611D01*
X91650394Y-180898204D01*
X91854395Y-180843542D01*
X92045806Y-180754286D01*
X92218809Y-180633148D01*
X92368148Y-180483809D01*
X92489286Y-180310806D01*
X92538255Y-180205790D01*
X92590010Y-180139205D01*
X92665532Y-180101668D01*
X92749860Y-180100617D01*
X92826294Y-180136258D01*
X92879695Y-180201533D01*
X92881726Y-180205752D01*
X92896192Y-180236772D01*
X92930713Y-180310805D01*
X92930715Y-180310808D01*
X93041132Y-180468500D01*
X93051852Y-180483809D01*
X93201191Y-180633148D01*
X93201194Y-180633150D01*
X93201195Y-180633151D01*
X93374191Y-180754284D01*
X93374194Y-180754286D01*
X93565605Y-180843542D01*
X93565609Y-180843543D01*
X93565611Y-180843544D01*
X93629169Y-180860574D01*
X93769606Y-180898204D01*
X93980000Y-180916611D01*
X94190394Y-180898204D01*
X94294906Y-180870199D01*
X94379180Y-180867047D01*
X94456479Y-180900772D01*
X94477947Y-180919246D01*
X94838076Y-181279375D01*
X94838097Y-181279398D01*
X94892734Y-181334034D01*
X94939001Y-181380301D01*
X94939004Y-181380303D01*
X94939007Y-181380305D01*
X94982536Y-181405436D01*
X95054498Y-181446983D01*
X95183318Y-181481500D01*
X114788367Y-181481500D01*
X114870588Y-181500266D01*
X114936524Y-181552849D01*
X114973116Y-181628832D01*
X114973116Y-181713168D01*
X114936524Y-181789151D01*
X114922364Y-181804997D01*
X107999871Y-188727490D01*
X107928462Y-188772359D01*
X107865874Y-188782993D01*
X103839112Y-188782993D01*
X103756891Y-188764227D01*
X103705115Y-188727490D01*
X102895198Y-187917573D01*
X102025799Y-187048174D01*
X101769252Y-186843585D01*
X101769250Y-186843584D01*
X101769248Y-186843582D01*
X101769244Y-186843579D01*
X101491414Y-186669007D01*
X101221129Y-186538845D01*
X101195771Y-186526633D01*
X101195767Y-186526631D01*
X101195766Y-186526631D01*
X100886048Y-186418256D01*
X100886044Y-186418255D01*
X100566141Y-186345240D01*
X100566134Y-186345239D01*
X100240074Y-186308500D01*
X100240068Y-186308500D01*
X98260932Y-186308500D01*
X98260925Y-186308500D01*
X97934865Y-186345239D01*
X97934862Y-186345239D01*
X97614953Y-186418256D01*
X97614952Y-186418256D01*
X97305233Y-186526631D01*
X97009585Y-186669007D01*
X96731755Y-186843579D01*
X96731751Y-186843582D01*
X96475206Y-187048169D01*
X96243169Y-187280206D01*
X96038582Y-187536751D01*
X96038579Y-187536755D01*
X95864007Y-187814585D01*
X95721631Y-188110233D01*
X95613256Y-188419952D01*
X95613256Y-188419953D01*
X95540239Y-188739862D01*
X95540239Y-188739865D01*
X95503500Y-189065925D01*
X95503500Y-189394074D01*
X95540239Y-189720134D01*
X95540239Y-189720137D01*
X95613256Y-190040046D01*
X95613256Y-190040047D01*
X95672070Y-190208127D01*
X95721633Y-190349771D01*
X95768303Y-190446682D01*
X95864007Y-190645414D01*
X96038579Y-190923244D01*
X96038582Y-190923248D01*
X96038585Y-190923252D01*
X96243174Y-191179799D01*
X96475201Y-191411826D01*
X96730924Y-191615758D01*
X96731751Y-191616417D01*
X96731755Y-191616420D01*
X97009585Y-191790992D01*
X97009588Y-191790993D01*
X97009589Y-191790994D01*
X97305229Y-191933367D01*
X97614951Y-192041743D01*
X97934860Y-192114760D01*
X98260925Y-192151499D01*
X98260928Y-192151500D01*
X98260932Y-192151500D01*
X98787381Y-192151500D01*
X98869602Y-192170266D01*
X98921378Y-192207003D01*
X100600694Y-193886319D01*
X100850092Y-194085207D01*
X100857244Y-194090910D01*
X100857248Y-194090913D01*
X101135078Y-194265485D01*
X101135081Y-194265486D01*
X101135082Y-194265487D01*
X101430722Y-194407860D01*
X101740444Y-194516236D01*
X101740447Y-194516237D01*
X101823477Y-194535188D01*
X102060353Y-194589254D01*
X102060357Y-194589254D01*
X102060360Y-194589255D01*
X102386416Y-194625992D01*
X102386421Y-194625993D01*
X109110922Y-194625993D01*
X109193143Y-194644759D01*
X109259079Y-194697342D01*
X109295671Y-194773325D01*
X109295671Y-194857661D01*
X109259079Y-194933644D01*
X109244922Y-194949485D01*
X108979171Y-195215238D01*
X108979170Y-195215237D01*
X108767229Y-195427179D01*
X108767224Y-195427185D01*
X108584768Y-195664966D01*
X108434900Y-195924545D01*
X108434895Y-195924554D01*
X108404267Y-195998499D01*
X108404267Y-195998500D01*
X108320197Y-196201461D01*
X108320192Y-196201474D01*
X108286280Y-196328044D01*
X108246874Y-196402607D01*
X108179018Y-196452688D01*
X108103237Y-196468500D01*
X107278787Y-196468500D01*
X107204635Y-196479304D01*
X107204634Y-196479305D01*
X107090257Y-196535222D01*
X107090252Y-196535225D01*
X107000225Y-196625252D01*
X107000222Y-196625257D01*
X106944305Y-196739634D01*
X106944304Y-196739635D01*
X106933500Y-196813787D01*
X106933500Y-201740500D01*
X106914734Y-201822721D01*
X106862151Y-201888657D01*
X106786168Y-201925249D01*
X106744000Y-201930000D01*
X91376000Y-201930000D01*
X91293779Y-201911234D01*
X91227843Y-201858651D01*
X91191251Y-201782668D01*
X91186500Y-201740500D01*
X91186500Y-196813798D01*
X91186499Y-196813787D01*
X91175695Y-196739635D01*
X91175694Y-196739634D01*
X91130621Y-196647438D01*
X91119776Y-196625254D01*
X91029746Y-196535224D01*
X91029740Y-196535221D01*
X90915365Y-196479305D01*
X90915364Y-196479304D01*
X90841212Y-196468500D01*
X90841206Y-196468500D01*
X89471000Y-196468500D01*
X89388779Y-196449734D01*
X89322843Y-196397151D01*
X89286251Y-196321168D01*
X89281500Y-196279000D01*
X89281500Y-194688022D01*
X89265857Y-194589254D01*
X89240835Y-194431273D01*
X89160505Y-194184044D01*
X89083565Y-194033039D01*
X89042491Y-193952426D01*
X89042488Y-193952422D01*
X88932782Y-193801425D01*
X88889694Y-193742120D01*
X88803275Y-193655701D01*
X88705880Y-193558305D01*
X88705880Y-193558306D01*
X82609880Y-187462306D01*
X82609876Y-187462303D01*
X82399577Y-187309511D01*
X82399573Y-187309508D01*
X82167960Y-187191497D01*
X82167959Y-187191496D01*
X82167956Y-187191495D01*
X82089924Y-187166140D01*
X81920729Y-187111165D01*
X81663978Y-187070500D01*
X81663976Y-187070500D01*
X63497024Y-187070500D01*
X63497022Y-187070500D01*
X63240270Y-187111165D01*
X63240269Y-187111165D01*
X62993047Y-187191494D01*
X62993039Y-187191497D01*
X62761426Y-187309508D01*
X62761422Y-187309511D01*
X62551123Y-187462303D01*
X62367305Y-187646121D01*
X62281780Y-187763835D01*
X62218269Y-187819322D01*
X62136972Y-187841757D01*
X62053992Y-187826698D01*
X61985764Y-187777126D01*
X61945801Y-187702860D01*
X61942018Y-187618610D01*
X61944767Y-187605946D01*
X61955080Y-187565223D01*
X61974985Y-187325000D01*
X61955080Y-187084777D01*
X61895906Y-186851106D01*
X61799079Y-186630362D01*
X61667239Y-186428566D01*
X61667235Y-186428561D01*
X61667234Y-186428560D01*
X61503981Y-186251221D01*
X61503977Y-186251217D01*
X61377357Y-186152665D01*
X61313763Y-186103168D01*
X61299763Y-186095592D01*
X61101772Y-185988444D01*
X60873788Y-185910177D01*
X60873775Y-185910173D01*
X60636028Y-185870500D01*
X60636023Y-185870500D01*
X60394977Y-185870500D01*
X60394972Y-185870500D01*
X60157224Y-185910173D01*
X60157211Y-185910177D01*
X59929227Y-185988444D01*
X59717238Y-186103167D01*
X59527022Y-186251217D01*
X59527018Y-186251221D01*
X59363765Y-186428560D01*
X59231919Y-186630365D01*
X59135096Y-186851099D01*
X59135091Y-186851114D01*
X59075920Y-187084776D01*
X59075919Y-187084782D01*
X59056015Y-187325000D01*
X59075919Y-187565217D01*
X59075920Y-187565223D01*
X59135091Y-187798885D01*
X59135096Y-187798900D01*
X59220486Y-187993569D01*
X59231921Y-188019638D01*
X59363761Y-188221434D01*
X59363763Y-188221436D01*
X59363765Y-188221439D01*
X59527018Y-188398778D01*
X59527022Y-188398782D01*
X59592185Y-188449500D01*
X59717237Y-188546832D01*
X59809235Y-188596618D01*
X59929227Y-188661555D01*
X59929230Y-188661556D01*
X59929232Y-188661557D01*
X60157218Y-188739825D01*
X60157224Y-188739826D01*
X60394972Y-188779500D01*
X60394977Y-188779500D01*
X60636028Y-188779500D01*
X60833908Y-188746478D01*
X60873782Y-188739825D01*
X61101768Y-188661557D01*
X61188396Y-188614677D01*
X61285853Y-188561936D01*
X61367096Y-188539307D01*
X61450112Y-188554170D01*
X61518457Y-188603580D01*
X61558596Y-188677751D01*
X61562579Y-188761992D01*
X61529616Y-188839619D01*
X61510042Y-188862593D01*
X61164046Y-189208589D01*
X61164041Y-189208595D01*
X61034753Y-189386546D01*
X61034750Y-189386552D01*
X60934890Y-189582535D01*
X60934886Y-189582546D01*
X60866911Y-189791747D01*
X60832500Y-190009013D01*
X60832500Y-192514986D01*
X60866911Y-192732252D01*
X60911074Y-192868168D01*
X60929519Y-192924937D01*
X60934886Y-192941453D01*
X60934890Y-192941464D01*
X61034751Y-193137450D01*
X61164047Y-193315410D01*
X61319589Y-193470952D01*
X61497549Y-193600248D01*
X61693535Y-193700109D01*
X61693539Y-193700110D01*
X61693546Y-193700114D01*
X61822824Y-193742119D01*
X61902747Y-193768088D01*
X61902748Y-193768088D01*
X61902751Y-193768089D01*
X62120014Y-193802500D01*
X62339986Y-193802500D01*
X62557249Y-193768089D01*
X62766454Y-193700114D01*
X62962449Y-193600249D01*
X63140410Y-193470953D01*
X63245410Y-193365953D01*
X63316818Y-193321083D01*
X63400623Y-193311640D01*
X63480226Y-193339494D01*
X63513404Y-193365952D01*
X63582020Y-193434568D01*
X63748506Y-193545810D01*
X63879934Y-193600249D01*
X63933498Y-193622436D01*
X64129884Y-193661500D01*
X64330116Y-193661500D01*
X64526502Y-193622436D01*
X64711493Y-193545810D01*
X64877981Y-193434567D01*
X65019567Y-193292981D01*
X65022432Y-193288693D01*
X65072436Y-193213857D01*
X65133718Y-193155918D01*
X65214071Y-193130307D01*
X65297578Y-193142095D01*
X65367701Y-193188949D01*
X65387564Y-193213857D01*
X65440429Y-193292977D01*
X65582020Y-193434568D01*
X65748506Y-193545810D01*
X65879934Y-193600249D01*
X65933498Y-193622436D01*
X66129884Y-193661500D01*
X66330116Y-193661500D01*
X66526502Y-193622436D01*
X66711493Y-193545810D01*
X66877981Y-193434567D01*
X67019567Y-193292981D01*
X67022432Y-193288693D01*
X67072436Y-193213857D01*
X67133718Y-193155918D01*
X67214071Y-193130307D01*
X67297578Y-193142095D01*
X67367701Y-193188949D01*
X67387564Y-193213857D01*
X67440429Y-193292977D01*
X67582020Y-193434568D01*
X67748506Y-193545810D01*
X67879934Y-193600249D01*
X67933498Y-193622436D01*
X68129884Y-193661500D01*
X68330116Y-193661500D01*
X68526502Y-193622436D01*
X68711493Y-193545810D01*
X68877981Y-193434567D01*
X69019567Y-193292981D01*
X69022432Y-193288693D01*
X69072436Y-193213857D01*
X69133718Y-193155918D01*
X69214071Y-193130307D01*
X69297578Y-193142095D01*
X69367701Y-193188949D01*
X69387564Y-193213857D01*
X69440429Y-193292977D01*
X69582020Y-193434568D01*
X69748506Y-193545810D01*
X69879934Y-193600249D01*
X69933498Y-193622436D01*
X70129884Y-193661500D01*
X70330116Y-193661500D01*
X70526502Y-193622436D01*
X70711493Y-193545810D01*
X70877981Y-193434567D01*
X71019567Y-193292981D01*
X71023855Y-193288693D01*
X71095264Y-193243823D01*
X71179069Y-193234380D01*
X71258672Y-193262234D01*
X71311162Y-193311305D01*
X71364268Y-193384401D01*
X71490599Y-193510732D01*
X71635126Y-193615736D01*
X71635795Y-193616077D01*
X71636108Y-193616338D01*
X71641481Y-193619631D01*
X71640997Y-193620419D01*
X71700538Y-193670121D01*
X71735421Y-193746905D01*
X71733534Y-193831219D01*
X71695252Y-193906365D01*
X71683772Y-193918926D01*
X69539003Y-196063697D01*
X69539001Y-196063699D01*
X69539000Y-196063698D01*
X69444702Y-196157997D01*
X69444694Y-196158007D01*
X69425821Y-196190698D01*
X69425821Y-196190699D01*
X69378017Y-196273496D01*
X69378017Y-196273498D01*
X69363402Y-196328044D01*
X69363401Y-196328046D01*
X69323994Y-196402609D01*
X69256137Y-196452689D01*
X69180358Y-196468500D01*
X68988287Y-196468500D01*
X68914135Y-196479304D01*
X68914134Y-196479305D01*
X68799757Y-196535222D01*
X68799752Y-196535225D01*
X68713997Y-196620981D01*
X68642588Y-196665850D01*
X68558783Y-196675292D01*
X68479180Y-196647438D01*
X68446003Y-196620981D01*
X68360247Y-196535225D01*
X68360246Y-196535224D01*
X68360240Y-196535221D01*
X68245865Y-196479305D01*
X68245864Y-196479304D01*
X68171712Y-196468500D01*
X68171706Y-196468500D01*
X66448294Y-196468500D01*
X66448287Y-196468500D01*
X66374135Y-196479304D01*
X66374134Y-196479305D01*
X66259757Y-196535222D01*
X66259752Y-196535225D01*
X66173997Y-196620981D01*
X66102588Y-196665850D01*
X66018783Y-196675292D01*
X65939180Y-196647438D01*
X65906003Y-196620981D01*
X65820247Y-196535225D01*
X65820246Y-196535224D01*
X65820240Y-196535221D01*
X65705865Y-196479305D01*
X65705864Y-196479304D01*
X65631712Y-196468500D01*
X65631706Y-196468500D01*
X63908294Y-196468500D01*
X63908287Y-196468500D01*
X63834135Y-196479304D01*
X63834134Y-196479305D01*
X63719757Y-196535222D01*
X63719752Y-196535225D01*
X63633997Y-196620981D01*
X63562588Y-196665850D01*
X63478783Y-196675292D01*
X63399180Y-196647438D01*
X63366003Y-196620981D01*
X63280247Y-196535225D01*
X63280246Y-196535224D01*
X63280240Y-196535221D01*
X63165865Y-196479305D01*
X63165864Y-196479304D01*
X63091712Y-196468500D01*
X63091706Y-196468500D01*
X61368294Y-196468500D01*
X61368287Y-196468500D01*
X61294135Y-196479304D01*
X61294134Y-196479305D01*
X61179757Y-196535222D01*
X61179752Y-196535225D01*
X61093997Y-196620981D01*
X61022588Y-196665850D01*
X60938783Y-196675292D01*
X60859180Y-196647438D01*
X60826003Y-196620981D01*
X60740247Y-196535225D01*
X60740246Y-196535224D01*
X60740240Y-196535221D01*
X60625865Y-196479305D01*
X60625864Y-196479304D01*
X60551712Y-196468500D01*
X60551706Y-196468500D01*
X58828294Y-196468500D01*
X58828287Y-196468500D01*
X58754135Y-196479304D01*
X58754134Y-196479305D01*
X58639757Y-196535222D01*
X58639752Y-196535225D01*
X58549725Y-196625252D01*
X58549722Y-196625257D01*
X58493805Y-196739634D01*
X58493804Y-196739635D01*
X58483000Y-196813787D01*
X58483000Y-200985088D01*
X58464234Y-201067309D01*
X58411651Y-201133245D01*
X58335668Y-201169837D01*
X58251332Y-201169837D01*
X58175349Y-201133245D01*
X58159503Y-201119085D01*
X57650503Y-200610085D01*
X57605634Y-200538676D01*
X57595000Y-200476088D01*
X57595000Y-117900000D01*
X62118680Y-117900000D01*
X62137945Y-118255314D01*
X62195512Y-118606462D01*
X62290708Y-118949327D01*
X62422417Y-119279890D01*
X62589093Y-119594275D01*
X62788783Y-119888796D01*
X63019146Y-120160000D01*
X63019151Y-120160005D01*
X63019153Y-120160007D01*
X63277479Y-120404706D01*
X63560757Y-120620049D01*
X63560770Y-120620058D01*
X63865646Y-120803495D01*
X63865669Y-120803508D01*
X64188606Y-120952914D01*
X64188604Y-120952914D01*
X64365462Y-121012504D01*
X64525816Y-121066534D01*
X64873333Y-121143028D01*
X65227082Y-121181500D01*
X65227085Y-121181500D01*
X65582915Y-121181500D01*
X65582918Y-121181500D01*
X65936667Y-121143028D01*
X66284184Y-121066534D01*
X66621392Y-120952915D01*
X66675216Y-120928013D01*
X66944330Y-120803508D01*
X66944333Y-120803505D01*
X66944340Y-120803503D01*
X67113304Y-120701841D01*
X67249229Y-120620058D01*
X67249233Y-120620055D01*
X67249240Y-120620051D01*
X67532518Y-120404708D01*
X67790854Y-120160000D01*
X68021217Y-119888796D01*
X68220907Y-119594275D01*
X68387583Y-119279890D01*
X68519292Y-118949327D01*
X68614488Y-118606462D01*
X68672055Y-118255314D01*
X68691320Y-117900000D01*
X77993680Y-117900000D01*
X78012945Y-118255314D01*
X78070512Y-118606462D01*
X78165708Y-118949327D01*
X78297417Y-119279890D01*
X78464093Y-119594275D01*
X78663783Y-119888796D01*
X78894146Y-120160000D01*
X78894151Y-120160005D01*
X78894153Y-120160007D01*
X79152479Y-120404706D01*
X79435757Y-120620049D01*
X79435770Y-120620058D01*
X79740646Y-120803495D01*
X79740669Y-120803508D01*
X80063606Y-120952914D01*
X80063604Y-120952914D01*
X80240462Y-121012504D01*
X80400816Y-121066534D01*
X80748333Y-121143028D01*
X81102082Y-121181500D01*
X81102085Y-121181500D01*
X81457915Y-121181500D01*
X81457918Y-121181500D01*
X81811667Y-121143028D01*
X82159184Y-121066534D01*
X82496392Y-120952915D01*
X82550216Y-120928013D01*
X82819330Y-120803508D01*
X82819333Y-120803505D01*
X82819340Y-120803503D01*
X82988304Y-120701841D01*
X83124229Y-120620058D01*
X83124233Y-120620055D01*
X83124240Y-120620051D01*
X83407518Y-120404708D01*
X83665854Y-120160000D01*
X83896217Y-119888796D01*
X84095907Y-119594275D01*
X84262583Y-119279890D01*
X84394292Y-118949327D01*
X84489488Y-118606462D01*
X84547055Y-118255314D01*
X84566320Y-117900000D01*
X93233680Y-117900000D01*
X93252945Y-118255314D01*
X93310512Y-118606462D01*
X93405708Y-118949327D01*
X93537417Y-119279890D01*
X93704093Y-119594275D01*
X93903783Y-119888796D01*
X94134146Y-120160000D01*
X94134151Y-120160005D01*
X94134153Y-120160007D01*
X94392479Y-120404706D01*
X94675757Y-120620049D01*
X94675770Y-120620058D01*
X94980646Y-120803495D01*
X94980669Y-120803508D01*
X95303606Y-120952914D01*
X95303604Y-120952914D01*
X95480462Y-121012504D01*
X95640816Y-121066534D01*
X95988333Y-121143028D01*
X96342082Y-121181500D01*
X96342085Y-121181500D01*
X96697915Y-121181500D01*
X96697918Y-121181500D01*
X97051667Y-121143028D01*
X97399184Y-121066534D01*
X97736392Y-120952915D01*
X97790216Y-120928013D01*
X98059330Y-120803508D01*
X98059333Y-120803505D01*
X98059340Y-120803503D01*
X98228304Y-120701841D01*
X98364229Y-120620058D01*
X98364233Y-120620055D01*
X98364240Y-120620051D01*
X98647518Y-120404708D01*
X98905854Y-120160000D01*
X99136217Y-119888796D01*
X99335907Y-119594275D01*
X99502583Y-119279890D01*
X99634292Y-118949327D01*
X99729488Y-118606462D01*
X99787055Y-118255314D01*
X99806320Y-117900000D01*
X108473680Y-117900000D01*
X108492945Y-118255314D01*
X108550512Y-118606462D01*
X108645708Y-118949327D01*
X108777417Y-119279890D01*
X108944093Y-119594275D01*
X109143783Y-119888796D01*
X109374146Y-120160000D01*
X109374151Y-120160005D01*
X109374153Y-120160007D01*
X109632479Y-120404706D01*
X109915757Y-120620049D01*
X109915770Y-120620058D01*
X110220646Y-120803495D01*
X110220669Y-120803508D01*
X110543606Y-120952914D01*
X110543604Y-120952914D01*
X110720462Y-121012504D01*
X110880816Y-121066534D01*
X111228333Y-121143028D01*
X111582082Y-121181500D01*
X111582085Y-121181500D01*
X111937915Y-121181500D01*
X111937918Y-121181500D01*
X112291667Y-121143028D01*
X112639184Y-121066534D01*
X112976392Y-120952915D01*
X113030216Y-120928013D01*
X113299330Y-120803508D01*
X113299333Y-120803505D01*
X113299340Y-120803503D01*
X113468304Y-120701841D01*
X113604229Y-120620058D01*
X113604233Y-120620055D01*
X113604240Y-120620051D01*
X113887518Y-120404708D01*
X114145854Y-120160000D01*
X114376217Y-119888796D01*
X114575907Y-119594275D01*
X114742583Y-119279890D01*
X114874292Y-118949327D01*
X114969488Y-118606462D01*
X115027055Y-118255314D01*
X115046320Y-117900000D01*
X115027055Y-117544686D01*
X114969488Y-117193538D01*
X114874292Y-116850673D01*
X114742583Y-116520110D01*
X114575907Y-116205725D01*
X114376217Y-115911204D01*
X114145854Y-115640000D01*
X114145846Y-115639992D01*
X113887520Y-115395293D01*
X113604242Y-115179950D01*
X113604229Y-115179941D01*
X113299353Y-114996504D01*
X113299330Y-114996491D01*
X112976393Y-114847085D01*
X112976395Y-114847085D01*
X112639188Y-114733467D01*
X112639185Y-114733466D01*
X112538655Y-114711338D01*
X112291667Y-114656972D01*
X112291662Y-114656971D01*
X112291660Y-114656971D01*
X111937921Y-114618500D01*
X111937918Y-114618500D01*
X111582082Y-114618500D01*
X111582078Y-114618500D01*
X111228339Y-114656971D01*
X111228335Y-114656971D01*
X111228333Y-114656972D01*
X111120140Y-114680787D01*
X110880814Y-114733466D01*
X110880811Y-114733467D01*
X110543605Y-114847085D01*
X110220669Y-114996491D01*
X110220646Y-114996504D01*
X109915770Y-115179941D01*
X109915757Y-115179950D01*
X109632479Y-115395293D01*
X109374153Y-115639992D01*
X109143780Y-115911207D01*
X109084627Y-115998452D01*
X108944093Y-116205725D01*
X108777417Y-116520110D01*
X108645708Y-116850673D01*
X108550512Y-117193538D01*
X108492945Y-117544686D01*
X108473680Y-117900000D01*
X99806320Y-117900000D01*
X99787055Y-117544686D01*
X99729488Y-117193538D01*
X99634292Y-116850673D01*
X99502583Y-116520110D01*
X99335907Y-116205725D01*
X99136217Y-115911204D01*
X98905854Y-115640000D01*
X98905846Y-115639992D01*
X98647520Y-115395293D01*
X98364242Y-115179950D01*
X98364229Y-115179941D01*
X98059353Y-114996504D01*
X98059330Y-114996491D01*
X97736393Y-114847085D01*
X97736395Y-114847085D01*
X97399188Y-114733467D01*
X97399185Y-114733466D01*
X97298655Y-114711338D01*
X97051667Y-114656972D01*
X97051662Y-114656971D01*
X97051660Y-114656971D01*
X96697921Y-114618500D01*
X96697918Y-114618500D01*
X96342082Y-114618500D01*
X96342078Y-114618500D01*
X95988339Y-114656971D01*
X95988335Y-114656971D01*
X95988333Y-114656972D01*
X95880140Y-114680787D01*
X95640814Y-114733466D01*
X95640811Y-114733467D01*
X95303605Y-114847085D01*
X94980669Y-114996491D01*
X94980646Y-114996504D01*
X94675770Y-115179941D01*
X94675757Y-115179950D01*
X94392479Y-115395293D01*
X94134153Y-115639992D01*
X93903780Y-115911207D01*
X93844627Y-115998452D01*
X93704093Y-116205725D01*
X93537417Y-116520110D01*
X93405708Y-116850673D01*
X93310512Y-117193538D01*
X93252945Y-117544686D01*
X93233680Y-117900000D01*
X84566320Y-117900000D01*
X84547055Y-117544686D01*
X84489488Y-117193538D01*
X84394292Y-116850673D01*
X84262583Y-116520110D01*
X84095907Y-116205725D01*
X83896217Y-115911204D01*
X83665854Y-115640000D01*
X83665846Y-115639992D01*
X83407520Y-115395293D01*
X83124242Y-115179950D01*
X83124229Y-115179941D01*
X82819353Y-114996504D01*
X82819330Y-114996491D01*
X82496393Y-114847085D01*
X82496395Y-114847085D01*
X82159188Y-114733467D01*
X82159185Y-114733466D01*
X82058655Y-114711338D01*
X81811667Y-114656972D01*
X81811662Y-114656971D01*
X81811660Y-114656971D01*
X81457921Y-114618500D01*
X81457918Y-114618500D01*
X81102082Y-114618500D01*
X81102078Y-114618500D01*
X80748339Y-114656971D01*
X80748335Y-114656971D01*
X80748333Y-114656972D01*
X80640140Y-114680787D01*
X80400814Y-114733466D01*
X80400811Y-114733467D01*
X80063605Y-114847085D01*
X79740669Y-114996491D01*
X79740646Y-114996504D01*
X79435770Y-115179941D01*
X79435757Y-115179950D01*
X79152479Y-115395293D01*
X78894153Y-115639992D01*
X78663780Y-115911207D01*
X78604627Y-115998452D01*
X78464093Y-116205725D01*
X78297417Y-116520110D01*
X78165708Y-116850673D01*
X78070512Y-117193538D01*
X78012945Y-117544686D01*
X77993680Y-117900000D01*
X68691320Y-117900000D01*
X68672055Y-117544686D01*
X68614488Y-117193538D01*
X68519292Y-116850673D01*
X68387583Y-116520110D01*
X68220907Y-116205725D01*
X68021217Y-115911204D01*
X67790854Y-115640000D01*
X67790846Y-115639992D01*
X67532520Y-115395293D01*
X67249242Y-115179950D01*
X67249229Y-115179941D01*
X66944353Y-114996504D01*
X66944330Y-114996491D01*
X66621393Y-114847085D01*
X66621395Y-114847085D01*
X66284188Y-114733467D01*
X66284185Y-114733466D01*
X66183655Y-114711338D01*
X65936667Y-114656972D01*
X65936662Y-114656971D01*
X65936660Y-114656971D01*
X65582921Y-114618500D01*
X65582918Y-114618500D01*
X65227082Y-114618500D01*
X65227078Y-114618500D01*
X64873339Y-114656971D01*
X64873335Y-114656971D01*
X64873333Y-114656972D01*
X64765140Y-114680787D01*
X64525814Y-114733466D01*
X64525811Y-114733467D01*
X64188605Y-114847085D01*
X63865669Y-114996491D01*
X63865646Y-114996504D01*
X63560770Y-115179941D01*
X63560757Y-115179950D01*
X63277479Y-115395293D01*
X63019153Y-115639992D01*
X62788780Y-115911207D01*
X62729627Y-115998452D01*
X62589093Y-116205725D01*
X62422417Y-116520110D01*
X62290708Y-116850673D01*
X62195512Y-117193538D01*
X62137945Y-117544686D01*
X62118680Y-117900000D01*
X57595000Y-117900000D01*
X57595000Y-104780318D01*
X57595149Y-104775000D01*
X59056015Y-104775000D01*
X59075919Y-105015217D01*
X59075920Y-105015223D01*
X59135091Y-105248885D01*
X59135096Y-105248900D01*
X59157639Y-105300292D01*
X59231921Y-105469638D01*
X59363761Y-105671434D01*
X59363763Y-105671436D01*
X59363765Y-105671439D01*
X59527018Y-105848778D01*
X59527022Y-105848782D01*
X59628317Y-105927623D01*
X59717237Y-105996832D01*
X59809235Y-106046618D01*
X59929227Y-106111555D01*
X59929230Y-106111556D01*
X59929232Y-106111557D01*
X60157218Y-106189825D01*
X60157224Y-106189826D01*
X60394972Y-106229500D01*
X60394977Y-106229500D01*
X60636028Y-106229500D01*
X60833908Y-106196478D01*
X60873782Y-106189825D01*
X61101768Y-106111557D01*
X61313763Y-105996832D01*
X61503982Y-105848778D01*
X61667239Y-105671434D01*
X61799079Y-105469638D01*
X61895906Y-105248894D01*
X61955080Y-105015223D01*
X61974985Y-104775000D01*
X141225015Y-104775000D01*
X141244919Y-105015217D01*
X141244920Y-105015223D01*
X141304091Y-105248885D01*
X141304096Y-105248900D01*
X141326639Y-105300292D01*
X141400921Y-105469638D01*
X141532761Y-105671434D01*
X141532763Y-105671436D01*
X141532765Y-105671439D01*
X141696018Y-105848778D01*
X141696022Y-105848782D01*
X141797317Y-105927623D01*
X141886237Y-105996832D01*
X141978235Y-106046618D01*
X142098227Y-106111555D01*
X142098230Y-106111556D01*
X142098232Y-106111557D01*
X142326218Y-106189825D01*
X142326224Y-106189826D01*
X142563972Y-106229500D01*
X142563977Y-106229500D01*
X142805028Y-106229500D01*
X143002908Y-106196478D01*
X143042782Y-106189825D01*
X143270768Y-106111557D01*
X143482763Y-105996832D01*
X143672982Y-105848778D01*
X143836239Y-105671434D01*
X143968079Y-105469638D01*
X144064906Y-105248894D01*
X144124080Y-105015223D01*
X144143985Y-104775000D01*
X144124080Y-104534777D01*
X144064906Y-104301106D01*
X143968079Y-104080362D01*
X143836239Y-103878566D01*
X143836235Y-103878561D01*
X143836234Y-103878560D01*
X143672981Y-103701221D01*
X143672977Y-103701217D01*
X143546357Y-103602665D01*
X143482763Y-103553168D01*
X143417185Y-103517679D01*
X143270772Y-103438444D01*
X143042788Y-103360177D01*
X143042775Y-103360173D01*
X142805028Y-103320500D01*
X142805023Y-103320500D01*
X142563977Y-103320500D01*
X142563972Y-103320500D01*
X142326224Y-103360173D01*
X142326211Y-103360177D01*
X142098227Y-103438444D01*
X141886238Y-103553167D01*
X141696022Y-103701217D01*
X141696018Y-103701221D01*
X141532765Y-103878560D01*
X141400919Y-104080365D01*
X141304096Y-104301099D01*
X141304091Y-104301114D01*
X141244920Y-104534776D01*
X141244919Y-104534782D01*
X141225015Y-104775000D01*
X61974985Y-104775000D01*
X61955080Y-104534777D01*
X61895906Y-104301106D01*
X61799079Y-104080362D01*
X61667239Y-103878566D01*
X61667235Y-103878561D01*
X61667234Y-103878560D01*
X61503981Y-103701221D01*
X61503977Y-103701217D01*
X61377357Y-103602665D01*
X61313763Y-103553168D01*
X61248185Y-103517679D01*
X61101772Y-103438444D01*
X60873788Y-103360177D01*
X60873775Y-103360173D01*
X60636028Y-103320500D01*
X60636023Y-103320500D01*
X60394977Y-103320500D01*
X60394972Y-103320500D01*
X60157224Y-103360173D01*
X60157211Y-103360177D01*
X59929227Y-103438444D01*
X59717238Y-103553167D01*
X59527022Y-103701217D01*
X59527018Y-103701221D01*
X59363765Y-103878560D01*
X59231919Y-104080365D01*
X59135096Y-104301099D01*
X59135091Y-104301114D01*
X59075920Y-104534776D01*
X59075919Y-104534782D01*
X59056015Y-104775000D01*
X57595149Y-104775000D01*
X57595298Y-104769693D01*
X57612766Y-104458637D01*
X57615145Y-104437519D01*
X57619282Y-104413173D01*
X57666441Y-104135612D01*
X57671170Y-104114898D01*
X57755949Y-103820624D01*
X57762953Y-103800607D01*
X57880150Y-103517666D01*
X57889365Y-103498533D01*
X57987761Y-103320500D01*
X58037498Y-103230506D01*
X58048797Y-103212525D01*
X58226010Y-102962766D01*
X58239243Y-102946173D01*
X58443319Y-102717812D01*
X58458312Y-102702819D01*
X58686673Y-102498743D01*
X58703266Y-102485510D01*
X58953025Y-102308297D01*
X58971006Y-102296998D01*
X59239039Y-102148861D01*
X59258166Y-102139650D01*
X59541107Y-102022453D01*
X59561124Y-102015449D01*
X59855401Y-101930669D01*
X59876112Y-101925941D01*
X60178021Y-101874644D01*
X60199135Y-101872266D01*
X60510193Y-101854797D01*
X60520818Y-101854500D01*
X60560375Y-101854500D01*
X142639625Y-101854500D01*
X142679182Y-101854500D01*
X142689806Y-101854797D01*
G37*
%TD.AperFunction*%
%TA.AperFunction,Conductor*%
G36*
X73252291Y-190392266D02*
G01*
X73318227Y-190444849D01*
X73354819Y-190520832D01*
X73354819Y-190605168D01*
X73350705Y-190619447D01*
X73349995Y-190622556D01*
X73330115Y-190799000D01*
X73349994Y-190975436D01*
X73380441Y-191062446D01*
X73408635Y-191143020D01*
X73496911Y-191283510D01*
X73503099Y-191293357D01*
X73560997Y-191351255D01*
X73605866Y-191422664D01*
X73616500Y-191485252D01*
X73616500Y-191596782D01*
X73597734Y-191679003D01*
X73545151Y-191744939D01*
X73469168Y-191781531D01*
X73384832Y-191781531D01*
X73308849Y-191744939D01*
X73258154Y-191682813D01*
X73200740Y-191570132D01*
X73200738Y-191570129D01*
X73095732Y-191425599D01*
X72969400Y-191299267D01*
X72824870Y-191194261D01*
X72824867Y-191194259D01*
X72665692Y-191113156D01*
X72665685Y-191113153D01*
X72495780Y-191057947D01*
X72480000Y-191055447D01*
X72480000Y-192124670D01*
X72460255Y-192104925D01*
X72374745Y-192055556D01*
X72279370Y-192030000D01*
X72180630Y-192030000D01*
X72085255Y-192055556D01*
X71999745Y-192104925D01*
X71980000Y-192124670D01*
X71980000Y-191055447D01*
X71964219Y-191057947D01*
X71794314Y-191113153D01*
X71794307Y-191113156D01*
X71635132Y-191194259D01*
X71635129Y-191194261D01*
X71490599Y-191299267D01*
X71364267Y-191425599D01*
X71311161Y-191498695D01*
X71247651Y-191554182D01*
X71166355Y-191576619D01*
X71083374Y-191561561D01*
X71023855Y-191521307D01*
X70877979Y-191375431D01*
X70711493Y-191264189D01*
X70526501Y-191187563D01*
X70330116Y-191148500D01*
X70129884Y-191148500D01*
X69933498Y-191187563D01*
X69748506Y-191264189D01*
X69582020Y-191375431D01*
X69440431Y-191517020D01*
X69387564Y-191596143D01*
X69326281Y-191654081D01*
X69245928Y-191679692D01*
X69162421Y-191667903D01*
X69092298Y-191621049D01*
X69072436Y-191596143D01*
X69019568Y-191517020D01*
X68877979Y-191375431D01*
X68711493Y-191264189D01*
X68526501Y-191187563D01*
X68330116Y-191148500D01*
X68129884Y-191148500D01*
X67933498Y-191187563D01*
X67748506Y-191264189D01*
X67582020Y-191375431D01*
X67440431Y-191517020D01*
X67387564Y-191596143D01*
X67326281Y-191654081D01*
X67245928Y-191679692D01*
X67162421Y-191667903D01*
X67092298Y-191621049D01*
X67072436Y-191596143D01*
X67019568Y-191517020D01*
X66877979Y-191375431D01*
X66711493Y-191264189D01*
X66526501Y-191187563D01*
X66330116Y-191148500D01*
X66129884Y-191148500D01*
X65933498Y-191187563D01*
X65748506Y-191264189D01*
X65582020Y-191375431D01*
X65440431Y-191517020D01*
X65387564Y-191596143D01*
X65326281Y-191654081D01*
X65245928Y-191679692D01*
X65162421Y-191667903D01*
X65092298Y-191621049D01*
X65072436Y-191596143D01*
X65019568Y-191517020D01*
X64877979Y-191375431D01*
X64711493Y-191264189D01*
X64526501Y-191187563D01*
X64330116Y-191148500D01*
X64129884Y-191148500D01*
X63933500Y-191187562D01*
X63889518Y-191205781D01*
X63806374Y-191219907D01*
X63725334Y-191196559D01*
X63662451Y-191140362D01*
X63630177Y-191062446D01*
X63627500Y-191030705D01*
X63627500Y-190776357D01*
X63646266Y-190694136D01*
X63683003Y-190642360D01*
X63896360Y-190429003D01*
X63967769Y-190384134D01*
X64030357Y-190373500D01*
X73170070Y-190373500D01*
X73252291Y-190392266D01*
G37*
%TD.AperFunction*%
%TA.AperFunction,Conductor*%
G36*
X68067482Y-164677292D02*
G01*
X68139890Y-164802708D01*
X68242292Y-164905110D01*
X68367708Y-164977518D01*
X68409765Y-164988787D01*
X67836218Y-165562334D01*
X67914712Y-165617298D01*
X67943051Y-165630512D01*
X68009638Y-165682268D01*
X68047175Y-165757789D01*
X68048228Y-165842117D01*
X68012587Y-165918552D01*
X67971660Y-165957488D01*
X67801195Y-166076848D01*
X67651849Y-166226194D01*
X67530712Y-166399198D01*
X67530710Y-166399201D01*
X67441459Y-166590601D01*
X67441457Y-166590606D01*
X67386795Y-166794608D01*
X67386795Y-166794609D01*
X67368389Y-167005000D01*
X67386795Y-167215390D01*
X67386795Y-167215391D01*
X67441455Y-167419388D01*
X67441457Y-167419393D01*
X67441458Y-167419395D01*
X67530714Y-167610806D01*
X67651852Y-167783809D01*
X67801191Y-167933148D01*
X67974194Y-168054286D01*
X68165605Y-168143542D01*
X68165609Y-168143543D01*
X68165611Y-168143544D01*
X68251829Y-168166645D01*
X68369606Y-168198204D01*
X68580000Y-168216611D01*
X68790394Y-168198204D01*
X68994395Y-168143542D01*
X69185806Y-168054286D01*
X69358809Y-167933148D01*
X69508148Y-167783809D01*
X69629286Y-167610806D01*
X69718542Y-167419395D01*
X69773204Y-167215394D01*
X69791611Y-167005000D01*
X69773204Y-166794606D01*
X69718542Y-166590605D01*
X69629286Y-166399195D01*
X69508148Y-166226191D01*
X69358809Y-166076852D01*
X69358805Y-166076849D01*
X69358804Y-166076848D01*
X69188340Y-165957488D01*
X69131753Y-165894956D01*
X69107901Y-165814063D01*
X69121509Y-165730833D01*
X69169882Y-165661750D01*
X69216949Y-165630512D01*
X69245282Y-165617300D01*
X69323780Y-165562333D01*
X68750234Y-164988787D01*
X68792292Y-164977518D01*
X68917708Y-164905110D01*
X69020110Y-164802708D01*
X69092518Y-164677292D01*
X69103787Y-164635234D01*
X69677333Y-165208779D01*
X69732300Y-165130282D01*
X69745512Y-165101949D01*
X69797268Y-165035362D01*
X69872789Y-164997825D01*
X69957117Y-164996772D01*
X70033552Y-165032413D01*
X70072488Y-165073340D01*
X70167323Y-165208779D01*
X70191852Y-165243809D01*
X70341191Y-165393148D01*
X70341194Y-165393150D01*
X70341195Y-165393151D01*
X70513467Y-165513777D01*
X70514194Y-165514286D01*
X70705605Y-165603542D01*
X70705609Y-165603543D01*
X70705611Y-165603544D01*
X70791829Y-165626645D01*
X70909606Y-165658204D01*
X71120000Y-165676611D01*
X71330394Y-165658204D01*
X71534395Y-165603542D01*
X71603137Y-165571487D01*
X71613914Y-165566462D01*
X71696363Y-165548722D01*
X71778343Y-165568512D01*
X71843619Y-165621912D01*
X71879260Y-165698346D01*
X71883500Y-165738207D01*
X71883500Y-178431792D01*
X71864734Y-178514013D01*
X71812151Y-178579949D01*
X71736168Y-178616541D01*
X71651832Y-178616541D01*
X71613916Y-178603538D01*
X71534393Y-178566457D01*
X71330391Y-178511795D01*
X71120000Y-178493389D01*
X70909609Y-178511795D01*
X70909608Y-178511795D01*
X70705606Y-178566457D01*
X70705601Y-178566459D01*
X70514201Y-178655710D01*
X70514198Y-178655712D01*
X70341194Y-178776849D01*
X70191849Y-178926194D01*
X70070712Y-179099198D01*
X70070710Y-179099201D01*
X70021745Y-179204207D01*
X69969989Y-179270794D01*
X69894467Y-179308330D01*
X69810138Y-179309381D01*
X69733705Y-179273739D01*
X69680304Y-179208464D01*
X69678255Y-179204207D01*
X69629289Y-179099201D01*
X69629287Y-179099198D01*
X69629286Y-179099195D01*
X69508148Y-178926191D01*
X69358809Y-178776852D01*
X69358805Y-178776849D01*
X69358804Y-178776848D01*
X69185808Y-178655715D01*
X69090851Y-178611436D01*
X68994395Y-178566458D01*
X68994393Y-178566457D01*
X68994388Y-178566455D01*
X68790391Y-178511795D01*
X68580000Y-178493389D01*
X68369609Y-178511795D01*
X68369608Y-178511795D01*
X68165606Y-178566457D01*
X68165601Y-178566459D01*
X67974201Y-178655710D01*
X67974198Y-178655712D01*
X67801194Y-178776849D01*
X67651848Y-178926195D01*
X67532488Y-179096660D01*
X67469956Y-179153247D01*
X67389063Y-179177099D01*
X67305833Y-179163491D01*
X67236750Y-179115118D01*
X67205513Y-179068052D01*
X67192301Y-179039720D01*
X67137334Y-178961218D01*
X66563787Y-179534765D01*
X66552518Y-179492708D01*
X66480110Y-179367292D01*
X66377708Y-179264890D01*
X66252292Y-179192482D01*
X66210233Y-179181212D01*
X66783781Y-178607664D01*
X66705285Y-178552700D01*
X66705277Y-178552695D01*
X66495086Y-178454682D01*
X66271046Y-178394650D01*
X66040000Y-178374437D01*
X65808953Y-178394650D01*
X65584913Y-178454682D01*
X65374720Y-178552697D01*
X65296218Y-178607665D01*
X65869766Y-179181212D01*
X65827708Y-179192482D01*
X65702292Y-179264890D01*
X65599890Y-179367292D01*
X65527482Y-179492708D01*
X65516212Y-179534765D01*
X64934332Y-178952885D01*
X64890973Y-178946902D01*
X64820704Y-178900267D01*
X64777629Y-178827761D01*
X64768500Y-178769652D01*
X64768500Y-165354468D01*
X64787266Y-165272247D01*
X64839849Y-165206311D01*
X64915832Y-165169719D01*
X65000168Y-165169719D01*
X65076151Y-165206311D01*
X65105909Y-165237987D01*
X65106530Y-165237467D01*
X65111845Y-165243801D01*
X65111848Y-165243804D01*
X65111852Y-165243809D01*
X65261191Y-165393148D01*
X65261194Y-165393150D01*
X65261195Y-165393151D01*
X65433467Y-165513777D01*
X65434194Y-165514286D01*
X65625605Y-165603542D01*
X65625609Y-165603543D01*
X65625611Y-165603544D01*
X65711829Y-165626645D01*
X65829606Y-165658204D01*
X66040000Y-165676611D01*
X66250394Y-165658204D01*
X66427058Y-165610866D01*
X66454388Y-165603544D01*
X66454388Y-165603543D01*
X66454395Y-165603542D01*
X66645806Y-165514286D01*
X66818809Y-165393148D01*
X66968148Y-165243809D01*
X67087512Y-165073338D01*
X67150043Y-165016753D01*
X67230935Y-164992901D01*
X67314165Y-165006509D01*
X67383249Y-165054881D01*
X67414485Y-165101946D01*
X67427697Y-165130280D01*
X67427700Y-165130285D01*
X67482664Y-165208780D01*
X68056212Y-164635233D01*
X68067482Y-164677292D01*
G37*
%TD.AperFunction*%
%TA.AperFunction,Conductor*%
G36*
X97906294Y-164896258D02*
G01*
X97959695Y-164961533D01*
X97961726Y-164965752D01*
X97976192Y-164996772D01*
X98010713Y-165070805D01*
X98010715Y-165070808D01*
X98107323Y-165208779D01*
X98131852Y-165243809D01*
X98281191Y-165393148D01*
X98281194Y-165393150D01*
X98281195Y-165393151D01*
X98453467Y-165513777D01*
X98454194Y-165514286D01*
X98559210Y-165563255D01*
X98625794Y-165615009D01*
X98663330Y-165690530D01*
X98664383Y-165774859D01*
X98628741Y-165851293D01*
X98563466Y-165904694D01*
X98559209Y-165906744D01*
X98454197Y-165955712D01*
X98281194Y-166076849D01*
X98131849Y-166226194D01*
X98010712Y-166399198D01*
X98010710Y-166399201D01*
X97921459Y-166590601D01*
X97921457Y-166590606D01*
X97866795Y-166794608D01*
X97866795Y-166794609D01*
X97848389Y-167005000D01*
X97866795Y-167215390D01*
X97866795Y-167215391D01*
X97921455Y-167419388D01*
X97921457Y-167419393D01*
X97921458Y-167419395D01*
X98010714Y-167610806D01*
X98131852Y-167783809D01*
X98281191Y-167933148D01*
X98454194Y-168054286D01*
X98559210Y-168103255D01*
X98625794Y-168155009D01*
X98663330Y-168230530D01*
X98664383Y-168314859D01*
X98628741Y-168391293D01*
X98563466Y-168444694D01*
X98559209Y-168446744D01*
X98454197Y-168495712D01*
X98281194Y-168616849D01*
X98131849Y-168766194D01*
X98010712Y-168939198D01*
X98010710Y-168939201D01*
X97921459Y-169130601D01*
X97921457Y-169130606D01*
X97866795Y-169334608D01*
X97866795Y-169334609D01*
X97848389Y-169545000D01*
X97866795Y-169755390D01*
X97866795Y-169755391D01*
X97921455Y-169959388D01*
X97921457Y-169959393D01*
X97921458Y-169959395D01*
X98010714Y-170150806D01*
X98131852Y-170323809D01*
X98281191Y-170473148D01*
X98451661Y-170592512D01*
X98508247Y-170655043D01*
X98532099Y-170735935D01*
X98518491Y-170819165D01*
X98470119Y-170888249D01*
X98423058Y-170919483D01*
X98394720Y-170932698D01*
X98316218Y-170987665D01*
X98889766Y-171561212D01*
X98847708Y-171572482D01*
X98722292Y-171644890D01*
X98619890Y-171747292D01*
X98547482Y-171872708D01*
X98536212Y-171914766D01*
X97962664Y-171341218D01*
X97907697Y-171419720D01*
X97809682Y-171629913D01*
X97749650Y-171853953D01*
X97729437Y-172085000D01*
X97749650Y-172316046D01*
X97809682Y-172540086D01*
X97907695Y-172750277D01*
X97907700Y-172750285D01*
X97962664Y-172828780D01*
X98536212Y-172255233D01*
X98547482Y-172297292D01*
X98619890Y-172422708D01*
X98722292Y-172525110D01*
X98847708Y-172597518D01*
X98889765Y-172608787D01*
X98316218Y-173182334D01*
X98394712Y-173237298D01*
X98423051Y-173250512D01*
X98489638Y-173302268D01*
X98527175Y-173377789D01*
X98528228Y-173462117D01*
X98492587Y-173538552D01*
X98451660Y-173577488D01*
X98281195Y-173696848D01*
X98131849Y-173846194D01*
X98010712Y-174019198D01*
X98010710Y-174019201D01*
X97921459Y-174210601D01*
X97921457Y-174210606D01*
X97866795Y-174414608D01*
X97866795Y-174414609D01*
X97848389Y-174625000D01*
X97866795Y-174835390D01*
X97866795Y-174835391D01*
X97921455Y-175039388D01*
X97921457Y-175039393D01*
X97921458Y-175039395D01*
X98010714Y-175230806D01*
X98131852Y-175403809D01*
X98281191Y-175553148D01*
X98281194Y-175553150D01*
X98281195Y-175553151D01*
X98446265Y-175668734D01*
X98454194Y-175674286D01*
X98559210Y-175723255D01*
X98625794Y-175775009D01*
X98663330Y-175850530D01*
X98664383Y-175934859D01*
X98628741Y-176011293D01*
X98563466Y-176064694D01*
X98559209Y-176066744D01*
X98454197Y-176115712D01*
X98281194Y-176236849D01*
X98131849Y-176386194D01*
X98010712Y-176559198D01*
X98010710Y-176559201D01*
X97921459Y-176750601D01*
X97921457Y-176750606D01*
X97866795Y-176954608D01*
X97866795Y-176954609D01*
X97848389Y-177165000D01*
X97866795Y-177375390D01*
X97866795Y-177375391D01*
X97921455Y-177579388D01*
X98010715Y-177770808D01*
X98129635Y-177940644D01*
X98131852Y-177943809D01*
X98281191Y-178093148D01*
X98281194Y-178093150D01*
X98281195Y-178093151D01*
X98383369Y-178164694D01*
X98454194Y-178214286D01*
X98559210Y-178263255D01*
X98625794Y-178315009D01*
X98663330Y-178390530D01*
X98664383Y-178474859D01*
X98628741Y-178551293D01*
X98563466Y-178604694D01*
X98559209Y-178606744D01*
X98454197Y-178655712D01*
X98281194Y-178776849D01*
X98131849Y-178926194D01*
X98010712Y-179099198D01*
X98010710Y-179099201D01*
X97961745Y-179204207D01*
X97909989Y-179270794D01*
X97834467Y-179308330D01*
X97750138Y-179309381D01*
X97673705Y-179273739D01*
X97620304Y-179208464D01*
X97618255Y-179204207D01*
X97569289Y-179099201D01*
X97569287Y-179099198D01*
X97569286Y-179099195D01*
X97448148Y-178926191D01*
X97298809Y-178776852D01*
X97298805Y-178776849D01*
X97298804Y-178776848D01*
X97125808Y-178655715D01*
X97030851Y-178611436D01*
X96934395Y-178566458D01*
X96934393Y-178566457D01*
X96934388Y-178566455D01*
X96730391Y-178511795D01*
X96520000Y-178493389D01*
X96309609Y-178511795D01*
X96309608Y-178511795D01*
X96105606Y-178566457D01*
X96105601Y-178566459D01*
X95914201Y-178655710D01*
X95914198Y-178655712D01*
X95741194Y-178776849D01*
X95591849Y-178926194D01*
X95470712Y-179099198D01*
X95470710Y-179099201D01*
X95421745Y-179204207D01*
X95369989Y-179270794D01*
X95294467Y-179308330D01*
X95210138Y-179309381D01*
X95133705Y-179273739D01*
X95080304Y-179208464D01*
X95078255Y-179204207D01*
X95029289Y-179099201D01*
X95029287Y-179099198D01*
X95029286Y-179099195D01*
X94908148Y-178926191D01*
X94758809Y-178776852D01*
X94758805Y-178776849D01*
X94758804Y-178776848D01*
X94585808Y-178655715D01*
X94490851Y-178611436D01*
X94394395Y-178566458D01*
X94394393Y-178566457D01*
X94394388Y-178566455D01*
X94190391Y-178511795D01*
X93980000Y-178493389D01*
X93769609Y-178511795D01*
X93769608Y-178511795D01*
X93565606Y-178566457D01*
X93565601Y-178566459D01*
X93374201Y-178655710D01*
X93374198Y-178655712D01*
X93201194Y-178776849D01*
X93051849Y-178926194D01*
X92930712Y-179099198D01*
X92930710Y-179099201D01*
X92881745Y-179204207D01*
X92829989Y-179270794D01*
X92754467Y-179308330D01*
X92670138Y-179309381D01*
X92593705Y-179273739D01*
X92540304Y-179208464D01*
X92538255Y-179204207D01*
X92489289Y-179099201D01*
X92489287Y-179099198D01*
X92489286Y-179099195D01*
X92368148Y-178926191D01*
X92218809Y-178776852D01*
X92218805Y-178776849D01*
X92218804Y-178776848D01*
X92045808Y-178655715D01*
X91950851Y-178611436D01*
X91854395Y-178566458D01*
X91854393Y-178566457D01*
X91854388Y-178566455D01*
X91650391Y-178511795D01*
X91440000Y-178493389D01*
X91229609Y-178511795D01*
X91229608Y-178511795D01*
X91025606Y-178566457D01*
X91025601Y-178566459D01*
X90834201Y-178655710D01*
X90834198Y-178655712D01*
X90661194Y-178776849D01*
X90511849Y-178926194D01*
X90390712Y-179099198D01*
X90390710Y-179099201D01*
X90341745Y-179204207D01*
X90289989Y-179270794D01*
X90214467Y-179308330D01*
X90130138Y-179309381D01*
X90053705Y-179273739D01*
X90000304Y-179208464D01*
X89998255Y-179204207D01*
X89949289Y-179099201D01*
X89949287Y-179099198D01*
X89949286Y-179099195D01*
X89828148Y-178926191D01*
X89678809Y-178776852D01*
X89678805Y-178776849D01*
X89678804Y-178776848D01*
X89505808Y-178655715D01*
X89410851Y-178611436D01*
X89314395Y-178566458D01*
X89314393Y-178566457D01*
X89314388Y-178566455D01*
X89110391Y-178511795D01*
X88900000Y-178493389D01*
X88689609Y-178511795D01*
X88689608Y-178511795D01*
X88485606Y-178566457D01*
X88485601Y-178566459D01*
X88294201Y-178655710D01*
X88294198Y-178655712D01*
X88121194Y-178776849D01*
X87971849Y-178926194D01*
X87850712Y-179099198D01*
X87850710Y-179099201D01*
X87801745Y-179204207D01*
X87749989Y-179270794D01*
X87674467Y-179308330D01*
X87590138Y-179309381D01*
X87513705Y-179273739D01*
X87460304Y-179208464D01*
X87458255Y-179204207D01*
X87409289Y-179099201D01*
X87409287Y-179099198D01*
X87409286Y-179099195D01*
X87288148Y-178926191D01*
X87138809Y-178776852D01*
X87138805Y-178776849D01*
X87138804Y-178776848D01*
X86965808Y-178655715D01*
X86870851Y-178611436D01*
X86774395Y-178566458D01*
X86774393Y-178566457D01*
X86774388Y-178566455D01*
X86570391Y-178511795D01*
X86360000Y-178493389D01*
X86149609Y-178511795D01*
X86149608Y-178511795D01*
X85945606Y-178566457D01*
X85945601Y-178566459D01*
X85754201Y-178655710D01*
X85754198Y-178655712D01*
X85581194Y-178776849D01*
X85431849Y-178926194D01*
X85310712Y-179099198D01*
X85310710Y-179099201D01*
X85261745Y-179204207D01*
X85209989Y-179270794D01*
X85134467Y-179308330D01*
X85050138Y-179309381D01*
X84973705Y-179273739D01*
X84920304Y-179208464D01*
X84918255Y-179204207D01*
X84869289Y-179099201D01*
X84869287Y-179099198D01*
X84869286Y-179099195D01*
X84748148Y-178926191D01*
X84598809Y-178776852D01*
X84598805Y-178776849D01*
X84598804Y-178776848D01*
X84425808Y-178655715D01*
X84330851Y-178611436D01*
X84234395Y-178566458D01*
X84234393Y-178566457D01*
X84234388Y-178566455D01*
X84030391Y-178511795D01*
X83820000Y-178493389D01*
X83609609Y-178511795D01*
X83609608Y-178511795D01*
X83405606Y-178566457D01*
X83405601Y-178566459D01*
X83214201Y-178655710D01*
X83214198Y-178655712D01*
X83041194Y-178776849D01*
X82891849Y-178926194D01*
X82770712Y-179099198D01*
X82770710Y-179099201D01*
X82721745Y-179204207D01*
X82669989Y-179270794D01*
X82594467Y-179308330D01*
X82510138Y-179309381D01*
X82433705Y-179273739D01*
X82380304Y-179208464D01*
X82378255Y-179204207D01*
X82329289Y-179099201D01*
X82329287Y-179099198D01*
X82329286Y-179099195D01*
X82208148Y-178926191D01*
X82058809Y-178776852D01*
X82058805Y-178776849D01*
X82058804Y-178776848D01*
X81885808Y-178655715D01*
X81790851Y-178611436D01*
X81694395Y-178566458D01*
X81694393Y-178566457D01*
X81694388Y-178566455D01*
X81490391Y-178511795D01*
X81280000Y-178493389D01*
X81069609Y-178511795D01*
X81069608Y-178511795D01*
X80865606Y-178566457D01*
X80865601Y-178566459D01*
X80674196Y-178655712D01*
X80673740Y-178655976D01*
X80673419Y-178656074D01*
X80666696Y-178659210D01*
X80666263Y-178658281D01*
X80593150Y-178680829D01*
X80509757Y-178668254D01*
X80440079Y-178620742D01*
X80397915Y-178547703D01*
X80389500Y-178491858D01*
X80389500Y-165678141D01*
X80408266Y-165595920D01*
X80460849Y-165529984D01*
X80536832Y-165493392D01*
X80621168Y-165493392D01*
X80666509Y-165511188D01*
X80666696Y-165510789D01*
X80673104Y-165513777D01*
X80673756Y-165514033D01*
X80674189Y-165514283D01*
X80674191Y-165514283D01*
X80674194Y-165514286D01*
X80865605Y-165603542D01*
X80865609Y-165603543D01*
X80865611Y-165603544D01*
X80951829Y-165626645D01*
X81069606Y-165658204D01*
X81280000Y-165676611D01*
X81490394Y-165658204D01*
X81667058Y-165610866D01*
X81694388Y-165603544D01*
X81694388Y-165603543D01*
X81694395Y-165603542D01*
X81885806Y-165514286D01*
X82058809Y-165393148D01*
X82208148Y-165243809D01*
X82329286Y-165070806D01*
X82378255Y-164965790D01*
X82430010Y-164899205D01*
X82505532Y-164861668D01*
X82589860Y-164860617D01*
X82666294Y-164896258D01*
X82719695Y-164961533D01*
X82721726Y-164965752D01*
X82736192Y-164996772D01*
X82770713Y-165070805D01*
X82770715Y-165070808D01*
X82867323Y-165208779D01*
X82891852Y-165243809D01*
X83041191Y-165393148D01*
X83041194Y-165393150D01*
X83041195Y-165393151D01*
X83213467Y-165513777D01*
X83214194Y-165514286D01*
X83405605Y-165603542D01*
X83405609Y-165603543D01*
X83405611Y-165603544D01*
X83491829Y-165626645D01*
X83609606Y-165658204D01*
X83820000Y-165676611D01*
X84030394Y-165658204D01*
X84207058Y-165610866D01*
X84234388Y-165603544D01*
X84234388Y-165603543D01*
X84234395Y-165603542D01*
X84425806Y-165514286D01*
X84598809Y-165393148D01*
X84748148Y-165243809D01*
X84869286Y-165070806D01*
X84918255Y-164965790D01*
X84970010Y-164899205D01*
X85045532Y-164861668D01*
X85129860Y-164860617D01*
X85206294Y-164896258D01*
X85259695Y-164961533D01*
X85261726Y-164965752D01*
X85276192Y-164996772D01*
X85310713Y-165070805D01*
X85310715Y-165070808D01*
X85407323Y-165208779D01*
X85431852Y-165243809D01*
X85581191Y-165393148D01*
X85581194Y-165393150D01*
X85581195Y-165393151D01*
X85753467Y-165513777D01*
X85754194Y-165514286D01*
X85945605Y-165603542D01*
X85945609Y-165603543D01*
X85945611Y-165603544D01*
X86031829Y-165626645D01*
X86149606Y-165658204D01*
X86360000Y-165676611D01*
X86570394Y-165658204D01*
X86747058Y-165610866D01*
X86774388Y-165603544D01*
X86774388Y-165603543D01*
X86774395Y-165603542D01*
X86965806Y-165514286D01*
X87138809Y-165393148D01*
X87288148Y-165243809D01*
X87409286Y-165070806D01*
X87458255Y-164965790D01*
X87510010Y-164899205D01*
X87585532Y-164861668D01*
X87669860Y-164860617D01*
X87746294Y-164896258D01*
X87799695Y-164961533D01*
X87801726Y-164965752D01*
X87816192Y-164996772D01*
X87850713Y-165070805D01*
X87850715Y-165070808D01*
X87947323Y-165208779D01*
X87971852Y-165243809D01*
X88121191Y-165393148D01*
X88121194Y-165393150D01*
X88121195Y-165393151D01*
X88293467Y-165513777D01*
X88294194Y-165514286D01*
X88485605Y-165603542D01*
X88485609Y-165603543D01*
X88485611Y-165603544D01*
X88571829Y-165626645D01*
X88689606Y-165658204D01*
X88900000Y-165676611D01*
X89110394Y-165658204D01*
X89287058Y-165610866D01*
X89314388Y-165603544D01*
X89314388Y-165603543D01*
X89314395Y-165603542D01*
X89505806Y-165514286D01*
X89678809Y-165393148D01*
X89828148Y-165243809D01*
X89949286Y-165070806D01*
X89998255Y-164965790D01*
X90050010Y-164899205D01*
X90125532Y-164861668D01*
X90209860Y-164860617D01*
X90286294Y-164896258D01*
X90339695Y-164961533D01*
X90341726Y-164965752D01*
X90356192Y-164996772D01*
X90390713Y-165070805D01*
X90390715Y-165070808D01*
X90487323Y-165208779D01*
X90511852Y-165243809D01*
X90661191Y-165393148D01*
X90661194Y-165393150D01*
X90661195Y-165393151D01*
X90833467Y-165513777D01*
X90834194Y-165514286D01*
X91025605Y-165603542D01*
X91025609Y-165603543D01*
X91025611Y-165603544D01*
X91111829Y-165626645D01*
X91229606Y-165658204D01*
X91440000Y-165676611D01*
X91650394Y-165658204D01*
X91827058Y-165610866D01*
X91854388Y-165603544D01*
X91854388Y-165603543D01*
X91854395Y-165603542D01*
X92045806Y-165514286D01*
X92218809Y-165393148D01*
X92368148Y-165243809D01*
X92489286Y-165070806D01*
X92538255Y-164965790D01*
X92590010Y-164899205D01*
X92665532Y-164861668D01*
X92749860Y-164860617D01*
X92826294Y-164896258D01*
X92879695Y-164961533D01*
X92881726Y-164965752D01*
X92896192Y-164996772D01*
X92930713Y-165070805D01*
X92930715Y-165070808D01*
X93027323Y-165208779D01*
X93051852Y-165243809D01*
X93201191Y-165393148D01*
X93201194Y-165393150D01*
X93201195Y-165393151D01*
X93373467Y-165513777D01*
X93374194Y-165514286D01*
X93565605Y-165603542D01*
X93565609Y-165603543D01*
X93565611Y-165603544D01*
X93651829Y-165626645D01*
X93769606Y-165658204D01*
X93980000Y-165676611D01*
X94190394Y-165658204D01*
X94367058Y-165610866D01*
X94394388Y-165603544D01*
X94394388Y-165603543D01*
X94394395Y-165603542D01*
X94585806Y-165514286D01*
X94758809Y-165393148D01*
X94908148Y-165243809D01*
X95029286Y-165070806D01*
X95078255Y-164965790D01*
X95130010Y-164899205D01*
X95205532Y-164861668D01*
X95289860Y-164860617D01*
X95366294Y-164896258D01*
X95419695Y-164961533D01*
X95421726Y-164965752D01*
X95436192Y-164996772D01*
X95470713Y-165070805D01*
X95470715Y-165070808D01*
X95567323Y-165208779D01*
X95591852Y-165243809D01*
X95741191Y-165393148D01*
X95741194Y-165393150D01*
X95741195Y-165393151D01*
X95913467Y-165513777D01*
X95914194Y-165514286D01*
X96105605Y-165603542D01*
X96105609Y-165603543D01*
X96105611Y-165603544D01*
X96191829Y-165626645D01*
X96309606Y-165658204D01*
X96520000Y-165676611D01*
X96730394Y-165658204D01*
X96907058Y-165610866D01*
X96934388Y-165603544D01*
X96934388Y-165603543D01*
X96934395Y-165603542D01*
X97125806Y-165514286D01*
X97298809Y-165393148D01*
X97448148Y-165243809D01*
X97569286Y-165070806D01*
X97618255Y-164965790D01*
X97670010Y-164899205D01*
X97745532Y-164861668D01*
X97829860Y-164860617D01*
X97906294Y-164896258D01*
G37*
%TD.AperFunction*%
%TA.AperFunction,Conductor*%
G36*
X66749151Y-149018095D02*
G01*
X66764997Y-149032255D01*
X66815644Y-149082902D01*
X66965980Y-149177365D01*
X67133566Y-149236006D01*
X67310000Y-149255885D01*
X67310002Y-149255884D01*
X67320576Y-149257076D01*
X67320393Y-149258692D01*
X67390313Y-149274651D01*
X67442089Y-149311388D01*
X71827997Y-153697296D01*
X71872866Y-153768705D01*
X71883500Y-153831293D01*
X71883500Y-163191792D01*
X71864734Y-163274013D01*
X71812151Y-163339949D01*
X71736168Y-163376541D01*
X71651832Y-163376541D01*
X71613916Y-163363538D01*
X71534393Y-163326457D01*
X71330391Y-163271795D01*
X71120000Y-163253389D01*
X70909609Y-163271795D01*
X70909608Y-163271795D01*
X70705606Y-163326457D01*
X70705601Y-163326459D01*
X70514201Y-163415710D01*
X70514198Y-163415712D01*
X70341194Y-163536849D01*
X70191848Y-163686195D01*
X70072488Y-163856660D01*
X70009956Y-163913247D01*
X69929063Y-163937099D01*
X69845833Y-163923491D01*
X69776750Y-163875118D01*
X69745513Y-163828052D01*
X69732301Y-163799720D01*
X69677334Y-163721218D01*
X69103787Y-164294765D01*
X69092518Y-164252708D01*
X69020110Y-164127292D01*
X68917708Y-164024890D01*
X68792292Y-163952482D01*
X68750233Y-163941212D01*
X69323781Y-163367664D01*
X69245285Y-163312700D01*
X69245277Y-163312695D01*
X69035086Y-163214682D01*
X68811046Y-163154650D01*
X68580000Y-163134437D01*
X68348953Y-163154650D01*
X68124913Y-163214682D01*
X67914720Y-163312697D01*
X67836218Y-163367665D01*
X68409766Y-163941212D01*
X68367708Y-163952482D01*
X68242292Y-164024890D01*
X68139890Y-164127292D01*
X68067482Y-164252708D01*
X68056212Y-164294766D01*
X67482664Y-163721218D01*
X67427698Y-163799719D01*
X67414484Y-163828057D01*
X67362726Y-163894643D01*
X67287204Y-163932178D01*
X67202875Y-163933227D01*
X67126442Y-163897584D01*
X67087513Y-163856663D01*
X66968148Y-163686191D01*
X66818809Y-163536852D01*
X66818805Y-163536849D01*
X66818804Y-163536848D01*
X66645808Y-163415715D01*
X66561799Y-163376541D01*
X66454395Y-163326458D01*
X66454393Y-163326457D01*
X66454388Y-163326455D01*
X66250391Y-163271795D01*
X66040000Y-163253389D01*
X65829609Y-163271795D01*
X65829608Y-163271795D01*
X65625606Y-163326457D01*
X65625601Y-163326459D01*
X65434201Y-163415710D01*
X65434198Y-163415712D01*
X65261194Y-163536849D01*
X65111845Y-163686198D01*
X65106530Y-163692533D01*
X65105241Y-163691451D01*
X65050697Y-163740811D01*
X64969804Y-163764663D01*
X64886574Y-163751055D01*
X64817491Y-163702682D01*
X64776237Y-163629125D01*
X64768500Y-163575531D01*
X64768500Y-160817688D01*
X64787266Y-160735467D01*
X64824000Y-160683694D01*
X66245996Y-159261698D01*
X66245999Y-159261697D01*
X66340301Y-159167395D01*
X66406983Y-159051898D01*
X66441500Y-158923078D01*
X66441500Y-149166252D01*
X66460266Y-149084031D01*
X66512849Y-149018095D01*
X66588832Y-148981503D01*
X66673168Y-148981503D01*
X66749151Y-149018095D01*
G37*
%TD.AperFunction*%
%TA.AperFunction,Conductor*%
G36*
X71202578Y-144247095D02*
G01*
X71272701Y-144293949D01*
X71292564Y-144318857D01*
X71345429Y-144397977D01*
X71487020Y-144539568D01*
X71653506Y-144650810D01*
X71822325Y-144720737D01*
X71838498Y-144727436D01*
X72034884Y-144766500D01*
X72235116Y-144766500D01*
X72431502Y-144727436D01*
X72616493Y-144650810D01*
X72616506Y-144650801D01*
X72621579Y-144648090D01*
X72702937Y-144625878D01*
X72785875Y-144641165D01*
X72844914Y-144681213D01*
X76907997Y-148744296D01*
X76952866Y-148815705D01*
X76963500Y-148878293D01*
X76963500Y-163191792D01*
X76944734Y-163274013D01*
X76892151Y-163339949D01*
X76816168Y-163376541D01*
X76731832Y-163376541D01*
X76693916Y-163363538D01*
X76614393Y-163326457D01*
X76410391Y-163271795D01*
X76200000Y-163253389D01*
X75989609Y-163271795D01*
X75989608Y-163271795D01*
X75785606Y-163326457D01*
X75706085Y-163363538D01*
X75623636Y-163381277D01*
X75541656Y-163361487D01*
X75476381Y-163308086D01*
X75440740Y-163231652D01*
X75436500Y-163191792D01*
X75436500Y-155254317D01*
X75427250Y-155219800D01*
X75401983Y-155125498D01*
X75390347Y-155105344D01*
X75335305Y-155010007D01*
X75335303Y-155010004D01*
X75335301Y-155010001D01*
X75334517Y-155009217D01*
X75234398Y-154909097D01*
X75234375Y-154909076D01*
X68697003Y-148371704D01*
X68652134Y-148300295D01*
X68641500Y-148237707D01*
X68641500Y-144735390D01*
X68660266Y-144653169D01*
X68712849Y-144587233D01*
X68725712Y-144577832D01*
X68782981Y-144539567D01*
X68924567Y-144397981D01*
X68937217Y-144379049D01*
X68977436Y-144318857D01*
X69038718Y-144260918D01*
X69119071Y-144235307D01*
X69202578Y-144247095D01*
X69272701Y-144293949D01*
X69292564Y-144318857D01*
X69345429Y-144397977D01*
X69487020Y-144539568D01*
X69653506Y-144650810D01*
X69822325Y-144720737D01*
X69838498Y-144727436D01*
X70034884Y-144766500D01*
X70235116Y-144766500D01*
X70431502Y-144727436D01*
X70616493Y-144650810D01*
X70782981Y-144539567D01*
X70924567Y-144397981D01*
X70937217Y-144379049D01*
X70977436Y-144318857D01*
X71038718Y-144260918D01*
X71119071Y-144235307D01*
X71202578Y-144247095D01*
G37*
%TD.AperFunction*%
%TA.AperFunction,Conductor*%
G36*
X75498079Y-143977502D02*
G01*
X75534882Y-144006181D01*
X79328497Y-147799796D01*
X79373366Y-147871205D01*
X79384000Y-147933793D01*
X79384000Y-163141018D01*
X79365234Y-163223239D01*
X79312651Y-163289175D01*
X79236668Y-163325767D01*
X79152332Y-163325767D01*
X79145455Y-163324061D01*
X78950395Y-163271796D01*
X78950390Y-163271795D01*
X78740000Y-163253389D01*
X78529609Y-163271795D01*
X78529608Y-163271795D01*
X78325606Y-163326457D01*
X78246085Y-163363538D01*
X78163636Y-163381277D01*
X78081656Y-163361487D01*
X78016381Y-163308086D01*
X77980740Y-163231652D01*
X77976500Y-163191792D01*
X77976500Y-148523317D01*
X77960338Y-148463000D01*
X77941983Y-148394498D01*
X77928823Y-148371704D01*
X77875305Y-148279007D01*
X77875303Y-148279004D01*
X77875301Y-148279001D01*
X77834007Y-148237707D01*
X77774398Y-148178097D01*
X77774375Y-148178076D01*
X74640816Y-145044517D01*
X74595947Y-144973108D01*
X74586505Y-144889303D01*
X74614359Y-144809700D01*
X74673993Y-144750066D01*
X74688783Y-144741673D01*
X74729872Y-144720737D01*
X74874400Y-144615732D01*
X75000732Y-144489400D01*
X75105738Y-144344870D01*
X75105740Y-144344867D01*
X75186843Y-144185692D01*
X75186846Y-144185685D01*
X75220660Y-144081619D01*
X75263915Y-144009222D01*
X75334299Y-143962762D01*
X75417871Y-143951441D01*
X75498079Y-143977502D01*
G37*
%TD.AperFunction*%
%TD*%
%TA.AperFunction,Conductor*%
%TO.N,MTR_G*%
G36*
X143122235Y-111393685D02*
G01*
X143139203Y-111406792D01*
X144028807Y-112226164D01*
X144064782Y-112286061D01*
X144068800Y-112317372D01*
X144068800Y-113684838D01*
X144049115Y-113751877D01*
X144032481Y-113772519D01*
X143165184Y-114639815D01*
X143103861Y-114673300D01*
X143077828Y-114676134D01*
X142711476Y-114677095D01*
X142679062Y-114672871D01*
X142651649Y-114665526D01*
X142651633Y-114665523D01*
X142378003Y-114629500D01*
X142378002Y-114629500D01*
X142101998Y-114629500D01*
X142101997Y-114629500D01*
X142023646Y-114639815D01*
X141828356Y-114665525D01*
X141828355Y-114665525D01*
X141828349Y-114665526D01*
X141828348Y-114665526D01*
X141791617Y-114675368D01*
X141759851Y-114679593D01*
X141223999Y-114681000D01*
X139863319Y-116041681D01*
X139801996Y-116075166D01*
X139775638Y-116078000D01*
X136522000Y-116078000D01*
X136454961Y-116058315D01*
X136409206Y-116005511D01*
X136398000Y-115954000D01*
X136398000Y-113462272D01*
X136417685Y-113395233D01*
X136434207Y-113374703D01*
X138337301Y-111466926D01*
X138398583Y-111433366D01*
X138425090Y-111430500D01*
X142378003Y-111430500D01*
X142440133Y-111422320D01*
X142651644Y-111394475D01*
X142701024Y-111381243D01*
X142712291Y-111378225D01*
X142744383Y-111374000D01*
X143055196Y-111374000D01*
X143122235Y-111393685D01*
G37*
%TD.AperFunction*%
%TD*%
M02*
