%TF.GenerationSoftware,KiCad,Pcbnew,8.0.4*%
%TF.CreationDate,2025-03-13T14:26:21-04:00*%
%TF.ProjectId,erie_rov_mainboard,65726965-5f72-46f7-965f-6d61696e626f,rev?*%
%TF.SameCoordinates,Original*%
%TF.FileFunction,Legend,Bot*%
%TF.FilePolarity,Positive*%
%FSLAX46Y46*%
G04 Gerber Fmt 4.6, Leading zero omitted, Abs format (unit mm)*
G04 Created by KiCad (PCBNEW 8.0.4) date 2025-03-13 14:26:21*
%MOMM*%
%LPD*%
G01*
G04 APERTURE LIST*
G04 Aperture macros list*
%AMRoundRect*
0 Rectangle with rounded corners*
0 $1 Rounding radius*
0 $2 $3 $4 $5 $6 $7 $8 $9 X,Y pos of 4 corners*
0 Add a 4 corners polygon primitive as box body*
4,1,4,$2,$3,$4,$5,$6,$7,$8,$9,$2,$3,0*
0 Add four circle primitives for the rounded corners*
1,1,$1+$1,$2,$3*
1,1,$1+$1,$4,$5*
1,1,$1+$1,$6,$7*
1,1,$1+$1,$8,$9*
0 Add four rect primitives between the rounded corners*
20,1,$1+$1,$2,$3,$4,$5,0*
20,1,$1+$1,$4,$5,$6,$7,0*
20,1,$1+$1,$6,$7,$8,$9,0*
20,1,$1+$1,$8,$9,$2,$3,0*%
G04 Aperture macros list end*
%ADD10C,0.150000*%
%ADD11C,0.508000*%
%ADD12C,0.127000*%
%ADD13C,0.100000*%
%ADD14C,0.152400*%
%ADD15C,0.000009*%
%ADD16R,1.651000X5.080000*%
%ADD17R,6.350000X5.080000*%
%ADD18C,5.800000*%
%ADD19RoundRect,0.264583X-0.610417X0.370417X-0.610417X-0.370417X0.610417X-0.370417X0.610417X0.370417X0*%
%ADD20O,1.750000X1.270000*%
%ADD21RoundRect,0.264583X-0.370417X-0.610417X0.370417X-0.610417X0.370417X0.610417X-0.370417X0.610417X0*%
%ADD22O,1.270000X1.750000*%
%ADD23C,1.651000*%
%ADD24C,3.200000*%
%ADD25C,1.219200*%
%ADD26RoundRect,0.102000X2.100000X-1.600000X2.100000X1.600000X-2.100000X1.600000X-2.100000X-1.600000X0*%
%ADD27RoundRect,0.102000X0.710000X-0.500000X0.710000X0.500000X-0.710000X0.500000X-0.710000X-0.500000X0*%
%ADD28RoundRect,0.070000X-0.300000X0.650000X-0.300000X-0.650000X0.300000X-0.650000X0.300000X0.650000X0*%
%ADD29R,1.397000X0.812800*%
G04 APERTURE END LIST*
D10*
X124719330Y-173576237D02*
X124767034Y-173719349D01*
X124767034Y-173719349D02*
X124814738Y-173767052D01*
X124814738Y-173767052D02*
X124910146Y-173814756D01*
X124910146Y-173814756D02*
X125053257Y-173814756D01*
X125053257Y-173814756D02*
X125148665Y-173767052D01*
X125148665Y-173767052D02*
X125196369Y-173719349D01*
X125196369Y-173719349D02*
X125244072Y-173623941D01*
X125244072Y-173623941D02*
X125244072Y-173242311D01*
X125244072Y-173242311D02*
X124242292Y-173242311D01*
X124242292Y-173242311D02*
X124242292Y-173576237D01*
X124242292Y-173576237D02*
X124289996Y-173671645D01*
X124289996Y-173671645D02*
X124337700Y-173719349D01*
X124337700Y-173719349D02*
X124433108Y-173767052D01*
X124433108Y-173767052D02*
X124528515Y-173767052D01*
X124528515Y-173767052D02*
X124623923Y-173719349D01*
X124623923Y-173719349D02*
X124671627Y-173671645D01*
X124671627Y-173671645D02*
X124719330Y-173576237D01*
X124719330Y-173576237D02*
X124719330Y-173242311D01*
X124242292Y-174100979D02*
X124242292Y-174673425D01*
X125244072Y-174387202D02*
X124242292Y-174387202D01*
X125244072Y-175532093D02*
X125244072Y-174959648D01*
X125244072Y-175245871D02*
X124242292Y-175245871D01*
X124242292Y-175245871D02*
X124385404Y-175150463D01*
X124385404Y-175150463D02*
X124480811Y-175055055D01*
X124480811Y-175055055D02*
X124528515Y-174959648D01*
X140662819Y-188555333D02*
X140186628Y-188222000D01*
X140662819Y-187983905D02*
X139662819Y-187983905D01*
X139662819Y-187983905D02*
X139662819Y-188364857D01*
X139662819Y-188364857D02*
X139710438Y-188460095D01*
X139710438Y-188460095D02*
X139758057Y-188507714D01*
X139758057Y-188507714D02*
X139853295Y-188555333D01*
X139853295Y-188555333D02*
X139996152Y-188555333D01*
X139996152Y-188555333D02*
X140091390Y-188507714D01*
X140091390Y-188507714D02*
X140139009Y-188460095D01*
X140139009Y-188460095D02*
X140186628Y-188364857D01*
X140186628Y-188364857D02*
X140186628Y-187983905D01*
X139758057Y-188936286D02*
X139710438Y-188983905D01*
X139710438Y-188983905D02*
X139662819Y-189079143D01*
X139662819Y-189079143D02*
X139662819Y-189317238D01*
X139662819Y-189317238D02*
X139710438Y-189412476D01*
X139710438Y-189412476D02*
X139758057Y-189460095D01*
X139758057Y-189460095D02*
X139853295Y-189507714D01*
X139853295Y-189507714D02*
X139948533Y-189507714D01*
X139948533Y-189507714D02*
X140091390Y-189460095D01*
X140091390Y-189460095D02*
X140662819Y-188888667D01*
X140662819Y-188888667D02*
X140662819Y-189507714D01*
X134728057Y-193384761D02*
X134680438Y-193289523D01*
X134680438Y-193289523D02*
X134585200Y-193194285D01*
X134585200Y-193194285D02*
X134442342Y-193051428D01*
X134442342Y-193051428D02*
X134394723Y-192956190D01*
X134394723Y-192956190D02*
X134394723Y-192860952D01*
X134632819Y-192908571D02*
X134585200Y-192813333D01*
X134585200Y-192813333D02*
X134489961Y-192718095D01*
X134489961Y-192718095D02*
X134299485Y-192670476D01*
X134299485Y-192670476D02*
X133966152Y-192670476D01*
X133966152Y-192670476D02*
X133775676Y-192718095D01*
X133775676Y-192718095D02*
X133680438Y-192813333D01*
X133680438Y-192813333D02*
X133632819Y-192908571D01*
X133632819Y-192908571D02*
X133632819Y-193099047D01*
X133632819Y-193099047D02*
X133680438Y-193194285D01*
X133680438Y-193194285D02*
X133775676Y-193289523D01*
X133775676Y-193289523D02*
X133966152Y-193337142D01*
X133966152Y-193337142D02*
X134299485Y-193337142D01*
X134299485Y-193337142D02*
X134489961Y-193289523D01*
X134489961Y-193289523D02*
X134585200Y-193194285D01*
X134585200Y-193194285D02*
X134632819Y-193099047D01*
X134632819Y-193099047D02*
X134632819Y-192908571D01*
X134632819Y-194289523D02*
X134632819Y-193718095D01*
X134632819Y-194003809D02*
X133632819Y-194003809D01*
X133632819Y-194003809D02*
X133775676Y-193908571D01*
X133775676Y-193908571D02*
X133870914Y-193813333D01*
X133870914Y-193813333D02*
X133918533Y-193718095D01*
X134566819Y-188555333D02*
X134090628Y-188222000D01*
X134566819Y-187983905D02*
X133566819Y-187983905D01*
X133566819Y-187983905D02*
X133566819Y-188364857D01*
X133566819Y-188364857D02*
X133614438Y-188460095D01*
X133614438Y-188460095D02*
X133662057Y-188507714D01*
X133662057Y-188507714D02*
X133757295Y-188555333D01*
X133757295Y-188555333D02*
X133900152Y-188555333D01*
X133900152Y-188555333D02*
X133995390Y-188507714D01*
X133995390Y-188507714D02*
X134043009Y-188460095D01*
X134043009Y-188460095D02*
X134090628Y-188364857D01*
X134090628Y-188364857D02*
X134090628Y-187983905D01*
X134566819Y-189507714D02*
X134566819Y-188936286D01*
X134566819Y-189222000D02*
X133566819Y-189222000D01*
X133566819Y-189222000D02*
X133709676Y-189126762D01*
X133709676Y-189126762D02*
X133804914Y-189031524D01*
X133804914Y-189031524D02*
X133852533Y-188936286D01*
D11*
%TO.C,J6*%
X79515098Y-161290000D02*
G75*
G02*
X78753098Y-161290000I-381000J0D01*
G01*
X78753098Y-161290000D02*
G75*
G02*
X79515098Y-161290000I381000J0D01*
G01*
D12*
%TO.C,BT1*%
X103284000Y-156531460D02*
X103344510Y-156378180D01*
X103284000Y-156544000D02*
X103284000Y-166544000D01*
X103284000Y-166556540D02*
X103344510Y-166709820D01*
X103344510Y-156378180D02*
X103526190Y-156047130D01*
X103344510Y-166709820D02*
X103526190Y-167040870D01*
X103526190Y-156047130D02*
X103665410Y-155803180D01*
X103526190Y-167040870D02*
X103665410Y-167284820D01*
X103665410Y-155803180D02*
X103851150Y-155495060D01*
X103665410Y-167284820D02*
X103851150Y-167592940D01*
X103851150Y-155495060D02*
X104073120Y-155169380D01*
X103851150Y-167592940D02*
X104073120Y-167918620D01*
X104073120Y-155169380D02*
X104253690Y-154916290D01*
X104073120Y-167918620D02*
X104253690Y-168171710D01*
X104253690Y-154916290D02*
X104364950Y-154764520D01*
X104253690Y-168171710D02*
X104364950Y-168323480D01*
X104364950Y-154764520D02*
X104537930Y-154543680D01*
X104364950Y-168323480D02*
X104537930Y-168544320D01*
X104537930Y-154543680D02*
X104698240Y-154350780D01*
X104537930Y-168544320D02*
X104698240Y-168737220D01*
X104698240Y-154350780D02*
X104836630Y-154189810D01*
X104698240Y-168737220D02*
X104836630Y-168898190D01*
X104836630Y-154189810D02*
X105010520Y-153993750D01*
X104836630Y-168898190D02*
X105010520Y-169094250D01*
X105010520Y-153993750D02*
X105223250Y-153769600D01*
X105010520Y-169094250D02*
X105223250Y-169318400D01*
X105223250Y-153769600D02*
X105463640Y-153521820D01*
X105223250Y-169318400D02*
X105463640Y-169566180D01*
X105463640Y-153521820D02*
X106006600Y-153028180D01*
X105463640Y-169566180D02*
X106006600Y-170059820D01*
X106006600Y-153028180D02*
X106475130Y-152646930D01*
X106006600Y-170059820D02*
X106475130Y-170441070D01*
X106475130Y-152646930D02*
X106847780Y-152375650D01*
X106475130Y-170441070D02*
X106847780Y-170712350D01*
X106847780Y-152375650D02*
X107392340Y-152020090D01*
X106847780Y-170712350D02*
X107392340Y-171067910D01*
X107392340Y-152020090D02*
X107690190Y-151843520D01*
X107392340Y-171067910D02*
X107690190Y-171244480D01*
X107690190Y-151843520D02*
X108002190Y-151664180D01*
X107690190Y-171244480D02*
X108002190Y-171423820D01*
X108002190Y-151664180D02*
X108346870Y-151485700D01*
X108002190Y-171423820D02*
X108346870Y-171602300D01*
X108346870Y-151485700D02*
X108745930Y-151301600D01*
X108346870Y-171602300D02*
X108745930Y-171786400D01*
X108745930Y-151301600D02*
X108997460Y-151193900D01*
X108745930Y-171786400D02*
X108997460Y-171894100D01*
X108997460Y-151193900D02*
X109259650Y-151086100D01*
X108997460Y-171894100D02*
X109259650Y-172001900D01*
X109259650Y-151086100D02*
X109602880Y-150963100D01*
X109259650Y-172001900D02*
X109602880Y-172124900D01*
X109602880Y-150963100D02*
X109784000Y-150899000D01*
X109602880Y-172124900D02*
X109784000Y-172189000D01*
X109784000Y-147044000D02*
X110884000Y-147044000D01*
X109784000Y-150899000D02*
X109784000Y-147044000D01*
X109784000Y-172189000D02*
X109784000Y-176044000D01*
X109784000Y-176044000D02*
X110884000Y-176044000D01*
X116784000Y-147044000D02*
X115684000Y-147044000D01*
X116784000Y-150899000D02*
X116784000Y-147044000D01*
X116784000Y-172189000D02*
X116784000Y-176044000D01*
X116784000Y-176044000D02*
X115684000Y-176044000D01*
X116965120Y-150963100D02*
X116784000Y-150899000D01*
X116965120Y-172124900D02*
X116784000Y-172189000D01*
X117308350Y-151086100D02*
X116965120Y-150963100D01*
X117308350Y-172001900D02*
X116965120Y-172124900D01*
X117570540Y-151193900D02*
X117308350Y-151086100D01*
X117570540Y-171894100D02*
X117308350Y-172001900D01*
X117784000Y-175544000D02*
X119784000Y-175544000D01*
X117822070Y-151301600D02*
X117570540Y-151193900D01*
X117822070Y-171786400D02*
X117570540Y-171894100D01*
X118221130Y-151485700D02*
X117822070Y-151301600D01*
X118221130Y-171602300D02*
X117822070Y-171786400D01*
X118565810Y-151664180D02*
X118221130Y-151485700D01*
X118565810Y-171423820D02*
X118221130Y-171602300D01*
X118784000Y-147044000D02*
X118784000Y-148544000D01*
X118784000Y-174544000D02*
X118784000Y-176544000D01*
X118877810Y-151843520D02*
X118565810Y-151664180D01*
X118877810Y-171244480D02*
X118565810Y-171423820D01*
X119175660Y-152020090D02*
X118877810Y-151843520D01*
X119175660Y-171067910D02*
X118877810Y-171244480D01*
X119720220Y-152375650D02*
X119175660Y-152020090D01*
X119720220Y-170712350D02*
X119175660Y-171067910D01*
X120092870Y-152646930D02*
X119720220Y-152375650D01*
X120092870Y-170441070D02*
X119720220Y-170712350D01*
X120561400Y-153028180D02*
X120092870Y-152646930D01*
X120561400Y-170059820D02*
X120092870Y-170441070D01*
X121104360Y-153521820D02*
X120561400Y-153028180D01*
X121104360Y-169566180D02*
X120561400Y-170059820D01*
X121344750Y-153769600D02*
X121104360Y-153521820D01*
X121344750Y-169318400D02*
X121104360Y-169566180D01*
X121557480Y-153993750D02*
X121344750Y-153769600D01*
X121557480Y-169094250D02*
X121344750Y-169318400D01*
X121731370Y-154189810D02*
X121557480Y-153993750D01*
X121731370Y-168898190D02*
X121557480Y-169094250D01*
X121869760Y-154350780D02*
X121731370Y-154189810D01*
X121869760Y-168737220D02*
X121731370Y-168898190D01*
X122030070Y-154543680D02*
X121869760Y-154350780D01*
X122030070Y-168544320D02*
X121869760Y-168737220D01*
X122203050Y-154764520D02*
X122030070Y-154543680D01*
X122203050Y-168323480D02*
X122030070Y-168544320D01*
X122314310Y-154916290D02*
X122203050Y-154764520D01*
X122314310Y-168171710D02*
X122203050Y-168323480D01*
X122494880Y-155169380D02*
X122314310Y-154916290D01*
X122494880Y-167918620D02*
X122314310Y-168171710D01*
X122716850Y-155495060D02*
X122494880Y-155169380D01*
X122716850Y-167592940D02*
X122494880Y-167918620D01*
X122902590Y-155803180D02*
X122716850Y-155495060D01*
X122902590Y-167284820D02*
X122716850Y-167592940D01*
X123041810Y-156047130D02*
X122902590Y-155803180D01*
X123041810Y-167040870D02*
X122902590Y-167284820D01*
X123223490Y-156378180D02*
X123041810Y-156047130D01*
X123223490Y-166709820D02*
X123041810Y-167040870D01*
X123284000Y-156531460D02*
X123223490Y-156378180D01*
X123284000Y-156544000D02*
X123284000Y-166544000D01*
X123284000Y-166556540D02*
X123223490Y-166709820D01*
%TO.C,R2*%
X137730000Y-188683000D02*
X137730000Y-188923000D01*
X139130000Y-188683000D02*
X139130000Y-188923000D01*
D13*
%TO.C,Q1*%
X135256000Y-192556000D02*
X135256000Y-192831000D01*
X135256000Y-193831000D02*
X135256000Y-193456000D01*
X135531000Y-192181000D02*
X135256000Y-192556000D01*
X135556000Y-193831000D02*
X135256000Y-193831000D01*
X135581000Y-191406000D02*
X135581000Y-192181000D01*
X135581000Y-192181000D02*
X135531000Y-192181000D01*
X138206000Y-192181000D02*
X138556000Y-192181000D01*
X138206000Y-193831000D02*
X138331000Y-193831000D01*
X138556000Y-192181000D02*
X138556000Y-192656000D01*
X138556000Y-193381000D02*
X138556000Y-193831000D01*
X138556000Y-193831000D02*
X138256000Y-193831000D01*
D14*
%TO.C,R1*%
X135064500Y-188673950D02*
X135064500Y-188998650D01*
X136715500Y-188998650D02*
X136715500Y-188673950D01*
%TD*%
%LPC*%
D15*
%TO.C,BT1*%
X116884000Y-167144000D02*
X109684000Y-167144000D01*
X109684000Y-155944000D01*
X116884000Y-155944000D01*
X116884000Y-167144000D01*
G36*
X116884000Y-167144000D02*
G01*
X109684000Y-167144000D01*
X109684000Y-155944000D01*
X116884000Y-155944000D01*
X116884000Y-167144000D01*
G37*
%TD*%
D16*
%TO.C,J1*%
X59690000Y-199390000D03*
X62230000Y-199390000D03*
X64770000Y-199390000D03*
X67310000Y-199390000D03*
X69850000Y-199390000D03*
X72390000Y-199390000D03*
X74930000Y-199390000D03*
X77470000Y-199390000D03*
X80010000Y-199390000D03*
X82550000Y-199390000D03*
D17*
X87630000Y-199390000D03*
X95250000Y-199390000D03*
X102870000Y-199390000D03*
X110490000Y-199390000D03*
X118110000Y-199390000D03*
X125730000Y-199390000D03*
X133350000Y-199390000D03*
X140970000Y-199390000D03*
%TD*%
D18*
%TO.C,J2*%
X81280000Y-110700000D03*
X81280000Y-117900000D03*
%TD*%
%TO.C,J5*%
X65405000Y-110700000D03*
X65405000Y-117900000D03*
%TD*%
%TO.C,J4*%
X96520000Y-110700000D03*
X96520000Y-117900000D03*
%TD*%
D19*
%TO.C,J14*%
X97790000Y-138240000D03*
D20*
X97790000Y-140240000D03*
X97790000Y-142240000D03*
%TD*%
D18*
%TO.C,J3*%
X111760000Y-110700000D03*
X111760000Y-117900000D03*
%TD*%
D21*
%TO.C,J10*%
X80170000Y-135890000D03*
D22*
X82170000Y-135890000D03*
X84170000Y-135890000D03*
X86170000Y-135890000D03*
X88170000Y-135890000D03*
X90170000Y-135890000D03*
%TD*%
D21*
%TO.C,J15*%
X62230000Y-192405000D03*
D22*
X64230000Y-192405000D03*
X66230000Y-192405000D03*
X68230000Y-192405000D03*
X70230000Y-192405000D03*
X72230000Y-192405000D03*
%TD*%
D21*
%TO.C,J12*%
X64135000Y-143510000D03*
D22*
X66135000Y-143510000D03*
X68135000Y-143510000D03*
X70135000Y-143510000D03*
X72135000Y-143510000D03*
X74135000Y-143510000D03*
%TD*%
D23*
%TO.C,U1*%
X66040000Y-179705000D03*
X68580000Y-179705000D03*
X71120000Y-179705000D03*
X73660000Y-179705000D03*
X76200000Y-179705000D03*
X78740000Y-179705000D03*
X81280000Y-179705000D03*
X83820000Y-179705000D03*
X86360000Y-179705000D03*
X88900000Y-179705000D03*
X91440000Y-179705000D03*
X93980000Y-179705000D03*
X96520000Y-179705000D03*
X99060000Y-179705000D03*
X99060000Y-177165000D03*
X99060000Y-174625000D03*
X99060000Y-172085000D03*
X99060000Y-169545000D03*
X99060000Y-167005000D03*
X99060000Y-164465000D03*
X96520000Y-164465000D03*
X93980000Y-164465000D03*
X91440000Y-164465000D03*
X88900000Y-164465000D03*
X86360000Y-164465000D03*
X83820000Y-164465000D03*
X81280000Y-164465000D03*
X78740000Y-164465000D03*
X76200000Y-164465000D03*
X73660000Y-164465000D03*
X71120000Y-164465000D03*
X68580000Y-164465000D03*
X66040000Y-164465000D03*
X68580000Y-167005000D03*
%TD*%
D21*
%TO.C,J11*%
X64135000Y-135890000D03*
D22*
X66135000Y-135890000D03*
X68135000Y-135890000D03*
X70135000Y-135890000D03*
%TD*%
D21*
%TO.C,J9*%
X80170000Y-143510000D03*
D22*
X82170000Y-143510000D03*
X84170000Y-143510000D03*
X86170000Y-143510000D03*
X88170000Y-143510000D03*
X90170000Y-143510000D03*
%TD*%
D24*
%TO.C,J7*%
X142240000Y-109530000D03*
X142240000Y-113030000D03*
X142240000Y-116530000D03*
%TD*%
D25*
%TO.C,U3*%
X124460000Y-156421709D03*
X124460000Y-158961709D03*
X124460000Y-161501709D03*
%TD*%
D18*
%TO.C,J8*%
X128270000Y-110700000D03*
X128270000Y-117900000D03*
%TD*%
D21*
%TO.C,J13*%
X64135000Y-128270000D03*
D22*
X66135000Y-128270000D03*
X68135000Y-128270000D03*
X70135000Y-128270000D03*
X72135000Y-128270000D03*
X74135000Y-128270000D03*
%TD*%
D26*
%TO.C,BT1*%
X113284000Y-176194000D03*
X113284000Y-146894000D03*
%TD*%
D27*
%TO.C,R2*%
X138430000Y-189738000D03*
X138430000Y-187868000D03*
%TD*%
D28*
%TO.C,Q1*%
X135956000Y-191956000D03*
X137856000Y-191956000D03*
X136906000Y-194056000D03*
%TD*%
D29*
%TO.C,R1*%
X135890000Y-189712600D03*
X135890000Y-187960000D03*
%TD*%
%LPD*%
M02*
