%TF.GenerationSoftware,KiCad,Pcbnew,8.0.4*%
%TF.CreationDate,2025-03-15T02:55:24-04:00*%
%TF.ProjectId,erie_rov_mainboard,65726965-5f72-46f7-965f-6d61696e626f,rev?*%
%TF.SameCoordinates,Original*%
%TF.FileFunction,Paste,Top*%
%TF.FilePolarity,Positive*%
%FSLAX46Y46*%
G04 Gerber Fmt 4.6, Leading zero omitted, Abs format (unit mm)*
G04 Created by KiCad (PCBNEW 8.0.4) date 2025-03-15 02:55:24*
%MOMM*%
%LPD*%
G01*
G04 APERTURE LIST*
G04 Aperture macros list*
%AMRoundRect*
0 Rectangle with rounded corners*
0 $1 Rounding radius*
0 $2 $3 $4 $5 $6 $7 $8 $9 X,Y pos of 4 corners*
0 Add a 4 corners polygon primitive as box body*
4,1,4,$2,$3,$4,$5,$6,$7,$8,$9,$2,$3,0*
0 Add four circle primitives for the rounded corners*
1,1,$1+$1,$2,$3*
1,1,$1+$1,$4,$5*
1,1,$1+$1,$6,$7*
1,1,$1+$1,$8,$9*
0 Add four rect primitives between the rounded corners*
20,1,$1+$1,$2,$3,$4,$5,0*
20,1,$1+$1,$4,$5,$6,$7,0*
20,1,$1+$1,$6,$7,$8,$9,0*
20,1,$1+$1,$8,$9,$2,$3,0*%
G04 Aperture macros list end*
%ADD10RoundRect,0.100000X-0.637500X-0.100000X0.637500X-0.100000X0.637500X0.100000X-0.637500X0.100000X0*%
%ADD11RoundRect,0.200000X0.750000X0.200000X-0.750000X0.200000X-0.750000X-0.200000X0.750000X-0.200000X0*%
%ADD12RoundRect,0.200000X-0.200000X0.750000X-0.200000X-0.750000X0.200000X-0.750000X0.200000X0.750000X0*%
%ADD13RoundRect,0.250000X-0.450000X0.350000X-0.450000X-0.350000X0.450000X-0.350000X0.450000X0.350000X0*%
%ADD14RoundRect,0.250000X0.450000X-0.350000X0.450000X0.350000X-0.450000X0.350000X-0.450000X-0.350000X0*%
%ADD15RoundRect,0.250000X-0.350000X-0.450000X0.350000X-0.450000X0.350000X0.450000X-0.350000X0.450000X0*%
%ADD16RoundRect,0.250000X0.337500X0.475000X-0.337500X0.475000X-0.337500X-0.475000X0.337500X-0.475000X0*%
%ADD17RoundRect,0.250000X-0.337500X-0.475000X0.337500X-0.475000X0.337500X0.475000X-0.337500X0.475000X0*%
%ADD18RoundRect,0.250000X-0.475000X0.337500X-0.475000X-0.337500X0.475000X-0.337500X0.475000X0.337500X0*%
%ADD19R,5.003800X0.762000*%
%ADD20R,4.495800X8.788400*%
G04 APERTURE END LIST*
D10*
%TO.C,U2*%
X68257500Y-152665000D03*
X68257500Y-153315000D03*
X68257500Y-153965000D03*
X68257500Y-154615000D03*
X68257500Y-155265000D03*
X68257500Y-155915000D03*
X68257500Y-156565000D03*
X68257500Y-157215000D03*
X73982500Y-157215000D03*
X73982500Y-156565000D03*
X73982500Y-155915000D03*
X73982500Y-155265000D03*
X73982500Y-154615000D03*
X73982500Y-153965000D03*
X73982500Y-153315000D03*
X73982500Y-152665000D03*
%TD*%
D11*
%TO.C,Q3*%
X89765000Y-194305000D03*
X89765000Y-192405000D03*
X86765000Y-193355000D03*
%TD*%
D12*
%TO.C,Q2*%
X87310000Y-183920000D03*
X85410000Y-183920000D03*
X86360000Y-186920000D03*
%TD*%
D13*
%TO.C,R5*%
X92075000Y-192421000D03*
X92075000Y-194421000D03*
%TD*%
D14*
%TO.C,R4*%
X91948000Y-184388000D03*
X91948000Y-182388000D03*
%TD*%
%TO.C,R3*%
X89916000Y-184388000D03*
X89916000Y-182388000D03*
%TD*%
D15*
%TO.C,R6*%
X85106000Y-189230000D03*
X87106000Y-189230000D03*
%TD*%
D16*
%TO.C,C3*%
X63732500Y-150495000D03*
X65807500Y-150495000D03*
%TD*%
%TO.C,C1*%
X65807500Y-152654000D03*
X63732500Y-152654000D03*
%TD*%
D17*
%TO.C,C5*%
X72432000Y-150495000D03*
X74507000Y-150495000D03*
%TD*%
D16*
%TO.C,C2*%
X65807500Y-154813000D03*
X63732500Y-154813000D03*
%TD*%
D17*
%TO.C,C4*%
X63732500Y-156972000D03*
X65807500Y-156972000D03*
%TD*%
D18*
%TO.C,C6*%
X84455000Y-191113500D03*
X84455000Y-193188500D03*
%TD*%
D19*
%TO.C,J6*%
X79134098Y-157480000D03*
X79134098Y-156210000D03*
X79134098Y-154940000D03*
X79134098Y-153670000D03*
X79134098Y-152400000D03*
X79134098Y-151130000D03*
D20*
X95184099Y-154305000D03*
%TD*%
M02*
