M48
; DRILL file {KiCad 8.0.4} date 2025-03-15T02:55:24-0400
; FORMAT={-:-/ absolute / inch / decimal}
; #@! TF.CreationDate,2025-03-15T02:55:24-04:00
; #@! TF.GenerationSoftware,Kicad,Pcbnew,8.0.4
; #@! TF.FileFunction,Plated,1,2,PTH
FMAT,2
INCH
; #@! TA.AperFunction,Plated,PTH,ViaDrill
T1C0.0120
; #@! TA.AperFunction,Plated,PTH,ComponentDrill
T2C0.0280
; #@! TA.AperFunction,Plated,PTH,ComponentDrill
T3C0.0295
; #@! TA.AperFunction,Plated,PTH,ComponentDrill
T4C0.0433
; #@! TA.AperFunction,Plated,PTH,ViaDrill
T5C0.0500
; #@! TA.AperFunction,Plated,PTH,ViaDrill
T6C0.1000
; #@! TA.AperFunction,Plated,PTH,ComponentDrill
T7C0.1024
; #@! TA.AperFunction,Plated,PTH,ComponentDrill
T8C0.1732
%
G90
G05
T1
X2.295Y-7.705
X2.305Y-4.195
X2.305Y-7.295
X2.375Y-7.455
X2.445Y-4.045
X2.5Y-6.265
X2.5Y-7.025
X2.515Y-5.86
X2.58Y-6.39
X2.595Y-6.57
X2.6Y-7.136
X2.65Y-5.845
X2.65Y-5.91
X2.675Y-5.43
X2.6777Y-7.1472
X2.69Y-6.99
X2.725Y-5.245
X2.728Y-5.804
X2.74Y-7.26
X2.785Y-6.39
X2.79Y-6.55
X2.795Y-6.9
X2.84Y-7.145
X2.86Y-4.86
X2.86Y-5.865
X2.88Y-5.42
X2.8974Y-7.135
X2.9182Y-7.5118
X2.98Y-6.02
X2.98Y-6.13
X2.9893Y-7.1307
X2.995Y-5.845
X3.0Y-7.52
X3.01Y-4.545
X3.034Y-5.762
X3.035Y-5.575
X3.04Y-5.365
X3.0903Y-7.1317
X3.1Y-7.52
X3.17Y-5.18
X3.18Y-7.52
X3.1808Y-7.1322
X3.185Y-5.895
X3.19Y-6.395
X3.235Y-5.475
X3.2468Y-7.6724
X3.275Y-7.715
X3.3Y-6.355
X3.355Y-7.015
X3.425Y-7.17
X3.43Y-6.22
X3.44Y-5.785
X3.5Y-4.715
X3.55Y-7.71
X3.58Y-5.5
X3.59Y-5.83
X3.6Y-6.385
X3.6Y-6.56
X3.675Y-7.005
X3.675Y-7.375
X3.695Y-5.625
X3.715Y-5.83
X3.77Y-6.31
X3.775Y-5.26
X3.83Y-6.855
X3.83Y-7.005
X3.85Y-5.715
X3.85Y-6.39
X3.885Y-7.295
X3.9Y-7.16
X4.205Y-4.58
X4.725Y-4.76
X4.835Y-5.405
X4.835Y-6.295
X4.95Y-6.71
X4.96Y-6.645
X4.965Y-4.835
X4.965Y-6.07
X4.965Y-6.25
X4.97Y-5.405
X5.39Y-7.32
X5.55Y-4.045
X5.595Y-7.7
X5.69Y-4.2
X5.69Y-7.03
X5.705Y-7.7
T2
X4.9Y-6.1583
X4.9Y-6.2583
X4.9Y-6.3583
T3
X2.45Y-7.575
X2.525Y-5.05
X2.525Y-5.35
X2.525Y-5.65
X2.5287Y-7.575
X2.6037Y-5.05
X2.6037Y-5.35
X2.6037Y-5.65
X2.6075Y-7.575
X2.6825Y-5.05
X2.6825Y-5.35
X2.6825Y-5.65
X2.6862Y-7.575
X2.7612Y-5.05
X2.7612Y-5.35
X2.7612Y-5.65
X2.765Y-7.575
X2.84Y-5.05
X2.84Y-5.65
X2.8437Y-7.575
X2.9187Y-5.05
X2.9187Y-5.65
X3.1563Y-5.35
X3.1563Y-5.65
X3.235Y-5.35
X3.235Y-5.65
X3.3138Y-5.35
X3.3138Y-5.65
X3.3925Y-5.35
X3.3925Y-5.65
X3.4713Y-5.35
X3.4713Y-5.65
X3.55Y-5.35
X3.55Y-5.65
X3.85Y-5.4425
X3.85Y-5.5213
X3.85Y-5.6
T4
X2.6Y-6.475
X2.6Y-7.075
X2.7Y-6.475
X2.7Y-6.575
X2.7Y-7.075
X2.8Y-6.475
X2.8Y-7.075
X2.9Y-6.475
X2.9Y-7.075
X3.0Y-6.475
X3.0Y-7.075
X3.1Y-6.475
X3.1Y-7.075
X3.2Y-6.475
X3.2Y-7.075
X3.3Y-6.475
X3.3Y-7.075
X3.4Y-6.475
X3.4Y-7.075
X3.5Y-6.475
X3.5Y-7.075
X3.6Y-6.475
X3.6Y-7.075
X3.7Y-6.475
X3.7Y-7.075
X3.8Y-6.475
X3.8Y-7.075
X3.9Y-6.475
X3.9Y-6.575
X3.9Y-6.675
X3.9Y-6.775
X3.9Y-6.875
X3.9Y-6.975
X3.9Y-7.075
T5
X2.505Y-7.43
X3.715Y-7.7
X3.825Y-7.7
X5.49Y-7.3
X5.57Y-7.56
T6
X3.875Y-7.45
X4.2974Y-7.5474
T7
X5.6Y-4.3122
X5.6Y-4.45
X5.6Y-4.5878
T8
X2.575Y-4.3583
X2.575Y-4.6417
X3.2Y-4.3583
X3.2Y-4.6417
X3.8Y-4.3583
X3.8Y-4.6417
X4.4Y-4.3583
X4.4Y-4.6417
X5.05Y-4.3583
X5.05Y-4.6417
M30
